<svg xmlns="http://www.w3.org/2000/svg" xml:space="preserve" id="Layer_1" x="0" y="0" viewBox="0 0 118.9 44"><style>.st0{fill:#edeff0}</style><path d="M115.6 14.9v.2h.5v1.4h.2v-1.4h.5v-.2zm3.1 0-.6.9-.6-.9h-.2v1.6h.2v-1.2l.6.9.6-.9v1.2h.2v-1.6zM52.6 22c0-4.3 3.2-7.7 7.8-7.7 2.8 0 4.5.9 5.9 2.3L64.2 19c-1.1-1-2.3-1.7-3.8-1.7-2.5 0-4.3 2.1-4.3 4.6 0 2.6 1.8 4.7 4.3 4.7 1.7 0 2.7-.7 3.9-1.7l2.1 2.1c-1.5 1.6-3.2 2.7-6.1 2.7-4.4 0-7.7-3.4-7.7-7.7M70.1 14.6h3.3v5.8h6.1v-5.8h3.2v14.8h-3.2v-5.9h-6.1v5.9h-3.3zM86.7 14.6H98v2.9h-8v3h7v2.9h-7v3.1h8.1v2.9H86.7zM102.4 14.6h11.3v2.9h-8.1v3.2h7.2v3h-7.2v5.7h-3.2zM22 31.9c-5.5 0-9.9-4.4-9.9-9.9s4.4-9.9 9.9-9.9c4.5 0 8.3 3 9.5 7.2h3.8C34.1 13 28.6 8.4 22 8.4 14.5 8.4 8.4 14.5 8.4 22S14.5 35.6 22 35.6c6.6 0 12.1-4.7 13.4-10.9h-3.8c-1.3 4.2-5.1 7.2-9.6 7.2" class="st0"/><path d="M15.3 28.7c1.7 1.7 4.1 2.8 6.7 2.8v-4c-1.5 0-2.9-.6-3.9-1.6zM12.5 22c0 1.4.3 2.6.8 3.8l3.6-1.6c-.3-.7-.5-1.4-.5-2.2 0-3 2.5-5.5 5.5-5.5v-4c-5.1 0-9.4 4.3-9.4 9.5M25.4 13.2 24 16.9c1.2.5 2.1 1.3 2.8 2.4H31c-.8-2.8-2.9-5.1-5.6-6.1M24 27.1l1.4 3.7c2.7-1 4.8-3.3 5.6-6.1h-4.3c-.6 1.1-1.5 2-2.7 2.4" class="st0"/><path d="M22 40.3c-5 0-9.6-2.1-12.9-5.4l-2.6 2.6c4 4 9.5 6.4 15.6 6.4 11.2 0 20.5-8.4 21.8-19.2h-3.8c-1.4 8.8-9 15.6-18.1 15.6M22 3.7c4.1 0 7.9 1.4 10.9 3.6l2.2-3C31.5 1.6 26.9 0 22 0 12.7 0 4.7 5.8 1.5 14L5 15.4C7.6 8.6 14.3 3.7 22 3.7M40.1 19.3h3.8c-.4-3.2-1.5-6.3-3.2-8.9l-3.2 2c1.3 2 2.2 4.3 2.6 6.9" class="st0"/><path d="M35.8 19.3h3.8c-1-6.3-5.3-11.6-11.1-13.8L27.1 9c4.4 1.6 7.8 5.5 8.7 10.3M22 7.9V4.2c-7.5 0-14 4.7-16.6 11.4l3.5 1.3c2-5.3 7.1-9 13.1-9M7.9 22H4.2c0 7.5 4.6 13.9 11.2 16.5l1.4-3.5c-5.2-2-8.9-7.1-8.9-13M22 36.1v3.7c8.9 0 16.3-6.5 17.6-15.1h-3.8c-1.3 6.5-7 11.4-13.8 11.4" class="st0"/><path d="M1.9 30.9C.6 28 0 25 0 22h3.7c0 2.5.5 5 1.5 7.4z" class="st0"/></svg>