<svg xmlns="http://www.w3.org/2000/svg" xml:space="preserve" id="Layer_1" x="0" y="0" viewBox="0 0 124 45"><style>.st0{fill:#fff}</style><path d="M52.8 22.5c-.1-5 3.9-9.2 8.9-9.3h.5c2.7-.1 5.2.9 7.1 2.8l-2.5 2.9c-1.2-1.2-2.9-2-4.6-2-2.9.1-5.3 2.5-5.2 5.4v.2c-.2 2.9 2.1 5.5 5 5.7h.2c1.8 0 3.5-.8 4.7-2.1l2.5 2.5c-1.8 2.1-4.6 3.3-7.4 3.2-5 .1-9.2-4-9.2-9zM72.6 13.5h4v7.1h7.3v-7.1h4v18h-4v-7.2h-7.3v7.2h-4zM92.6 13.5h13.6V17h-9.6v3.6h8.5v3.5h-8.5V28h9.8v3.5H92.6zM110.3 13.5H124v3.6h-9.7V21h8.6v3.6h-8.6v7h-4zM15.7 29.3c1.8 1.8 4.3 2.8 6.9 2.8V28c-1.5 0-2.9-.6-4-1.6zM26.1 13.5l-1.5 3.7c1.2.5 2.2 1.3 2.9 2.4h4.4c-.9-2.8-3-5-5.8-6.1M12.8 22.5c0 1.4.3 2.7.9 4l3.7-1.6c-.3-.7-.5-1.5-.4-2.3 0-3.1 2.5-5.7 5.6-5.7v-4c-5.4-.1-9.8 4.2-9.8 9.6M24.6 27.7l1.5 3.7c2.8-1.1 4.9-3.4 5.8-6.2h-4.4c-.6 1.2-1.7 2.1-2.9 2.5" class="st0"/><path d="M22.6 32.6c-5.6 0-10.1-4.6-10.1-10.2s4.5-10.1 10.1-10c4.5 0 8.5 3 9.7 7.4h3.9C34.6 12.3 27.3 7.4 19.8 9S7.4 17.8 9 25.3s8.9 12.4 16.4 10.8c5.4-1.1 9.7-5.4 10.8-10.8h-3.9c-1.2 4.4-5.2 7.3-9.7 7.3" class="st0"/><path d="M22.6 8.1V4.3c-7.5 0-14.3 4.6-17 11.6l3.5 1.3c2.2-5.5 7.5-9.1 13.5-9.1M22.6 36.9v3.8c9 0 16.6-6.5 18.1-15.4h-3.8c-1.5 6.8-7.4 11.6-14.3 11.6M36.8 19.7h3.8c-1-6.4-5.4-11.8-11.4-14.2L27.9 9c4.5 1.9 7.9 5.9 8.9 10.7M8.1 22.5H4.3c0 7.5 4.6 14.2 11.5 17l1.4-3.5c-5.5-2.3-9.1-7.6-9.1-13.5" class="st0"/><path d="M41.1 19.7h3.8c-.4-3.2-1.5-6.3-3.2-9.1l-3.2 2c1.4 2.2 2.3 4.6 2.6 7.1M0 22.5c0 3.3.7 6.7 2 9.7l3.7-1.6c-1.2-2.6-1.8-5.4-1.8-8.2M22.6 41.2c-5 0-9.7-2-13.2-5.5l-2.7 2.7c4.2 4.3 10 6.7 16 6.6 11.4 0 20.9-8.5 22.4-19.7h-3.8c-1.6 9.1-9.5 15.9-18.7 15.9M22.6 3.8c4 0 8 1.3 11.2 3.7l2.3-3.1C32.2 1.6 27.4 0 22.5 0c-9.3 0-17.6 5.7-21 14.4l3.6 1.4c2.8-7.2 9.7-12 17.5-12" class="st0"/></svg>