<svg xmlns="http://www.w3.org/2000/svg" viewBox="0 0 100 98.64"><title>ChefLogoAsset 1</title><g data-name="Layer 2"><g data-name="Layer 1"><path d="m98.78 78.18-.87-1.33v1.88h-.35v-2.45h.37l.88 1.35.87-1.35h.32v2.45h-.34v-1.88Zm-2.6.55h-.35v-2.12H95v-.33h2v.33h-.79ZM0 87.08V87a11.42 11.42 0 0 1 11.71-11.6 11.6 11.6 0 0 1 8.86 3.47l-3.15 3.63a8.3 8.3 0 0 0-5.74-2.5c-3.79 0-6.51 3.14-6.51 7 0 3.85 2.66 7.06 6.51 7.06 2.57 0 4.14-1 5.9-2.63l3.14 3.18a11.48 11.48 0 0 1-9.21 4A11.34 11.34 0 0 1 0 87.08M26.45 75.79h4.94v8.89h9.12v-8.89h4.94v22.46h-4.94v-9.02h-9.12v9.02h-4.94zM51.48 75.79h16.95v4.4H56.39v4.55h10.59v4.4H56.39v4.72h12.2v4.39H51.48zM75.05 75.79h17.1v4.49H79.99v4.78H90.7v4.5H79.99v8.69h-4.94zM46.63 45.44a14.11 14.11 0 1 1 13.55-18h5.46a19.41 19.41 0 1 0 0 7.83h-5.46a14.13 14.13 0 0 1-13.55 10.17" style="fill:#435363"/><path d="M37.11 40.84a13.42 13.42 0 0 0 9.51 3.95v-5.63a7.8 7.8 0 0 1-5.54-2.29Z" style="fill:#435363"/><path d="M33.17 31.33a13.4 13.4 0 0 0 1.14 5.42l5.15-2.26a7.83 7.83 0 0 1 7.17-11v-5.62a13.47 13.47 0 0 0-13.46 13.46" style="fill:#f38b00"/><path d="m51.51 18.79-2 5.25a7.86 7.86 0 0 1 3.94 3.38h6.05a13.52 13.52 0 0 0-8-8.63" style="fill:#435363"/><path d="m49.47 38.63 2 5.25a13.52 13.52 0 0 0 8-8.63h-6.06a7.86 7.86 0 0 1-3.94 3.38" style="fill:#f38b00"/><path d="M46.63 57.35a25.93 25.93 0 0 1-18.39-7.63l-3.76 3.76a31.33 31.33 0 0 0 53.23-18.23h-5.36a26.06 26.06 0 0 1-25.72 22.1M46.63 5.31a25.87 25.87 0 0 1 15.55 5.18l3.18-4.27A31.33 31.33 0 0 0 17.42 20l5 1.93A26.06 26.06 0 0 1 46.63 5.31" style="fill:#f38b00"/><path d="M72.35 27.41h5.36a31.1 31.1 0 0 0-4.51-12.67l-4.52 2.82a25.85 25.85 0 0 1 3.66 9.85" style="fill:#435363"/><path d="M66.31 27.41h5.38A25.44 25.44 0 0 0 55.82 7.7l-1.92 4.94a20.13 20.13 0 0 1 12.41 14.77" style="fill:#f38b00"/><path d="M46.63 11.27V6A25.4 25.4 0 0 0 23 22.13l4.94 1.92a20.1 20.1 0 0 1 18.7-12.79" style="fill:#435363"/><path d="M26.56 31.33h-5.3a25.4 25.4 0 0 0 15.95 23.54l2-4.92a20.09 20.09 0 0 1-12.65-18.62" style="fill:#f38b00"/><path d="M46.63 51.39v5.3a25.4 25.4 0 0 0 25.06-21.44h-5.38a20.1 20.1 0 0 1-19.68 16.14M17.94 43.94a31.3 31.3 0 0 1-2.64-12.61h5.32a26.1 26.1 0 0 0 2.2 10.47Z" style="fill:#435363"/></g></g></svg>