<svg xmlns="http://www.w3.org/2000/svg" xml:space="preserve" style="enable-background:new 0 0 205 205" viewBox="0 0 205 205"><filter id="a" width="200%" height="200%" x="-50%" y="-50%" filterUnits="objectBoundingBox"><feOffset dy="3" in="SourceAlpha" result="shadowOffsetOuter1"/><feGaussianBlur in="shadowOffsetOuter1" result="shadowBlurOuter1" stdDeviation="12"/><feColorMatrix in="shadowBlurOuter1" values="0 0 0 0 0.360784314 0 0 0 0 0.4 0 0 0 0 0.439215686 0 0 0 0.07 0"/></filter><g style="filter:url(#a)" transform="rotate(45 281.04 77.13)"><path d="M406 160v30H-57v-30z"/></g><path d="M159.5-56.5h30v463h-30z" style="fill:#fff" transform="rotate(135 177.04 115.13)"/><g style="enable-background:new"><path d="m144 138.2 3.1 3.1-.7.4-2.4-2.4-2.3 1.6 2 2-.7.4-2-2-3 2-.7-.7zM142.8 145.1c1.6-1.6 3.8-1.6 4.9-.4.9.9.8 2.1-.2 3.1-1.6 1.6-3.8 1.6-4.9.4-.9-.9-.8-2.1.2-3.1m4 2c.7-.7.8-1.5.3-2-.8-.8-2.4-.6-3.6.6-.7.7-.8 1.5-.3 2 .8.8 2.5.6 3.6-.6M150.5 147.6l.5.5-.9.7c.8-.2 1.7-.1 2.2.4.2.2.2.3.3.5l-.8.3c0-.1-.1-.3-.3-.4-.4-.4-1.2-.5-2.2-.2l-3.1 2.1-.6-.6zM155.7 149l.7.7-4.9 3.3 4.3-.1.7.7-3.4.1-1.4 3.4-.7-.7 1.2-2.8h-1.9l-1.3.8-.6-.6zM159.1 156.2l.5.5-.7.6c.8 0 1.6.2 2.1.6.7.7.5 1.2.1 1.8 1 0 1.8.2 2.3.7.7.7.6 1.4-.1 2-.2.2-.4.3-.6.5l-3.2 2.1-.7-.7 3.1-2c.3-.2.4-.3.6-.4q.6-.6 0-1.2c-.2-.2-.9-.4-1.9-.4l-3.5 2.3-.6-.6 3.1-2c.3-.2.4-.3.6-.4q.6-.6 0-1.2c-.2-.2-.9-.5-1.9-.4l-3.5 2.3-.6-.6zM167.4 164.3c.9.9.6 1.9-.2 2.8-.3.3-.7.6-1 .7l-2.7-2.7c-1.2.9-1.1 1.9-.4 2.6.3.3.8.5 1.3.6l-.2.7q-.9-.15-1.8-.9c-1-1-1-2.2.1-3.3 1.6-1.6 3.8-1.6 4.9-.5m-1.2 2.5c.2-.1.3-.2.5-.4.5-.5.7-1.1.1-1.7s-1.7-.7-2.7-.1zM168.2 170.5c1.6-1.6 3.8-1.6 4.9-.4.9.9.8 2.1-.2 3.1-1.6 1.6-3.8 1.6-4.9.4-.8-.9-.8-2.1.2-3.1m4 2.1c.7-.7.8-1.5.3-2-.8-.8-2.4-.6-3.6.6-.7.7-.8 1.5-.3 2 .8.7 2.5.5 3.6-.6M175.9 173.1l.5.5-.7.6c.9.1 1.6.2 2.2.7.7.7.6 1.4-.1 2-.2.2-.4.3-.6.5l-3.2 2.1-.6-.6 3.1-2c.3-.2.4-.3.6-.4.4-.4.5-.8 0-1.2-.3-.3-.9-.5-2-.5l-3.5 2.3-.6-.6zM179.4 180.5c1.8-1.8 4.7-2.4 6.5-.6.7.7.8 1.5.6 2.2l-.8-.1c.1-.6.1-1.1-.4-1.6-1.4-1.4-3.8-.7-5.1.6-1 1-1.3 2.2-.3 3.2.4.4.9.6 1.3.6l1.8-1.2-1.2-1.2.7-.4 1.7 1.7-2.9 1.9c-.7-.1-1.5-.4-2.1-1-1.3-1.1-1.1-2.7.2-4.1M187 184.1l.7.7-5 3.3-.6-.6zm1.4-1.1c.3-.3.7-.3 1 0 .2.2.3.6 0 .8-.3.3-.7.3-1 0-.2-.2-.3-.5 0-.8M185.2 189c.2-.2.3-.3.5-.4l2.8-1.8-.6-.6.6-.4.7.6 1.4-.8.6.6-1.4.9 1 1-.6.4-1.1-1.1-2.8 1.9-.3.3c-.3.3-.4.6 0 1 .2.2.4.2.6.3l-.3.6c-.3-.1-.6-.3-1-.6-.7-.8-.6-1.4-.1-1.9M194.1 187.4l.7.7-2.4 1.6-.7.4c.9.1 1.6.2 2.1.7.7.7.6 1.4-.1 2-.2.2-.4.3-.6.5l-3.2 2.1-.6-.6 3.1-2c.3-.2.4-.3.6-.4.4-.4.5-.8 0-1.2-.3-.3-1-.5-2-.5l-3.5 2.3-.6-.6zM194.3 199.7l-.5-.5.7-.6c-.8-.1-1.7-.2-2.2-.7-.7-.7-.6-1.4.1-2 .2-.2.4-.3.6-.5l3.2-2.1.7.7-3.1 2c-.3.2-.4.3-.6.4q-.6.6 0 1.2c.3.3 1 .5 2 .5l3.5-2.3.6.6zM195.7 201.1l7.2-4.8.7.7-1.9 1.3-1 .6c.7.1 1.5.3 2 .8.7.7.7 1.7-.3 2.7-1.6 1.6-3.9 1.7-5.1.6-.4-.4-.6-1-.4-1.6l-.7.3zm4.3-1.8-2.3 1.6c-.2.7-.1 1.1.2 1.5.8.8 2.6.5 3.8-.6q1.05-1.05.3-1.8c-.5-.5-1.2-.7-2-.7" style="fill:#5c6670" transform="translate(-38 -104)"/></g></svg>