<svg xmlns="http://www.w3.org/2000/svg" xml:space="preserve" viewBox="0 0 300 160"><path d="M0 0h300v160H0z" style="fill:#595a59"/><title>Steps</title><path d="M-10 .3v1.3h-.8V.4c-.9 0-1.6-.1-2.1-.4v-1c.8.4 1.5.5 2.1.5V-3c-.8-.2-1.3-.5-1.6-.9s-.5-.7-.5-1.3c0-.5.2-.9.5-1.3s.9-.5 1.5-.6v-1.1h.8v1c.7 0 1.4.2 2 .5l-.4.8c-.5-.1-1-.3-1.5-.3v2.5c.8.3 1.3.6 1.6.9s.5.7.5 1.2C-7.9-.5-8.6.1-10 .3m-.8-4.3v-2.2c-.7.1-1 .5-1 1 0 .3.1.5.2.7s.4.4.8.5m.8 1.3v2.2c.7-.1 1.1-.5 1.1-1.1 0-.5-.4-.9-1.1-1.1M2.6-2.2l.8-.9 2.3-2.3H7L4.2-2.7l3 3.7H6L3.5-2l-.8.5V1h-1v-9.1h1.1v4.2zM10.8-4.6l-1.6-.1v-.7h2.6V.2l2.1.1V1H8.8V.3l2-.1zm.5-3.5c.4 0 .6.2.6.7 0 .2-.1.4-.2.5s-.3.2-.4.2c-.4 0-.6-.2-.6-.7s.2-.7.6-.7M20.8.1v.8c-.5.1-1 .2-1.5.2-1.4 0-2.1-.7-2.1-2v-3.7h-1.6v-.6l1.6-.3.5-1.7h.6v1.7h2.6v.8h-2.6V-1c0 .8.4 1.1 1.1 1.1.3.1.8.1 1.4 0M28.2-5.2l-.4.9c-.6-.2-1.1-.3-1.6-.3-1.4 0-2.2.8-2.2 2.4Q24 .2 26.1.2c.6 0 1.2-.1 1.9-.4v.9c-.5.2-1.2.4-1.9.4-1 0-1.8-.3-2.3-.9S23-1.1 23-2.2s.3-1.9.8-2.5 1.4-.9 2.4-.9c.7 0 1.4.2 2 .4M34.4 1v-4.1c0-1-.5-1.5-1.4-1.5-1.2 0-1.8.8-1.8 2.3V1h-1.1v-9.1h1.1v3.5h.1c.4-.7 1.1-1 2-1 1.5 0 2.3.8 2.3 2.3V1zM42.8-2h-4.5c0 1.5.7 2.2 2 2.2.8 0 1.5-.1 2.2-.4v.9c-.6.3-1.4.4-2.1.4-1 0-1.7-.3-2.3-.9s-.9-1.4-.9-2.4.3-1.9.8-2.5 1.2-.9 2.1-.9c.8 0 1.5.3 2 .8s.7 1.2.7 2.1zm-4.5-.9h3.4c0-1.2-.5-1.8-1.6-1.8q-1.65 0-1.8 1.8M48.8 1v-4.1c0-1-.5-1.5-1.4-1.5-1.2 0-1.8.8-1.8 2.3V1h-1.1v-6.4h.9l.2.9h.1c.4-.7 1.1-1 2-1 1.5 0 2.3.8 2.3 2.3V1zM64.2-5.2l-.4.9c-.6-.2-1.1-.3-1.6-.3-1.4 0-2.2.8-2.2 2.4Q60 .2 62.1.2c.6 0 1.2-.1 1.9-.4v.9c-.4.3-1 .4-1.8.4-1 0-1.8-.3-2.3-.9S59-1.1 59-2.2s.3-1.9.8-2.5 1.4-.9 2.4-.9c.8 0 1.4.2 2 .4M71.4-5.3l-.3 1c-.5-.2-.9-.3-1.3-.3-.6 0-1.1.2-1.5.5s-.5.9-.5 1.6V1h-1.1v-6.4h.9l.1 1.2c.3-.5.6-.8 1-1s.8-.3 1.3-.3c.5-.1.9 0 1.4.2M78.8-2h-4.5c0 1.5.7 2.2 2 2.2.8 0 1.5-.1 2.2-.4v.9c-.6.3-1.4.4-2.1.4-1 0-1.7-.3-2.3-.9s-.9-1.4-.9-2.4.3-1.9.8-2.5 1.2-.9 2.1-.9c.8 0 1.5.3 2 .8s.7 1.2.7 2.1zm-4.5-.9h3.4c0-1.2-.5-1.8-1.6-1.8q-1.65 0-1.8 1.8M84.9 1l-.2-.9c-.3.4-.6.6-.9.8s-.7.2-1.2.2c-.6 0-1.1-.2-1.5-.5s-.5-.8-.5-1.4c0-1.3 1-2 3-2h1.2v-.4c0-.9-.5-1.4-1.4-1.4-.6 0-1.2.2-1.9.5l-.6-.9c.8-.4 1.5-.6 2.2-.6.9 0 1.5.2 1.9.6s.6.9.6 1.6V1zm-.3-3.1h-.9c-.8 0-1.3.2-1.6.4s-.5.5-.5 1c0 .7.4 1 1.2 1 .6 0 1-.2 1.4-.5s.5-.8.5-1.3v-.6zM92.8.1v.8c-.5.1-1 .2-1.5.2-1.4 0-2.1-.7-2.1-2v-3.7h-1.6v-.6l1.6-.3.5-1.7h.6v1.7h2.6v.8h-2.6V-1c0 .8.4 1.1 1.1 1.1.4.1.8.1 1.4 0M100.4-2h-4.5c0 1.5.7 2.2 2 2.2.8 0 1.5-.1 2.2-.4v.9c-.7.3-1.4.4-2.1.4-1 0-1.7-.3-2.3-.9s-.9-1.4-.9-2.4.3-1.9.8-2.5 1.2-.9 2.1-.9c.8 0 1.5.3 2 .8s.7 1.2.7 2.1zm-4.5-.9h3.4c0-1.2-.5-1.8-1.6-1.8q-1.65 0-1.8 1.8M-10 24.3v1.3h-.8v-1.3c-.9 0-1.6-.1-2.1-.4v-1c.8.4 1.5.5 2.1.5V21c-.8-.2-1.3-.5-1.6-.9s-.5-.7-.5-1.3c0-.5.2-.9.5-1.3s.9-.5 1.5-.6v-1.1h.8v1c.7 0 1.4.2 2 .5l-.4.8c-.5-.1-1-.3-1.5-.3v2.5c.8.3 1.3.6 1.6.9s.5.7.5 1.2c0 1.1-.7 1.7-2.1 1.9m-.8-4.3v-2.2c-.7.1-1 .5-1 1 0 .3.1.5.2.7s.4.4.8.5m.8 1.3v2.2c.7-.1 1.1-.5 1.1-1.1 0-.5-.4-.9-1.1-1.1M2.6 21.8l.8-.9 2.3-2.3H7l-2.9 2.8L7.2 25H6l-2.5-3-.8.5V25h-1v-9.1h1.1v4.2zM10.8 19.4l-1.6-.1v-.7h2.6v5.6l2.1.1v.7H8.8v-.7l2-.1zm.5-3.5c.4 0 .6.2.6.7 0 .2-.1.4-.2.5s-.3.2-.4.2c-.4 0-.6-.2-.6-.7s.2-.7.6-.7M20.8 24.1v.8c-.5.1-1 .2-1.5.2-1.4 0-2.1-.7-2.1-2v-3.7h-1.6v-.6l1.6-.3.5-1.7h.6v1.7h2.6v.8h-2.6V23c0 .8.4 1.1 1.1 1.1.3.1.8.1 1.4 0M28.2 18.8l-.4.9c-.6-.2-1.1-.3-1.6-.3-1.4 0-2.2.8-2.2 2.4q0 2.4 2.1 2.4c.6 0 1.2-.1 1.9-.4v.9c-.5.2-1.2.4-1.9.4-1 0-1.8-.3-2.3-.9s-.8-1.3-.8-2.4.3-1.9.8-2.5 1.4-.9 2.4-.9c.7 0 1.4.2 2 .4M34.4 25v-4.1c0-1-.5-1.5-1.4-1.5-1.2 0-1.8.8-1.8 2.3V25h-1.1v-9.1h1.1v3.5h.1c.4-.7 1.1-1 2-1 1.5 0 2.3.8 2.3 2.3V25zM42.8 22h-4.5c0 1.5.7 2.2 2 2.2.8 0 1.5-.1 2.2-.4v.9c-.6.3-1.4.4-2.1.4-1 0-1.7-.3-2.3-.9s-.9-1.4-.9-2.4.3-1.9.8-2.5 1.2-.9 2.1-.9c.8 0 1.5.3 2 .8s.7 1.2.7 2.1zm-4.5-.9h3.4c0-1.2-.5-1.8-1.6-1.8q-1.65 0-1.8 1.8M48.8 25v-4.1c0-1-.5-1.5-1.4-1.5-1.2 0-1.8.8-1.8 2.3V25h-1.1v-6.4h.9l.2.9h.1c.4-.7 1.1-1 2-1 1.5 0 2.3.8 2.3 2.3V25zM64.2 18.8l-.4.9c-.6-.2-1.1-.3-1.6-.3-1.4 0-2.2.8-2.2 2.4q0 2.4 2.1 2.4c.6 0 1.2-.1 1.9-.4v.9c-.5.2-1.2.4-1.9.4-1 0-1.8-.3-2.3-.9s-.8-1.3-.8-2.4.3-1.9.8-2.5 1.4-.9 2.4-.9c.8 0 1.4.2 2 .4M68.8 25.1q-1.2 0-2.1-.9c-.9-.9-.8-1.4-.8-2.4s.3-1.8.8-2.4 1.2-.9 2.1-.9 1.5.3 2.1.9.8 1.4.8 2.4-.3 1.9-.8 2.4-1.2.9-2.1.9m0-.9c1.2 0 1.8-.8 1.8-2.5q0-2.4-1.8-2.4T67 21.7c0 1.7.6 2.5 1.8 2.5M77.6 25v-4.1c0-1-.5-1.5-1.4-1.5-1.2 0-1.8.8-1.8 2.3V25h-1.1v-6.4h.9l.2.9h.1c.4-.7 1.1-1 2-1 1.5 0 2.3.8 2.3 2.3V25zM82.5 25l-2.4-6.4h1.1l1.4 3.8c.3.9.5 1.5.6 1.9 0-.2.2-.8.6-1.9l1.4-3.8h1.1L83.9 25zM93.2 22h-4.5c0 1.5.7 2.2 2 2.2.8 0 1.5-.1 2.2-.4v.9c-.6.3-1.4.4-2.1.4-1 0-1.7-.3-2.3-.9s-.9-1.4-.9-2.4.3-1.9.8-2.5 1.2-.9 2.1-.9c.8 0 1.5.3 2 .8s.7 1.2.7 2.1zm-4.5-.9h3.4c0-1.2-.5-1.8-1.6-1.8q-1.65 0-1.8 1.8M100.2 18.7l-.3 1c-.5-.2-.9-.3-1.3-.3-.6 0-1.1.2-1.5.5s-.5.9-.5 1.6V25h-1.1v-6.4h.9l.1 1.2c.3-.5.6-.8 1-1s.8-.3 1.3-.3c.5-.1.9 0 1.4.2M107.8 18.6v.7l-1.1.2c.3.3.4.7.4 1.2q0 .9-.6 1.5c-.6.6-1 .6-1.7.6h-.5c-.4.2-.6.5-.6.8s.3.5.9.5h1.1c.7 0 1.2.2 1.6.5s.5.7.5 1.3c0 1.5-1.1 2.2-3.3 2.2-.9 0-1.5-.2-1.9-.5s-.7-.8-.7-1.3c0-.8.5-1.4 1.4-1.6q-.6-.3-.6-.9c0-.4.3-.8.8-1.1-.3-.1-.6-.4-.8-.7s-.3-.7-.3-1.1c0-.7.2-1.3.6-1.6s1-.6 1.8-.6c.3 0 .6 0 .9.1h2.1zm-2.5 6.3h-1.1c-.9 0-1.3.4-1.3 1.2 0 .7.5 1 1.6 1 1.5 0 2.3-.4 2.3-1.3 0-.3-.1-.6-.3-.7s-.6-.2-1.2-.2m-.6-2.9c.9 0 1.3-.4 1.3-1.3s-.4-1.4-1.3-1.4-1.3.5-1.3 1.4c0 .8.4 1.3 1.3 1.3M114.8 22h-4.5c0 1.5.7 2.2 2 2.2.8 0 1.5-.1 2.2-.4v.9c-.6.3-1.4.4-2.1.4-1 0-1.7-.3-2.3-.9s-.9-1.4-.9-2.4.3-1.9.8-2.5 1.2-.9 2.1-.9c.8 0 1.5.3 2 .8s.7 1.2.7 2.1zm-4.5-.9h3.4c0-1.2-.5-1.8-1.6-1.8q-1.65 0-1.8 1.8M-10 48.3v1.3h-.8v-1.3c-.9 0-1.6-.1-2.1-.4v-1c.8.4 1.5.5 2.1.5V45c-.8-.2-1.3-.5-1.6-.9s-.5-.7-.5-1.3c0-.5.2-.9.5-1.3s.9-.5 1.5-.6v-1.1h.8v1c.7 0 1.4.2 2 .5l-.4.8c-.5-.1-1-.3-1.5-.3v2.5c.8.3 1.3.6 1.6.9s.5.7.5 1.2c0 1.1-.7 1.7-2.1 1.9m-.8-4.3v-2.2c-.7.1-1 .5-1 1 0 .3.1.5.2.7s.4.4.8.5m.8 1.3v2.2c.7-.1 1.1-.5 1.1-1.1 0-.5-.4-.9-1.1-1.1M2.6 45.8l.8-.9 2.3-2.3H7l-2.9 2.8L7.2 49H6l-2.5-3-.8.5V49h-1v-9.1h1.1v4.2zM10.8 43.4l-1.6-.1v-.7h2.6v5.6l2.1.1v.7H8.8v-.7l2-.1zm.5-3.5c.4 0 .6.2.6.7 0 .2-.1.4-.2.5s-.3.2-.4.2c-.4 0-.6-.2-.6-.7s.2-.7.6-.7M20.8 48.1v.8c-.5.1-1 .2-1.5.2-1.4 0-2.1-.7-2.1-2v-3.7h-1.6v-.6l1.6-.3.5-1.7h.6v1.7h2.6v.8h-2.6V47c0 .8.4 1.1 1.1 1.1.3.1.8.1 1.4 0M28.2 42.8l-.4.9c-.6-.2-1.1-.3-1.6-.3-1.4 0-2.2.8-2.2 2.4q0 2.4 2.1 2.4c.6 0 1.2-.1 1.9-.4v.9c-.5.2-1.2.4-1.9.4-1 0-1.8-.3-2.3-.9s-.8-1.3-.8-2.4.3-1.9.8-2.5 1.4-.9 2.4-.9c.7 0 1.4.2 2 .4M34.4 49v-4.1c0-1-.5-1.5-1.4-1.5-1.2 0-1.8.8-1.8 2.3V49h-1.1v-9.1h1.1v3.5h.1c.4-.7 1.1-1 2-1 1.5 0 2.3.8 2.3 2.3V49zM42.8 46h-4.5c0 1.5.7 2.2 2 2.2.8 0 1.5-.1 2.2-.4v.9c-.6.3-1.4.4-2.1.4-1 0-1.7-.3-2.3-.9s-.9-1.4-.9-2.4.3-1.9.8-2.5 1.2-.9 2.1-.9c.8 0 1.5.3 2 .8s.7 1.2.7 2.1zm-4.5-.9h3.4c0-1.2-.5-1.8-1.6-1.8q-1.65 0-1.8 1.8M48.8 49v-4.1c0-1-.5-1.5-1.4-1.5-1.2 0-1.8.8-1.8 2.3V49h-1.1v-6.4h.9l.2.9h.1c.4-.7 1.1-1 2-1 1.5 0 2.3.8 2.3 2.3V49zM59.2 48.7v-1c.8.3 1.5.5 2.2.5 1.1 0 1.6-.3 1.6-.9q0-.3-.3-.6c-.3-.3-.6-.4-1.3-.6-.9-.3-1.5-.7-1.7-.9s-.4-.6-.4-1c0-.5.2-.9.7-1.3s1-.5 1.8-.5 1.5.1 2.2.4l-.4.9c-.7-.3-1.3-.4-1.9-.4-.9 0-1.4.3-1.4.8q0 .3.3.6c.3.3.7.3 1.4.6.8.3 1.4.6 1.6.9s.4.6.4 1.1c0 .6-.2 1-.7 1.4s-1.1.5-1.9.5c-1-.1-1.7-.2-2.2-.5M71.6 46h-4.5c0 1.5.7 2.2 2 2.2.8 0 1.5-.1 2.2-.4v.9c-.6.3-1.4.4-2.1.4-1 0-1.7-.3-2.3-.9s-.9-1.3-.9-2.4c0-1 .3-1.9.8-2.5s1.2-.9 2.1-.9c.8 0 1.5.3 2 .8s.7 1.2.7 2.1zm-4.5-.9h3.4c0-1.2-.5-1.8-1.6-1.8q-1.65 0-1.8 1.8M78.4 48.1v.8c-.5.1-1 .2-1.5.2-1.4 0-2.1-.7-2.1-2v-3.7h-1.6v-.6l1.6-.3.5-1.7h.6v1.7h2.6v.8h-2.6V47c0 .8.4 1.1 1.1 1.1.3.1.8.1 1.4 0M85 49l-.2-.9h-.1c-.4.7-1.1 1-2 1-1.5 0-2.3-.8-2.3-2.3v-4.2h1.1v4.1c0 1 .5 1.5 1.4 1.5.6 0 1.1-.2 1.4-.5s.4-1 .4-1.8v-3.3h1.1V49zM88.8 48.2v3.6h-1.1v-9.3h.9l.2.9c.4-.7 1.1-1 1.9-1q1.2 0 1.8.9c.6.9.7 1.4.7 2.4 0 1.1-.2 1.9-.7 2.5s-1.1.9-1.8.9c-.8 0-1.4-.3-1.9-.9m0-2.7v.2c0 .9.1 1.5.4 1.9s.7.6 1.3.6c1.1 0 1.6-.8 1.6-2.5 0-1.6-.5-2.4-1.6-2.4-.6 0-1 .2-1.3.5s-.4 1-.4 1.7M-10 72.3v1.3h-.8v-1.3c-.9 0-1.6-.1-2.1-.4v-1c.8.4 1.5.5 2.1.5V69c-.8-.2-1.3-.5-1.6-.9s-.5-.7-.5-1.3c0-.5.2-.9.5-1.3s.9-.5 1.5-.6v-1.1h.8v1c.7 0 1.4.2 2 .5l-.4.8c-.5-.1-1-.3-1.5-.3v2.5c.8.3 1.3.6 1.6.9s.5.7.5 1.2c0 1.1-.7 1.7-2.1 1.9m-.8-4.3v-2.2c-.7.1-1 .5-1 1 0 .3.1.5.2.7s.4.4.8.5m.8 1.3v2.2c.7-.1 1.1-.5 1.1-1.1 0-.5-.4-.9-1.1-1.1M2.6 69.8l.8-.9 2.3-2.3H7l-2.9 2.8L7.2 73H6l-2.5-3-.8.5V73h-1v-9.1h1.1v4.2zM10.8 67.4l-1.6-.1v-.7h2.6v5.6l2.1.1v.7H8.8v-.7l2-.1zm.5-3.5c.4 0 .6.2.6.7 0 .2-.1.4-.2.5s-.3.2-.4.2c-.4 0-.6-.2-.6-.7s.2-.7.6-.7M20.8 72.1v.8c-.5.1-1 .2-1.5.2-1.4 0-2.1-.7-2.1-2v-3.7h-1.6v-.6l1.6-.3.5-1.7h.6v1.7h2.6v.8h-2.6V71c0 .8.4 1.1 1.1 1.1.3.1.8.1 1.4 0M28.2 66.8l-.4.9c-.6-.2-1.1-.3-1.6-.3-1.4 0-2.2.8-2.2 2.4q0 2.4 2.1 2.4c.6 0 1.2-.1 1.9-.4v.9c-.5.2-1.2.4-1.9.4-1 0-1.8-.3-2.3-.9s-.8-1.3-.8-2.4.3-1.9.8-2.5 1.4-.9 2.4-.9c.7 0 1.4.2 2 .4M34.4 73v-4.1c0-1-.5-1.5-1.4-1.5-1.2 0-1.8.8-1.8 2.3V73h-1.1v-9.1h1.1v3.5h.1c.4-.7 1.1-1 2-1 1.5 0 2.3.8 2.3 2.3V73zM42.8 70h-4.5c0 1.5.7 2.2 2 2.2.8 0 1.5-.1 2.2-.4v.9c-.6.3-1.4.4-2.1.4-1 0-1.7-.3-2.3-.9s-.9-1.4-.9-2.4.3-1.9.8-2.5 1.2-.9 2.1-.9c.8 0 1.5.3 2 .8s.7 1.2.7 2.1zm-4.5-.9h3.4c0-1.2-.5-1.8-1.6-1.8q-1.65 0-1.8 1.8M48.8 73v-4.1c0-1-.5-1.5-1.4-1.5-1.2 0-1.8.8-1.8 2.3V73h-1.1v-6.4h.9l.2.9h.1c.4-.7 1.1-1 2-1 1.5 0 2.3.8 2.3 2.3V73zM60.9 73l-2.4-6.4h1.1l1.4 3.8c.3.9.5 1.5.6 1.9 0-.2.2-.8.6-1.9l1.4-3.8h1.1L62.3 73zM71.6 70h-4.5c0 1.5.7 2.2 2 2.2.8 0 1.5-.1 2.2-.4v.9c-.6.3-1.4.4-2.1.4-1 0-1.7-.3-2.3-.9s-.9-1.3-.9-2.4c0-1 .3-1.9.8-2.5s1.2-.9 2.1-.9c.8 0 1.5.3 2 .8s.7 1.2.7 2.1zm-4.5-.9h3.4c0-1.2-.5-1.8-1.6-1.8q-1.65 0-1.8 1.8M78.6 66.7l-.3 1c-.5-.2-.9-.3-1.3-.3-.6 0-1.1.2-1.5.5s-.5.9-.5 1.6V73h-1v-6.4h.9l.1 1.2c.3-.5.6-.8 1-1s.8-.3 1.3-.3c.4-.1.8 0 1.3.2M82.8 67.4l-1.6-.1v-.7h2.6v5.6l2.1.1v.7h-5.1v-.7l2-.1zm.5-3.5c.4 0 .6.2.6.7 0 .2-.1.4-.2.5s-.3.2-.4.2c-.4 0-.6-.2-.6-.7s.2-.7.6-.7M92.9 67.4h-2.3V73h-1.1v-5.6h-1.9v-.6l1.9-.2V66c0-.8.2-1.3.5-1.6s.9-.5 1.8-.5c.5 0 1 .1 1.5.2l-.2.8c-.4-.1-.8-.2-1.2-.2-.5 0-.8.1-1 .3s-.3.5-.3 1v.6h2.3zM94.5 66.6h1.1l1.5 3.8c.3.8.5 1.4.5 1.7.1-.4.3-1 .5-1.7l1.4-3.8h1.1l-2.8 7.3q-.45 1.05-.9 1.5c-.45.45-.8.5-1.4.5-.3 0-.7 0-1-.1V75c.2 0 .5.1.8.1.4 0 .7-.1.9-.2s.4-.4.6-.8l.3-.9zM-10 96.3v1.3h-.8v-1.3c-.9 0-1.6-.1-2.1-.4v-1c.8.4 1.5.5 2.1.5V93c-.8-.2-1.3-.5-1.6-.9s-.5-.7-.5-1.3c0-.5.2-.9.5-1.3s.9-.5 1.5-.6v-1.1h.8v1c.7 0 1.4.2 2 .5l-.4.8c-.5-.1-1-.3-1.5-.3v2.5c.8.3 1.3.6 1.6.9s.5.7.5 1.2c0 1.1-.7 1.7-2.1 1.9m-.8-4.3v-2.2c-.7.1-1 .5-1 1 0 .3.1.5.2.7s.4.4.8.5m.8 1.3v2.2c.7-.1 1.1-.5 1.1-1.1 0-.5-.4-.9-1.1-1.1M2.6 93.8l.8-.9 2.3-2.3H7l-2.9 2.8L7.2 97H6l-2.5-3-.8.5V97h-1v-9.1h1.1v4.2zM10.8 91.4l-1.6-.1v-.7h2.6v5.6l2.1.1v.7H8.8v-.7l2-.1zm.5-3.5c.4 0 .6.2.6.7 0 .2-.1.4-.2.5s-.3.2-.4.2c-.4 0-.6-.2-.6-.7s.2-.7.6-.7M20.8 96.1v.8c-.5.1-1 .2-1.5.2-1.4 0-2.1-.7-2.1-2v-3.7h-1.6v-.6l1.6-.3.5-1.7h.6v1.7h2.6v.8h-2.6V95c0 .8.4 1.1 1.1 1.1.3.1.8.1 1.4 0M28.2 90.8l-.4.9c-.6-.2-1.1-.3-1.6-.3-1.4 0-2.2.8-2.2 2.4q0 2.4 2.1 2.4c.6 0 1.2-.1 1.9-.4v.9c-.5.2-1.2.4-1.9.4-1 0-1.8-.3-2.3-.9s-.8-1.3-.8-2.4.3-1.9.8-2.5 1.4-.9 2.4-.9c.7 0 1.4.2 2 .4M34.4 97v-4.1c0-1-.5-1.5-1.4-1.5-1.2 0-1.8.8-1.8 2.3V97h-1.1v-9.1h1.1v3.5h.1c.4-.7 1.1-1 2-1 1.5 0 2.3.8 2.3 2.3V97zM42.8 94h-4.5c0 1.5.7 2.2 2 2.2.8 0 1.5-.1 2.2-.4v.9c-.6.3-1.4.4-2.1.4-1 0-1.7-.3-2.3-.9s-.9-1.4-.9-2.4.3-1.9.8-2.5 1.2-.9 2.1-.9c.8 0 1.5.3 2 .8s.7 1.2.7 2.1zm-4.5-.9h3.4c0-1.2-.5-1.8-1.6-1.8q-1.65 0-1.8 1.8M48.8 97v-4.1c0-1-.5-1.5-1.4-1.5-1.2 0-1.8.8-1.8 2.3V97h-1.1v-6.4h.9l.2.9h.1c.4-.7 1.1-1 2-1 1.5 0 2.3.8 2.3 2.3V97zM63.3 96.1c-.5.7-1.1 1-1.9 1q-1.2 0-1.8-.9c-.6-.9-.7-1.4-.7-2.4 0-1.1.2-1.9.7-2.5s1.1-.9 1.8-.9c.8 0 1.4.3 1.9.9h.1c0-.5-.1-.8-.1-.9v-2.6h1.1V97h-.9zm-.1-2.1v-.2c0-.9-.1-1.5-.4-1.9s-.7-.6-1.3-.6c-1.1 0-1.6.8-1.6 2.5 0 1.6.5 2.4 1.6 2.4.6 0 1-.2 1.3-.5s.4-.9.4-1.7M71.6 94h-4.5c0 1.5.7 2.2 2 2.2.8 0 1.5-.1 2.2-.4v.9c-.6.3-1.4.4-2.1.4-1 0-1.7-.3-2.3-.9s-.9-1.3-.9-2.4c0-1 .3-1.9.8-2.5s1.2-.9 2.1-.9c.8 0 1.5.3 2 .8s.7 1.2.7 2.1zm-4.5-.9h3.4c0-1.2-.5-1.8-1.6-1.8q-1.65 0-1.8 1.8M73.6 96.7v-1c.8.3 1.5.5 2.2.5 1.1 0 1.6-.3 1.6-.9q0-.3-.3-.6c-.3-.3-.6-.4-1.3-.6-.9-.3-1.5-.7-1.7-.9s-.4-.6-.4-1c0-.5.2-.9.7-1.3s1-.5 1.8-.5 1.5.1 2.2.4l-.4 1c-.7-.3-1.3-.4-1.9-.4-.9 0-1.4.3-1.4.8q0 .3.3.6c.3.3.7.3 1.4.6.8.3 1.4.6 1.6.9s.4.6.4 1.1c0 .6-.2 1-.7 1.4s-1.1.5-1.9.5c-1-.2-1.7-.3-2.2-.6M85.6 96.1v.8c-.5.1-1 .2-1.5.2-1.4 0-2.1-.7-2.1-2v-3.7h-1.6v-.6l1.6-.3.5-1.7h.6v1.7h2.6v.8h-2.6V95c0 .8.4 1.1 1.1 1.1.3.1.8.1 1.4 0M93 90.7l-.3 1c-.5-.2-.9-.3-1.3-.3-.6 0-1.1.2-1.5.5s-.5.9-.5 1.6V97h-1.1v-6.4h.9l.1 1.2c.3-.5.6-.8 1-1s.8-.3 1.3-.3c.5-.1.9 0 1.4.2M97.6 97.1q-1.2 0-2.1-.9c-.9-.9-.8-1.4-.8-2.4s.3-1.8.8-2.4 1.2-.9 2.1-.9 1.5.3 2.1.9.8 1.4.8 2.4-.3 1.9-.8 2.4-1.2.9-2.1.9m0-.9c1.2 0 1.8-.8 1.8-2.5q0-2.4-1.8-2.4t-1.8 2.4c0 1.7.6 2.5 1.8 2.5M101.7 90.6h1.1l1.5 3.8c.3.8.5 1.4.5 1.7.1-.4.3-1 .5-1.7l1.4-3.8h1.1l-2.8 7.3q-.45 1.05-.9 1.5c-.45.45-.8.5-1.4.5-.3 0-.7 0-1-.1V99c.2 0 .5.1.8.1.4 0 .7-.1.9-.2s.4-.4.6-.8l.3-.9z" style="fill:#fff" transform="translate(34 33)"/></svg>