<svg xmlns="http://www.w3.org/2000/svg" xml:space="preserve" viewBox="0 0 300.3 360.5"><path d="M0 0h301v360.5H0z" style="fill:#595a59"/><title>Group 2</title><path d="M-13.7-1.2v-1h7.3v1zM-8.4 17.6c-.5.7-1.1 1-1.9 1q-1.2 0-1.8-.9c-.6-.9-.7-1.4-.7-2.4 0-1.1.2-1.9.7-2.5s1.1-.9 1.8-.9c.8 0 1.4.3 1.9.9h.1c0-.5-.1-.8-.1-.9V9.4h1.1v9.1h-.9zm-.1-2.1v-.2c0-.9-.1-1.5-.4-1.9s-.7-.6-1.3-.6c-1.1 0-1.6.8-1.6 2.5 0 1.6.5 2.4 1.6 2.4.6 0 1-.2 1.3-.5s.4-.9.4-1.7M-.3 12.2l-.3 1c-.4-.2-.9-.3-1.3-.3-.6 0-1.1.2-1.5.5s-.5.9-.5 1.6v3.5H-5v-6.4h.9l.1 1.2c.3-.5.6-.8 1-1s.8-.3 1.3-.3c.5-.1 1 0 1.4.2M3.9 12.9l-1.6-.1v-.7H5v5.6l2 .1v.7H1.9v-.7l2-.1zm.5-3.5c.4 0 .6.2.6.7 0 .2-.1.4-.2.5s-.3.2-.4.2c-.4 0-.6-.2-.6-.7s.2-.7.6-.7M10.9 18.5l-2.4-6.4h1.1l1.4 3.8c.3.9.5 1.5.6 1.9 0-.2.2-.8.6-1.9l1.4-3.8h1.1l-2.4 6.4zM21.6 15.5H17c0 1.5.7 2.2 2 2.2.8 0 1.5-.1 2.2-.4v.9c-.6.3-1.4.4-2.1.4-1 0-1.7-.3-2.3-.9s-.9-1.4-.9-2.4.3-1.9.8-2.5 1.2-.9 2.1-.9c.8 0 1.5.3 2 .8s.7 1.2.7 2.1v.7zm-4.6-.9h3.4c0-1.2-.5-1.8-1.6-1.8q-1.65 0-1.8 1.8M28.5 12.2l-.3 1c-.5-.2-.9-.3-1.3-.3-.6 0-1.1.2-1.5.5s-.4.9-.4 1.6v3.5h-1.1v-6.4h.9l.1 1.2c.3-.5.6-.8 1-1s.8-.3 1.3-.3c.4-.1.9 0 1.3.2M33.1 11.9c.5 0 .7.3.7.8s-.2.8-.7.8-.7-.3-.7-.8.2-.8.7-.8m0 5.1c.5 0 .7.3.7.8s-.2.8-.7.8-.7-.3-.7-.8.2-.8.7-.8M-8.5 35.5v-4.1c0-1-.5-1.5-1.4-1.5-1.2 0-1.8.8-1.8 2.3v3.3h-1.1v-6.4h.9l.2.9h.1c.4-.7 1.1-1 2-1 1.5 0 2.3.8 2.3 2.3v4.2zM-1.2 35.5l-.2-.9c-.3.4-.6.6-.9.8s-.7.2-1.2.2c-.6 0-1.1-.2-1.5-.5s-.5-.8-.5-1.4c0-1.3 1-2 3-2h1.2v-.4c0-.9-.5-1.4-1.4-1.4-.6 0-1.2.2-1.9.5l-.4-.8c.8-.4 1.5-.6 2.2-.6.9 0 1.5.2 1.9.5s.6.9.6 1.6v4.4zm-.3-3.1h-.9c-.8 0-1.3.2-1.6.4s-.5.5-.5 1c0 .7.4 1 1.2 1 .6 0 1-.2 1.4-.5s.5-.8.5-1.3v-.6zM6.5 35.5v-4.1c0-.6-.1-1-.2-1.2s-.3-.4-.5-.4c-.3 0-.6.2-.7.5s-.2.9-.2 1.6v3.6h-1v-4.1c0-1-.2-1.5-.7-1.5-.3 0-.6.2-.7.5s-.2.9-.2 1.9v3.3h-1v-6.4H2l.2.9h.1c.3-.7.7-1 1.2-1 .6 0 1.1.4 1.2 1.1.3-.9.7-1.3 1.3-1.3.5 0 .9.2 1.1.5s.3 1 .3 1.8v4.2h-.9zM14.4 32.5H9.8c0 1.5.7 2.2 2 2.2.8 0 1.5-.1 2.2-.4v.9c-.6.3-1.4.4-2.1.4-1 0-1.7-.3-2.3-.9s-.9-1.4-.9-2.4.3-1.9.8-2.5 1.2-.9 2.1-.9c.8 0 1.5.3 2 .8s.7 1.2.7 2.1v.7zm-4.6-.9h3.4c0-1.2-.5-1.8-1.6-1.8q-1.65 0-1.8 1.8M18.7 28.9c.5 0 .7.3.7.8s-.2.8-.7.8-.7-.2-.7-.8.2-.8.7-.8m0 5.1c.5 0 .7.3.7.8s-.2.8-.7.8-.7-.2-.7-.8c0-.5.2-.8.7-.8M32.5 35.5 30 29.1h1.1l1.4 3.8c.3.9.5 1.5.6 1.9 0-.2.2-.8.6-1.9l1.4-3.8h1.1l-2.4 6.4zM42 35.5l-.2-.9c-.3.4-.6.6-.9.8s-.7.2-1.2.2c-.6 0-1.1-.2-1.5-.5s-.5-.8-.5-1.4c0-1.3 1-2 3-2h1.2v-.4c0-.9-.5-1.4-1.4-1.4-.6 0-1.2.2-1.9.5l-.6-.9c.8-.4 1.5-.6 2.2-.6.9 0 1.5.2 1.9.5s.6.9.6 1.6v4.4H42zm-.3-3.1h-.9c-.8 0-1.3.2-1.6.4s-.5.5-.5 1c0 .7.4 1 1.2 1 .6 0 1-.2 1.4-.5s.5-.8.5-1.3v-.6zM50.5 29.1v.7l-1.1.2c.3.3.4.7.4 1.2q0 .9-.6 1.5c-.6.6-1 .6-1.7.6H47c-.4.2-.6.5-.6.8s.3.5.9.5h1.1c.7 0 1.2.2 1.6.5s.5.7.5 1.3c0 1.5-1.1 2.2-3.3 2.2-.9 0-1.5-.2-1.9-.5s-.7-.8-.7-1.3c0-.8.5-1.4 1.4-1.6q-.6-.3-.6-.9c0-.4.3-.8.8-1.1-.3-.1-.6-.4-.8-.7s-.4-.9-.4-1.3c0-.7.2-1.3.6-1.6s1-.6 1.8-.6c.3 0 .6 0 .9.1zM48 35.4h-1.1c-.9 0-1.3.4-1.3 1.2 0 .7.5 1 1.6 1 1.5 0 2.3-.4 2.3-1.3 0-.3-.1-.6-.3-.7s-.6-.2-1.2-.2m-.6-2.9c.9 0 1.3-.4 1.3-1.3s-.4-1.4-1.3-1.4-1.3.5-1.3 1.4c0 .8.4 1.3 1.3 1.3M57.3 29.2l-.3 1c-.5-.2-.9-.3-1.3-.3-.6 0-1.1.2-1.5.5s-.5.9-.5 1.6v3.5h-1.1v-6.4h.9l.1 1.2c.3-.5.6-.8 1-1s.8-.3 1.3-.3c.5-.1 1 0 1.4.2M63.6 35.5l-.2-.9c-.3.4-.6.6-.9.8s-.7.2-1.2.2c-.6 0-1.1-.2-1.5-.5s-.5-.8-.5-1.4c0-1.3 1-2 3-2h1.2v-.4c0-.9-.5-1.4-1.4-1.4-.6 0-1.2.2-1.9.5l-.4-.8c.8-.4 1.5-.6 2.2-.6.9 0 1.5.2 1.9.5s.6.9.6 1.6v4.4zm-.3-3.1h-.9c-.8 0-1.3.2-1.6.4s-.5.5-.5 1c0 .7.4 1 1.2 1 .6 0 1-.2 1.4-.5s.5-.8.5-1.3v-.6zM70.7 35.5v-4.1c0-1-.5-1.5-1.4-1.5-1.2 0-1.8.8-1.8 2.3v3.3h-1.1v-6.4h.9l.2.9h.1c.4-.7 1.1-1 2-1 1.5 0 2.3.8 2.3 2.3v4.2zM78.7 34.6v.8c-.5.1-1 .2-1.5.2-1.4 0-2.1-.7-2.1-2v-3.7h-1.6v-.6l1.6-.3.5-1.7h.6V29h2.6v.8h-2.6v3.7c0 .8.4 1.1 1.1 1.1.4.1.8.1 1.4 0M-11.7 68.7v3.6h-1.1V63h.9l.2.9c.4-.7 1.1-1 1.9-1q1.2 0 1.8.9c.4.6.7 1.4.7 2.4 0 1.1-.2 1.9-.7 2.5-.4.6-1.1.9-1.8.9-.8 0-1.4-.3-1.9-.9m0-2.7v.2c0 .9.1 1.5.4 1.9s.7.6 1.3.6c1.1 0 1.6-.8 1.6-2.5 0-1.6-.5-2.4-1.6-2.4-.6 0-1 .2-1.3.5s-.4 1-.4 1.7M-.3 63.2l-.3 1c-.4-.2-.9-.3-1.3-.3-.6 0-1.1.2-1.5.5s-.5.9-.5 1.6v3.5H-5v-6.4h.9l.1 1.2c.3-.5.6-.8 1-1s.8-.3 1.3-.3c.5-.1 1 0 1.4.2M4.3 69.6q-1.2 0-2.1-.9c-.9-.9-.8-1.4-.8-2.4s.3-1.8.8-2.4 1.2-.9 2.1-.9 1.5.3 2.1.9.8 1.4.8 2.4-.3 1.9-.8 2.4-1.2.9-2.1.9m0-.9c1.2 0 1.8-.8 1.8-2.5q0-2.4-1.8-2.4t-1.8 2.4c0 1.7.6 2.5 1.8 2.5M10.9 69.5l-2.4-6.4h1.1l1.4 3.8c.3.9.5 1.5.6 1.9 0-.2.2-.8.6-1.9l1.4-3.8h1.1l-2.4 6.4zM18.3 63.9l-1.6-.1v-.7h2.6v5.6l2.1.1v.7h-5.1v-.7l2-.1zm.5-3.5c.4 0 .6.2.6.7 0 .2-.1.4-.2.5s-.3.2-.4.2c-.4 0-.6-.2-.6-.7s.2-.7.6-.7M23.5 69.2v-1c.8.3 1.5.5 2.2.5 1.1 0 1.6-.3 1.6-.9q0-.3-.3-.6c-.3-.3-.6-.4-1.3-.6-.9-.3-1.5-.7-1.7-.9s-.4-.6-.4-1c0-.5.2-.9.7-1.3s1-.5 1.8-.5 1.5.1 2.2.4l-.4.9c-.7-.3-1.3-.4-1.9-.4-.9 0-1.4.3-1.4.8q0 .3.3.6c.3.3.7.3 1.4.6.8.3 1.4.6 1.6.9s.4.6.4 1.1c0 .6-.2 1-.7 1.4s-1.1.5-1.9.5c-.9-.1-1.7-.2-2.2-.5M32.7 63.9l-1.6-.1v-.7h2.6v5.6l2.1.1v.7h-5.1v-.7l2-.1zm.5-3.5c.4 0 .6.2.6.7 0 .2-.1.4-.2.5s-.3.2-.4.2c-.4 0-.6-.2-.6-.7s.2-.7.6-.7M40.3 69.6q-1.2 0-2.1-.9c-.9-.9-.8-1.4-.8-2.4s.3-1.8.8-2.4 1.2-.9 2.1-.9 1.5.3 2.1.9.8 1.4.8 2.4-.3 1.9-.8 2.4-1.2.9-2.1.9m0-.9c1.2 0 1.8-.8 1.8-2.5q0-2.4-1.8-2.4t-1.8 2.4c0 1.7.6 2.5 1.8 2.5M49.1 69.5v-4.1c0-1-.5-1.5-1.4-1.5-1.2 0-1.8.8-1.8 2.3v3.3h-1.1v-6.4h.9l.2.9h.1c.4-.7 1.1-1 2-1 1.5 0 2.3.8 2.3 2.3v4.2zM57.6 66.5H53c0 1.5.7 2.2 2 2.2.8 0 1.5-.1 2.2-.4v.9c-.6.3-1.4.4-2.1.4-1 0-1.7-.3-2.3-.9s-.9-1.4-.9-2.4.3-1.9.8-2.5 1.2-.9 2.1-.9c.8 0 1.5.3 2 .8s.7 1.2.7 2.1v.7zm-4.5-.9h3.4c0-1.2-.5-1.8-1.6-1.8-1.2 0-1.7.6-1.8 1.8M64.6 63.2l-.3 1c-.5-.2-.9-.3-1.3-.3-.6 0-1.1.2-1.5.5s-.5.9-.5 1.6v3.5h-1.1v-6.4h.9l.1 1.2c.3-.5.6-.8 1-1s.8-.3 1.3-.3c.4-.1.9 0 1.4.2M69.1 62.9c.5 0 .7.3.7.8s-.2.8-.7.8-.7-.3-.7-.8.2-.8.7-.8m0 5.1c.5 0 .7.3.7.8s-.2.8-.7.8-.7-.3-.7-.8.2-.8.7-.8M-8.5 86.5v-4.1c0-1-.5-1.5-1.4-1.5-1.2 0-1.8.8-1.8 2.3v3.3h-1.1v-6.4h.9l.2.9h.1c.4-.7 1.1-1 2-1 1.5 0 2.3.8 2.3 2.3v4.2zM-1.2 86.5l-.2-.9c-.3.4-.6.6-.9.8s-.7.2-1.2.2c-.6 0-1.1-.2-1.5-.5s-.5-.8-.5-1.4c0-1.3 1-2 3-2h1.2v-.4c0-.9-.5-1.4-1.4-1.4-.6 0-1.2.2-1.9.5l-.4-.8c.8-.4 1.5-.6 2.2-.6.9 0 1.5.2 1.9.5s.6.9.6 1.6v4.4zm-.3-3.1h-.9c-.8 0-1.3.2-1.6.4s-.5.5-.5 1c0 .7.4 1 1.2 1 .6 0 1-.2 1.4-.5s.5-.8.5-1.3v-.6zM6.5 86.5v-4.1c0-.6-.1-1-.2-1.2s-.3-.4-.5-.4c-.3 0-.6.2-.7.5s-.2.9-.2 1.6v3.6h-1v-4.1c0-1-.2-1.5-.7-1.5-.3 0-.6.2-.7.5s-.2.9-.2 1.9v3.3h-1v-6.4H2l.2.9h.1c.3-.7.7-1 1.2-1 .6 0 1.1.4 1.2 1.1.3-.9.7-1.3 1.3-1.3.5 0 .9.2 1.1.5s.3 1 .3 1.8v4.2h-.9zM14.4 83.5H9.8c0 1.5.7 2.2 2 2.2.8 0 1.5-.1 2.2-.4v.9c-.6.3-1.4.4-2.1.4-1 0-1.7-.3-2.3-.9s-.9-1.4-.9-2.4.3-1.9.8-2.5 1.2-.9 2.1-.9c.8 0 1.5.3 2 .8s.7 1.2.7 2.1v.7zm-4.6-.9h3.4c0-1.2-.5-1.8-1.6-1.8q-1.65 0-1.8 1.8M18.7 79.9c.5 0 .7.3.7.8s-.2.8-.7.8-.7-.2-.7-.8.2-.8.7-.8m0 5.1c.5 0 .7.3.7.8s-.2.8-.7.8-.7-.2-.7-.8c0-.5.2-.8.7-.8M35.8 80.3l-.4.9c-.6-.2-1.1-.3-1.6-.3-1.4 0-2.2.8-2.2 2.4q0 2.4 2.1 2.4c.6 0 1.2-.1 1.9-.4v.9c-.5.2-1.2.4-1.9.4-1 0-1.8-.3-2.3-.9s-.8-1.4-.8-2.4c0-1.1.3-1.9.8-2.5s1.4-.9 2.4-.9c.7 0 1.3.2 2 .4M41.9 86.5v-4.1c0-1-.5-1.5-1.4-1.5-1.2 0-1.8.8-1.8 2.3v3.3h-1.1v-9.1h1.1v3.5h.1c.4-.7 1.1-1 2-1 1.5 0 2.3.8 2.3 2.3v4.2h-1.2zM50.4 83.5h-4.5c0 1.5.7 2.2 2 2.2.8 0 1.5-.1 2.2-.4v.9c-.6.3-1.4.4-2.1.4-1 0-1.7-.3-2.3-.9s-.9-1.4-.9-2.4.3-1.9.8-2.5 1.2-.9 2.1-.9c.8 0 1.5.3 2 .8s.7 1.2.7 2.1zm-4.5-.9h3.4c0-1.2-.5-1.8-1.6-1.8-1.2 0-1.7.6-1.8 1.8M57.3 80.9H55v5.6h-1.1v-5.6H52v-.6l1.9-.2v-.6c0-.8.2-1.3.5-1.6s.9-.5 1.8-.5c.5 0 1 .1 1.5.2l-.2.8c-.4-.1-.8-.2-1.2-.2-.5 0-.8.1-1 .3s-.3.5-.3 1v.6h2.3zM65.6 88.4h-7.4v-.8h7.4zM71.7 86.5h-5.1v-.7l3.9-4.9h-3.7v-.8h4.8v.9l-3.8 4.8h3.9zM79.2 83.5h-4.5c0 1.5.7 2.2 2 2.2.8 0 1.5-.1 2.2-.4v.9c-.6.3-1.4.4-2.1.4-1 0-1.7-.3-2.3-.9s-.9-1.4-.9-2.4.3-1.9.8-2.5 1.2-.9 2.1-.9c.8 0 1.5.3 2 .8s.7 1.2.7 2.1zm-4.5-.9H78c0-1.2-.5-1.8-1.6-1.8s-1.6.6-1.7 1.8M86.2 80.2l-.3 1c-.5-.2-.9-.3-1.3-.3-.6 0-1.1.2-1.5.5s-.5.9-.5 1.6v3.5h-1.1v-6.4h.9l.1 1.2c.3-.5.6-.8 1-1s.8-.3 1.3-.3c.4-.1.9 0 1.4.2M90.7 86.6q-1.2 0-2.1-.9c-.9-.9-.8-1.4-.8-2.4s.3-1.8.8-2.4 1.2-.9 2.1-.9 1.5.3 2.1.9.8 1.4.8 2.4-.3 1.9-.8 2.4-1.2.9-2.1.9m0-.9c1.2 0 1.8-.8 1.8-2.5q0-2.4-1.8-2.4t-1.8 2.4c0 1.7.6 2.5 1.8 2.5M-11.7 119.7v3.6h-1.1V114h.9l.2.9c.4-.7 1.1-1 1.9-1q1.2 0 1.8.9c.4.6.7 1.4.7 2.4 0 1.1-.2 1.9-.7 2.5-.4.6-1.1.9-1.8.9-.8 0-1.4-.3-1.9-.9m0-2.7v.2c0 .9.1 1.5.4 1.9s.7.6 1.3.6c1.1 0 1.6-.8 1.6-2.5 0-1.6-.5-2.4-1.6-2.4-.6 0-1 .2-1.3.5s-.4 1-.4 1.7M-3.3 112.2l-1.6-.1v-.7h2.6v8.3l2.1.1v.7h-5.2v-.7l2-.1v-7.5zM6 120.5l-.2-.9c-.3.4-.6.6-.9.8s-.7.2-1.2.2c-.6 0-1.1-.2-1.5-.5s-.5-.8-.5-1.4c0-1.3 1-2 3-2h1.2v-.4c0-.9-.5-1.4-1.4-1.4-.6 0-1.2.2-1.9.5l-.6-.9c.8-.4 1.5-.6 2.2-.6.9 0 1.5.2 1.9.5s.6.9.6 1.6v4.4H6zm-.3-3.1h-.9c-.8 0-1.3.2-1.6.4s-.5.5-.5 1c0 .7.4 1 1.2 1 .6 0 1-.2 1.4-.5s.5-.8.5-1.3v-.6zM13.9 119.6v.8c-.5.1-1 .2-1.5.2-1.4 0-2.1-.7-2.1-2v-3.7H8.8v-.6l1.6-.3.5-1.7h.6v1.7h2.6v.8h-2.6v3.7c0 .8.4 1.1 1.1 1.1.3.1.7.1 1.3 0M21.3 114.9H19v5.6h-1.1v-5.6H16v-.6l1.9-.2v-.6c0-.8.2-1.3.5-1.6s.9-.5 1.8-.5c.5 0 1 .1 1.5.2l-.2.8c-.4-.1-.8-.2-1.2-.2-.5 0-.8.1-1 .3s-.3.5-.3 1v.6h2.3zM25.9 120.6q-1.2 0-2.1-.9c-.9-.9-.8-1.4-.8-2.4s.3-1.8.8-2.4 1.2-.9 2.1-.9 1.5.3 2.1.9.8 1.4.8 2.4-.3 1.9-.8 2.4-1.2.9-2.1.9m0-.9c1.2 0 1.8-.8 1.8-2.5q0-2.4-1.8-2.4t-1.8 2.4c0 1.7.6 2.5 1.8 2.5M35.7 114.2l-.3 1c-.5-.2-.9-.3-1.3-.3-.6 0-1.1.2-1.5.5s-.5.9-.5 1.6v3.5H31v-6.4h1l.1 1.2c.3-.5.6-.8 1-1s.8-.3 1.3-.3c.4-.1.9 0 1.3.2M42.5 120.5v-4.1c0-.6-.1-1-.2-1.2s-.3-.3-.5-.3c-.3 0-.6.2-.7.5s-.2.9-.2 1.6v3.6H40v-4.1c0-1-.2-1.5-.7-1.5-.3 0-.6.2-.7.5s-.2.9-.2 1.9v3.3h-.9v-6.4h.5l.2.9h.1c.3-.7.7-1 1.2-1 .6 0 1.1.4 1.2 1.1.3-.7.7-1.1 1.3-1.1.5 0 .9.2 1.1.5s.3 1 .3 1.8v4.2h-.9zM45.1 120.2v-1c.8.3 1.5.5 2.2.5 1.1 0 1.6-.3 1.6-.9q0-.3-.3-.6c-.3-.3-.6-.4-1.3-.6-.9-.3-1.5-.7-1.7-.9s-.4-.6-.4-1c0-.5.2-.9.7-1.3s1-.5 1.8-.5 1.5.1 2.2.4l-.4.9c-.7-.3-1.3-.4-1.9-.4-.9 0-1.4.3-1.4.8q0 .3.3.6c.3.3.7.3 1.4.6.8.3 1.4.6 1.6.9s.4.6.4 1.1c0 .6-.2 1-.7 1.4s-1.1.5-1.9.5c-.9-.1-1.7-.2-2.2-.5M54.7 113.9c.5 0 .7.3.7.8s-.2.8-.7.8-.7-.3-.7-.8.2-.8.7-.8m0 5.1c.5 0 .7.3.7.8s-.2.8-.7.8-.7-.3-.7-.8.2-.8.7-.8M-12 134.8v-1h3.9v1zM5.9 137.5v-4.1c0-1-.5-1.5-1.4-1.5-1.2 0-1.8.8-1.8 2.3v3.3h-1v-6.4h.9l.2.9h.1c.4-.7 1.1-1 2-1 1.5 0 2.3.8 2.3 2.3v4.2zM13.2 137.5l-.2-.9c-.3.4-.6.6-.9.8s-.7.2-1.2.2c-.6 0-1.1-.2-1.5-.5s-.5-.8-.5-1.4c0-1.3 1-2 3-2h1.2v-.4c0-.9-.5-1.4-1.4-1.4-.6 0-1.2.2-1.9.5l-.4-.8c.8-.4 1.5-.6 2.2-.6.9 0 1.5.2 1.9.5s.6.9.6 1.6v4.4zm-.3-3.1H12c-.8 0-1.3.2-1.6.4s-.5.5-.5 1c0 .7.4 1 1.2 1 .6 0 1-.2 1.4-.5s.5-.8.5-1.3v-.6zM20.9 137.5v-4.1c0-.6-.1-1-.2-1.2s-.3-.3-.5-.3c-.3 0-.6.2-.7.5s-.2.9-.2 1.6v3.6h-.9v-4.1c0-1-.2-1.5-.7-1.5-.3 0-.6.2-.7.5s-.2.9-.2 1.9v3.3h-.9v-6.4h.7l.2.9h.1c.3-.7.7-1 1.2-1 .6 0 1.1.4 1.2 1.1.3-.7.7-1.1 1.3-1.1.5 0 .9.2 1.1.5s.3 1 .3 1.8v4.2h-1.1zM28.8 134.5h-4.5c0 1.5.7 2.2 2 2.2.8 0 1.5-.1 2.2-.4v.9c-.6.3-1.4.4-2.1.4-1 0-1.7-.3-2.3-.9s-.9-1.4-.9-2.4.3-1.9.8-2.5 1.2-.9 2.1-.9c.8 0 1.5.3 2 .8s.7 1.2.7 2.1zm-4.6-.9h3.4c0-1.2-.5-1.8-1.6-1.8s-1.6.6-1.8 1.8M33.1 130.9c.5 0 .7.3.7.8s-.2.8-.7.8-.7-.3-.7-.8.2-.8.7-.8m0 5.1c.5 0 .7.3.7.8s-.2.8-.7.8-.7-.3-.7-.8.2-.8.7-.8M49.3 137.5l-.2-.9H49c-.4.7-1.1 1-2 1-1.5 0-2.3-.8-2.3-2.3v-4.2h1.1v4.1c0 1 .5 1.5 1.4 1.5.6 0 1.1-.2 1.4-.5s.4-1 .4-1.8v-3.3h1.1v6.4zM53.1 136.7l-.3.8H52v-9.1h1.1v3.5c.4-.6 1-1 1.9-1q1.2 0 1.8.9c.6.9.7 1.4.7 2.4 0 1.1-.2 1.9-.7 2.5s-1.1.9-1.8.9c-.8 0-1.4-.3-1.9-.9m0-2.4c0 .9.1 1.5.4 1.9s.7.6 1.3.6c1.1 0 1.6-.8 1.6-2.5 0-1.6-.5-2.4-1.6-2.4-.6 0-1 .2-1.3.6s-.4.9-.4 1.8M63.7 137.5l-.2-.9h-.1c-.4.7-1.1 1-2 1-1.5 0-2.3-.8-2.3-2.3v-4.2h1.1v4.1c0 1 .5 1.5 1.4 1.5.6 0 1.1-.2 1.4-.5s.4-1 .4-1.8v-3.3h1.1v6.4zM70.7 137.5v-4.1c0-1-.5-1.5-1.4-1.5-1.2 0-1.8.8-1.8 2.3v3.3h-1.1v-6.4h.9l.2.9h.1c.4-.7 1.1-1 2-1 1.5 0 2.3.8 2.3 2.3v4.2zM78.7 136.6v.8c-.5.1-1 .2-1.5.2-1.4 0-2.1-.7-2.1-2v-3.7h-1.6v-.6l1.6-.3.5-1.7h.6v1.7h2.6v.8h-2.6v3.7c0 .8.4 1.1 1.1 1.1.4.1.8.1 1.4 0M85.4 137.5l-.2-.9h-.1c-.4.7-1.1 1-2 1-1.5 0-2.3-.8-2.3-2.3v-4.2H82v4.1c0 1 .5 1.5 1.4 1.5.6 0 1.1-.2 1.4-.5s.4-1 .4-1.8v-3.3h1.1v6.4zM88.8 134.8v-1h3.9v1zM98.8 137.5h-1v-7.4l-.7.7-.9.7-.6-.7 2.2-1.8h.9v8.5zM108.1 135.6h-1.2v1.9h-1v-1.9h-4v-.9l3.9-5.8h1.1v5.7h1.2zm-2.2-1v-2.1c0-.7 0-1.5.1-2.5h-.1c-.1.4-.3.8-.5 1.1l-2.4 3.6h2.9zM112.4 135.7c.6 0 .9.3.9 1s-.3 1-.9 1-.9-.3-.9-1 .3-1 .9-1M119.5 137.6c-.9 0-1.6-.4-2-1.1s-.7-1.8-.7-3.3c0-2.9.9-4.4 2.7-4.4.9 0 1.6.4 2.1 1.1s.7 1.8.7 3.3c0 2.9-.9 4.4-2.8 4.4m0-.9c.6 0 1-.3 1.3-.8s.4-1.4.4-2.7c0-1.2-.1-2.1-.4-2.7s-.7-.8-1.3-.8-1 .3-1.2.8-.4 1.4-.4 2.7c0 1.2.1 2.1.4 2.7s.7.8 1.2.8M129.8 135.6h-1.2v1.9h-1v-1.9h-4v-.9l3.9-5.8h1.1v5.7h1.2zm-2.3-1v-2.1c0-.7 0-1.5.1-2.5h-.1c-.1.4-.3.8-.5 1.1l-2.4 3.6h2.9zM-12 151.8v-1h3.9v1zM5.9 154.5v-4.1c0-1-.5-1.5-1.4-1.5-1.2 0-1.8.8-1.8 2.3v3.3h-1v-6.4h.9l.2.9h.1c.4-.7 1.1-1 2-1 1.5 0 2.3.8 2.3 2.3v4.2zM13.2 154.5l-.2-.9c-.3.4-.6.6-.9.8s-.7.2-1.2.2c-.6 0-1.1-.2-1.5-.5s-.5-.8-.5-1.4c0-1.3 1-2 3-2h1.2v-.4c0-.9-.5-1.4-1.4-1.4-.6 0-1.2.2-1.9.5l-.4-.8c.8-.4 1.5-.6 2.2-.6.9 0 1.5.2 1.9.5s.6.9.6 1.6v4.4zm-.3-3.1H12c-.8 0-1.3.2-1.6.4s-.5.5-.5 1c0 .7.4 1 1.2 1 .6 0 1-.2 1.4-.5s.5-.8.5-1.3v-.6zM20.9 154.5v-4.1c0-.6-.1-1-.2-1.2s-.3-.3-.5-.3c-.3 0-.6.2-.7.5s-.2.9-.2 1.6v3.6h-.9v-4.1c0-1-.2-1.5-.7-1.5-.3 0-.6.2-.7.5s-.2.9-.2 1.9v3.3h-.9v-6.4h.7l.2.9h.1c.3-.7.7-1 1.2-1 .6 0 1.1.4 1.2 1.1.3-.7.7-1.1 1.3-1.1.5 0 .9.2 1.1.5s.3 1 .3 1.8v4.2h-1.1zM28.8 151.5h-4.5c0 1.5.7 2.2 2 2.2.8 0 1.5-.1 2.2-.4v.9c-.6.3-1.4.4-2.1.4-1 0-1.7-.3-2.3-.9s-.9-1.4-.9-2.4.3-1.9.8-2.5 1.2-.9 2.1-.9c.8 0 1.5.3 2 .8s.7 1.2.7 2.1zm-4.6-.9h3.4c0-1.2-.5-1.8-1.6-1.8s-1.6.6-1.8 1.8M33.1 147.9c.5 0 .7.3.7.8s-.2.8-.7.8-.7-.3-.7-.8.2-.8.7-.8m0 5.1c.5 0 .7.3.7.8s-.2.8-.7.8-.7-.3-.7-.8.2-.8.7-.8M48.7 154.5l-.8-3.5-.4-1.9-.4 2-.8 3.5h-1.1l-1.3-6.4h.9l.6 3.2c.1.7.2 1.5.3 2.3.1-.7.3-1.4.4-2.1l.8-3.4H48l.7 3.4c.2.8.3 1.5.4 2.1.1-.9.2-1.7.4-2.3l.6-3.2h.9l-1.3 6.4h-1zM54.3 148.9l-1.6-.1v-.7h2.6v5.6l2.1.1v.7h-5.1v-.7l2-.1zm.6-3.5c.4 0 .6.2.6.7 0 .2-.1.4-.2.5s-.3.2-.4.2c-.4 0-.6-.2-.6-.7-.1-.5.1-.7.6-.7M63.5 154.5v-4.1c0-1-.5-1.5-1.4-1.5-1.2 0-1.8.8-1.8 2.3v3.3h-1.1v-6.4h.9l.2.9h.1c.4-.7 1.1-1 2-1 1.5 0 2.3.8 2.3 2.3v4.2zM70.8 153.6c-.5.7-1.1 1-1.9 1q-1.2 0-1.8-.9c-.6-.9-.7-1.4-.7-2.4 0-1.1.2-1.9.7-2.5s1.1-.9 1.8-.9c.8 0 1.4.3 1.9.9h.1c0-.5-.1-.8-.1-.9v-2.6h1.1v9.1H71zm0-2.1v-.2c0-.9-.1-1.5-.4-1.9s-.7-.6-1.3-.6c-1.1 0-1.6.8-1.6 2.5 0 1.6.5 2.4 1.6 2.4.6 0 1-.2 1.3-.5s.3-.9.4-1.7M76.3 154.6q-1.2 0-2.1-.9c-.9-.9-.8-1.4-.8-2.4s.3-1.8.8-2.4 1.2-.9 2.1-.9 1.5.3 2.1.9.8 1.4.8 2.4-.3 1.9-.8 2.4-1.2.9-2.1.9m0-.9c1.2 0 1.8-.8 1.8-2.5q0-2.4-1.8-2.4t-1.8 2.4c0 1.7.6 2.5 1.8 2.5M84.7 154.5l-.8-3.5-.4-1.9-.4 2-.8 3.5h-1.1l-1.3-6.4h.9l.6 3.2c.1.7.2 1.5.3 2.3.1-.7.3-1.4.4-2.1l.8-3.4H84l.7 3.4c.2.8.3 1.5.4 2.1.1-.9.2-1.7.4-2.3l.6-3.2h.9l-1.3 6.4h-1zM88.3 154.2v-1c.8.3 1.5.5 2.2.5 1.1 0 1.6-.3 1.6-.9q0-.3-.3-.6c-.3-.3-.6-.4-1.3-.6-.9-.3-1.5-.7-1.7-.9s-.4-.6-.4-1c0-.5.2-.9.7-1.3s1-.5 1.8-.5 1.5.1 2.2.4l-.4.9c-.7-.3-1.3-.4-1.9-.4-.9 0-1.4.3-1.4.8q0 .3.3.6c.3.3.7.3 1.4.6.8.3 1.4.6 1.6.9s.4.6.4 1.1c0 .6-.2 1-.7 1.4s-1.1.5-1.9.5c-.9-.1-1.7-.2-2.2-.5M96 151.8v-1h3.9v1zM107.8 154.5h-5.3v-.9l2.1-2.2c.8-.8 1.3-1.5 1.5-1.9s.4-.9.4-1.4c0-.4-.1-.8-.4-1s-.6-.4-1-.4c-.6 0-1.2.3-1.9.8l-.6-.7c.8-.7 1.6-1 2.5-1q1.2 0 1.8.6c.6.6.7 1 .7 1.7 0 .5-.1.9-.3 1.4s-.8 1.2-1.7 2.2l-1.6 1.8h4v1zM112.3 154.6c-.9 0-1.6-.4-2-1.1s-.7-1.8-.7-3.3c0-2.9.9-4.4 2.7-4.4.9 0 1.6.4 2.1 1.1s.7 1.8.7 3.3c0 2.9-.9 4.4-2.8 4.4m0-.9c.6 0 1-.3 1.3-.8s.4-1.4.4-2.7c0-1.2-.1-2.1-.4-2.7s-.7-.8-1.3-.8-1 .3-1.2.8-.4 1.4-.4 2.7c0 1.2.1 2.1.4 2.7s.7.8 1.2.8M120.4 154.5h-1v-7.4l-.7.7-.9.7-.6-.7 2.2-1.8h.9v8.5zM129.4 154.5h-5.3v-.9l2.1-2.2c.8-.8 1.3-1.5 1.5-1.9s.4-.9.4-1.4c0-.4-.1-.8-.4-1s-.6-.4-1-.4c-.6 0-1.2.3-1.9.8l-.6-.7c.8-.7 1.6-1 2.5-1q1.2 0 1.8.6c.4.4.7 1 .7 1.7 0 .5-.1.9-.3 1.4s-.8 1.2-1.7 2.2l-1.6 1.8h4v1zM136.6 148.2l-.3 1c-.5-.2-.9-.3-1.3-.3-.6 0-1.1.2-1.5.5s-.5.9-.5 1.6v3.5h-1.1v-6.4h.9l.1 1.2c.3-.5.6-.8 1-1s.8-.3 1.3-.3c.4-.1.9 0 1.4.2M143.8 154.5h-5.3v-.9l2.1-2.2c.8-.8 1.3-1.5 1.5-1.9s.4-.9.4-1.4c0-.4-.1-.8-.4-1s-.6-.4-1-.4c-.6 0-1.2.3-1.9.8l-.6-.7c.8-.7 1.6-1 2.5-1q1.2 0 1.8.6c.6.6.7 1 .7 1.7 0 .5-.1.9-.3 1.4s-.8 1.2-1.7 2.2l-1.6 1.8h4v1zM-12.5 188.2v-1c.8.3 1.5.5 2.2.5 1.1 0 1.6-.3 1.6-.9q0-.3-.3-.6c-.3-.3-.6-.4-1.3-.6-.9-.3-1.5-.7-1.7-.9s-.4-.6-.4-1c0-.5.2-.9.7-1.3s1-.5 1.8-.5 1.5.1 2.2.4l-.4.9c-.7-.3-1.3-.4-1.9-.4-.9 0-1.4.3-1.4.8q0 .3.3.6c.3.3.7.3 1.4.6.8.3 1.4.6 1.6.9.3.3.4.6.4 1.1 0 .6-.2 1-.7 1.4-.5.3-1.1.5-1.9.5-.9-.1-1.7-.2-2.2-.5M-1.1 188.5l-.2-.9h-.1c-.4.7-1.1 1-2 1-1.5 0-2.3-.8-2.3-2.3v-4.2h1.1v4.1c0 1 .5 1.5 1.4 1.5.6 0 1.1-.2 1.4-.5s.4-1 .4-1.8v-3.3h1.1v6.4zM3.9 182.9l-1.6-.1v-.7H5v5.6l2.1.1v.7H1.9v-.7l2-.1zm.5-3.5c.4 0 .6.2.6.7 0 .2-.1.4-.2.5s-.3.2-.4.2c-.4 0-.6-.2-.6-.7s.2-.7.6-.7M13.9 187.6v.8c-.5.1-1 .2-1.5.2-1.4 0-2.1-.7-2.1-2v-3.7H8.8v-.6l1.6-.3.5-1.7h.6v1.7h2.6v.8h-2.6v3.7c0 .8.4 1.1 1.1 1.1.3.1.7.1 1.3 0M21.6 185.5H17c0 1.5.7 2.2 2 2.2.8 0 1.5-.1 2.2-.4v.9c-.6.3-1.4.4-2.1.4-1 0-1.7-.3-2.3-.9s-.9-1.4-.9-2.4.3-1.9.8-2.5 1.2-.9 2.1-.9c.8 0 1.5.3 2 .8s.7 1.2.7 2.1v.7zm-4.6-.9h3.4c0-1.2-.5-1.8-1.6-1.8q-1.65 0-1.8 1.8M23.5 188.2v-1c.8.3 1.5.5 2.2.5 1.1 0 1.6-.3 1.6-.9q0-.3-.3-.6c-.3-.3-.6-.4-1.3-.6-.9-.3-1.5-.7-1.7-.9s-.4-.6-.4-1c0-.5.2-.9.7-1.3s1-.5 1.8-.5 1.5.1 2.2.4l-.4.9c-.7-.3-1.3-.4-1.9-.4-.9 0-1.4.3-1.4.8q0 .3.3.6c.3.3.7.3 1.4.6.8.3 1.4.6 1.6.9s.4.6.4 1.1c0 .6-.2 1-.7 1.4s-1.1.5-1.9.5c-.9-.1-1.7-.2-2.2-.5M33.1 181.9c.5 0 .7.3.7.8s-.2.8-.7.8-.7-.3-.7-.8.2-.8.7-.8m0 5.1c.5 0 .7.3.7.8s-.2.8-.7.8-.7-.3-.7-.8.2-.8.7-.8M-12 202.8v-1h3.9v1zM5.9 205.5v-4.1c0-1-.5-1.5-1.4-1.5-1.2 0-1.8.8-1.8 2.3v3.3h-1v-6.4h.9l.2.9h.1c.4-.7 1.1-1 2-1 1.5 0 2.3.8 2.3 2.3v4.2zM13.2 205.5l-.2-.9c-.3.4-.6.6-.9.8s-.7.2-1.2.2c-.6 0-1.1-.2-1.5-.5s-.5-.8-.5-1.4c0-1.3 1-2 3-2h1.2v-.4c0-.9-.5-1.4-1.4-1.4-.6 0-1.2.2-1.9.5l-.4-.8c.8-.4 1.5-.6 2.2-.6.9 0 1.5.2 1.9.5s.6.9.6 1.6v4.4zm-.3-3.1H12c-.8 0-1.3.2-1.6.4s-.5.5-.5 1c0 .7.4 1 1.2 1 .6 0 1-.2 1.4-.5s.5-.8.5-1.3v-.6zM20.9 205.5v-4.1c0-.6-.1-1-.2-1.2s-.3-.3-.5-.3c-.3 0-.6.2-.7.5s-.2.9-.2 1.6v3.6h-.9v-4.1c0-1-.2-1.5-.7-1.5-.3 0-.6.2-.7.5s-.2.9-.2 1.9v3.3h-.9v-6.4h.7l.2.9h.1c.3-.7.7-1 1.2-1 .6 0 1.1.4 1.2 1.1.3-.7.7-1.1 1.3-1.1.5 0 .9.2 1.1.5s.3 1 .3 1.8v4.2h-1.1zM28.8 202.5h-4.5c0 1.5.7 2.2 2 2.2.8 0 1.5-.1 2.2-.4v.9c-.6.3-1.4.4-2.1.4-1 0-1.7-.3-2.3-.9s-.9-1.4-.9-2.4.3-1.9.8-2.5 1.2-.9 2.1-.9c.8 0 1.5.3 2 .8s.7 1.2.7 2.1zm-4.6-.9h3.4c0-1.2-.5-1.8-1.6-1.8s-1.6.6-1.8 1.8M33.1 198.9c.5 0 .7.3.7.8s-.2.8-.7.8-.7-.3-.7-.8.2-.8.7-.8m0 5.1c.5 0 .7.3.7.8s-.2.8-.7.8-.7-.3-.7-.8.2-.8.7-.8M50.2 199.3l-.4.9c-.6-.2-1.1-.3-1.6-.3-1.4 0-2.2.8-2.2 2.4q0 2.4 2.1 2.4c.6 0 1.2-.1 1.9-.4v.9c-.5.2-1.2.4-1.9.4-1 0-1.8-.3-2.3-.9s-.8-1.4-.8-2.4c0-1.1.3-1.9.8-2.5s1.4-.9 2.4-.9c.7 0 1.3.2 2 .4M54.3 197.2l-1.6-.1v-.7h2.6v8.3l2.1.1v.7h-5.2v-.7l2-.1v-7.5zM61.5 199.9l-1.6-.1v-.7h2.6v5.6l2.1.1v.7h-5.1v-.7l2-.1zm.6-3.5c.4 0 .6.2.6.7 0 .2-.1.4-.2.5s-.3.2-.4.2c-.4 0-.6-.2-.6-.7-.1-.5.1-.7.6-.7M72 202.5h-4.5c0 1.5.7 2.2 2 2.2.8 0 1.5-.1 2.2-.4v.9c-.6.3-1.4.4-2.1.4-1 0-1.7-.3-2.3-.9s-.9-1.4-.9-2.4.3-1.9.8-2.5 1.2-.9 2.1-.9c.8 0 1.5.3 2 .8s.7 1.2.7 2.1zm-4.5-.9h3.4c0-1.2-.5-1.8-1.6-1.8-1.2 0-1.7.6-1.8 1.8M77.9 205.5v-4.1c0-1-.5-1.5-1.4-1.5-1.2 0-1.8.8-1.8 2.3v3.3h-1.1v-6.4h.9l.2.9h.1c.4-.7 1.1-1 2-1 1.5 0 2.3.8 2.3 2.3v4.2zM85.9 204.6v.8c-.5.1-1 .2-1.5.2-1.4 0-2.1-.7-2.1-2v-3.7h-1.6v-.6l1.6-.3.5-1.7h.6v1.7H86v.8h-2.6v3.7c0 .8.4 1.1 1.1 1.1.4.1.9.1 1.4 0M-7.5 216.2l-.3 1c-.5-.2-.9-.3-1.3-.3-.6 0-1.1.2-1.5.5s-.5.9-.5 1.6v3.5h-1.1v-6.4h.9l.1 1.2c.3-.5.6-.8 1-1s.8-.3 1.3-.3c.5-.1 1 0 1.4.2M-1.1 222.5l-.2-.9h-.1c-.4.7-1.1 1-2 1-1.5 0-2.3-.8-2.3-2.3v-4.2h1.1v4.1c0 1 .5 1.5 1.4 1.5.6 0 1.1-.2 1.4-.5s.4-1 .4-1.8v-3.3h1.1v6.4zM5.9 222.5v-4.1c0-1-.5-1.5-1.4-1.5-1.2 0-1.8.8-1.8 2.3v3.3h-1v-6.4h.9l.2.9h.1c.4-.7 1.1-1 2-1 1.5 0 2.3.8 2.3 2.3v4.2zM15.2 224.4H7.8v-.8h7.4zM18.3 214.2l-1.6-.1v-.7h2.6v8.3l2.1.1v.7h-5.2v-.7l2-.1v-7.5zM25.5 216.9l-1.6-.1v-.7h2.6v5.6l2.1.1v.7h-5.1v-.7l2-.1zm.5-3.5c.4 0 .6.2.6.7 0 .2-.1.4-.2.5s-.3.2-.4.2c-.4 0-.6-.2-.6-.7s.2-.7.6-.7M30.7 222.2v-1c.8.3 1.5.5 2.2.5 1.1 0 1.6-.3 1.6-.9q0-.3-.3-.6c-.3-.3-.6-.4-1.3-.6-.9-.3-1.5-.7-1.7-.9s-.4-.6-.4-1c0-.5.2-.9.7-1.3s1-.5 1.8-.5 1.5.1 2.2.4l-.4.9c-.7-.3-1.3-.4-1.9-.4-.9 0-1.4.3-1.4.8q0 .3.3.6c.2.1.7.3 1.4.6.8.3 1.4.6 1.6.9s.4.6.4 1.1c0 .6-.2 1-.7 1.4s-1.1.5-1.9.5c-.9-.1-1.7-.2-2.2-.5M42.7 221.6v.8c-.5.1-1 .2-1.5.2-1.4 0-2.1-.7-2.1-2v-3.7h-1.6v-.6l1.6-.3.5-1.7h.6v1.7h2.6v.8h-2.6v3.7c0 .8.4 1.1 1.1 1.1.4.1.8.1 1.4 0M47.5 215.9c.5 0 .7.3.7.8s-.2.8-.7.8-.7-.3-.7-.8.2-.8.7-.8m0 5.1c.5 0 .7.3.7.8s-.2.8-.7.8-.7-.3-.7-.8.2-.8.7-.8M-12 236.8v-1h3.9v1zM6.9 233.2l-.3 1c-.5-.2-.9-.3-1.3-.3-.6 0-1.1.2-1.5.5s-.5.9-.5 1.6v3.5h-1v-6.4h.9l.1 1.2c.3-.5.6-.8 1-1s.8-.3 1.3-.3c.4-.1.9 0 1.3.2M14.4 236.5H9.8c0 1.5.7 2.2 2 2.2.8 0 1.5-.1 2.2-.4v.9c-.6.3-1.4.4-2.1.4-1 0-1.7-.3-2.3-.9s-.9-1.4-.9-2.4.3-1.9.8-2.5 1.2-.9 2.1-.9c.8 0 1.5.3 2 .8s.7 1.2.7 2.1v.7zm-4.6-.9h3.4c0-1.2-.5-1.8-1.6-1.8q-1.65 0-1.8 1.8M21.4 233.3l-.4.9c-.6-.2-1.1-.3-1.6-.3-1.4 0-2.2.8-2.2 2.4q0 2.4 2.1 2.4c.6 0 1.2-.1 1.9-.4v.9c-.5.2-1.2.4-1.9.4-1 0-1.8-.3-2.3-.9s-.8-1.4-.8-2.4c0-1.1.3-1.9.8-2.5s1.4-.9 2.4-.9c.7 0 1.3.2 2 .4M25.5 233.9l-1.6-.1v-.7h2.6v5.6l2.1.1v.7h-5.1v-.7l2-.1zm.5-3.5c.4 0 .6.2.6.7 0 .2-.1.4-.2.5s-.3.2-.4.2c-.4 0-.6-.2-.6-.7s.2-.7.6-.7M31.5 238.7v3.6h-1.1V233h.9l.2.9c.4-.7 1.1-1 1.9-1q1.2 0 1.8.9c.6.9.7 1.4.7 2.4 0 1.1-.2 1.9-.7 2.5s-1.1.9-1.8.9c-.8 0-1.4-.3-1.9-.9m0-2.7v.2c0 .9.1 1.5.4 1.9s.7.6 1.3.6c1.1 0 1.6-.8 1.6-2.5 0-1.6-.5-2.4-1.6-2.4-.6 0-1 .2-1.3.5-.2.4-.4 1-.4 1.7M43.2 236.5h-4.5c0 1.5.7 2.2 2 2.2.8 0 1.5-.1 2.2-.4v.9c-.6.3-1.4.4-2.1.4-1 0-1.7-.3-2.3-.9s-.9-1.4-.9-2.4.3-1.9.8-2.5 1.2-.9 2.1-.9c.8 0 1.5.3 2 .8s.7 1.2.7 2.1zm-4.5-.9H42c0-1.2-.5-1.8-1.6-1.8s-1.6.6-1.7 1.8M49.5 241.4h-3.1v-10.5h3.1v.9h-2v8.7h2zM53.1 238.7v3.6H52V233h.9l.2.9c.4-.7 1.1-1 1.9-1q1.2 0 1.8.9c.6.9.7 1.4.7 2.4 0 1.1-.2 1.9-.7 2.5s-1.1.9-1.8.9c-.8 0-1.4-.3-1.9-.9m0-2.7v.2c0 .9.1 1.5.4 1.9s.7.6 1.3.6c1.1 0 1.6-.8 1.6-2.5 0-1.6-.5-2.4-1.6-2.4-.6 0-1 .2-1.3.5s-.3 1-.4 1.7M61.9 239.6q-1.2 0-2.1-.9c-.9-.9-.8-1.4-.8-2.4s.3-1.8.8-2.4 1.2-.9 2.1-.9 1.5.3 2.1.9c.5.6.8 1.4.8 2.4s-.3 1.9-.8 2.4q-.75.9-2.1.9m0-.9c1.2 0 1.8-.8 1.8-2.5q0-2.4-1.8-2.4t-1.8 2.4c0 1.7.6 2.5 1.8 2.5M66.7 239.2v-1c.8.3 1.5.5 2.2.5 1.1 0 1.6-.3 1.6-.9q0-.3-.3-.6c-.3-.3-.6-.4-1.3-.6-.9-.3-1.5-.7-1.7-.9s-.4-.6-.4-1c0-.5.2-.9.7-1.3s1-.5 1.8-.5 1.5.1 2.2.4l-.4.9c-.7-.3-1.3-.4-1.9-.4-.9 0-1.4.3-1.4.8q0 .3.3.6c.3.3.7.3 1.4.6.8.3 1.4.6 1.6.9s.4.6.4 1.1c0 .6-.2 1-.7 1.4s-1.1.5-1.9.5c-.9-.1-1.7-.2-2.2-.5M78.7 238.6v.8c-.5.1-1 .2-1.5.2-1.4 0-2.1-.7-2.1-2v-3.7h-1.6v-.6l1.6-.3.5-1.7h.6v1.7h2.6v.8h-2.6v3.7c0 .8.4 1.1 1.1 1.1.4.1.8.1 1.4 0M86.5 233.1v.7l-1.1.2c.3.3.4.7.4 1.2q0 .9-.6 1.5c-.6.6-1 .6-1.7.6H83c-.4.2-.6.5-.6.8s.3.5.9.5h1.1c.7 0 1.2.2 1.6.5s.5.7.5 1.3c0 1.5-1.1 2.2-3.3 2.2-.9 0-1.5-.2-1.9-.5s-.7-.8-.7-1.3c0-.8.5-1.4 1.4-1.6q-.6-.3-.6-.9c0-.4.3-.8.8-1.1-.3-.1-.6-.4-.8-.7s-.3-.7-.3-1.1c0-.7.2-1.3.6-1.6s1-.6 1.8-.6c.3 0 .6 0 .9.1h2.1zm-2.5 6.3h-1.1c-.9 0-1.3.4-1.3 1.2 0 .7.5 1 1.6 1 1.5 0 2.3-.4 2.3-1.3 0-.3-.1-.6-.3-.7s-.6-.2-1.2-.2m-.6-2.9c.9 0 1.3-.4 1.3-1.3s-.4-1.4-1.3-1.4-1.3.5-1.3 1.4c0 .8.4 1.3 1.3 1.3M93.4 233.2l-.3 1c-.5-.2-.9-.3-1.3-.3-.6 0-1.1.2-1.5.5s-.5.9-.5 1.6v3.5h-1.1v-6.4h.9l.1 1.2c.3-.5.6-.8 1-1s.8-.3 1.3-.3c.4-.1.9 0 1.4.2M100.8 236.5h-4.5c0 1.5.7 2.2 2 2.2.8 0 1.5-.1 2.2-.4v.9c-.6.3-1.4.4-2.1.4-1 0-1.7-.3-2.3-.9s-.9-1.4-.9-2.4.3-1.9.8-2.5 1.2-.9 2.1-.9c.8 0 1.5.3 2 .8s.7 1.2.7 2.1zm-4.5-.9h3.4c0-1.2-.5-1.8-1.6-1.8q-1.65 0-1.8 1.8M102.7 239.2v-1c.8.3 1.5.5 2.2.5 1.1 0 1.6-.3 1.6-.9q0-.3-.3-.6c-.3-.3-.6-.4-1.3-.6-.9-.3-1.5-.7-1.7-.9s-.4-.6-.4-1c0-.5.2-.9.7-1.3s1-.5 1.8-.5 1.5.1 2.2.4l-.4.9c-.7-.3-1.3-.4-1.9-.4-.9 0-1.4.3-1.4.8q0 .3.3.6c.3.3.7.3 1.4.6.8.3 1.4.6 1.6.9s.4.6.4 1.1c0 .6-.2 1-.7 1.4s-1.1.5-1.9.5c-.9-.1-1.7-.2-2.2-.5M114 233.9l.2-.9h.9v9.3H114v-2.7c0-.2 0-.5.1-1h-.1c-.4.7-1.1 1-1.9 1q-1.2 0-1.8-.9c-.6-.9-.7-1.4-.7-2.4 0-1.1.2-1.9.7-2.5s1.1-.9 1.8-.9c.8 0 1.4.4 1.9 1m0 2.6v-.2c0-.9-.1-1.5-.4-1.9s-.7-.6-1.3-.6c-1.1 0-1.6.8-1.6 2.5 0 1.6.5 2.4 1.6 2.4.6 0 1-.2 1.3-.5s.3-.9.4-1.7M119.1 231.2l-1.6-.1v-.7h2.6v8.3l2.1.1v.7H117v-.7l2-.1v-7.5zM126.8 232.9c.5 0 .7.3.7.8s-.2.8-.7.8-.7-.3-.7-.8.2-.8.7-.8m0 5.1c.5 0 .7.3.7.8s-.2.8-.7.8-.7-.3-.7-.8c-.1-.5.2-.8.7-.8M134 232.9c.5 0 .7.3.7.8s-.2.8-.7.8-.7-.3-.7-.8.2-.8.7-.8m0 5.1c.5 0 .7.3.7.8s-.2.8-.7.8-.7-.3-.7-.8c-.1-.5.2-.8.7-.8M143.8 233.3l-.4.9c-.6-.2-1.1-.3-1.6-.3-1.4 0-2.2.8-2.2 2.4q0 2.4 2.1 2.4c.6 0 1.2-.1 1.9-.4v.9c-.5.2-1.2.4-1.9.4-1 0-1.8-.3-2.3-.9s-.8-1.4-.8-2.4c0-1.1.3-1.9.8-2.5s1.4-.9 2.4-.9c.7 0 1.4.2 2 .4M147.9 231.2l-1.6-.1v-.7h2.6v8.3l2.1.1v.7h-5.2v-.7l2-.1v-7.5zM155.1 233.9l-1.6-.1v-.7h2.6v5.6l2.1.1v.7h-5.1v-.7l2-.1zm.6-3.5c.4 0 .6.2.6.7 0 .2-.1.4-.2.5s-.3.2-.4.2c-.4 0-.6-.2-.6-.7-.1-.5.2-.7.6-.7M165.6 236.5H161c0 1.5.7 2.2 2 2.2.8 0 1.5-.1 2.2-.4v.9c-.6.3-1.4.4-2.1.4-1 0-1.7-.3-2.3-.9s-.9-1.4-.9-2.4.3-1.9.8-2.5 1.2-.9 2.1-.9c.8 0 1.5.3 2 .8s.7 1.2.7 2.1v.7zm-4.5-.9h3.4c0-1.2-.5-1.8-1.6-1.8q-1.65 0-1.8 1.8M171.6 239.5v-4.1c0-1-.5-1.5-1.4-1.5-1.2 0-1.8.8-1.8 2.3v3.3h-1.1v-6.4h.9l.2.9h.1c.4-.7 1.1-1 2-1 1.5 0 2.3.8 2.3 2.3v4.2zM179.5 238.6v.8c-.5.1-1 .2-1.5.2-1.4 0-2.1-.7-2.1-2v-3.7h-1.6v-.6l1.6-.3.5-1.7h.6v1.7h2.6v.8H177v3.7c0 .8.4 1.1 1.1 1.1.4.1.9.1 1.4 0M182.5 240.5h2v-8.7h-2v-.9h3.1v10.5h-3.1zM-12 253.8v-1h3.9v1zM5.9 256.5v-4.1c0-1-.5-1.5-1.4-1.5-1.2 0-1.8.8-1.8 2.3v3.3h-1v-6.4h.9l.2.9h.1c.4-.7 1.1-1 2-1 1.5 0 2.3.8 2.3 2.3v4.2zM13.2 256.5l-.2-.9c-.3.4-.6.6-.9.8s-.7.2-1.2.2c-.6 0-1.1-.2-1.5-.5s-.5-.8-.5-1.4c0-1.3 1-2 3-2h1.2v-.4c0-.9-.5-1.4-1.4-1.4-.6 0-1.2.2-1.9.5l-.4-.8c.8-.4 1.5-.6 2.2-.6.9 0 1.5.2 1.9.5s.6.9.6 1.6v4.4zm-.3-3.1H12c-.8 0-1.3.2-1.6.4s-.5.5-.5 1c0 .7.4 1 1.2 1 .6 0 1-.2 1.4-.5s.5-.8.5-1.3v-.6zM20.9 256.5v-4.1c0-.6-.1-1-.2-1.2s-.3-.3-.5-.3c-.3 0-.6.2-.7.5s-.2.9-.2 1.6v3.6h-.9v-4.1c0-1-.2-1.5-.7-1.5-.3 0-.6.2-.7.5s-.2.9-.2 1.9v3.3h-.9v-6.4h.7l.2.9h.1c.3-.7.7-1 1.2-1 .6 0 1.1.4 1.2 1.1.3-.7.7-1.1 1.3-1.1.5 0 .9.2 1.1.5s.3 1 .3 1.8v4.2h-1.1zM28.8 253.5h-4.5c0 1.5.7 2.2 2 2.2.8 0 1.5-.1 2.2-.4v.9c-.6.3-1.4.4-2.1.4-1 0-1.7-.3-2.3-.9s-.9-1.4-.9-2.4.3-1.9.8-2.5 1.2-.9 2.1-.9c.8 0 1.5.3 2 .8s.7 1.2.7 2.1zm-4.6-.9h3.4c0-1.2-.5-1.8-1.6-1.8s-1.6.6-1.8 1.8M33.1 249.9c.5 0 .7.3.7.8s-.2.8-.7.8-.7-.3-.7-.8.2-.8.7-.8m0 5.1c.5 0 .7.3.7.8s-.2.8-.7.8-.7-.3-.7-.8.2-.8.7-.8M45.1 256.2v-1c.8.3 1.5.5 2.2.5 1.1 0 1.6-.3 1.6-.9q0-.3-.3-.6c-.3-.3-.6-.4-1.3-.6-.9-.3-1.5-.7-1.7-.9s-.4-.6-.4-1c0-.5.2-.9.7-1.3s1-.5 1.8-.5 1.5.1 2.2.4l-.4.9c-.7-.3-1.3-.4-1.9-.4-.9 0-1.4.3-1.4.8q0 .3.3.6c.3.3.7.3 1.4.6.8.3 1.4.6 1.6.9s.4.6.4 1.1c0 .6-.2 1-.7 1.4s-1.1.5-1.9.5c-.9-.1-1.7-.2-2.2-.5M57.6 253.5H53c0 1.5.7 2.2 2 2.2.8 0 1.5-.1 2.2-.4v.9c-.6.3-1.4.4-2.1.4-1 0-1.7-.3-2.3-.9s-.9-1.4-.9-2.4.3-1.9.8-2.5 1.2-.9 2.1-.9c.8 0 1.5.3 2 .8s.7 1.2.7 2.1v.7zm-4.5-.9h3.4c0-1.2-.5-1.8-1.6-1.8-1.2 0-1.7.6-1.8 1.8M64.6 250.2l-.3 1c-.5-.2-.9-.3-1.3-.3-.6 0-1.1.2-1.5.5s-.5.9-.5 1.6v3.5h-1.1v-6.4h.9l.1 1.2c.3-.5.6-.8 1-1s.8-.3 1.3-.3c.4-.1.9 0 1.4.2M68.5 256.5l-2.4-6.4h1.1l1.4 3.8c.3.9.5 1.5.6 1.9 0-.2.2-.8.6-1.9l1.4-3.8h1.1l-2.4 6.4zM79.2 253.5h-4.5c0 1.5.7 2.2 2 2.2.8 0 1.5-.1 2.2-.4v.9c-.6.3-1.4.4-2.1.4-1 0-1.7-.3-2.3-.9s-.9-1.4-.9-2.4.3-1.9.8-2.5 1.2-.9 2.1-.9c.8 0 1.5.3 2 .8s.7 1.2.7 2.1zm-4.5-.9H78c0-1.2-.5-1.8-1.6-1.8s-1.6.6-1.7 1.8M86.2 250.2l-.3 1c-.5-.2-.9-.3-1.3-.3-.6 0-1.1.2-1.5.5s-.5.9-.5 1.6v3.5h-1.1v-6.4h.9l.1 1.2c.3-.5.6-.8 1-1s.8-.3 1.3-.3c.4-.1.9 0 1.4.2M-7.5 267.2l-.3 1c-.5-.2-.9-.3-1.3-.3-.6 0-1.1.2-1.5.5s-.5.9-.5 1.6v3.5h-1.1v-6.4h.9l.1 1.2c.3-.5.6-.8 1-1s.8-.3 1.3-.3c.5-.1 1 0 1.4.2M-1.1 273.5l-.2-.9h-.1c-.4.7-1.1 1-2 1-1.5 0-2.3-.8-2.3-2.3v-4.2h1.1v4.1c0 1 .5 1.5 1.4 1.5.6 0 1.1-.2 1.4-.5s.4-1 .4-1.8v-3.3h1.1v6.4zM5.9 273.5v-4.1c0-1-.5-1.5-1.4-1.5-1.2 0-1.8.8-1.8 2.3v3.3h-1v-6.4h.9l.2.9h.1c.4-.7 1.1-1 2-1 1.5 0 2.3.8 2.3 2.3v4.2zM15.2 275.4H7.8v-.8h7.4zM18.3 265.2l-1.6-.1v-.7h2.6v8.3l2.1.1v.7h-5.2v-.7l2-.1v-7.5zM25.5 267.9l-1.6-.1v-.7h2.6v5.6l2.1.1v.7h-5.1v-.7l2-.1zm.5-3.5c.4 0 .6.2.6.7 0 .2-.1.4-.2.5s-.3.2-.4.2c-.4 0-.6-.2-.6-.7s.2-.7.6-.7M30.7 273.2v-1c.8.3 1.5.5 2.2.5 1.1 0 1.6-.3 1.6-.9q0-.3-.3-.6c-.3-.3-.6-.4-1.3-.6-.9-.3-1.5-.7-1.7-.9s-.4-.6-.4-1c0-.5.2-.9.7-1.3s1-.5 1.8-.5 1.5.1 2.2.4l-.4.9c-.7-.3-1.3-.4-1.9-.4-.9 0-1.4.3-1.4.8q0 .3.3.6c.2.1.7.3 1.4.6.8.3 1.4.6 1.6.9s.4.6.4 1.1c0 .6-.2 1-.7 1.4s-1.1.5-1.9.5c-.9-.1-1.7-.2-2.2-.5M42.7 272.6v.8c-.5.1-1 .2-1.5.2-1.4 0-2.1-.7-2.1-2v-3.7h-1.6v-.6l1.6-.3.5-1.7h.6v1.7h2.6v.8h-2.6v3.7c0 .8.4 1.1 1.1 1.1.4.1.8.1 1.4 0M47.5 266.9c.5 0 .7.3.7.8s-.2.8-.7.8-.7-.3-.7-.8.2-.8.7-.8m0 5.1c.5 0 .7.3.7.8s-.2.8-.7.8-.7-.3-.7-.8.2-.8.7-.8M-12 287.8v-1h3.9v1zM6.9 284.2l-.3 1c-.5-.2-.9-.3-1.3-.3-.6 0-1.1.2-1.5.5s-.5.9-.5 1.6v3.5h-1v-6.4h.9l.1 1.2c.3-.5.6-.8 1-1s.8-.3 1.3-.3c.4-.1.9 0 1.3.2M14.4 287.5H9.8c0 1.5.7 2.2 2 2.2.8 0 1.5-.1 2.2-.4v.9c-.6.3-1.4.4-2.1.4-1 0-1.7-.3-2.3-.9s-.9-1.4-.9-2.4.3-1.9.8-2.5 1.2-.9 2.1-.9c.8 0 1.5.3 2 .8s.7 1.2.7 2.1v.7zm-4.6-.9h3.4c0-1.2-.5-1.8-1.6-1.8q-1.65 0-1.8 1.8M21.4 284.3l-.4.9c-.6-.2-1.1-.3-1.6-.3-1.4 0-2.2.8-2.2 2.4q0 2.4 2.1 2.4c.6 0 1.2-.1 1.9-.4v.9c-.5.2-1.2.4-1.9.4-1 0-1.8-.3-2.3-.9s-.8-1.4-.8-2.4c0-1.1.3-1.9.8-2.5s1.4-.9 2.4-.9c.7 0 1.3.2 2 .4M25.5 284.9l-1.6-.1v-.7h2.6v5.6l2.1.1v.7h-5.1v-.7l2-.1zm.5-3.5c.4 0 .6.2.6.7 0 .2-.1.4-.2.5s-.3.2-.4.2c-.4 0-.6-.2-.6-.7s.2-.7.6-.7M31.5 289.7v3.6h-1.1V284h.9l.2.9c.4-.7 1.1-1 1.9-1q1.2 0 1.8.9c.6.9.7 1.4.7 2.4 0 1.1-.2 1.9-.7 2.5s-1.1.9-1.8.9c-.8 0-1.4-.3-1.9-.9m0-2.7v.2c0 .9.1 1.5.4 1.9s.7.6 1.3.6c1.1 0 1.6-.8 1.6-2.5 0-1.6-.5-2.4-1.6-2.4-.6 0-1 .2-1.3.5-.2.4-.4 1-.4 1.7M43.2 287.5h-4.5c0 1.5.7 2.2 2 2.2.8 0 1.5-.1 2.2-.4v.9c-.6.3-1.4.4-2.1.4-1 0-1.7-.3-2.3-.9s-.9-1.4-.9-2.4.3-1.9.8-2.5 1.2-.9 2.1-.9c.8 0 1.5.3 2 .8s.7 1.2.7 2.1zm-4.5-.9H42c0-1.2-.5-1.8-1.6-1.8s-1.6.6-1.7 1.8M49.5 292.4h-3.1v-10.5h3.1v.9h-2v8.7h2zM53.1 289.7v3.6H52V284h.9l.2.9c.4-.7 1.1-1 1.9-1q1.2 0 1.8.9c.6.9.7 1.4.7 2.4 0 1.1-.2 1.9-.7 2.5s-1.1.9-1.8.9c-.8 0-1.4-.3-1.9-.9m0-2.7v.2c0 .9.1 1.5.4 1.9s.7.6 1.3.6c1.1 0 1.6-.8 1.6-2.5 0-1.6-.5-2.4-1.6-2.4-.6 0-1 .2-1.3.5s-.3 1-.4 1.7M61.9 290.6q-1.2 0-2.1-.9c-.9-.9-.8-1.4-.8-2.4s.3-1.8.8-2.4 1.2-.9 2.1-.9 1.5.3 2.1.9c.5.6.8 1.4.8 2.4s-.3 1.9-.8 2.4q-.75.9-2.1.9m0-.9c1.2 0 1.8-.8 1.8-2.5q0-2.4-1.8-2.4t-1.8 2.4c0 1.7.6 2.5 1.8 2.5M66.7 290.2v-1c.8.3 1.5.5 2.2.5 1.1 0 1.6-.3 1.6-.9q0-.3-.3-.6c-.3-.3-.6-.4-1.3-.6-.9-.3-1.5-.7-1.7-.9s-.4-.6-.4-1c0-.5.2-.9.7-1.3s1-.5 1.8-.5 1.5.1 2.2.4l-.4.9c-.7-.3-1.3-.4-1.9-.4-.9 0-1.4.3-1.4.8q0 .3.3.6c.3.3.7.3 1.4.6.8.3 1.4.6 1.6.9s.4.6.4 1.1c0 .6-.2 1-.7 1.4s-1.1.5-1.9.5c-.9-.1-1.7-.2-2.2-.5M78.7 289.6v.8c-.5.1-1 .2-1.5.2-1.4 0-2.1-.7-2.1-2v-3.7h-1.6v-.6l1.6-.3.5-1.7h.6v1.7h2.6v.8h-2.6v3.7c0 .8.4 1.1 1.1 1.1.4.1.8.1 1.4 0M86.5 284.1v.7l-1.1.2c.3.3.4.7.4 1.2q0 .9-.6 1.5c-.6.6-1 .6-1.7.6H83c-.4.2-.6.5-.6.8s.3.5.9.5h1.1c.7 0 1.2.2 1.6.5s.5.7.5 1.3c0 1.5-1.1 2.2-3.3 2.2-.9 0-1.5-.2-1.9-.5s-.7-.8-.7-1.3c0-.8.5-1.4 1.4-1.6q-.6-.3-.6-.9c0-.4.3-.8.8-1.1-.3-.1-.6-.4-.8-.7s-.3-.7-.3-1.1c0-.7.2-1.3.6-1.6s1-.6 1.8-.6c.3 0 .6 0 .9.1h2.1zm-2.5 6.3h-1.1c-.9 0-1.3.4-1.3 1.2 0 .7.5 1 1.6 1 1.5 0 2.3-.4 2.3-1.3 0-.3-.1-.6-.3-.7s-.6-.2-1.2-.2m-.6-2.9c.9 0 1.3-.4 1.3-1.3s-.4-1.4-1.3-1.4-1.3.5-1.3 1.4c0 .8.4 1.3 1.3 1.3M93.4 284.2l-.3 1c-.5-.2-.9-.3-1.3-.3-.6 0-1.1.2-1.5.5s-.5.9-.5 1.6v3.5h-1.1v-6.4h.9l.1 1.2c.3-.5.6-.8 1-1s.8-.3 1.3-.3c.4-.1.9 0 1.4.2M100.8 287.5h-4.5c0 1.5.7 2.2 2 2.2.8 0 1.5-.1 2.2-.4v.9c-.6.3-1.4.4-2.1.4-1 0-1.7-.3-2.3-.9s-.9-1.4-.9-2.4.3-1.9.8-2.5 1.2-.9 2.1-.9c.8 0 1.5.3 2 .8s.7 1.2.7 2.1zm-4.5-.9h3.4c0-1.2-.5-1.8-1.6-1.8q-1.65 0-1.8 1.8M102.7 290.2v-1c.8.3 1.5.5 2.2.5 1.1 0 1.6-.3 1.6-.9q0-.3-.3-.6c-.3-.3-.6-.4-1.3-.6-.9-.3-1.5-.7-1.7-.9s-.4-.6-.4-1c0-.5.2-.9.7-1.3s1-.5 1.8-.5 1.5.1 2.2.4l-.4.9c-.7-.3-1.3-.4-1.9-.4-.9 0-1.4.3-1.4.8q0 .3.3.6c.3.3.7.3 1.4.6.8.3 1.4.6 1.6.9s.4.6.4 1.1c0 .6-.2 1-.7 1.4s-1.1.5-1.9.5c-.9-.1-1.7-.2-2.2-.5M114 284.9l.2-.9h.9v9.3H114v-2.7c0-.2 0-.5.1-1h-.1c-.4.7-1.1 1-1.9 1q-1.2 0-1.8-.9c-.6-.9-.7-1.4-.7-2.4 0-1.1.2-1.9.7-2.5s1.1-.9 1.8-.9c.8 0 1.4.4 1.9 1m0 2.6v-.2c0-.9-.1-1.5-.4-1.9s-.7-.6-1.3-.6c-1.1 0-1.6.8-1.6 2.5 0 1.6.5 2.4 1.6 2.4.6 0 1-.2 1.3-.5s.3-.9.4-1.7M119.1 282.2l-1.6-.1v-.7h2.6v8.3l2.1.1v.7H117v-.7l2-.1v-7.5zM126.8 283.9c.5 0 .7.3.7.8s-.2.8-.7.8-.7-.3-.7-.8.2-.8.7-.8m0 5.1c.5 0 .7.3.7.8s-.2.8-.7.8-.7-.3-.7-.8c-.1-.5.2-.8.7-.8M134 283.9c.5 0 .7.3.7.8s-.2.8-.7.8-.7-.3-.7-.8.2-.8.7-.8m0 5.1c.5 0 .7.3.7.8s-.2.8-.7.8-.7-.3-.7-.8c-.1-.5.2-.8.7-.8M138.7 290.2v-1c.8.3 1.5.5 2.2.5 1.1 0 1.6-.3 1.6-.9q0-.3-.3-.6c-.3-.3-.6-.4-1.3-.6-.9-.3-1.5-.7-1.7-.9s-.4-.6-.4-1c0-.5.2-.9.7-1.3s1-.5 1.8-.5 1.5.1 2.2.4l-.4.9c-.7-.3-1.3-.4-1.9-.4-.9 0-1.4.3-1.4.8q0 .3.3.6c.3.3.7.3 1.4.6.8.3 1.4.6 1.6.9s.4.6.4 1.1c0 .6-.2 1-.7 1.4s-1.1.5-1.9.5c-.9-.1-1.7-.2-2.2-.5M151.2 287.5h-4.5c0 1.5.7 2.2 2 2.2.8 0 1.5-.1 2.2-.4v.9c-.6.3-1.4.4-2.1.4-1 0-1.7-.3-2.3-.9s-.9-1.4-.9-2.4.3-1.9.8-2.5 1.2-.9 2.1-.9c.8 0 1.5.3 2 .8s.7 1.2.7 2.1zm-4.5-.9h3.4c0-1.2-.5-1.8-1.6-1.8q-1.65 0-1.8 1.8M158.2 284.2l-.3 1c-.5-.2-.9-.3-1.3-.3-.6 0-1.1.2-1.5.5s-.5.9-.5 1.6v3.5h-1.1v-6.4h.9l.1 1.2c.3-.5.6-.8 1-1s.8-.3 1.3-.3c.4-.1.9 0 1.4.2M162.1 290.5l-2.4-6.4h1.1l1.4 3.8c.3.9.5 1.5.6 1.9 0-.2.2-.8.6-1.9l1.4-3.8h1.1l-2.4 6.4zM172.8 287.5h-4.5c0 1.5.7 2.2 2 2.2.8 0 1.5-.1 2.2-.4v.9c-.6.3-1.4.4-2.1.4-1 0-1.7-.3-2.3-.9s-.9-1.4-.9-2.4.3-1.9.8-2.5 1.2-.9 2.1-.9c.8 0 1.5.3 2 .8s.7 1.2.7 2.1zm-4.5-.9h3.4c0-1.2-.5-1.8-1.6-1.8q-1.65 0-1.8 1.8M179.8 284.2l-.3 1c-.5-.2-.9-.3-1.3-.3-.6 0-1.1.2-1.5.5s-.5.9-.5 1.6v3.5h-1.1v-6.4h.9l.1 1.2c.3-.5.6-.8 1-1s.8-.3 1.3-.3c.4-.1.9 0 1.4.2M182.5 291.5h2v-8.7h-2v-.9h3.1v10.5h-3.1z" style="fill:#fff" transform="translate(34 33)"/></svg>