<?xml version="1.0" encoding="utf-8"?>
<!-- Generator: Adobe Illustrator 21.0.0, SVG Export Plug-In . SVG Version: 6.00 Build 0)  -->
<svg version="1.1" id="Layer_1" xmlns="http://www.w3.org/2000/svg" xmlns:xlink="http://www.w3.org/1999/xlink" x="0px" y="0px"
	 viewBox="0 0 300 283" style="enable-background:new 0 0 300 283;" xml:space="preserve">
<rect style="fill:#595A59;" width="300" height="283"/>
<title>CLI results</title>
<desc>Created with Sketch.</desc>
<g id="Page-1">
	<g id="kitchen-home" transform="translate(-536.000000, -969.000000)">
		<g id="Body" transform="translate(230.000000, 223.000000)">
			<g id="CLI-results" transform="translate(340.000000, 779.000000)">
				<g style="enable-background:new    ;">
					<path style="fill:#FFFFFF;" d="M-14-1.7v-1h7.3v1H-14z"/>
					<path style="fill:#FFFFFF;" d="M-6.8-1.7v-1h7.3v1H-6.8z"/>
					<path style="fill:#FFFFFF;" d="M1.3-1.2l4.2-2l-4.2-2v-0.9l5.4,2.6v0.6L1.3-0.3V-1.2z"/>
					<path style="fill:#FFFFFF;" d="M17-2.5V1h-1.1v-8.6H18c2,0,3,0.8,3,2.4c0,1.1-0.6,1.9-1.7,2.3L21.7,1h-1.3l-2.1-3.5H17z
						 M17-3.5h1c0.7,0,1.2-0.1,1.5-0.4s0.5-0.7,0.5-1.2c0-0.6-0.2-0.9-0.5-1.2s-0.8-0.4-1.5-0.4H17V-3.5z"/>
					<path style="fill:#FFFFFF;" d="M27.4,1l-0.2-0.9h-0.1c-0.4,0.7-1.1,1-2,1c-1.5,0-2.3-0.8-2.3-2.3v-4.2H24v4.1
						c0,1,0.5,1.5,1.4,1.5c0.6,0,1.1-0.2,1.4-0.5s0.4-1,0.4-1.8v-3.3h1.1V1H27.4z"/>
					<path style="fill:#FFFFFF;" d="M34.4,1v-4.1c0-1-0.5-1.5-1.4-1.5c-1.2,0-1.8,0.8-1.8,2.3V1h-1.1v-6.4H31l0.2,0.9h0.1
						c0.4-0.7,1.1-1,2-1c1.5,0,2.3,0.8,2.3,2.3V1H34.4z"/>
					<path style="fill:#FFFFFF;" d="M41.6,1v-4.1c0-1-0.5-1.5-1.4-1.5c-1.2,0-1.8,0.8-1.8,2.3V1h-1.1v-6.4h0.9l0.2,0.9h0.1
						c0.4-0.7,1.1-1,2-1c1.5,0,2.3,0.8,2.3,2.3V1H41.6z"/>
					<path style="fill:#FFFFFF;" d="M46.8-4.6l-1.6-0.1v-0.7h2.6v5.6l2.1,0.1V1h-5.1V0.3l2-0.1V-4.6z M47.3-8.1
						c0.4,0,0.6,0.2,0.6,0.7c0,0.2-0.1,0.4-0.2,0.5s-0.3,0.2-0.4,0.2c-0.4,0-0.6-0.2-0.6-0.7C46.7-7.9,46.9-8.1,47.3-8.1z"/>
					<path style="fill:#FFFFFF;" d="M56,1v-4.1c0-1-0.5-1.5-1.4-1.5c-1.2,0-1.8,0.8-1.8,2.3V1h-1.1v-6.4h0.9l0.2,0.9h0.1
						c0.4-0.7,1.1-1,2-1c1.5,0,2.3,0.8,2.3,2.3V1H56z"/>
					<path style="fill:#FFFFFF;" d="M64.6-5.4v0.7l-1.1,0.2c0.3,0.3,0.4,0.7,0.4,1.2c0,0.6-0.2,1.1-0.6,1.5s-1,0.6-1.7,0.6
						c-0.2,0-0.4,0-0.5,0c-0.4,0.2-0.6,0.5-0.6,0.8c0,0.3,0.3,0.5,0.9,0.5h1.1c0.7,0,1.2,0.2,1.6,0.5s0.5,0.7,0.5,1.3
						c0,1.5-1.1,2.2-3.3,2.2c-0.9,0-1.5-0.2-1.9-0.5s-0.7-0.8-0.7-1.3c0-0.8,0.5-1.4,1.4-1.6c-0.4-0.2-0.6-0.5-0.6-0.9
						c0-0.4,0.3-0.8,0.8-1.1c-0.3-0.1-0.6-0.4-0.8-0.7s-0.3-0.7-0.3-1.1c0-0.7,0.2-1.3,0.6-1.6s1-0.6,1.8-0.6c0.3,0,0.6,0,0.9,0.1
						H64.6z M62.1,0.9H61c-0.9,0-1.3,0.4-1.3,1.2c0,0.7,0.5,1,1.6,1c1.5,0,2.3-0.4,2.3-1.3c0-0.3-0.1-0.6-0.3-0.7S62.6,0.9,62.1,0.9
						z M61.5-2c0.9,0,1.3-0.4,1.3-1.3c0-0.9-0.4-1.4-1.3-1.4s-1.3,0.5-1.3,1.4C60.2-2.5,60.6-2,61.5-2z"/>
					<path style="fill:#FFFFFF;" d="M78.6-5.3l-0.3,1c-0.5-0.2-0.9-0.3-1.3-0.3c-0.6,0-1.1,0.2-1.5,0.5S75-3.2,75-2.5V1H74v-6.4h0.9
						L75-4.3h0c0.3-0.5,0.6-0.8,1-1s0.8-0.3,1.3-0.3C77.7-5.6,78.1-5.5,78.6-5.3z"/>
					<path style="fill:#FFFFFF;" d="M80.8,0.7v-1c0.8,0.3,1.5,0.5,2.2,0.5c1.1,0,1.6-0.3,1.6-0.9c0-0.2-0.1-0.4-0.3-0.6
						S83.7-1.7,83-1.9c-0.9-0.3-1.5-0.7-1.7-0.9s-0.4-0.6-0.4-1c0-0.5,0.2-0.9,0.7-1.3s1-0.5,1.8-0.5c0.8,0,1.5,0.1,2.2,0.4
						l-0.4,0.9c-0.7-0.3-1.3-0.4-1.9-0.4c-0.9,0-1.4,0.3-1.4,0.8c0,0.2,0.1,0.4,0.3,0.6s0.7,0.3,1.4,0.6c0.8,0.3,1.4,0.6,1.6,0.9
						s0.4,0.6,0.4,1.1c0,0.6-0.2,1-0.7,1.4S83.8,1.1,83,1.1C82,1.1,81.3,1,80.8,0.7z"/>
					<path style="fill:#FFFFFF;" d="M88.8,0.2L88.8,0.2c0,0.5,0,0.8,0,0.9v2.7h-1.1v-9.3h0.9l0.2,0.9h0c0.4-0.7,1.1-1,1.9-1
						c0.8,0,1.4,0.3,1.8,0.9s0.7,1.4,0.7,2.4c0,1.1-0.2,1.9-0.7,2.5s-1.1,0.9-1.8,0.9C89.9,1.1,89.3,0.8,88.8,0.2z M88.8-2.5v0.2
						c0,0.9,0.1,1.5,0.4,1.9s0.7,0.6,1.3,0.6c1.1,0,1.6-0.8,1.6-2.5c0-1.6-0.5-2.4-1.6-2.4c-0.6,0-1,0.2-1.3,0.5S88.8-3.2,88.8-2.5z
						"/>
					<path style="fill:#FFFFFF;" d="M100.4-2h-4.5c0,1.5,0.7,2.2,2,2.2c0.8,0,1.5-0.1,2.2-0.4v0.9C99.4,1,98.7,1.1,98,1.1
						c-1,0-1.7-0.3-2.3-0.9s-0.9-1.4-0.9-2.4c0-1,0.3-1.9,0.8-2.5s1.2-0.9,2.1-0.9c0.8,0,1.5,0.3,2,0.8s0.7,1.2,0.7,2.1V-2z
						 M95.9-2.9h3.4c0-1.2-0.5-1.8-1.6-1.8C96.6-4.7,96-4.1,95.9-2.9z"/>
					<path style="fill:#FFFFFF;" d="M107.4-5.2l-0.4,0.9c-0.6-0.2-1.1-0.3-1.6-0.3c-1.4,0-2.2,0.8-2.2,2.4c0,1.6,0.7,2.4,2.1,2.4
						c0.6,0,1.2-0.1,1.9-0.4v0.9c-0.5,0.2-1.2,0.4-1.9,0.4c-1,0-1.8-0.3-2.3-0.9s-0.8-1.4-0.8-2.4c0-1.1,0.3-1.9,0.8-2.5
						s1.4-0.9,2.4-0.9C106.2-5.6,106.8-5.4,107.4-5.2z"/>
					<path style="fill:#FFFFFF;" d="M121.6,0.1v0.8c-0.5,0.1-1,0.2-1.5,0.2c-1.4,0-2.1-0.7-2.1-2v-3.7h-1.6v-0.6l1.6-0.3l0.5-1.7
						h0.6v1.7h2.6v0.8h-2.6v3.7c0,0.8,0.4,1.1,1.1,1.1C120.6,0.2,121,0.2,121.6,0.1z"/>
					<path style="fill:#FFFFFF;" d="M129.2-2h-4.5c0,1.5,0.7,2.2,2,2.2c0.8,0,1.5-0.1,2.2-0.4v0.9c-0.6,0.3-1.4,0.4-2.1,0.4
						c-1,0-1.7-0.3-2.3-0.9s-0.9-1.4-0.9-2.4c0-1,0.3-1.9,0.8-2.5s1.2-0.9,2.1-0.9c0.8,0,1.5,0.3,2,0.8s0.7,1.2,0.7,2.1V-2z
						 M124.7-2.9h3.4c0-1.2-0.5-1.8-1.6-1.8C125.4-4.7,124.8-4.1,124.7-2.9z"/>
					<path style="fill:#FFFFFF;" d="M131.2,0.7v-1c0.8,0.3,1.5,0.5,2.2,0.5c1.1,0,1.6-0.3,1.6-0.9c0-0.2-0.1-0.4-0.3-0.6
						s-0.6-0.4-1.3-0.6c-0.9-0.3-1.5-0.7-1.7-0.9s-0.4-0.6-0.4-1c0-0.5,0.2-0.9,0.7-1.3s1-0.5,1.8-0.5c0.8,0,1.5,0.1,2.2,0.4
						l-0.4,0.9c-0.7-0.3-1.3-0.4-1.9-0.4c-0.9,0-1.4,0.3-1.4,0.8c0,0.2,0.1,0.4,0.3,0.6s0.7,0.3,1.4,0.6c0.8,0.3,1.4,0.6,1.6,0.9
						s0.4,0.6,0.4,1.1c0,0.6-0.2,1-0.7,1.4s-1.1,0.5-1.9,0.5C132.4,1.1,131.7,1,131.2,0.7z"/>
					<path style="fill:#FFFFFF;" d="M143.2,0.1v0.8c-0.5,0.1-1,0.2-1.5,0.2c-1.4,0-2.1-0.7-2.1-2v-3.7H138v-0.6l1.6-0.3l0.5-1.7h0.6
						v1.7h2.6v0.8h-2.6v3.7c0,0.8,0.4,1.1,1.1,1.1C142.2,0.2,142.6,0.2,143.2,0.1z"/>
					<path style="fill:#FFFFFF;" d="M152.8,0.7v-1c0.8,0.3,1.5,0.5,2.2,0.5c1.1,0,1.6-0.3,1.6-0.9c0-0.2-0.1-0.4-0.3-0.6
						s-0.6-0.4-1.3-0.6c-0.9-0.3-1.5-0.7-1.7-0.9s-0.4-0.6-0.4-1c0-0.5,0.2-0.9,0.7-1.3s1-0.5,1.8-0.5c0.8,0,1.5,0.1,2.2,0.4
						l-0.4,0.9c-0.7-0.3-1.3-0.4-1.9-0.4c-0.9,0-1.4,0.3-1.4,0.8c0,0.2,0.1,0.4,0.3,0.6s0.7,0.3,1.4,0.6c0.8,0.3,1.4,0.6,1.6,0.9
						s0.4,0.6,0.4,1.1c0,0.6-0.2,1-0.7,1.4s-1.1,0.5-1.9,0.5C154,1.1,153.3,1,152.8,0.7z"/>
					<path style="fill:#FFFFFF;" d="M164.2,1l-0.2-0.9H164c-0.4,0.7-1.1,1-2,1c-1.5,0-2.3-0.8-2.3-2.3v-4.2h1.1v4.1
						c0,1,0.5,1.5,1.4,1.5c0.6,0,1.1-0.2,1.4-0.5s0.4-1,0.4-1.8v-3.3h1.1V1H164.2z"/>
					<path style="fill:#FFFFFF;" d="M169.2-4.6l-1.6-0.1v-0.7h2.6v5.6l2.1,0.1V1h-5.1V0.3l2-0.1V-4.6z M169.7-8.1
						c0.4,0,0.6,0.2,0.6,0.7c0,0.2-0.1,0.4-0.2,0.5s-0.3,0.2-0.4,0.2c-0.4,0-0.6-0.2-0.6-0.7C169.1-7.9,169.3-8.1,169.7-8.1z"/>
					<path style="fill:#FFFFFF;" d="M179.2,0.1v0.8c-0.5,0.1-1,0.2-1.5,0.2c-1.4,0-2.1-0.7-2.1-2v-3.7H174v-0.6l1.6-0.3l0.5-1.7h0.6
						v1.7h2.6v0.8h-2.6v3.7c0,0.8,0.4,1.1,1.1,1.1C178.2,0.2,178.6,0.2,179.2,0.1z"/>
					<path style="fill:#FFFFFF;" d="M186.9-2h-4.5c0,1.5,0.7,2.2,2,2.2c0.8,0,1.5-0.1,2.2-0.4v0.9c-0.6,0.3-1.4,0.4-2.1,0.4
						c-1,0-1.7-0.3-2.3-0.9s-0.9-1.4-0.9-2.4c0-1,0.3-1.9,0.8-2.5s1.2-0.9,2.1-0.9c0.8,0,1.5,0.3,2,0.8s0.7,1.2,0.7,2.1V-2z
						 M182.3-2.9h3.4c0-1.2-0.5-1.8-1.6-1.8C183-4.7,182.4-4.1,182.3-2.9z"/>
				</g>
				<g>
				</g>
				<g style="enable-background:new    ;">
					<path style="fill:#FFFFFF;" d="M1.8,26.7c-1,1.1-2,2.3-2.8,3.5s-1.7,2.4-2.4,3.7c-0.1,0.1-0.1,0.2-0.2,0.4
						c-0.3,0.5-0.6,0.8-1.1,0.8c-0.2,0-0.4,0-0.5-0.1s-0.2-0.2-0.4-0.3c-0.1-0.1-0.2-0.3-0.3-0.5s-0.2-0.5-0.3-0.9c0,0,0-0.1,0-0.1
						c-0.1-0.4-0.2-0.7-0.2-0.8c0-0.2,0.1-0.4,0.4-0.6s0.5-0.3,0.8-0.3c0.1,0,0.1,0,0.2,0.1s0.1,0.2,0.2,0.3c0,0.1,0.1,0.2,0.1,0.4
						c0.1,0.4,0.2,0.6,0.3,0.6c0.1,0,0.4-0.4,0.9-1.3c0.5-0.8,1-1.5,1.3-2.1c0.5-0.8,0.9-1.3,1.2-1.7s0.5-0.6,0.7-0.8
						c0.2-0.2,0.4-0.3,0.7-0.4s0.7-0.2,1.1-0.2L1.8,26.7z"/>
				</g>
				<g>
				</g>
				<g style="enable-background:new    ;">
					<path style="fill:#FFFFFF;" d="M8.9,28.6v0.7l-1.1,0.2c0.3,0.3,0.4,0.7,0.4,1.2c0,0.6-0.2,1.1-0.6,1.5s-1,0.6-1.7,0.6
						c-0.2,0-0.4,0-0.5,0c-0.4,0.2-0.6,0.5-0.6,0.8c0,0.3,0.3,0.5,0.9,0.5h1.1c0.7,0,1.2,0.2,1.6,0.5s0.5,0.7,0.5,1.3
						c0,1.5-1.1,2.2-3.3,2.2c-0.9,0-1.5-0.2-1.9-0.5s-0.7-0.8-0.7-1.3c0-0.8,0.5-1.4,1.4-1.6c-0.4-0.2-0.6-0.5-0.6-0.9
						c0-0.4,0.3-0.8,0.8-1.1c-0.3-0.1-0.6-0.4-0.8-0.7s-0.3-0.7-0.3-1.1C3.4,30,3.6,29.4,4,29s1-0.6,1.8-0.6c0.3,0,0.6,0,0.9,0.1
						H8.9z M6.3,34.9H5.2c-0.9,0-1.3,0.4-1.3,1.2c0,0.7,0.5,1,1.6,1c1.5,0,2.3-0.4,2.3-1.3c0-0.3-0.1-0.6-0.3-0.7S6.9,34.9,6.3,34.9
						z M5.7,32C6.6,32,7,31.5,7,30.6c0-0.9-0.4-1.4-1.3-1.4s-1.3,0.5-1.3,1.4C4.4,31.5,4.9,32,5.7,32z"/>
					<path style="fill:#FFFFFF;" d="M12.6,29.4l-1.6-0.1v-0.7h2.6v5.6l2.1,0.1V35h-5.1v-0.7l2-0.1V29.4z M13.2,25.9
						c0.4,0,0.6,0.2,0.6,0.7c0,0.2-0.1,0.4-0.2,0.5s-0.3,0.2-0.4,0.2c-0.4,0-0.6-0.2-0.6-0.7C12.5,26.1,12.8,25.9,13.2,25.9z"/>
					<path style="fill:#FFFFFF;" d="M22.6,34.1v0.8c-0.5,0.1-1,0.2-1.5,0.2c-1.4,0-2.1-0.7-2.1-2v-3.7h-1.6v-0.6l1.6-0.3l0.5-1.7
						h0.6v1.7h2.6v0.8h-2.6v3.7c0,0.8,0.4,1.1,1.1,1.1C21.6,34.2,22.1,34.2,22.6,34.1z"/>
					<path style="fill:#FFFFFF;" d="M33.1,34.2L33.1,34.2L32.8,35H32v-9.1h1.1v2.2c0,0.3,0,0.8,0,1.3h0c0.4-0.6,1-1,1.9-1
						c0.8,0,1.4,0.3,1.8,0.9s0.7,1.4,0.7,2.4c0,1.1-0.2,1.9-0.7,2.5s-1.1,0.9-1.8,0.9C34.1,35.1,33.5,34.8,33.1,34.2z M33.1,31.8
						c0,0.9,0.1,1.5,0.4,1.9s0.7,0.6,1.3,0.6c1.1,0,1.6-0.8,1.6-2.5c0-1.6-0.5-2.4-1.6-2.4c-0.6,0-1,0.2-1.3,0.6
						S33.1,30.9,33.1,31.8z"/>
					<path style="fill:#FFFFFF;" d="M41.4,29.4l-1.6-0.1v-0.7h2.6v5.6l2.1,0.1V35h-5.1v-0.7l2-0.1V29.4z M42,25.9
						c0.4,0,0.6,0.2,0.6,0.7c0,0.2-0.1,0.4-0.2,0.5s-0.3,0.2-0.4,0.2c-0.4,0-0.6-0.2-0.6-0.7C41.3,26.1,41.6,25.9,42,25.9z"/>
					<path style="fill:#FFFFFF;" d="M50.7,35v-4.1c0-1-0.5-1.5-1.4-1.5c-1.2,0-1.8,0.8-1.8,2.3V35h-1.1v-6.4h0.9l0.2,0.9h0.1
						c0.4-0.7,1.1-1,2-1c1.5,0,2.3,0.8,2.3,2.3V35H50.7z"/>
					<path style="fill:#FFFFFF;" d="M57.9,35l-0.2-0.9h0c-0.3,0.4-0.6,0.6-0.9,0.8s-0.7,0.2-1.2,0.2c-0.6,0-1.1-0.2-1.5-0.5
						s-0.5-0.8-0.5-1.4c0-1.3,1-2,3-2l1.2,0v-0.4c0-0.9-0.5-1.4-1.4-1.4c-0.6,0-1.2,0.2-1.9,0.5L53.9,29c0.8-0.4,1.5-0.6,2.2-0.6
						c0.9,0,1.5,0.2,1.9,0.5s0.6,0.9,0.6,1.6V35H57.9z M57.6,31.9l-0.9,0c-0.8,0-1.3,0.2-1.6,0.4s-0.5,0.5-0.5,1c0,0.7,0.4,1,1.2,1
						c0.6,0,1-0.2,1.4-0.5s0.5-0.8,0.5-1.3V31.9z"/>
					<path style="fill:#FFFFFF;" d="M66.1,28.7l-0.3,1c-0.5-0.2-0.9-0.3-1.3-0.3c-0.6,0-1.1,0.2-1.5,0.5s-0.5,0.9-0.5,1.6V35h-1.1
						v-6.4h0.9l0.1,1.2h0c0.3-0.5,0.6-0.8,1-1s0.8-0.3,1.3-0.3C65.1,28.4,65.6,28.5,66.1,28.7z"/>
					<path style="fill:#FFFFFF;" d="M67.6,28.6h1.1l1.5,3.8c0.3,0.8,0.5,1.4,0.5,1.7h0c0.1-0.4,0.3-1,0.5-1.7l1.4-3.8h1.1L71,35.8
						c-0.3,0.7-0.6,1.2-0.9,1.5s-0.8,0.5-1.4,0.5c-0.3,0-0.7,0-1-0.1v-0.8c0.2,0,0.5,0.1,0.8,0.1c0.4,0,0.7-0.1,0.9-0.2
						s0.4-0.4,0.6-0.8l0.3-0.9L67.6,28.6z"/>
					<path style="fill:#FFFFFF;" d="M84.6,29.4l-1.6-0.1v-0.7h2.6v5.6l2.1,0.1V35h-5.1v-0.7l2-0.1V29.4z M85.2,25.9
						c0.4,0,0.6,0.2,0.6,0.7c0,0.2-0.1,0.4-0.2,0.5s-0.3,0.2-0.4,0.2c-0.4,0-0.6-0.2-0.6-0.7C84.6,26.1,84.8,25.9,85.2,25.9z"/>
					<path style="fill:#FFFFFF;" d="M89.9,34.7v-1c0.8,0.3,1.5,0.5,2.2,0.5c1.1,0,1.6-0.3,1.6-0.9c0-0.2-0.1-0.4-0.3-0.6
						s-0.6-0.4-1.3-0.6c-0.9-0.3-1.5-0.7-1.7-0.9s-0.4-0.6-0.4-1c0-0.5,0.2-0.9,0.7-1.3s1-0.5,1.8-0.5c0.8,0,1.5,0.1,2.2,0.4
						l-0.4,0.9c-0.7-0.3-1.3-0.4-1.9-0.4c-0.9,0-1.4,0.3-1.4,0.8c0,0.2,0.1,0.4,0.3,0.6s0.7,0.3,1.4,0.6c0.8,0.3,1.4,0.6,1.6,0.9
						s0.4,0.6,0.4,1.1c0,0.6-0.2,1-0.7,1.4s-1.1,0.5-1.9,0.5C91.1,35.1,90.4,35,89.9,34.7z"/>
					<path style="fill:#FFFFFF;" d="M109.2,29.4h-2.3V35h-1.1v-5.6H104v-0.6l1.9-0.2V28c0-0.8,0.2-1.3,0.5-1.6s0.9-0.5,1.8-0.5
						c0.5,0,1,0.1,1.5,0.2l-0.2,0.8c-0.4-0.1-0.8-0.2-1.2-0.2c-0.5,0-0.8,0.1-1,0.3s-0.3,0.5-0.3,1v0.6h2.3V29.4z"/>
					<path style="fill:#FFFFFF;" d="M113.9,35.1c-0.8,0-1.5-0.3-2.1-0.9s-0.8-1.4-0.8-2.4c0-1,0.3-1.8,0.8-2.4s1.2-0.9,2.1-0.9
						c0.9,0,1.5,0.3,2.1,0.9s0.8,1.4,0.8,2.4c0,1-0.3,1.9-0.8,2.4S114.7,35.1,113.9,35.1z M113.9,34.2c1.2,0,1.8-0.8,1.8-2.5
						c0-1.6-0.6-2.4-1.8-2.4c-1.2,0-1.8,0.8-1.8,2.4C112.1,33.4,112.7,34.2,113.9,34.2z"/>
					<path style="fill:#FFFFFF;" d="M122.9,35l-0.2-0.9h-0.1c-0.4,0.7-1.1,1-2,1c-1.5,0-2.3-0.8-2.3-2.3v-4.2h1.1v4.1
						c0,1,0.5,1.5,1.4,1.5c0.6,0,1.1-0.2,1.4-0.5s0.4-1,0.4-1.8v-3.3h1.1V35H122.9z"/>
					<path style="fill:#FFFFFF;" d="M129.9,35v-4.1c0-1-0.5-1.5-1.4-1.5c-1.2,0-1.8,0.8-1.8,2.3V35h-1.1v-6.4h0.9l0.2,0.9h0.1
						c0.4-0.7,1.1-1,2-1c1.5,0,2.3,0.8,2.3,2.3V35H129.9z"/>
					<path style="fill:#FFFFFF;" d="M137.1,34.1L137.1,34.1c-0.5,0.7-1.1,1-1.9,1c-0.8,0-1.4-0.3-1.8-0.9s-0.7-1.4-0.7-2.4
						c0-1.1,0.2-1.9,0.7-2.5s1.1-0.9,1.8-0.9c0.8,0,1.4,0.3,1.9,0.9h0.1c0-0.5-0.1-0.8-0.1-0.9v-2.6h1.1V35h-0.9L137.1,34.1z
						 M137.1,32v-0.2c0-0.9-0.1-1.5-0.4-1.9s-0.7-0.6-1.3-0.6c-1.1,0-1.6,0.8-1.6,2.5c0,1.6,0.5,2.4,1.6,2.4c0.6,0,1-0.2,1.3-0.5
						S137.1,32.8,137.1,32z"/>
					<path style="fill:#FFFFFF;" d="M149.5,29.4l-1.6-0.1v-0.7h2.6v5.6l2.1,0.1V35h-5.1v-0.7l2-0.1V29.4z M150,25.9
						c0.4,0,0.6,0.2,0.6,0.7c0,0.2-0.1,0.4-0.2,0.5s-0.3,0.2-0.4,0.2c-0.4,0-0.6-0.2-0.6-0.7C149.4,26.1,149.6,25.9,150,25.9z"/>
					<path style="fill:#FFFFFF;" d="M158.7,35v-4.1c0-1-0.5-1.5-1.4-1.5c-1.2,0-1.8,0.8-1.8,2.3V35h-1.1v-6.4h0.9l0.2,0.9h0.1
						c0.4-0.7,1.1-1,2-1c1.5,0,2.3,0.8,2.3,2.3V35H158.7z"/>
					<path style="fill:#FFFFFF;" d="M170,31.7V35h-1.1v-8.6h2.4c2,0,3,0.8,3,2.5c0,0.9-0.3,1.5-0.8,2s-1.3,0.7-2.4,0.7H170z
						 M170,30.7h1c0.8,0,1.3-0.1,1.7-0.4s0.5-0.7,0.5-1.3c0-1.1-0.7-1.6-2-1.6H170V30.7z"/>
					<path style="fill:#FFFFFF;" d="M181,35l-0.8-2.7h-2.9l-0.9,2.7h-1.1l2.8-8.6h1.1l2.8,8.6H181z M179.8,31.4l-0.8-2.5
						c-0.2-0.5-0.3-0.9-0.4-1.3c-0.1,0.4-0.2,0.7-0.3,1.1l-0.8,2.7H179.8z"/>
					<path style="fill:#FFFFFF;" d="M186.4,35h-1.1v-7.6h-2.4v-1h6v1h-2.4V35z"/>
					<path style="fill:#FFFFFF;" d="M195.9,35h-1.1v-4h-3.4v4h-1.1v-8.6h1.1V30h3.4v-3.6h1.1V35z"/>
				</g>
				<g>
				</g>
				<g style="enable-background:new    ;">
					<path style="fill:#FFFFFF;" d="M-9.9,64.5L-9.9,64.5c1.4,0.2,2.1,0.9,2.1,2.1c0,0.8-0.3,1.4-0.8,1.9s-1.3,0.7-2.3,0.7
						c-0.9,0-1.7-0.2-2.3-0.5v-1c0.7,0.4,1.5,0.6,2.2,0.6c1.4,0,2.1-0.6,2.1-1.7c0-1-0.7-1.5-2.2-1.5h-0.8v-0.9h0.8
						c0.6,0,1.1-0.1,1.5-0.4s0.5-0.7,0.5-1.2c0-0.4-0.1-0.7-0.4-0.9s-0.6-0.3-1.1-0.3c-0.7,0-1.4,0.2-2,0.7l-0.5-0.7
						c0.7-0.6,1.6-0.9,2.6-0.9c0.8,0,1.4,0.2,1.9,0.6s0.7,0.9,0.7,1.5c0,0.5-0.2,1-0.5,1.4S-9.3,64.4-9.9,64.5z"/>
					<path style="fill:#FFFFFF;" d="M6.4,68.1v0.8c-0.5,0.1-1,0.2-1.5,0.2c-1.4,0-2.1-0.7-2.1-2v-3.7H1.2v-0.6l1.6-0.3l0.5-1.7h0.6
						v1.7h2.6v0.8H3.8v3.7c0,0.8,0.4,1.1,1.1,1.1C5.3,68.2,5.8,68.2,6.4,68.1z"/>
					<path style="fill:#FFFFFF;" d="M14,66H9.5c0,1.5,0.7,2.2,2,2.2c0.8,0,1.5-0.1,2.2-0.4v0.9c-0.6,0.3-1.4,0.4-2.1,0.4
						c-1,0-1.7-0.3-2.3-0.9s-0.9-1.4-0.9-2.4c0-1,0.3-1.9,0.8-2.5s1.2-0.9,2.1-0.9c0.8,0,1.5,0.3,2,0.8s0.7,1.2,0.7,2.1V66z
						 M9.5,65.1h3.4c0-1.2-0.5-1.8-1.6-1.8C10.2,63.3,9.6,63.9,9.5,65.1z"/>
					<path style="fill:#FFFFFF;" d="M16,68.7v-1c0.8,0.3,1.5,0.5,2.2,0.5c1.1,0,1.6-0.3,1.6-0.9c0-0.2-0.1-0.4-0.3-0.6
						s-0.6-0.4-1.3-0.6c-0.9-0.3-1.5-0.7-1.7-0.9s-0.4-0.6-0.4-1c0-0.5,0.2-0.9,0.7-1.3s1-0.5,1.8-0.5c0.8,0,1.5,0.1,2.2,0.4
						l-0.4,0.9c-0.7-0.3-1.3-0.4-1.9-0.4c-0.9,0-1.4,0.3-1.4,0.8c0,0.2,0.1,0.4,0.3,0.6s0.7,0.3,1.4,0.6c0.8,0.3,1.4,0.6,1.6,0.9
						s0.4,0.6,0.4,1.1c0,0.6-0.2,1-0.7,1.4s-1.1,0.5-1.9,0.5C17.2,69.1,16.5,69,16,68.7z"/>
					<path style="fill:#FFFFFF;" d="M28,68.1v0.8c-0.5,0.1-1,0.2-1.5,0.2c-1.4,0-2.1-0.7-2.1-2v-3.7h-1.6v-0.6l1.6-0.3l0.5-1.7h0.6
						v1.7H28v0.8h-2.6v3.7c0,0.8,0.4,1.1,1.1,1.1C26.9,68.2,27.4,68.2,28,68.1z"/>
					<path style="fill:#FFFFFF;" d="M30.4,68.7v-1c0.8,0.3,1.5,0.5,2.2,0.5c1.1,0,1.6-0.3,1.6-0.9c0-0.2-0.1-0.4-0.3-0.6
						s-0.6-0.4-1.3-0.6c-0.9-0.3-1.5-0.7-1.7-0.9s-0.4-0.6-0.4-1c0-0.5,0.2-0.9,0.7-1.3s1-0.5,1.8-0.5c0.8,0,1.5,0.1,2.2,0.4
						l-0.4,0.9c-0.7-0.3-1.3-0.4-1.9-0.4c-0.9,0-1.4,0.3-1.4,0.8c0,0.2,0.1,0.4,0.3,0.6s0.7,0.3,1.4,0.6c0.8,0.3,1.4,0.6,1.6,0.9
						s0.4,0.6,0.4,1.1c0,0.6-0.2,1-0.7,1.4s-1.1,0.5-1.9,0.5C31.6,69.1,30.9,69,30.4,68.7z"/>
					<path style="fill:#FFFFFF;" d="M40.9,67.5l0.1,0.1c-0.2,0.9-0.6,1.9-1.1,3.1H39c0.3-1.3,0.5-2.3,0.7-3.2H40.9z"/>
					<path style="fill:#FFFFFF;" d="M57.1,69h-5.3v-0.9l2.1-2.2c0.8-0.8,1.3-1.5,1.5-1.9s0.4-0.9,0.4-1.4c0-0.4-0.1-0.8-0.4-1
						s-0.6-0.4-1-0.4c-0.6,0-1.2,0.3-1.9,0.8l-0.6-0.7c0.8-0.7,1.6-1,2.5-1c0.8,0,1.4,0.2,1.8,0.6s0.7,1,0.7,1.7
						c0,0.5-0.1,0.9-0.3,1.4s-0.8,1.2-1.7,2.2L53,68v0h4V69z"/>
					<path style="fill:#FFFFFF;" d="M71.3,63.4h-2.3V69H68v-5.6h-1.9v-0.6l1.9-0.2V62c0-0.8,0.2-1.3,0.5-1.6s0.9-0.5,1.8-0.5
						c0.5,0,1,0.1,1.5,0.2l-0.2,0.8c-0.4-0.1-0.8-0.2-1.2-0.2c-0.5,0-0.8,0.1-1,0.3s-0.3,0.5-0.3,1v0.6h2.3V63.4z"/>
					<path style="fill:#FFFFFF;" d="M77.7,69l-0.2-0.9h0c-0.3,0.4-0.6,0.6-0.9,0.8s-0.7,0.2-1.2,0.2c-0.6,0-1.1-0.2-1.5-0.5
						s-0.5-0.8-0.5-1.4c0-1.3,1-2,3-2l1.2,0v-0.4c0-0.9-0.5-1.4-1.4-1.4c-0.6,0-1.2,0.2-1.9,0.5L73.7,63c0.8-0.4,1.5-0.6,2.2-0.6
						c0.9,0,1.5,0.2,1.9,0.5s0.6,0.9,0.6,1.6V69H77.7z M77.4,65.9l-0.9,0c-0.8,0-1.3,0.2-1.6,0.4s-0.5,0.5-0.5,1c0,0.7,0.4,1,1.2,1
						c0.6,0,1-0.2,1.4-0.5s0.5-0.8,0.5-1.3V65.9z"/>
					<path style="fill:#FFFFFF;" d="M82.8,63.4l-1.6-0.1v-0.7h2.6v5.6l2.1,0.1V69h-5.1v-0.7l2-0.1V63.4z M83.3,59.9
						c0.4,0,0.6,0.2,0.6,0.7c0,0.2-0.1,0.4-0.2,0.5s-0.3,0.2-0.4,0.2c-0.4,0-0.6-0.2-0.6-0.7C82.7,60.1,82.9,59.9,83.3,59.9z"/>
					<path style="fill:#FFFFFF;" d="M89.9,60.7l-1.6-0.1v-0.7H91v8.3l2.1,0.1V69h-5.2v-0.7l2-0.1V60.7z"/>
					<path style="fill:#FFFFFF;" d="M99.4,69l-0.2-0.9h-0.1c-0.4,0.7-1.1,1-2,1c-1.5,0-2.3-0.8-2.3-2.3v-4.2H96v4.1
						c0,1,0.5,1.5,1.4,1.5c0.6,0,1.1-0.2,1.4-0.5s0.4-1,0.4-1.8v-3.3h1.1V69H99.4z"/>
					<path style="fill:#FFFFFF;" d="M107.4,62.7l-0.3,1c-0.5-0.2-0.9-0.3-1.3-0.3c-0.6,0-1.1,0.2-1.5,0.5s-0.5,0.9-0.5,1.6V69h-1.1
						v-6.4h0.9l0.1,1.2h0c0.3-0.5,0.6-0.8,1-1s0.8-0.3,1.3-0.3C106.5,62.4,106.9,62.5,107.4,62.7z"/>
					<path style="fill:#FFFFFF;" d="M114.8,66h-4.5c0,1.5,0.7,2.2,2,2.2c0.8,0,1.5-0.1,2.2-0.4v0.9c-0.6,0.3-1.4,0.4-2.1,0.4
						c-1,0-1.7-0.3-2.3-0.9s-0.9-1.4-0.9-2.4c0-1,0.3-1.9,0.8-2.5s1.2-0.9,2.1-0.9c0.8,0,1.5,0.3,2,0.8s0.7,1.2,0.7,2.1V66z
						 M110.3,65.1h3.4c0-1.2-0.5-1.8-1.6-1.8C111,63.3,110.4,63.9,110.3,65.1z"/>
					<path style="fill:#FFFFFF;" d="M116.8,68.7v-1c0.8,0.3,1.5,0.5,2.2,0.5c1.1,0,1.6-0.3,1.6-0.9c0-0.2-0.1-0.4-0.3-0.6
						s-0.6-0.4-1.3-0.6c-0.9-0.3-1.5-0.7-1.7-0.9s-0.4-0.6-0.4-1c0-0.5,0.2-0.9,0.7-1.3s1-0.5,1.8-0.5c0.8,0,1.5,0.1,2.2,0.4
						l-0.4,0.9c-0.7-0.3-1.3-0.4-1.9-0.4c-0.9,0-1.4,0.3-1.4,0.8c0,0.2,0.1,0.4,0.3,0.6s0.7,0.3,1.4,0.6c0.8,0.3,1.4,0.6,1.6,0.9
						s0.4,0.6,0.4,1.1c0,0.6-0.2,1-0.7,1.4s-1.1,0.5-1.9,0.5C118,69.1,117.3,69,116.8,68.7z"/>
				</g>
				<g>
				</g>
				<g style="enable-background:new    ;">
					<path style="fill:#FFFFFF;" d="M-11.5,103h-1.1v-8.6h4.9v1h-3.8v3h3.6v1h-3.6V103z"/>
					<path style="fill:#FFFFFF;" d="M-3.6,97.4l-1.6-0.1v-0.7h2.6v5.6l2.1,0.1v0.7h-5.1v-0.7l2-0.1V97.4z M-3.1,93.9
						c0.4,0,0.6,0.2,0.6,0.7c0,0.2-0.1,0.4-0.2,0.5s-0.3,0.2-0.4,0.2c-0.4,0-0.6-0.2-0.6-0.7C-3.7,94.1-3.5,93.9-3.1,93.9z"/>
					<path style="fill:#FFFFFF;" d="M5.6,103v-4.1c0-1-0.5-1.5-1.4-1.5c-1.2,0-1.8,0.8-1.8,2.3v3.3H1.3v-6.4h0.9l0.2,0.9h0.1
						c0.4-0.7,1.1-1,2-1c1.5,0,2.3,0.8,2.3,2.3v4.2H5.6z"/>
					<path style="fill:#FFFFFF;" d="M10.8,97.4l-1.6-0.1v-0.7h2.6v5.6l2.1,0.1v0.7H8.8v-0.7l2-0.1V97.4z M11.3,93.9
						c0.4,0,0.6,0.2,0.6,0.7c0,0.2-0.1,0.4-0.2,0.5s-0.3,0.2-0.4,0.2c-0.4,0-0.6-0.2-0.6-0.7C10.7,94.1,10.9,93.9,11.3,93.9z"/>
					<path style="fill:#FFFFFF;" d="M16,102.7v-1c0.8,0.3,1.5,0.5,2.2,0.5c1.1,0,1.6-0.3,1.6-0.9c0-0.2-0.1-0.4-0.3-0.6
						s-0.6-0.4-1.3-0.6c-0.9-0.3-1.5-0.7-1.7-0.9s-0.4-0.6-0.4-1c0-0.5,0.2-0.9,0.7-1.3s1-0.5,1.8-0.5c0.8,0,1.5,0.1,2.2,0.4
						l-0.4,0.9c-0.7-0.3-1.3-0.4-1.9-0.4c-0.9,0-1.4,0.3-1.4,0.8c0,0.2,0.1,0.4,0.3,0.6s0.7,0.3,1.4,0.6c0.8,0.3,1.4,0.6,1.6,0.9
						s0.4,0.6,0.4,1.1c0,0.6-0.2,1-0.7,1.4s-1.1,0.5-1.9,0.5C17.2,103.1,16.5,103,16,102.7z"/>
					<path style="fill:#FFFFFF;" d="M27.2,103v-4.1c0-1-0.5-1.5-1.4-1.5c-1.2,0-1.8,0.8-1.8,2.3v3.3h-1.1v-9.1H24v2.7l0,0.8H24
						c0.4-0.7,1.1-1,2-1c1.5,0,2.3,0.8,2.3,2.3v4.2H27.2z"/>
					<path style="fill:#FFFFFF;" d="M35.6,100h-4.5c0,1.5,0.7,2.2,2,2.2c0.8,0,1.5-0.1,2.2-0.4v0.9c-0.6,0.3-1.4,0.4-2.1,0.4
						c-1,0-1.7-0.3-2.3-0.9s-0.9-1.4-0.9-2.4c0-1,0.3-1.9,0.8-2.5s1.2-0.9,2.1-0.9c0.8,0,1.5,0.3,2,0.8s0.7,1.2,0.7,2.1V100z
						 M31.1,99.1h3.4c0-1.2-0.5-1.8-1.6-1.8C31.8,97.3,31.2,97.9,31.1,99.1z"/>
					<path style="fill:#FFFFFF;" d="M41.7,102.1L41.7,102.1c-0.5,0.7-1.1,1-1.9,1c-0.8,0-1.4-0.3-1.8-0.9s-0.7-1.4-0.7-2.4
						c0-1.1,0.2-1.9,0.7-2.5s1.1-0.9,1.8-0.9c0.8,0,1.4,0.3,1.9,0.9h0.1c0-0.5-0.1-0.8-0.1-0.9v-2.6h1.1v9.1h-0.9L41.7,102.1z
						 M41.6,100v-0.2c0-0.9-0.1-1.5-0.4-1.9s-0.7-0.6-1.3-0.6c-1.1,0-1.6,0.8-1.6,2.5c0,1.6,0.5,2.4,1.6,2.4c0.6,0,1-0.2,1.3-0.5
						S41.6,100.8,41.6,100z"/>
					<path style="fill:#FFFFFF;" d="M53.7,103l-2.4-6.4h1.1l1.4,3.8c0.3,0.9,0.5,1.5,0.6,1.9h0c0-0.2,0.2-0.8,0.6-1.9l1.4-3.8h1.1
						l-2.4,6.4H53.7z"/>
					<path style="fill:#FFFFFF;" d="M64.4,100h-4.5c0,1.5,0.7,2.2,2,2.2c0.8,0,1.5-0.1,2.2-0.4v0.9c-0.6,0.3-1.4,0.4-2.1,0.4
						c-1,0-1.7-0.3-2.3-0.9s-0.9-1.4-0.9-2.4c0-1,0.3-1.9,0.8-2.5s1.2-0.9,2.1-0.9c0.8,0,1.5,0.3,2,0.8s0.7,1.2,0.7,2.1V100z
						 M59.9,99.1h3.4c0-1.2-0.5-1.8-1.6-1.8C60.6,97.3,60,97.9,59.9,99.1z"/>
					<path style="fill:#FFFFFF;" d="M71.4,96.7l-0.3,1c-0.5-0.2-0.9-0.3-1.3-0.3c-0.6,0-1.1,0.2-1.5,0.5s-0.5,0.9-0.5,1.6v3.5h-1.1
						v-6.4h0.9l0.1,1.2h0c0.3-0.5,0.6-0.8,1-1s0.8-0.3,1.3-0.3C70.5,96.4,70.9,96.5,71.4,96.7z"/>
					<path style="fill:#FFFFFF;" d="M75.6,97.4L74,97.3v-0.7h2.6v5.6l2.1,0.1v0.7h-5.1v-0.7l2-0.1V97.4z M76.1,93.9
						c0.4,0,0.6,0.2,0.6,0.7c0,0.2-0.1,0.4-0.2,0.5s-0.3,0.2-0.4,0.2c-0.4,0-0.6-0.2-0.6-0.7C75.5,94.1,75.7,93.9,76.1,93.9z"/>
					<path style="fill:#FFFFFF;" d="M85.7,97.4h-2.3v5.6h-1.1v-5.6h-1.9v-0.6l1.9-0.2V96c0-0.8,0.2-1.3,0.5-1.6s0.9-0.5,1.8-0.5
						c0.5,0,1,0.1,1.5,0.2l-0.2,0.8c-0.4-0.1-0.8-0.2-1.2-0.2c-0.5,0-0.8,0.1-1,0.3s-0.3,0.5-0.3,1v0.6h2.3V97.4z"/>
					<path style="fill:#FFFFFF;" d="M87.3,96.6h1.1l1.5,3.8c0.3,0.8,0.5,1.4,0.5,1.7h0c0.1-0.4,0.3-1,0.5-1.7l1.4-3.8h1.1l-2.8,7.3
						c-0.3,0.7-0.6,1.2-0.9,1.5s-0.8,0.5-1.4,0.5c-0.3,0-0.7,0-1-0.1v-0.8c0.2,0,0.5,0.1,0.8,0.1c0.4,0,0.7-0.1,0.9-0.2
						s0.4-0.4,0.6-0.8l0.3-0.9L87.3,96.6z"/>
					<path style="fill:#FFFFFF;" d="M97.2,97.4l-1.6-0.1v-0.7h2.6v5.6l2.1,0.1v0.7h-5.1v-0.7l2-0.1V97.4z M97.7,93.9
						c0.4,0,0.6,0.2,0.6,0.7c0,0.2-0.1,0.4-0.2,0.5s-0.3,0.2-0.4,0.2c-0.4,0-0.6-0.2-0.6-0.7C97.1,94.1,97.3,93.9,97.7,93.9z"/>
					<path style="fill:#FFFFFF;" d="M106.4,103v-4.1c0-1-0.5-1.5-1.4-1.5c-1.2,0-1.8,0.8-1.8,2.3v3.3h-1.1v-6.4h0.9l0.2,0.9h0.1
						c0.4-0.7,1.1-1,2-1c1.5,0,2.3,0.8,2.3,2.3v4.2H106.4z"/>
					<path style="fill:#FFFFFF;" d="M115,96.6v0.7l-1.1,0.2c0.3,0.3,0.4,0.7,0.4,1.2c0,0.6-0.2,1.1-0.6,1.5s-1,0.6-1.7,0.6
						c-0.2,0-0.4,0-0.5,0c-0.4,0.2-0.6,0.5-0.6,0.8c0,0.3,0.3,0.5,0.9,0.5h1.1c0.7,0,1.2,0.2,1.6,0.5s0.5,0.7,0.5,1.3
						c0,1.5-1.1,2.2-3.3,2.2c-0.9,0-1.5-0.2-1.9-0.5s-0.7-0.8-0.7-1.3c0-0.8,0.5-1.4,1.4-1.6c-0.4-0.2-0.6-0.5-0.6-0.9
						c0-0.4,0.3-0.8,0.8-1.1c-0.3-0.1-0.6-0.4-0.8-0.7s-0.3-0.7-0.3-1.1c0-0.7,0.2-1.3,0.6-1.6s1-0.6,1.8-0.6c0.3,0,0.6,0,0.9,0.1
						H115z M112.5,102.9h-1.1c-0.9,0-1.3,0.4-1.3,1.2c0,0.7,0.5,1,1.6,1c1.5,0,2.3-0.4,2.3-1.3c0-0.3-0.1-0.6-0.3-0.7
						S113.1,102.9,112.5,102.9z M111.9,100c0.9,0,1.3-0.4,1.3-1.3c0-0.9-0.4-1.4-1.3-1.4s-1.3,0.5-1.3,1.4
						C110.6,99.5,111,100,111.9,100z"/>
				</g>
				<g style="enable-background:new    ;">
					<path style="fill:#FFFFFF;" d="M-7.7,135.7l-5.4-2.6v-0.6l5.4-2.6v0.9l-4.2,2l4.2,2V135.7z"/>
					<path style="fill:#FFFFFF;" d="M-1.5,136.1L-1.5,136.1c-0.5,0.7-1.1,1-1.9,1c-0.8,0-1.4-0.3-1.8-0.9s-0.7-1.4-0.7-2.4
						c0-1.1,0.2-1.9,0.7-2.5s1.1-0.9,1.8-0.9c0.8,0,1.4,0.3,1.9,0.9h0.1c0-0.5-0.1-0.8-0.1-0.9v-2.6h1.1v9.1h-0.9L-1.5,136.1z
						 M-1.6,134v-0.2c0-0.9-0.1-1.5-0.4-1.9s-0.7-0.6-1.3-0.6c-1.1,0-1.6,0.8-1.6,2.5c0,1.6,0.5,2.4,1.6,2.4c0.6,0,1-0.2,1.3-0.5
						S-1.6,134.8-1.6,134z"/>
					<path style="fill:#FFFFFF;" d="M6.8,134H2.3c0,1.5,0.7,2.2,2,2.2c0.8,0,1.5-0.1,2.2-0.4v0.9c-0.6,0.3-1.4,0.4-2.1,0.4
						c-1,0-1.7-0.3-2.3-0.9s-0.9-1.4-0.9-2.4c0-1,0.3-1.9,0.8-2.5s1.2-0.9,2.1-0.9c0.8,0,1.5,0.3,2,0.8s0.7,1.2,0.7,2.1V134z
						 M2.3,133.1h3.4c0-1.2-0.5-1.8-1.6-1.8C3,131.3,2.4,131.9,2.3,133.1z"/>
					<path style="fill:#FFFFFF;" d="M13.7,131.4h-2.3v5.6h-1.1v-5.6H8.5v-0.6l1.9-0.2V130c0-0.8,0.2-1.3,0.5-1.6s0.9-0.5,1.8-0.5
						c0.5,0,1,0.1,1.5,0.2l-0.2,0.8c-0.4-0.1-0.8-0.2-1.2-0.2c-0.5,0-0.8,0.1-1,0.3s-0.3,0.5-0.3,1v0.6h2.3V131.4z"/>
					<path style="fill:#FFFFFF;" d="M20,137l-0.2-0.9h0c-0.3,0.4-0.6,0.6-0.9,0.8s-0.7,0.2-1.2,0.2c-0.6,0-1.1-0.2-1.5-0.5
						s-0.5-0.8-0.5-1.4c0-1.3,1-2,3-2l1.2,0v-0.4c0-0.9-0.5-1.4-1.4-1.4c-0.6,0-1.2,0.2-1.9,0.5l-0.4-0.8c0.8-0.4,1.5-0.6,2.2-0.6
						c0.9,0,1.5,0.2,1.9,0.5s0.6,0.9,0.6,1.6v4.4H20z M19.8,133.9l-0.9,0c-0.8,0-1.3,0.2-1.6,0.4s-0.5,0.5-0.5,1c0,0.7,0.4,1,1.2,1
						c0.6,0,1-0.2,1.4-0.5s0.5-0.8,0.5-1.3V133.9z"/>
					<path style="fill:#FFFFFF;" d="M27.4,137l-0.2-0.9h-0.1c-0.4,0.7-1.1,1-2,1c-1.5,0-2.3-0.8-2.3-2.3v-4.2H24v4.1
						c0,1,0.5,1.5,1.4,1.5c0.6,0,1.1-0.2,1.4-0.5s0.4-1,0.4-1.8v-3.3h1.1v6.4H27.4z"/>
					<path style="fill:#FFFFFF;" d="M32.3,128.7l-1.6-0.1v-0.7h2.6v8.3l2.1,0.1v0.7h-5.2v-0.7l2-0.1V128.7z"/>
					<path style="fill:#FFFFFF;" d="M42.4,136.1v0.8c-0.5,0.1-1,0.2-1.5,0.2c-1.4,0-2.1-0.7-2.1-2v-3.7h-1.6v-0.6l1.6-0.3l0.5-1.7
						h0.6v1.7h2.6v0.8h-2.6v3.7c0,0.8,0.4,1.1,1.1,1.1C41.3,136.2,41.8,136.2,42.4,136.1z"/>
					<path style="fill:#FFFFFF;" d="M45.3,134.3v-1h3.9v1H45.3z"/>
					<path style="fill:#FFFFFF;" d="M56.2,137l-0.2-0.9H56c-0.4,0.7-1.1,1-2,1c-1.5,0-2.3-0.8-2.3-2.3v-4.2h1.1v4.1
						c0,1,0.5,1.5,1.4,1.5c0.6,0,1.1-0.2,1.4-0.5s0.4-1,0.4-1.8v-3.3h1.1v6.4H56.2z"/>
					<path style="fill:#FFFFFF;" d="M60,136.2L60,136.2l-0.3,0.8h-0.8v-9.1H60v2.2c0,0.3,0,0.8,0,1.3h0c0.4-0.6,1-1,1.9-1
						c0.8,0,1.4,0.3,1.8,0.9s0.7,1.4,0.7,2.4c0,1.1-0.2,1.9-0.7,2.5s-1.1,0.9-1.8,0.9C61.1,137.1,60.5,136.8,60,136.2z M60,133.8
						c0,0.9,0.1,1.5,0.4,1.9s0.7,0.6,1.3,0.6c1.1,0,1.6-0.8,1.6-2.5c0-1.6-0.5-2.4-1.6-2.4c-0.6,0-1,0.2-1.3,0.6S60,132.9,60,133.8z
						"/>
					<path style="fill:#FFFFFF;" d="M70.6,137l-0.2-0.9h-0.1c-0.4,0.7-1.1,1-2,1c-1.5,0-2.3-0.8-2.3-2.3v-4.2h1.1v4.1
						c0,1,0.5,1.5,1.4,1.5c0.6,0,1.1-0.2,1.4-0.5s0.4-1,0.4-1.8v-3.3h1.1v6.4H70.6z"/>
					<path style="fill:#FFFFFF;" d="M77.6,137v-4.1c0-1-0.5-1.5-1.4-1.5c-1.2,0-1.8,0.8-1.8,2.3v3.3h-1.1v-6.4h0.9l0.2,0.9h0.1
						c0.4-0.7,1.1-1,2-1c1.5,0,2.3,0.8,2.3,2.3v4.2H77.6z"/>
					<path style="fill:#FFFFFF;" d="M85.6,136.1v0.8c-0.5,0.1-1,0.2-1.5,0.2c-1.4,0-2.1-0.7-2.1-2v-3.7h-1.6v-0.6l1.6-0.3l0.5-1.7
						h0.6v1.7h2.6v0.8h-2.6v3.7c0,0.8,0.4,1.1,1.1,1.1C84.5,136.2,85,136.2,85.6,136.1z"/>
					<path style="fill:#FFFFFF;" d="M92.2,137l-0.2-0.9H92c-0.4,0.7-1.1,1-2,1c-1.5,0-2.3-0.8-2.3-2.3v-4.2h1.1v4.1
						c0,1,0.5,1.5,1.4,1.5c0.6,0,1.1-0.2,1.4-0.5s0.4-1,0.4-1.8v-3.3h1.1v6.4H92.2z"/>
					<path style="fill:#FFFFFF;" d="M95.7,134.3v-1h3.9v1H95.7z"/>
					<path style="fill:#FFFFFF;" d="M105.7,137h-1v-5.3c0-0.5,0-1.2,0-2.1c-0.2,0.2-0.4,0.4-0.7,0.7l-0.9,0.7l-0.6-0.7l2.2-1.8h0.9
						V137z"/>
					<path style="fill:#FFFFFF;" d="M115,135.1h-1.2v1.9h-1v-1.9h-4v-0.9l3.9-5.8h1.1v5.7h1.2V135.1z M112.7,134.1V132
						c0-0.7,0-1.5,0.1-2.5h-0.1c-0.1,0.4-0.3,0.8-0.5,1.1l-2.4,3.6H112.7z"/>
					<path style="fill:#FFFFFF;" d="M119.2,137.1c-0.9,0-1.6-0.4-2-1.1s-0.7-1.8-0.7-3.3c0-2.9,0.9-4.4,2.7-4.4
						c0.9,0,1.6,0.4,2.1,1.1s0.7,1.8,0.7,3.3C122,135.6,121,137.1,119.2,137.1z M119.2,136.2c0.6,0,1-0.3,1.3-0.8s0.4-1.4,0.4-2.7
						c0-1.2-0.1-2.1-0.4-2.7s-0.7-0.8-1.3-0.8c-0.6,0-1,0.3-1.2,0.8s-0.4,1.4-0.4,2.7c0,1.2,0.1,2.1,0.4,2.7
						S118.6,136.2,119.2,136.2z"/>
					<path style="fill:#FFFFFF;" d="M129.4,135.1h-1.2v1.9h-1v-1.9h-4v-0.9l3.9-5.8h1.1v5.7h1.2V135.1z M127.1,134.1V132
						c0-0.7,0-1.5,0.1-2.5h-0.1c-0.1,0.4-0.3,0.8-0.5,1.1l-2.4,3.6H127.1z"/>
					<path style="fill:#FFFFFF;" d="M130.9,134.8l4.2-2l-4.2-2v-0.9l5.4,2.6v0.6l-5.4,2.6V134.8z"/>
					<path style="fill:#FFFFFF;" d="M148.8,128.4h1.1c-1.8,1.5-2.6,3.2-2.6,5.2c0,2,0.9,3.8,2.6,5.2h-1.1c-1.7-1.4-2.6-3.1-2.6-5.2
						C146.2,131.6,147,129.9,148.8,128.4z"/>
					<path style="fill:#FFFFFF;" d="M155.2,137.1c-0.9,0-1.6-0.4-2-1.1s-0.7-1.8-0.7-3.3c0-2.9,0.9-4.4,2.7-4.4
						c0.9,0,1.6,0.4,2.1,1.1s0.7,1.8,0.7,3.3C158,135.6,157,137.1,155.2,137.1z M155.2,136.2c0.6,0,1-0.3,1.3-0.8s0.4-1.4,0.4-2.7
						c0-1.2-0.1-2.1-0.4-2.7s-0.7-0.8-1.3-0.8c-0.6,0-1,0.3-1.2,0.8s-0.4,1.4-0.4,2.7c0,1.2,0.1,2.1,0.4,2.7
						S154.6,136.2,155.2,136.2z"/>
					<path style="fill:#FFFFFF;" d="M164.6,137v-4.1c0-0.6-0.1-1-0.2-1.2s-0.3-0.3-0.5-0.3c-0.3,0-0.6,0.2-0.7,0.5s-0.2,0.9-0.2,1.6
						v3.6H162v-4.1c0-1-0.2-1.5-0.7-1.5c-0.3,0-0.6,0.2-0.7,0.5s-0.2,0.9-0.2,1.9v3.3h-0.9v-6.4h0.7l0.2,0.9h0.1
						c0.3-0.7,0.7-1,1.2-1c0.6,0,1.1,0.4,1.2,1.1h0c0.3-0.7,0.7-1.1,1.3-1.1c0.5,0,0.9,0.2,1.1,0.5s0.3,1,0.3,1.8v4.2H164.6z"/>
					<path style="fill:#FFFFFF;" d="M169.6,137.1c-0.9,0-1.6-0.4-2-1.1s-0.7-1.8-0.7-3.3c0-2.9,0.9-4.4,2.7-4.4
						c0.9,0,1.6,0.4,2.1,1.1s0.7,1.8,0.7,3.3C172.4,135.6,171.4,137.1,169.6,137.1z M169.6,136.2c0.6,0,1-0.3,1.3-0.8
						s0.4-1.4,0.4-2.7c0-1.2-0.1-2.1-0.4-2.7s-0.7-0.8-1.3-0.8c-0.6,0-1,0.3-1.2,0.8s-0.4,1.4-0.4,2.7c0,1.2,0.1,2.1,0.4,2.7
						S169,136.2,169.6,136.2z"/>
					<path style="fill:#FFFFFF;" d="M176.8,135.2c0.6,0,0.9,0.3,0.9,1s-0.3,1-0.9,1c-0.6,0-0.9-0.3-0.9-1S176.2,135.2,176.8,135.2z"
						/>
					<path style="fill:#FFFFFF;" d="M182,137v-0.9c0.3,0.1,0.6,0.1,1,0.1c0.9,0,1.5-0.3,2-0.8s0.7-1.4,0.7-2.6h-0.1
						c-0.4,0.7-1,1-1.8,1c-0.8,0-1.4-0.2-1.8-0.7s-0.6-1.1-0.6-1.9c0-0.9,0.2-1.6,0.7-2.1s1.1-0.8,1.9-0.8c0.9,0,1.5,0.3,2,1
						s0.8,1.6,0.8,2.8c0,3.4-1.2,5-3.7,5C182.6,137.1,182.2,137.1,182,137z M182.4,131.2c0,0.6,0.1,1,0.4,1.3s0.6,0.5,1.1,0.5
						s0.9-0.2,1.2-0.5s0.5-0.7,0.5-1.1c0-0.6-0.2-1.1-0.5-1.5s-0.7-0.7-1.2-0.7c-0.5,0-0.9,0.2-1.2,0.5S182.4,130.6,182.4,131.2z"/>
					<path style="fill:#FFFFFF;" d="M192.1,132.5c1.2,0.6,1.8,1.4,1.8,2.3c0,0.7-0.2,1.3-0.7,1.7s-1.1,0.6-2,0.6
						c-0.8,0-1.5-0.2-2-0.6s-0.7-1-0.7-1.7c0-1,0.6-1.8,1.7-2.3c-0.9-0.6-1.4-1.3-1.4-2.2c0-0.6,0.2-1.1,0.7-1.5s1-0.6,1.7-0.6
						c0.7,0,1.3,0.2,1.7,0.6s0.7,0.9,0.7,1.5C193.6,131.3,193.1,132,192.1,132.5z M191.1,132.9c-1,0.5-1.5,1.1-1.5,1.9
						c0,0.9,0.5,1.4,1.6,1.4c0.5,0,0.9-0.1,1.2-0.4s0.4-0.6,0.4-1.1c0-0.4-0.1-0.7-0.4-0.9s-0.7-0.6-1.3-0.8L191.1,132.9z
						 M191.2,132c0.9-0.4,1.4-0.9,1.4-1.6c0-0.4-0.1-0.7-0.4-0.9s-0.6-0.3-1-0.3c-0.4,0-0.7,0.1-1,0.3s-0.4,0.5-0.4,0.9
						c0,0.4,0.1,0.6,0.3,0.9S190.7,131.8,191.2,132z"/>
					<path style="fill:#FFFFFF;" d="M196,136.7v-1c0.8,0.3,1.5,0.5,2.2,0.5c1.1,0,1.6-0.3,1.6-0.9c0-0.2-0.1-0.4-0.3-0.6
						s-0.6-0.4-1.3-0.6c-0.9-0.3-1.5-0.7-1.7-0.9s-0.4-0.6-0.4-1c0-0.5,0.2-0.9,0.7-1.3s1-0.5,1.8-0.5c0.8,0,1.5,0.1,2.2,0.4
						l-0.4,0.9c-0.7-0.3-1.3-0.4-1.9-0.4c-0.9,0-1.4,0.3-1.4,0.8c0,0.2,0.1,0.4,0.3,0.6s0.7,0.3,1.4,0.6c0.8,0.3,1.4,0.6,1.6,0.9
						s0.4,0.6,0.4,1.1c0,0.6-0.2,1-0.7,1.4s-1.1,0.5-1.9,0.5C197.3,137.1,196.5,137,196,136.7z"/>
					<path style="fill:#FFFFFF;" d="M204.9,138.9h-1.1c1.7-1.4,2.6-3.2,2.6-5.2c0-2-0.9-3.8-2.6-5.2h1.1c1.7,1.4,2.6,3.2,2.6,5.2
						C207.5,135.8,206.6,137.5,204.9,138.9z"/>
					<path style="fill:#FFFFFF;" d="M212.8,135.2c0.6,0,0.9,0.3,0.9,1s-0.3,1-0.9,1c-0.6,0-0.9-0.3-0.9-1S212.2,135.2,212.8,135.2z"
						/>
				</g>
				<g>
				</g>
				<g style="enable-background:new    ;">
					<path style="fill:#FFFFFF;" d="M-14,168.3v-1h7.3v1H-14z"/>
					<path style="fill:#FFFFFF;" d="M-6.8,168.3v-1h7.3v1H-6.8z"/>
					<path style="fill:#FFFFFF;" d="M1.3,168.8l4.2-2l-4.2-2v-0.9l5.4,2.6v0.6l-5.4,2.6V168.8z"/>
					<path style="fill:#FFFFFF;" d="M15.6,171v-8.6h2c1.2,0,2.2,0.4,2.9,1.1s1,1.8,1,3.1c0,1.4-0.4,2.5-1.1,3.2s-1.7,1.1-3.1,1.1
						H15.6z M16.7,163.4v6.7h0.6c2.1,0,3.1-1.1,3.1-3.4c0-2.2-1-3.3-2.9-3.3H16.7z"/>
					<path style="fill:#FFFFFF;" d="M28.4,168h-4.5c0,1.5,0.7,2.2,2,2.2c0.8,0,1.5-0.1,2.2-0.4v0.9c-0.6,0.3-1.4,0.4-2.1,0.4
						c-1,0-1.7-0.3-2.3-0.9s-0.9-1.4-0.9-2.4c0-1,0.3-1.9,0.8-2.5s1.2-0.9,2.1-0.9c0.8,0,1.5,0.3,2,0.8s0.7,1.2,0.7,2.1V168z
						 M23.9,167.1h3.4c0-1.2-0.5-1.8-1.6-1.8C24.6,165.3,24,165.9,23.9,167.1z"/>
					<path style="fill:#FFFFFF;" d="M30.4,170.7v-1c0.8,0.3,1.5,0.5,2.2,0.5c1.1,0,1.6-0.3,1.6-0.9c0-0.2-0.1-0.4-0.3-0.6
						s-0.6-0.4-1.3-0.6c-0.9-0.3-1.5-0.7-1.7-0.9s-0.4-0.6-0.4-1c0-0.5,0.2-0.9,0.7-1.3s1-0.5,1.8-0.5c0.8,0,1.5,0.1,2.2,0.4
						l-0.4,0.9c-0.7-0.3-1.3-0.4-1.9-0.4c-0.9,0-1.4,0.3-1.4,0.8c0,0.2,0.1,0.4,0.3,0.6s0.7,0.3,1.4,0.6c0.8,0.3,1.4,0.6,1.6,0.9
						s0.4,0.6,0.4,1.1c0,0.6-0.2,1-0.7,1.4s-1.1,0.5-1.9,0.5C31.6,171.1,30.9,171,30.4,170.7z"/>
					<path style="fill:#FFFFFF;" d="M42.4,170.1v0.8c-0.5,0.1-1,0.2-1.5,0.2c-1.4,0-2.1-0.7-2.1-2v-3.7h-1.6v-0.6l1.6-0.3l0.5-1.7
						h0.6v1.7h2.6v0.8h-2.6v3.7c0,0.8,0.4,1.1,1.1,1.1C41.3,170.2,41.8,170.2,42.4,170.1z"/>
					<path style="fill:#FFFFFF;" d="M49.8,164.7l-0.3,1c-0.5-0.2-0.9-0.3-1.3-0.3c-0.6,0-1.1,0.2-1.5,0.5s-0.5,0.9-0.5,1.6v3.5h-1.1
						v-6.4H46l0.1,1.2h0c0.3-0.5,0.6-0.8,1-1s0.8-0.3,1.3-0.3C48.9,164.4,49.3,164.5,49.8,164.7z"/>
					<path style="fill:#FFFFFF;" d="M54.4,171.1c-0.8,0-1.5-0.3-2.1-0.9s-0.8-1.4-0.8-2.4c0-1,0.3-1.8,0.8-2.4s1.2-0.9,2.1-0.9
						c0.9,0,1.5,0.3,2.1,0.9s0.8,1.4,0.8,2.4c0,1-0.3,1.9-0.8,2.4S55.3,171.1,54.4,171.1z M54.4,170.2c1.2,0,1.8-0.8,1.8-2.5
						c0-1.6-0.6-2.4-1.8-2.4c-1.2,0-1.8,0.8-1.8,2.4C52.6,169.4,53.2,170.2,54.4,170.2z"/>
					<path style="fill:#FFFFFF;" d="M58.5,164.6h1.1l1.5,3.8c0.3,0.8,0.5,1.4,0.5,1.7h0c0.1-0.4,0.3-1,0.5-1.7l1.4-3.8h1.1l-2.8,7.3
						c-0.3,0.7-0.6,1.2-0.9,1.5s-0.8,0.5-1.4,0.5c-0.3,0-0.7,0-1-0.1v-0.8c0.2,0,0.5,0.1,0.8,0.1c0.4,0,0.7-0.1,0.9-0.2
						s0.4-0.4,0.6-0.8l0.3-0.9L58.5,164.6z"/>
					<path style="fill:#FFFFFF;" d="M68.4,165.4l-1.6-0.1v-0.7h2.6v5.6l2.1,0.1v0.7h-5.1v-0.7l2-0.1V165.4z M68.9,161.9
						c0.4,0,0.6,0.2,0.6,0.7c0,0.2-0.1,0.4-0.2,0.5s-0.3,0.2-0.4,0.2c-0.4,0-0.6-0.2-0.6-0.7C68.3,162.1,68.5,161.9,68.9,161.9z"/>
					<path style="fill:#FFFFFF;" d="M77.6,171v-4.1c0-1-0.5-1.5-1.4-1.5c-1.2,0-1.8,0.8-1.8,2.3v3.3h-1.1v-6.4h0.9l0.2,0.9h0.1
						c0.4-0.7,1.1-1,2-1c1.5,0,2.3,0.8,2.3,2.3v4.2H77.6z"/>
					<path style="fill:#FFFFFF;" d="M86.2,164.6v0.7l-1.1,0.2c0.3,0.3,0.4,0.7,0.4,1.2c0,0.6-0.2,1.1-0.6,1.5s-1,0.6-1.7,0.6
						c-0.2,0-0.4,0-0.5,0c-0.4,0.2-0.6,0.5-0.6,0.8c0,0.3,0.3,0.5,0.9,0.5H84c0.7,0,1.2,0.2,1.6,0.5s0.5,0.7,0.5,1.3
						c0,1.5-1.1,2.2-3.3,2.2c-0.9,0-1.5-0.2-1.9-0.5s-0.7-0.8-0.7-1.3c0-0.8,0.5-1.4,1.4-1.6c-0.4-0.2-0.6-0.5-0.6-0.9
						c0-0.4,0.3-0.8,0.8-1.1c-0.3-0.1-0.6-0.4-0.8-0.7s-0.3-0.7-0.3-1.1c0-0.7,0.2-1.3,0.6-1.6s1-0.6,1.8-0.6c0.3,0,0.6,0,0.9,0.1
						H86.2z M83.7,170.9h-1.1c-0.9,0-1.3,0.4-1.3,1.2c0,0.7,0.5,1,1.6,1c1.5,0,2.3-0.4,2.3-1.3c0-0.3-0.1-0.6-0.3-0.7
						S84.2,170.9,83.7,170.9z M83.1,168c0.9,0,1.3-0.4,1.3-1.3c0-0.9-0.4-1.4-1.3-1.4s-1.3,0.5-1.3,1.4
						C81.8,167.5,82.2,168,83.1,168z"/>
				</g>
				<g>
				</g>
				<g style="enable-background:new    ;">
					<path style="fill:#FFFFFF;" d="M-14,202.3v-1h7.3v1H-14z"/>
					<path style="fill:#FFFFFF;" d="M-6.8,202.3v-1h7.3v1H-6.8z"/>
					<path style="fill:#FFFFFF;" d="M1.3,202.8l4.2-2l-4.2-2v-0.9l5.4,2.6v0.6l-5.4,2.6V202.8z"/>
					<path style="fill:#FFFFFF;" d="M21.8,205h-1.2l-2.6-4.1l-0.8,0.7v3.4H16v-8.6h1.1v4.3l0.7-1l2.7-3.3h1.2l-3.1,3.7L21.8,205z"/>
					<path style="fill:#FFFFFF;" d="M25.2,199.4l-1.6-0.1v-0.7h2.6v5.6l2.1,0.1v0.7h-5.1v-0.7l2-0.1V199.4z M25.7,195.9
						c0.4,0,0.6,0.2,0.6,0.7c0,0.2-0.1,0.4-0.2,0.5s-0.3,0.2-0.4,0.2c-0.4,0-0.6-0.2-0.6-0.7C25.1,196.1,25.3,195.9,25.7,195.9z"/>
					<path style="fill:#FFFFFF;" d="M35.2,204.1v0.8c-0.5,0.1-1,0.2-1.5,0.2c-1.4,0-2.1-0.7-2.1-2v-3.7H30v-0.6l1.6-0.3l0.5-1.7h0.6
						v1.7h2.6v0.8h-2.6v3.7c0,0.8,0.4,1.1,1.1,1.1C34.1,204.2,34.6,204.2,35.2,204.1z"/>
					<path style="fill:#FFFFFF;" d="M42.6,198.8l-0.4,0.9c-0.6-0.2-1.1-0.3-1.6-0.3c-1.4,0-2.2,0.8-2.2,2.4c0,1.6,0.7,2.4,2.1,2.4
						c0.6,0,1.2-0.1,1.9-0.4v0.9c-0.5,0.2-1.2,0.4-1.9,0.4c-1,0-1.8-0.3-2.3-0.9s-0.8-1.4-0.8-2.4c0-1.1,0.3-1.9,0.8-2.5
						s1.4-0.9,2.4-0.9C41.4,198.4,42,198.6,42.6,198.8z"/>
					<path style="fill:#FFFFFF;" d="M48.8,205v-4.1c0-1-0.5-1.5-1.4-1.5c-1.2,0-1.8,0.8-1.8,2.3v3.3h-1.1v-9.1h1.1v2.7l0,0.8h0.1
						c0.4-0.7,1.1-1,2-1c1.5,0,2.3,0.8,2.3,2.3v4.2H48.8z"/>
					<path style="fill:#FFFFFF;" d="M57.2,202h-4.5c0,1.5,0.7,2.2,2,2.2c0.8,0,1.5-0.1,2.2-0.4v0.9c-0.6,0.3-1.4,0.4-2.1,0.4
						c-1,0-1.7-0.3-2.3-0.9s-0.9-1.4-0.9-2.4c0-1,0.3-1.9,0.8-2.5s1.2-0.9,2.1-0.9c0.8,0,1.5,0.3,2,0.8s0.7,1.2,0.7,2.1V202z
						 M52.7,201.1h3.4c0-1.2-0.5-1.8-1.6-1.8C53.4,199.3,52.8,199.9,52.7,201.1z"/>
					<path style="fill:#FFFFFF;" d="M63.2,205v-4.1c0-1-0.5-1.5-1.4-1.5c-1.2,0-1.8,0.8-1.8,2.3v3.3h-1.1v-6.4h0.9l0.2,0.9H60
						c0.4-0.7,1.1-1,2-1c1.5,0,2.3,0.8,2.3,2.3v4.2H63.2z"/>
					<path style="fill:#FFFFFF;" d="M75.6,199.4l-1.6-0.1v-0.7h2.6v5.6l2.1,0.1v0.7h-5.1v-0.7l2-0.1V199.4z M76.1,195.9
						c0.4,0,0.6,0.2,0.6,0.7c0,0.2-0.1,0.4-0.2,0.5s-0.3,0.2-0.4,0.2c-0.4,0-0.6-0.2-0.6-0.7C75.5,196.1,75.7,195.9,76.1,195.9z"/>
					<path style="fill:#FFFFFF;" d="M80.8,204.7v-1c0.8,0.3,1.5,0.5,2.2,0.5c1.1,0,1.6-0.3,1.6-0.9c0-0.2-0.1-0.4-0.3-0.6
						s-0.6-0.4-1.3-0.6c-0.9-0.3-1.5-0.7-1.7-0.9s-0.4-0.6-0.4-1c0-0.5,0.2-0.9,0.7-1.3s1-0.5,1.8-0.5c0.8,0,1.5,0.1,2.2,0.4
						l-0.4,0.9c-0.7-0.3-1.3-0.4-1.9-0.4c-0.9,0-1.4,0.3-1.4,0.8c0,0.2,0.1,0.4,0.3,0.6s0.7,0.3,1.4,0.6c0.8,0.3,1.4,0.6,1.6,0.9
						s0.4,0.6,0.4,1.1c0,0.6-0.2,1-0.7,1.4s-1.1,0.5-1.9,0.5C82,205.1,81.3,205,80.8,204.7z"/>
					<path style="fill:#FFFFFF;" d="M100.1,199.4h-2.3v5.6h-1.1v-5.6h-1.9v-0.6l1.9-0.2V198c0-0.8,0.2-1.3,0.5-1.6s0.9-0.5,1.8-0.5
						c0.5,0,1,0.1,1.5,0.2l-0.2,0.8c-0.4-0.1-0.8-0.2-1.2-0.2c-0.5,0-0.8,0.1-1,0.3s-0.3,0.5-0.3,1v0.6h2.3V199.4z"/>
					<path style="fill:#FFFFFF;" d="M104.4,199.4l-1.6-0.1v-0.7h2.6v5.6l2.1,0.1v0.7h-5.1v-0.7l2-0.1V199.4z M104.9,195.9
						c0.4,0,0.6,0.2,0.6,0.7c0,0.2-0.1,0.4-0.2,0.5s-0.3,0.2-0.4,0.2c-0.4,0-0.6-0.2-0.6-0.7C104.3,196.1,104.5,195.9,104.9,195.9z"
						/>
					<path style="fill:#FFFFFF;" d="M113.6,205v-4.1c0-1-0.5-1.5-1.4-1.5c-1.2,0-1.8,0.8-1.8,2.3v3.3h-1.1v-6.4h0.9l0.2,0.9h0.1
						c0.4-0.7,1.1-1,2-1c1.5,0,2.3,0.8,2.3,2.3v4.2H113.6z"/>
					<path style="fill:#FFFFFF;" d="M118.8,199.4l-1.6-0.1v-0.7h2.6v5.6l2.1,0.1v0.7h-5.1v-0.7l2-0.1V199.4z M119.3,195.9
						c0.4,0,0.6,0.2,0.6,0.7c0,0.2-0.1,0.4-0.2,0.5s-0.3,0.2-0.4,0.2c-0.4,0-0.6-0.2-0.6-0.7C118.7,196.1,118.9,195.9,119.3,195.9z"
						/>
					<path style="fill:#FFFFFF;" d="M124,204.7v-1c0.8,0.3,1.5,0.5,2.2,0.5c1.1,0,1.6-0.3,1.6-0.9c0-0.2-0.1-0.4-0.3-0.6
						s-0.6-0.4-1.3-0.6c-0.9-0.3-1.5-0.7-1.7-0.9s-0.4-0.6-0.4-1c0-0.5,0.2-0.9,0.7-1.3s1-0.5,1.8-0.5c0.8,0,1.5,0.1,2.2,0.4
						l-0.4,0.9c-0.7-0.3-1.3-0.4-1.9-0.4c-0.9,0-1.4,0.3-1.4,0.8c0,0.2,0.1,0.4,0.3,0.6s0.7,0.3,1.4,0.6c0.8,0.3,1.4,0.6,1.6,0.9
						s0.4,0.6,0.4,1.1c0,0.6-0.2,1-0.7,1.4s-1.1,0.5-1.9,0.5C125.2,205.1,124.5,205,124,204.7z"/>
					<path style="fill:#FFFFFF;" d="M135.2,205v-4.1c0-1-0.5-1.5-1.4-1.5c-1.2,0-1.8,0.8-1.8,2.3v3.3H131v-9.1h1.1v2.7l0,0.8h0.1
						c0.4-0.7,1.1-1,2-1c1.5,0,2.3,0.8,2.3,2.3v4.2H135.2z"/>
					<path style="fill:#FFFFFF;" d="M143.6,202h-4.5c0,1.5,0.7,2.2,2,2.2c0.8,0,1.5-0.1,2.2-0.4v0.9c-0.6,0.3-1.4,0.4-2.1,0.4
						c-1,0-1.7-0.3-2.3-0.9s-0.9-1.4-0.9-2.4c0-1,0.3-1.9,0.8-2.5s1.2-0.9,2.1-0.9c0.8,0,1.5,0.3,2,0.8s0.7,1.2,0.7,2.1V202z
						 M139.1,201.1h3.4c0-1.2-0.5-1.8-1.6-1.8C139.8,199.3,139.2,199.9,139.1,201.1z"/>
					<path style="fill:#FFFFFF;" d="M149.7,204.1L149.7,204.1c-0.5,0.7-1.1,1-1.9,1c-0.8,0-1.4-0.3-1.8-0.9s-0.7-1.4-0.7-2.4
						c0-1.1,0.2-1.9,0.7-2.5s1.1-0.9,1.8-0.9c0.8,0,1.4,0.3,1.9,0.9h0.1c0-0.5-0.1-0.8-0.1-0.9v-2.6h1.1v9.1h-0.9L149.7,204.1z
						 M149.6,202v-0.2c0-0.9-0.1-1.5-0.4-1.9s-0.7-0.6-1.3-0.6c-1.1,0-1.6,0.8-1.6,2.5c0,1.6,0.5,2.4,1.6,2.4c0.6,0,1-0.2,1.3-0.5
						S149.6,202.8,149.6,202z"/>
					<path style="fill:#FFFFFF;" d="M155.2,203.2c0.6,0,0.9,0.3,0.9,1s-0.3,1-0.9,1c-0.6,0-0.9-0.3-0.9-1S154.6,203.2,155.2,203.2z"
						/>
				</g>
				<g style="enable-background:new    ;">
					<path style="fill:#FFFFFF;" d="M-9.7,213.4h1.1c-1.8,1.5-2.6,3.2-2.6,5.2c0,2,0.9,3.8,2.6,5.2h-1.1c-1.7-1.4-2.6-3.1-2.6-5.2
						C-12.3,216.6-11.4,214.9-9.7,213.4z"/>
					<path style="fill:#FFFFFF;" d="M-2.4,222h-1v-5.3c0-0.5,0-1.2,0-2.1c-0.2,0.2-0.4,0.4-0.7,0.7l-0.9,0.7l-0.6-0.7l2.2-1.8h0.9
						V222z"/>
					<path style="fill:#FFFFFF;" d="M6.1,222v-4.1c0-0.6-0.1-1-0.2-1.2s-0.3-0.3-0.5-0.3c-0.3,0-0.6,0.2-0.7,0.5s-0.2,0.9-0.2,1.6
						v3.6H3.5v-4.1c0-1-0.2-1.5-0.7-1.5c-0.3,0-0.6,0.2-0.7,0.5s-0.2,0.9-0.2,1.9v3.3H0.9v-6.4h0.7l0.2,0.9h0.1c0.3-0.7,0.7-1,1.2-1
						c0.6,0,1.1,0.4,1.2,1.1h0c0.3-0.7,0.7-1.1,1.3-1.1c0.5,0,0.9,0.2,1.1,0.5s0.3,1,0.3,1.8v4.2H6.1z"/>
					<path style="fill:#FFFFFF;" d="M14.2,220.1H13v1.9h-1v-1.9H8v-0.9l3.9-5.8H13v5.7h1.2V220.1z M11.9,219.1V217
						c0-0.7,0-1.5,0.1-2.5h-0.1c-0.1,0.4-0.3,0.8-0.5,1.1L9,219.1H11.9z"/>
					<path style="fill:#FFFFFF;" d="M21.4,220.1h-1.2v1.9h-1v-1.9h-4v-0.9l3.9-5.8h1.1v5.7h1.2V220.1z M19.1,219.1V217
						c0-0.7,0-1.5,0.1-2.5h-0.1c-0.1,0.4-0.3,0.8-0.5,1.1l-2.4,3.6H19.1z"/>
					<path style="fill:#FFFFFF;" d="M25.6,220.2c0.6,0,0.9,0.3,0.9,1s-0.3,1-0.9,1c-0.6,0-0.9-0.3-0.9-1S25,220.2,25.6,220.2z"/>
					<path style="fill:#FFFFFF;" d="M33.6,222h-1v-5.3c0-0.5,0-1.2,0-2.1c-0.2,0.2-0.4,0.4-0.7,0.7l-0.9,0.7l-0.6-0.7l2.2-1.8h0.9
						V222z"/>
					<path style="fill:#FFFFFF;" d="M40.8,222h-1v-5.3c0-0.5,0-1.2,0-2.1c-0.2,0.2-0.4,0.4-0.7,0.7l-0.9,0.7l-0.6-0.7l2.2-1.8h0.9
						V222z"/>
					<path style="fill:#FFFFFF;" d="M44.8,221.7v-1c0.8,0.3,1.5,0.5,2.2,0.5c1.1,0,1.6-0.3,1.6-0.9c0-0.2-0.1-0.4-0.3-0.6
						s-0.6-0.4-1.3-0.6c-0.9-0.3-1.5-0.7-1.7-0.9s-0.4-0.6-0.4-1c0-0.5,0.2-0.9,0.7-1.3s1-0.5,1.8-0.5c0.8,0,1.5,0.1,2.2,0.4
						l-0.4,0.9c-0.7-0.3-1.3-0.4-1.9-0.4c-0.9,0-1.4,0.3-1.4,0.8c0,0.2,0.1,0.4,0.3,0.6s0.7,0.3,1.4,0.6c0.8,0.3,1.4,0.6,1.6,0.9
						s0.4,0.6,0.4,1.1c0,0.6-0.2,1-0.7,1.4s-1.1,0.5-1.9,0.5C46,222.1,45.3,222,44.8,221.7z"/>
					<path style="fill:#FFFFFF;" d="M53.7,223.9h-1.1c1.7-1.4,2.6-3.2,2.6-5.2c0-2-0.9-3.8-2.6-5.2h1.1c1.7,1.4,2.6,3.2,2.6,5.2
						C56.3,220.8,55.4,222.5,53.7,223.9z"/>
				</g>
			</g>
		</g>
	</g>
</g>
</svg>
