<svg xmlns="http://www.w3.org/2000/svg" xml:space="preserve" viewBox="0 0 300 283"><path d="M0 0h300v283H0z" style="fill:#595a59"/><title>CLI results</title><path d="M-14-1.7v-1h7.3v1z" style="fill:#fff" transform="translate(34 33)"/><path d="M-6.8-1.7v-1H.5v1zM1.3-1.2l4.2-2-4.2-2v-.9l5.4 2.6v.6L1.3-.3zM17-2.5V1h-1.1v-8.6H18q3 0 3 2.4c0 1.1-.6 1.9-1.7 2.3L21.7 1h-1.3l-2.1-3.5zm0-1h1c.7 0 1.2-.1 1.5-.4s.5-.7.5-1.2c0-.6-.2-.9-.5-1.2s-.8-.4-1.5-.4h-1zM27.4 1l-.2-.9h-.1c-.4.7-1.1 1-2 1-1.5 0-2.3-.8-2.3-2.3v-4.2H24v4.1c0 1 .5 1.5 1.4 1.5.6 0 1.1-.2 1.4-.5s.4-1 .4-1.8v-3.3h1.1V1zM34.4 1v-4.1c0-1-.5-1.5-1.4-1.5-1.2 0-1.8.8-1.8 2.3V1h-1.1v-6.4h.9l.2.9h.1c.4-.7 1.1-1 2-1 1.5 0 2.3.8 2.3 2.3V1zM41.6 1v-4.1c0-1-.5-1.5-1.4-1.5-1.2 0-1.8.8-1.8 2.3V1h-1.1v-6.4h.9l.2.9h.1c.4-.7 1.1-1 2-1 1.5 0 2.3.8 2.3 2.3V1zM46.8-4.6l-1.6-.1v-.7h2.6V.2l2.1.1V1h-5.1V.3l2-.1zm.5-3.5c.4 0 .6.2.6.7 0 .2-.1.4-.2.5s-.3.2-.4.2c-.4 0-.6-.2-.6-.7s.2-.7.6-.7M56 1v-4.1c0-1-.5-1.5-1.4-1.5-1.2 0-1.8.8-1.8 2.3V1h-1.1v-6.4h.9l.2.9h.1c.4-.7 1.1-1 2-1 1.5 0 2.3.8 2.3 2.3V1zM64.6-5.4v.7l-1.1.2c.3.3.4.7.4 1.2q0 .9-.6 1.5c-.6.6-1 .6-1.7.6h-.5c-.4.2-.6.5-.6.8s.3.5.9.5h1.1c.7 0 1.2.2 1.6.5s.5.7.5 1.3c0 1.5-1.1 2.2-3.3 2.2-.9 0-1.5-.2-1.9-.5s-.7-.8-.7-1.3c0-.8.5-1.4 1.4-1.6q-.6-.3-.6-.9c0-.4.3-.8.8-1.1-.3-.1-.6-.4-.8-.7s-.3-.7-.3-1.1c0-.7.2-1.3.6-1.6s1-.6 1.8-.6c.3 0 .6 0 .9.1h2.1zM62.1.9H61c-.9 0-1.3.4-1.3 1.2 0 .7.5 1 1.6 1 1.5 0 2.3-.4 2.3-1.3 0-.3-.1-.6-.3-.7s-.7-.2-1.2-.2M61.5-2c.9 0 1.3-.4 1.3-1.3s-.4-1.4-1.3-1.4-1.3.5-1.3 1.4c0 .8.4 1.3 1.3 1.3M78.6-5.3l-.3 1c-.5-.2-.9-.3-1.3-.3-.6 0-1.1.2-1.5.5s-.5.9-.5 1.6V1h-1v-6.4h.9l.1 1.1c.3-.5.6-.8 1-1s.8-.3 1.3-.3c.4 0 .8.1 1.3.3M80.8.7v-1c.8.3 1.5.5 2.2.5 1.1 0 1.6-.3 1.6-.9q0-.3-.3-.6c-.3-.3-.6-.4-1.3-.6-.9-.3-1.5-.7-1.7-.9s-.4-.6-.4-1c0-.5.2-.9.7-1.3s1-.5 1.8-.5 1.5.1 2.2.4l-.4.9c-.7-.3-1.3-.4-1.9-.4-.9 0-1.4.3-1.4.8q0 .3.3.6c.3.3.7.3 1.4.6.8.3 1.4.6 1.6.9s.4.6.4 1.1c0 .6-.2 1-.7 1.4s-1.1.4-1.9.4c-1 0-1.7-.1-2.2-.4M88.8.2v3.6h-1.1v-9.3h.9l.2.9c.4-.7 1.1-1 1.9-1q1.2 0 1.8.9c.6.9.7 1.4.7 2.4 0 1.1-.2 1.9-.7 2.5s-1.1.9-1.8.9c-.8 0-1.4-.3-1.9-.9m0-2.7v.2c0 .9.1 1.5.4 1.9s.7.6 1.3.6c1.1 0 1.6-.8 1.6-2.5 0-1.6-.5-2.4-1.6-2.4-.6 0-1 .2-1.3.5s-.4 1-.4 1.7M100.4-2h-4.5c0 1.5.7 2.2 2 2.2.8 0 1.5-.1 2.2-.4v.9c-.7.3-1.4.4-2.1.4-1 0-1.7-.3-2.3-.9s-.9-1.4-.9-2.4.3-1.9.8-2.5 1.2-.9 2.1-.9c.8 0 1.5.3 2 .8s.7 1.2.7 2.1zm-4.5-.9h3.4c0-1.2-.5-1.8-1.6-1.8q-1.65 0-1.8 1.8M107.4-5.2l-.4.9c-.6-.2-1.1-.3-1.6-.3-1.4 0-2.2.8-2.2 2.4q0 2.4 2.1 2.4c.6 0 1.2-.1 1.9-.4v.9c-.5.2-1.2.4-1.9.4-1 0-1.8-.3-2.3-.9s-.8-1.4-.8-2.4c0-1.1.3-1.9.8-2.5s1.4-.9 2.4-.9c.8 0 1.4.2 2 .4M121.6.1v.8c-.5.1-1 .2-1.5.2-1.4 0-2.1-.7-2.1-2v-3.7h-1.6v-.6l1.6-.3.5-1.7h.6v1.7h2.6v.8h-2.6V-1c0 .8.4 1.1 1.1 1.1.4.1.8.1 1.4 0M129.2-2h-4.5c0 1.5.7 2.2 2 2.2.8 0 1.5-.1 2.2-.4v.9c-.6.3-1.4.4-2.1.4-1 0-1.7-.3-2.3-.9s-.9-1.4-.9-2.4.3-1.9.8-2.5 1.2-.9 2.1-.9c.8 0 1.5.3 2 .8s.7 1.2.7 2.1zm-4.5-.9h3.4c0-1.2-.5-1.8-1.6-1.8q-1.65 0-1.8 1.8M131.2.7v-1c.8.3 1.5.5 2.2.5 1.1 0 1.6-.3 1.6-.9q0-.3-.3-.6c-.3-.3-.6-.4-1.3-.6-.9-.3-1.5-.7-1.7-.9s-.4-.6-.4-1c0-.5.2-.9.7-1.3s1-.5 1.8-.5 1.5.1 2.2.4l-.4.9c-.7-.3-1.3-.4-1.9-.4-.9 0-1.4.3-1.4.8q0 .3.3.6c.3.3.7.3 1.4.6.8.3 1.4.6 1.6.9s.4.6.4 1.1c0 .6-.2 1-.7 1.4s-1.1.5-1.9.5c-1-.1-1.7-.2-2.2-.5M143.2.1v.8c-.5.1-1 .2-1.5.2-1.4 0-2.1-.7-2.1-2v-3.7H138v-.6l1.6-.3.5-1.7h.6v1.7h2.6v.8h-2.6V-1c0 .8.4 1.1 1.1 1.1.4.1.8.1 1.4 0M152.8.7v-1c.8.3 1.5.5 2.2.5 1.1 0 1.6-.3 1.6-.9q0-.3-.3-.6c-.3-.3-.6-.4-1.3-.6-.9-.3-1.5-.7-1.7-.9s-.4-.6-.4-1c0-.5.2-.9.7-1.3s1-.5 1.8-.5 1.5.1 2.2.4l-.4.9c-.7-.3-1.3-.4-1.9-.4-.9 0-1.4.3-1.4.8q0 .3.3.6c.3.3.7.3 1.4.6.8.3 1.4.6 1.6.9s.4.6.4 1.1c0 .6-.2 1-.7 1.4s-1.1.5-1.9.5c-1-.1-1.7-.2-2.2-.5M164.2 1l-.2-.9c-.4.7-1.1 1-2 1-1.5 0-2.3-.8-2.3-2.3v-4.2h1.1v4.1c0 1 .5 1.5 1.4 1.5.6 0 1.1-.2 1.4-.5s.4-1 .4-1.8v-3.3h1.1V1zM169.2-4.6l-1.6-.1v-.7h2.6V.2l2.1.1V1h-5.1V.3l2-.1zm.5-3.5c.4 0 .6.2.6.7 0 .2-.1.4-.2.5s-.3.2-.4.2c-.4 0-.6-.2-.6-.7s.2-.7.6-.7M179.2.1v.8c-.5.1-1 .2-1.5.2-1.4 0-2.1-.7-2.1-2v-3.7H174v-.6l1.6-.3.5-1.7h.6v1.7h2.6v.8h-2.6V-1c0 .8.4 1.1 1.1 1.1.4.1.8.1 1.4 0M186.9-2h-4.5c0 1.5.7 2.2 2 2.2.8 0 1.5-.1 2.2-.4v.9c-.6.3-1.4.4-2.1.4-1 0-1.7-.3-2.3-.9s-.9-1.4-.9-2.4.3-1.9.8-2.5 1.2-.9 2.1-.9c.8 0 1.5.3 2 .8s.7 1.2.7 2.1zm-4.6-.9h3.4c0-1.2-.5-1.8-1.6-1.8q-1.65 0-1.8 1.8M1.8 26.7c-1 1.1-2 2.3-2.8 3.5s-1.7 2.4-2.4 3.7c-.1.1-.1.2-.2.4-.3.5-.6.8-1.1.8-.2 0-.4 0-.5-.1s-.2-.2-.4-.3c-.1-.1-.2-.3-.3-.5s-.2-.5-.3-.9v-.1c-.1-.4-.2-.7-.2-.8 0-.2.1-.4.4-.6s.5-.3.8-.3c.1 0 .1 0 .2.1s.1.2.2.3c0 .1.1.2.1.4q.15.6.3.6c.1 0 .4-.4.9-1.3.5-.8 1-1.5 1.3-2.1.5-.8.9-1.3 1.2-1.7s.5-.6.7-.8.4-.3.7-.4.7-.2 1.1-.2zM8.9 28.6v.7l-1.1.2c.3.3.4.7.4 1.2q0 .9-.6 1.5c-.6.6-1 .6-1.7.6h-.5c-.4.2-.6.5-.6.8s.3.5.9.5h1.1c.7 0 1.2.2 1.6.5s.5.7.5 1.3c0 1.5-1.1 2.2-3.3 2.2-.9 0-1.5-.2-1.9-.5s-.7-.8-.7-1.3c0-.8.5-1.4 1.4-1.6q-.6-.3-.6-.9c0-.4.3-.8.8-1.1-.3-.1-.6-.4-.8-.7s-.3-.7-.3-1.1c-.1-.9.1-1.5.5-1.9s1-.6 1.8-.6c.3 0 .6 0 .9.1h2.2zm-2.6 6.3H5.2c-.9 0-1.3.4-1.3 1.2 0 .7.5 1 1.6 1 1.5 0 2.3-.4 2.3-1.3 0-.3-.1-.6-.3-.7s-.6-.2-1.2-.2M5.7 32c.9 0 1.3-.5 1.3-1.4s-.4-1.4-1.3-1.4-1.3.5-1.3 1.4.5 1.4 1.3 1.4M12.6 29.4l-1.6-.1v-.7h2.6v5.6l2.1.1v.7h-5.1v-.7l2-.1zm.6-3.5c.4 0 .6.2.6.7 0 .2-.1.4-.2.5s-.3.2-.4.2c-.4 0-.6-.2-.6-.7-.1-.5.2-.7.6-.7M22.6 34.1v.8c-.5.1-1 .2-1.5.2-1.4 0-2.1-.7-2.1-2v-3.7h-1.6v-.6l1.6-.3.5-1.7h.6v1.7h2.6v.8h-2.6V33c0 .8.4 1.1 1.1 1.1.4.1.9.1 1.4 0M33.1 34.2l-.3.8H32v-9.1h1.1v3.5c.4-.6 1-1 1.9-1q1.2 0 1.8.9c.6.9.7 1.4.7 2.4 0 1.1-.2 1.9-.7 2.5s-1.1.9-1.8.9c-.9 0-1.5-.3-1.9-.9m0-2.4c0 .9.1 1.5.4 1.9s.7.6 1.3.6c1.1 0 1.6-.8 1.6-2.5 0-1.6-.5-2.4-1.6-2.4-.6 0-1 .2-1.3.6s-.4.9-.4 1.8M41.4 29.4l-1.6-.1v-.7h2.6v5.6l2.1.1v.7h-5.1v-.7l2-.1zm.6-3.5c.4 0 .6.2.6.7 0 .2-.1.4-.2.5s-.3.2-.4.2c-.4 0-.6-.2-.6-.7-.1-.5.2-.7.6-.7M50.7 35v-4.1c0-1-.5-1.5-1.4-1.5-1.2 0-1.8.8-1.8 2.3V35h-1.1v-6.4h.9l.2.9h.1c.4-.7 1.1-1 2-1 1.5 0 2.3.8 2.3 2.3V35zM57.9 35l-.2-.9c-.3.4-.6.6-.9.8s-.7.2-1.2.2c-.6 0-1.1-.2-1.5-.5s-.5-.8-.5-1.4c0-1.3 1-2 3-2h1.2v-.4c0-.9-.5-1.4-1.4-1.4-.6 0-1.2.2-1.9.5l-.6-.9c.8-.4 1.5-.6 2.2-.6.9 0 1.5.2 1.9.5s.6.9.6 1.6V35zm-.3-3.1h-.9c-.8 0-1.3.2-1.6.4s-.5.5-.5 1c0 .7.4 1 1.2 1 .6 0 1-.2 1.4-.5s.5-.8.5-1.3v-.6zM66.1 28.7l-.3 1c-.5-.2-.9-.3-1.3-.3-.6 0-1.1.2-1.5.5s-.5.9-.5 1.6V35h-1.1v-6.4h.9l.1 1.2c.3-.5.6-.8 1-1s.8-.3 1.3-.3c.4-.1.9 0 1.4.2M67.6 28.6h1.1l1.5 3.8c.3.8.5 1.4.5 1.7.1-.4.3-1 .5-1.7l1.4-3.8h1.1L71 35.8q-.45 1.05-.9 1.5c-.45.45-.8.5-1.4.5-.3 0-.7 0-1-.1v-.8c.2 0 .5.1.8.1.4 0 .7-.1.9-.2s.4-.4.6-.8l.3-.9zM84.6 29.4l-1.6-.1v-.7h2.6v5.6l2.1.1v.7h-5.1v-.7l2-.1zm.6-3.5c.4 0 .6.2.6.7 0 .2-.1.4-.2.5s-.3.2-.4.2c-.4 0-.6-.2-.6-.7s.2-.7.6-.7M89.9 34.7v-1c.8.3 1.5.5 2.2.5 1.1 0 1.6-.3 1.6-.9q0-.3-.3-.6c-.3-.3-.6-.4-1.3-.6-.9-.3-1.5-.7-1.7-.9s-.4-.6-.4-1c0-.5.2-.9.7-1.3s1-.5 1.8-.5 1.5.1 2.2.4l-.4.9c-.7-.3-1.3-.4-1.9-.4-.9 0-1.4.3-1.4.8q0 .3.3.6c.3.3.7.3 1.4.6.8.3 1.4.6 1.6.9s.4.6.4 1.1c0 .6-.2 1-.7 1.4s-1.1.5-1.9.5c-1-.1-1.7-.2-2.2-.5M109.2 29.4h-2.3V35h-1.1v-5.6H104v-.6l1.9-.2V28c0-.8.2-1.3.5-1.6s.9-.5 1.8-.5c.5 0 1 .1 1.5.2l-.2.8c-.4-.1-.8-.2-1.2-.2-.5 0-.8.1-1 .3s-.3.5-.3 1v.6h2.3v.8zM113.9 35.1q-1.2 0-2.1-.9c-.9-.9-.8-1.4-.8-2.4s.3-1.8.8-2.4 1.2-.9 2.1-.9 1.5.3 2.1.9.8 1.4.8 2.4-.3 1.9-.8 2.4-1.3.9-2.1.9m0-.9c1.2 0 1.8-.8 1.8-2.5q0-2.4-1.8-2.4t-1.8 2.4c0 1.7.6 2.5 1.8 2.5M122.9 35l-.2-.9h-.1c-.4.7-1.1 1-2 1-1.5 0-2.3-.8-2.3-2.3v-4.2h1.1v4.1c0 1 .5 1.5 1.4 1.5.6 0 1.1-.2 1.4-.5s.4-1 .4-1.8v-3.3h1.1V35zM129.9 35v-4.1c0-1-.5-1.5-1.4-1.5-1.2 0-1.8.8-1.8 2.3V35h-1.1v-6.4h.9l.2.9h.1c.4-.7 1.1-1 2-1 1.5 0 2.3.8 2.3 2.3V35zM137.1 34.1c-.5.7-1.1 1-1.9 1q-1.2 0-1.8-.9c-.6-.9-.7-1.4-.7-2.4 0-1.1.2-1.9.7-2.5s1.1-.9 1.8-.9c.8 0 1.4.3 1.9.9h.1c0-.5-.1-.8-.1-.9v-2.6h1.1V35h-.9zm0-2.1v-.2c0-.9-.1-1.5-.4-1.9s-.7-.6-1.3-.6c-1.1 0-1.6.8-1.6 2.5 0 1.6.5 2.4 1.6 2.4.6 0 1-.2 1.3-.5s.4-.9.4-1.7M149.5 29.4l-1.6-.1v-.7h2.6v5.6l2.1.1v.7h-5.1v-.7l2-.1zm.5-3.5c.4 0 .6.2.6.7 0 .2-.1.4-.2.5s-.3.2-.4.2c-.4 0-.6-.2-.6-.7s.2-.7.6-.7M158.7 35v-4.1c0-1-.5-1.5-1.4-1.5-1.2 0-1.8.8-1.8 2.3V35h-1.1v-6.4h.9l.2.9h.1c.4-.7 1.1-1 2-1 1.5 0 2.3.8 2.3 2.3V35zM170 31.7V35h-1.1v-8.6h2.4c2 0 3 .8 3 2.5 0 .9-.3 1.5-.8 2s-1.3.7-2.4.7H170zm0-1h1c.8 0 1.3-.1 1.7-.4s.5-.7.5-1.3c0-1.1-.7-1.6-2-1.6H170zM181 35l-.8-2.7h-2.9l-.9 2.7h-1.1l2.8-8.6h1.1L182 35zm-1.2-3.6-.8-2.5c-.2-.5-.3-.9-.4-1.3-.1.4-.2.7-.3 1.1l-.8 2.7zM186.4 35h-1.1v-7.6h-2.4v-1h6v1h-2.4V35zM195.9 35h-1.1v-4h-3.4v4h-1.1v-8.6h1.1V30h3.4v-3.6h1.1zM-9.9 64.5q2.1.3 2.1 2.1c0 .8-.3 1.4-.8 1.9s-1.3.7-2.3.7c-.9 0-1.7-.2-2.3-.5v-1c.7.4 1.5.6 2.2.6 1.4 0 2.1-.6 2.1-1.7 0-1-.7-1.5-2.2-1.5h-.8v-.9h.8c.6 0 1.1-.1 1.5-.4s.5-.7.5-1.2c0-.4-.1-.7-.4-.9s-.6-.3-1.1-.3c-.7 0-1.4.2-2 .7l-.5-.7c.7-.6 1.6-.9 2.6-.9.8 0 1.4.2 1.9.6s.7.9.7 1.5c0 .5-.2 1-.5 1.4s-.9.4-1.5.5M6.4 68.1v.8c-.5.1-1 .2-1.5.2-1.4 0-2.1-.7-2.1-2v-3.7H1.2v-.6l1.6-.3.5-1.7h.6v1.7h2.6v.8H3.8V67c0 .8.4 1.1 1.1 1.1q.6.15 1.5 0M14 66H9.5c0 1.5.7 2.2 2 2.2.8 0 1.5-.1 2.2-.4v.9c-.6.3-1.4.4-2.1.4-1 0-1.7-.3-2.3-.9s-.9-1.4-.9-2.4.3-1.9.8-2.5 1.2-.9 2.1-.9c.8 0 1.5.3 2 .8s.7 1.2.7 2.1zm-4.5-.9h3.4c0-1.2-.5-1.8-1.6-1.8q-1.65 0-1.8 1.8M16 68.7v-1c.8.3 1.5.5 2.2.5 1.1 0 1.6-.3 1.6-.9q0-.3-.3-.6c-.3-.3-.6-.4-1.3-.6-.9-.3-1.5-.7-1.7-.9s-.4-.6-.4-1c0-.5.2-.9.7-1.3s1-.5 1.8-.5 1.5.1 2.2.4l-.4.9c-.7-.3-1.3-.4-1.9-.4-.9 0-1.4.3-1.4.8q0 .3.3.6c.3.3.7.3 1.4.6.8.3 1.4.6 1.6.9s.4.6.4 1.1c0 .6-.2 1-.7 1.4s-1.1.5-1.9.5c-1-.1-1.7-.2-2.2-.5M28 68.1v.8c-.5.1-1 .2-1.5.2-1.4 0-2.1-.7-2.1-2v-3.7h-1.6v-.6l1.6-.3.5-1.7h.6v1.7H28v.8h-2.6V67c0 .8.4 1.1 1.1 1.1q.6.15 1.5 0M30.4 68.7v-1c.8.3 1.5.5 2.2.5 1.1 0 1.6-.3 1.6-.9q0-.3-.3-.6c-.3-.3-.6-.4-1.3-.6-.9-.3-1.5-.7-1.7-.9s-.4-.6-.4-1c0-.5.2-.9.7-1.3s1-.5 1.8-.5 1.5.1 2.2.4l-.4.9c-.7-.3-1.3-.4-1.9-.4-.9 0-1.4.3-1.4.8q0 .3.3.6c.3.3.7.3 1.4.6.8.3 1.4.6 1.6.9s.4.6.4 1.1c0 .6-.2 1-.7 1.4s-1.1.5-1.9.5c-1-.1-1.7-.2-2.2-.5M40.9 67.5l.1.1c-.2.9-.6 1.9-1.1 3.1H39c.3-1.3.5-2.3.7-3.2zM57.1 69h-5.3v-.9l2.1-2.2c.8-.8 1.3-1.5 1.5-1.9s.4-.9.4-1.4c0-.4-.1-.8-.4-1s-.6-.4-1-.4c-.6 0-1.2.3-1.9.8l-.6-.7c.8-.7 1.6-1 2.5-1q1.2 0 1.8.6c.6.6.7 1 .7 1.7 0 .5-.1.9-.3 1.4s-.8 1.2-1.7 2.2L53 68h4v1zM71.3 63.4H69V69h-1v-5.6h-1.9v-.6l1.9-.2V62c0-.8.2-1.3.5-1.6s.9-.5 1.8-.5c.5 0 1 .1 1.5.2l-.2.8c-.4-.1-.8-.2-1.2-.2-.5 0-.8.1-1 .3s-.3.5-.3 1v.6h2.3v.8zM77.7 69l-.2-.9c-.3.4-.6.6-.9.8s-.7.2-1.2.2c-.6 0-1.1-.2-1.5-.5s-.5-.8-.5-1.4c0-1.3 1-2 3-2h1.2v-.4c0-.9-.5-1.4-1.4-1.4-.6 0-1.2.2-1.9.5l-.6-.9c.8-.4 1.5-.6 2.2-.6.9 0 1.5.2 1.9.5s.6.9.6 1.6V69zm-.3-3.1h-.9c-.8 0-1.3.2-1.6.4s-.5.5-.5 1c0 .7.4 1 1.2 1 .6 0 1-.2 1.4-.5s.5-.8.5-1.3v-.6zM82.8 63.4l-1.6-.1v-.7h2.6v5.6l2.1.1v.7h-5.1v-.7l2-.1zm.5-3.5c.4 0 .6.2.6.7 0 .2-.1.4-.2.5s-.3.2-.4.2c-.4 0-.6-.2-.6-.7s.2-.7.6-.7M89.9 60.7l-1.6-.1v-.7H91v8.3l2.1.1v.7h-5.2v-.7l2-.1zM99.4 69l-.2-.9h-.1c-.4.7-1.1 1-2 1-1.5 0-2.3-.8-2.3-2.3v-4.2H96v4.1c0 1 .5 1.5 1.4 1.5.6 0 1.1-.2 1.4-.5s.4-1 .4-1.8v-3.3h1.1V69zM107.4 62.7l-.3 1c-.5-.2-.9-.3-1.3-.3-.6 0-1.1.2-1.5.5s-.5.9-.5 1.6V69h-1.1v-6.4h.9l.1 1.2c.3-.5.6-.8 1-1s.8-.3 1.3-.3c.5-.1.9 0 1.4.2M114.8 66h-4.5c0 1.5.7 2.2 2 2.2.8 0 1.5-.1 2.2-.4v.9c-.6.3-1.4.4-2.1.4-1 0-1.7-.3-2.3-.9s-.9-1.4-.9-2.4.3-1.9.8-2.5 1.2-.9 2.1-.9c.8 0 1.5.3 2 .8s.7 1.2.7 2.1zm-4.5-.9h3.4c0-1.2-.5-1.8-1.6-1.8q-1.65 0-1.8 1.8M116.8 68.7v-1c.8.3 1.5.5 2.2.5 1.1 0 1.6-.3 1.6-.9q0-.3-.3-.6c-.3-.3-.6-.4-1.3-.6-.9-.3-1.5-.7-1.7-.9s-.4-.6-.4-1c0-.5.2-.9.7-1.3s1-.5 1.8-.5 1.5.1 2.2.4l-.4.9c-.7-.3-1.3-.4-1.9-.4-.9 0-1.4.3-1.4.8q0 .3.3.6c.3.3.7.3 1.4.6.8.3 1.4.6 1.6.9s.4.6.4 1.1c0 .6-.2 1-.7 1.4s-1.1.5-1.9.5c-1-.1-1.7-.2-2.2-.5M-11.5 103h-1.1v-8.6h4.9v1h-3.8v3h3.6v1h-3.6zM-3.6 97.4l-1.6-.1v-.7h2.6v5.6l2.1.1v.7h-5.1v-.7l2-.1zm.5-3.5c.4 0 .6.2.6.7 0 .2-.1.4-.2.5s-.3.2-.4.2c-.4 0-.6-.2-.6-.7s.2-.7.6-.7M5.6 103v-4.1c0-1-.5-1.5-1.4-1.5-1.2 0-1.8.8-1.8 2.3v3.3H1.3v-6.4h.9l.2.9h.1c.4-.7 1.1-1 2-1 1.5 0 2.3.8 2.3 2.3v4.2zM10.8 97.4l-1.6-.1v-.7h2.6v5.6l2.1.1v.7H8.8v-.7l2-.1zm.5-3.5c.4 0 .6.2.6.7 0 .2-.1.4-.2.5s-.3.2-.4.2c-.4 0-.6-.2-.6-.7s.2-.7.6-.7M16 102.7v-1c.8.3 1.5.5 2.2.5 1.1 0 1.6-.3 1.6-.9q0-.3-.3-.6c-.3-.3-.6-.4-1.3-.6-.9-.3-1.5-.7-1.7-.9s-.4-.6-.4-1c0-.5.2-.9.7-1.3s1-.5 1.8-.5 1.5.1 2.2.4l-.4.9c-.7-.3-1.3-.4-1.9-.4-.9 0-1.4.3-1.4.8q0 .3.3.6c.3.3.7.3 1.4.6.8.3 1.4.6 1.6.9s.4.6.4 1.1c0 .6-.2 1-.7 1.4s-1.1.5-1.9.5c-1-.1-1.7-.2-2.2-.5M27.2 103v-4.1c0-1-.5-1.5-1.4-1.5-1.2 0-1.8.8-1.8 2.3v3.3h-1.1v-9.1H24v3.5c.4-.7 1.1-1 2-1 1.5 0 2.3.8 2.3 2.3v4.2h-1.1zM35.6 100h-4.5c0 1.5.7 2.2 2 2.2.8 0 1.5-.1 2.2-.4v.9c-.6.3-1.4.4-2.1.4-1 0-1.7-.3-2.3-.9s-.9-1.4-.9-2.4.3-1.9.8-2.5 1.2-.9 2.1-.9c.8 0 1.5.3 2 .8s.7 1.2.7 2.1zm-4.5-.9h3.4c0-1.2-.5-1.8-1.6-1.8q-1.65 0-1.8 1.8M41.7 102.1c-.5.7-1.1 1-1.9 1q-1.2 0-1.8-.9c-.6-.9-.7-1.4-.7-2.4 0-1.1.2-1.9.7-2.5s1.1-.9 1.8-.9c.8 0 1.4.3 1.9.9h.1c0-.5-.1-.8-.1-.9v-2.6h1.1v9.1h-.9zm-.1-2.1v-.2c0-.9-.1-1.5-.4-1.9s-.7-.6-1.3-.6c-1.1 0-1.6.8-1.6 2.5 0 1.6.5 2.4 1.6 2.4.6 0 1-.2 1.3-.5s.4-.9.4-1.7M53.7 103l-2.4-6.4h1.1l1.4 3.8c.3.9.5 1.5.6 1.9 0-.2.2-.8.6-1.9l1.4-3.8h1.1l-2.4 6.4zM64.4 100h-4.5c0 1.5.7 2.2 2 2.2.8 0 1.5-.1 2.2-.4v.9c-.6.3-1.4.4-2.1.4-1 0-1.7-.3-2.3-.9s-.9-1.4-.9-2.4.3-1.9.8-2.5 1.2-.9 2.1-.9c.8 0 1.5.3 2 .8s.7 1.2.7 2.1zm-4.5-.9h3.4c0-1.2-.5-1.8-1.6-1.8q-1.65 0-1.8 1.8M71.4 96.7l-.3 1c-.5-.2-.9-.3-1.3-.3-.6 0-1.1.2-1.5.5s-.5.9-.5 1.6v3.5h-1.1v-6.4h.9l.1 1.2c.3-.5.6-.8 1-1s.8-.3 1.3-.3c.5-.1.9 0 1.4.2M75.6 97.4l-1.6-.1v-.7h2.6v5.6l2.1.1v.7h-5.1v-.7l2-.1zm.5-3.5c.4 0 .6.2.6.7 0 .2-.1.4-.2.5s-.3.2-.4.2c-.4 0-.6-.2-.6-.7s.2-.7.6-.7M85.7 97.4h-2.3v5.6h-1.1v-5.6h-1.9v-.6l1.9-.2V96c0-.8.2-1.3.5-1.6s.9-.5 1.8-.5c.5 0 1 .1 1.5.2l-.2.8c-.4-.1-.8-.2-1.2-.2-.5 0-.8.1-1 .3s-.3.5-.3 1v.6h2.3zM87.3 96.6h1.1l1.5 3.8c.3.8.5 1.4.5 1.7.1-.4.3-1 .5-1.7l1.4-3.8h1.1l-2.8 7.3q-.45 1.05-.9 1.5c-.45.45-.8.5-1.4.5-.3 0-.7 0-1-.1v-.8c.2 0 .5.1.8.1.4 0 .7-.1.9-.2s.4-.4.6-.8l.3-.9zM97.2 97.4l-1.6-.1v-.7h2.6v5.6l2.1.1v.7h-5.1v-.7l2-.1zm.5-3.5c.4 0 .6.2.6.7 0 .2-.1.4-.2.5s-.3.2-.4.2c-.4 0-.6-.2-.6-.7s.2-.7.6-.7M106.4 103v-4.1c0-1-.5-1.5-1.4-1.5-1.2 0-1.8.8-1.8 2.3v3.3h-1.1v-6.4h.9l.2.9h.1c.4-.7 1.1-1 2-1 1.5 0 2.3.8 2.3 2.3v4.2zM115 96.6v.7l-1.1.2c.3.3.4.7.4 1.2q0 .9-.6 1.5c-.6.6-1 .6-1.7.6h-.5c-.4.2-.6.5-.6.8s.3.5.9.5h1.1c.7 0 1.2.2 1.6.5s.5.7.5 1.3c0 1.5-1.1 2.2-3.3 2.2-.9 0-1.5-.2-1.9-.5s-.7-.8-.7-1.3c0-.8.5-1.4 1.4-1.6q-.6-.3-.6-.9c0-.4.3-.8.8-1.1-.3-.1-.6-.4-.8-.7s-.3-.7-.3-1.1c0-.7.2-1.3.6-1.6s1-.6 1.8-.6c.3 0 .6 0 .9.1h2.1zm-2.5 6.3h-1.1c-.9 0-1.3.4-1.3 1.2 0 .7.5 1 1.6 1 1.5 0 2.3-.4 2.3-1.3 0-.3-.1-.6-.3-.7s-.6-.2-1.2-.2m-.6-2.9c.9 0 1.3-.4 1.3-1.3s-.4-1.4-1.3-1.4-1.3.5-1.3 1.4c0 .8.4 1.3 1.3 1.3M-7.7 135.7l-5.4-2.6v-.6l5.4-2.6v.9l-4.2 2 4.2 2zM-1.5 136.1c-.5.7-1.1 1-1.9 1q-1.2 0-1.8-.9c-.6-.9-.7-1.4-.7-2.4 0-1.1.2-1.9.7-2.5s1.1-.9 1.8-.9c.8 0 1.4.3 1.9.9h.1c0-.5-.1-.8-.1-.9v-2.6h1.1v9.1h-.9zm-.1-2.1v-.2c0-.9-.1-1.5-.4-1.9s-.7-.6-1.3-.6c-1.1 0-1.6.8-1.6 2.5 0 1.6.5 2.4 1.6 2.4.6 0 1-.2 1.3-.5s.4-.9.4-1.7M6.8 134H2.3c0 1.5.7 2.2 2 2.2.8 0 1.5-.1 2.2-.4v.9c-.6.3-1.4.4-2.1.4-1 0-1.7-.3-2.3-.9s-.9-1.4-.9-2.4.3-1.9.8-2.5 1.2-.9 2.1-.9c.8 0 1.5.3 2 .8s.7 1.2.7 2.1zm-4.5-.9h3.4c0-1.2-.5-1.8-1.6-1.8q-1.65 0-1.8 1.8M13.7 131.4h-2.3v5.6h-1.1v-5.6H8.5v-.6l1.9-.2v-.6c0-.8.2-1.3.5-1.6s.9-.5 1.8-.5c.5 0 1 .1 1.5.2l-.2.8c-.4-.1-.8-.2-1.2-.2-.5 0-.8.1-1 .3s-.3.5-.3 1v.6h2.3v.8zM20 137l-.2-.9c-.3.4-.6.6-.9.8s-.7.2-1.2.2c-.6 0-1.1-.2-1.5-.5s-.5-.8-.5-1.4c0-1.3 1-2 3-2h1.2v-.4c0-.9-.5-1.4-1.4-1.4-.6 0-1.2.2-1.9.5l-.4-.8c.8-.4 1.5-.6 2.2-.6.9 0 1.5.2 1.9.5s.6.9.6 1.6v4.4zm-.2-3.1h-.9c-.8 0-1.3.2-1.6.4s-.5.5-.5 1c0 .7.4 1 1.2 1 .6 0 1-.2 1.4-.5s.5-.8.5-1.3v-.6zM27.4 137l-.2-.9h-.1c-.4.7-1.1 1-2 1-1.5 0-2.3-.8-2.3-2.3v-4.2H24v4.1c0 1 .5 1.5 1.4 1.5.6 0 1.1-.2 1.4-.5s.4-1 .4-1.8v-3.3h1.1v6.4zM32.3 128.7l-1.6-.1v-.7h2.6v8.3l2.1.1v.7h-5.2v-.7l2-.1v-7.5zM42.4 136.1v.8c-.5.1-1 .2-1.5.2-1.4 0-2.1-.7-2.1-2v-3.7h-1.6v-.6l1.6-.3.5-1.7h.6v1.7h2.6v.8h-2.6v3.7c0 .8.4 1.1 1.1 1.1.3.1.8.1 1.4 0M45.3 134.3v-1h3.9v1zM56.2 137l-.2-.9c-.4.7-1.1 1-2 1-1.5 0-2.3-.8-2.3-2.3v-4.2h1.1v4.1c0 1 .5 1.5 1.4 1.5.6 0 1.1-.2 1.4-.5s.4-1 .4-1.8v-3.3h1.1v6.4zM60 136.2l-.3.8h-.8v-9.1H60v3.5c.4-.6 1-1 1.9-1q1.2 0 1.8.9c.6.9.7 1.4.7 2.4 0 1.1-.2 1.9-.7 2.5s-1.1.9-1.8.9c-.8 0-1.4-.3-1.9-.9m0-2.4c0 .9.1 1.5.4 1.9s.7.6 1.3.6c1.1 0 1.6-.8 1.6-2.5 0-1.6-.5-2.4-1.6-2.4-.6 0-1 .2-1.3.6s-.4.9-.4 1.8M70.6 137l-.2-.9h-.1c-.4.7-1.1 1-2 1-1.5 0-2.3-.8-2.3-2.3v-4.2h1.1v4.1c0 1 .5 1.5 1.4 1.5.6 0 1.1-.2 1.4-.5s.4-1 .4-1.8v-3.3h1.1v6.4zM77.6 137v-4.1c0-1-.5-1.5-1.4-1.5-1.2 0-1.8.8-1.8 2.3v3.3h-1.1v-6.4h.9l.2.9h.1c.4-.7 1.1-1 2-1 1.5 0 2.3.8 2.3 2.3v4.2zM85.6 136.1v.8c-.5.1-1 .2-1.5.2-1.4 0-2.1-.7-2.1-2v-3.7h-1.6v-.6l1.6-.3.5-1.7h.6v1.7h2.6v.8h-2.6v3.7c0 .8.4 1.1 1.1 1.1.3.1.8.1 1.4 0M92.2 137l-.2-.9c-.4.7-1.1 1-2 1-1.5 0-2.3-.8-2.3-2.3v-4.2h1.1v4.1c0 1 .5 1.5 1.4 1.5.6 0 1.1-.2 1.4-.5s.4-1 .4-1.8v-3.3h1.1v6.4zM95.7 134.3v-1h3.9v1zM105.7 137h-1v-7.4l-.7.7-.9.7-.6-.7 2.2-1.8h.9v8.5zM115 135.1h-1.2v1.9h-1v-1.9h-4v-.9l3.9-5.8h1.1v5.7h1.2zm-2.3-1V132c0-.7 0-1.5.1-2.5h-.1c-.1.4-.3.8-.5 1.1l-2.4 3.6h2.9zM119.2 137.1c-.9 0-1.6-.4-2-1.1s-.7-1.8-.7-3.3c0-2.9.9-4.4 2.7-4.4.9 0 1.6.4 2.1 1.1s.7 1.8.7 3.3c0 2.9-1 4.4-2.8 4.4m0-.9c.6 0 1-.3 1.3-.8s.4-1.4.4-2.7c0-1.2-.1-2.1-.4-2.7s-.7-.8-1.3-.8-1 .3-1.2.8-.4 1.4-.4 2.7c0 1.2.1 2.1.4 2.7s.6.8 1.2.8M129.4 135.1h-1.2v1.9h-1v-1.9h-4v-.9l3.9-5.8h1.1v5.7h1.2zm-2.3-1V132c0-.7 0-1.5.1-2.5h-.1c-.1.4-.3.8-.5 1.1l-2.4 3.6h2.9zM130.9 134.8l4.2-2-4.2-2v-.9l5.4 2.6v.6l-5.4 2.6zM148.8 128.4h1.1c-1.8 1.5-2.6 3.2-2.6 5.2s.9 3.8 2.6 5.2h-1.1c-1.7-1.4-2.6-3.1-2.6-5.2 0-2 .8-3.7 2.6-5.2M155.2 137.1c-.9 0-1.6-.4-2-1.1s-.7-1.8-.7-3.3c0-2.9.9-4.4 2.7-4.4.9 0 1.6.4 2.1 1.1s.7 1.8.7 3.3c0 2.9-1 4.4-2.8 4.4m0-.9c.6 0 1-.3 1.3-.8s.4-1.4.4-2.7c0-1.2-.1-2.1-.4-2.7s-.7-.8-1.3-.8-1 .3-1.2.8-.4 1.4-.4 2.7c0 1.2.1 2.1.4 2.7s.6.8 1.2.8M164.6 137v-4.1c0-.6-.1-1-.2-1.2s-.3-.3-.5-.3c-.3 0-.6.2-.7.5s-.2.9-.2 1.6v3.6h-1V133c0-1-.2-1.5-.7-1.5-.3 0-.6.2-.7.5s-.2.9-.2 1.9v3.3h-.9v-6.4h.7l.2.9h.1c.3-.7.7-1 1.2-1 .6 0 1.1.4 1.2 1.1.3-.7.7-1.1 1.3-1.1.5 0 .9.2 1.1.5s.3 1 .3 1.8v4.2h-1zM169.6 137.1c-.9 0-1.6-.4-2-1.1s-.7-1.8-.7-3.3c0-2.9.9-4.4 2.7-4.4.9 0 1.6.4 2.1 1.1s.7 1.8.7 3.3c0 2.9-1 4.4-2.8 4.4m0-.9c.6 0 1-.3 1.3-.8s.4-1.4.4-2.7c0-1.2-.1-2.1-.4-2.7s-.7-.8-1.3-.8-1 .3-1.2.8-.4 1.4-.4 2.7c0 1.2.1 2.1.4 2.7s.6.8 1.2.8M176.8 135.2c.6 0 .9.3.9 1s-.3 1-.9 1-.9-.3-.9-1 .3-1 .9-1M182 137v-.9c.3.1.6.1 1 .1.9 0 1.5-.3 2-.8s.7-1.4.7-2.6h-.1c-.4.7-1 1-1.8 1s-1.4-.2-1.8-.7-.6-1.1-.6-1.9c0-.9.2-1.6.7-2.1s1.1-.8 1.9-.8c.9 0 1.5.3 2 1s.8 1.6.8 2.8c0 3.4-1.2 5-3.7 5-.5 0-.9 0-1.1-.1m.4-5.8c0 .6.1 1 .4 1.3s.6.5 1.1.5.9-.2 1.2-.5.5-.7.5-1.1c0-.6-.2-1.1-.5-1.5s-.7-.7-1.2-.7-.9.2-1.2.5-.3.9-.3 1.5M192.1 132.5c1.2.6 1.8 1.4 1.8 2.3 0 .7-.2 1.3-.7 1.7s-1.1.6-2 .6c-.8 0-1.5-.2-2-.6s-.7-1-.7-1.7c0-1 .6-1.8 1.7-2.3-.9-.6-1.4-1.3-1.4-2.2 0-.6.2-1.1.7-1.5s1-.6 1.7-.6 1.3.2 1.7.6.7.9.7 1.5c0 1-.5 1.7-1.5 2.2m-1 .4c-1 .5-1.5 1.1-1.5 1.9 0 .9.5 1.4 1.6 1.4.5 0 .9-.1 1.2-.4s.4-.6.4-1.1c0-.4-.1-.7-.4-.9s-.7-.6-1.3-.8zm.1-.9c.9-.4 1.4-.9 1.4-1.6 0-.4-.1-.7-.4-.9s-.6-.3-1-.3-.7.1-1 .3-.4.5-.4.9.1.6.3.9.6.5 1.1.7M196 136.7v-1c.8.3 1.5.5 2.2.5 1.1 0 1.6-.3 1.6-.9q0-.3-.3-.6c-.3-.3-.6-.4-1.3-.6-.9-.3-1.5-.7-1.7-.9s-.4-.6-.4-1c0-.5.2-.9.7-1.3s1-.5 1.8-.5 1.5.1 2.2.4l-.4.9c-.7-.3-1.3-.4-1.9-.4-.9 0-1.4.3-1.4.8q0 .3.3.6c.3.3.7.3 1.4.6.8.3 1.4.6 1.6.9s.4.6.4 1.1c0 .6-.2 1-.7 1.4s-1.1.5-1.9.5c-.9-.1-1.7-.2-2.2-.5M204.9 138.9h-1.1c1.7-1.4 2.6-3.2 2.6-5.2s-.9-3.8-2.6-5.2h1.1c1.7 1.4 2.6 3.2 2.6 5.2 0 2.1-.9 3.8-2.6 5.2M212.8 135.2c.6 0 .9.3.9 1s-.3 1-.9 1-.9-.3-.9-1 .3-1 .9-1M-14 168.3v-1h7.3v1z" style="fill:#fff" transform="translate(34 33)"/><path d="M-6.8 168.3v-1H.5v1zM1.3 168.8l4.2-2-4.2-2v-.9l5.4 2.6v.6l-5.4 2.6zM15.6 171v-8.6h2c1.2 0 2.2.4 2.9 1.1s1 1.8 1 3.1c0 1.4-.4 2.5-1.1 3.2s-1.7 1.1-3.1 1.1h-1.7zm1.1-7.6v6.7h.6c2.1 0 3.1-1.1 3.1-3.4 0-2.2-1-3.3-2.9-3.3zM28.4 168h-4.5c0 1.5.7 2.2 2 2.2.8 0 1.5-.1 2.2-.4v.9c-.6.3-1.4.4-2.1.4-1 0-1.7-.3-2.3-.9s-.9-1.4-.9-2.4.3-1.9.8-2.5 1.2-.9 2.1-.9c.8 0 1.5.3 2 .8s.7 1.2.7 2.1zm-4.5-.9h3.4c0-1.2-.5-1.8-1.6-1.8q-1.65 0-1.8 1.8M30.4 170.7v-1c.8.3 1.5.5 2.2.5 1.1 0 1.6-.3 1.6-.9q0-.3-.3-.6c-.3-.3-.6-.4-1.3-.6-.9-.3-1.5-.7-1.7-.9s-.4-.6-.4-1c0-.5.2-.9.7-1.3s1-.5 1.8-.5 1.5.1 2.2.4l-.4.9c-.7-.3-1.3-.4-1.9-.4-.9 0-1.4.3-1.4.8q0 .3.3.6c.3.3.7.3 1.4.6.8.3 1.4.6 1.6.9s.4.6.4 1.1c0 .6-.2 1-.7 1.4s-1.1.5-1.9.5c-1-.1-1.7-.2-2.2-.5M42.4 170.1v.8c-.5.1-1 .2-1.5.2-1.4 0-2.1-.7-2.1-2v-3.7h-1.6v-.6l1.6-.3.5-1.7h.6v1.7h2.6v.8h-2.6v3.7c0 .8.4 1.1 1.1 1.1.3.1.8.1 1.4 0M49.8 164.7l-.3 1c-.5-.2-.9-.3-1.3-.3-.6 0-1.1.2-1.5.5s-.5.9-.5 1.6v3.5h-1.1v-6.4h.9l.1 1.2c.3-.5.6-.8 1-1s.8-.3 1.3-.3c.5-.1.9 0 1.4.2M54.4 171.1q-1.2 0-2.1-.9c-.9-.9-.8-1.4-.8-2.4s.3-1.8.8-2.4 1.2-.9 2.1-.9 1.5.3 2.1.9.8 1.4.8 2.4-.3 1.9-.8 2.4-1.2.9-2.1.9m0-.9c1.2 0 1.8-.8 1.8-2.5q0-2.4-1.8-2.4t-1.8 2.4c0 1.7.6 2.5 1.8 2.5M58.5 164.6h1.1l1.5 3.8c.3.8.5 1.4.5 1.7.1-.4.3-1 .5-1.7l1.4-3.8h1.1l-2.8 7.3q-.45 1.05-.9 1.5c-.45.45-.8.5-1.4.5-.3 0-.7 0-1-.1v-.8c.2 0 .5.1.8.1.4 0 .7-.1.9-.2s.4-.4.6-.8l.3-.9zM68.4 165.4l-1.6-.1v-.7h2.6v5.6l2.1.1v.7h-5.1v-.7l2-.1zm.5-3.5c.4 0 .6.2.6.7 0 .2-.1.4-.2.5s-.3.2-.4.2c-.4 0-.6-.2-.6-.7s.2-.7.6-.7M77.6 171v-4.1c0-1-.5-1.5-1.4-1.5-1.2 0-1.8.8-1.8 2.3v3.3h-1.1v-6.4h.9l.2.9h.1c.4-.7 1.1-1 2-1 1.5 0 2.3.8 2.3 2.3v4.2zM86.2 164.6v.7l-1.1.2c.3.3.4.7.4 1.2q0 .9-.6 1.5c-.6.6-1 .6-1.7.6h-.5c-.4.2-.6.5-.6.8s.3.5.9.5h1c.7 0 1.2.2 1.6.5s.5.7.5 1.3c0 1.5-1.1 2.2-3.3 2.2-.9 0-1.5-.2-1.9-.5s-.7-.8-.7-1.3c0-.8.5-1.4 1.4-1.6q-.6-.3-.6-.9c0-.4.3-.8.8-1.1-.3-.1-.6-.4-.8-.7s-.3-.7-.3-1.1c0-.7.2-1.3.6-1.6s1-.6 1.8-.6c.3 0 .6 0 .9.1h2.2zm-2.5 6.3h-1.1c-.9 0-1.3.4-1.3 1.2 0 .7.5 1 1.6 1 1.5 0 2.3-.4 2.3-1.3 0-.3-.1-.6-.3-.7s-.7-.2-1.2-.2m-.6-2.9c.9 0 1.3-.4 1.3-1.3s-.4-1.4-1.3-1.4-1.3.5-1.3 1.4c0 .8.4 1.3 1.3 1.3M-14 202.3v-1h7.3v1z" style="fill:#fff" transform="translate(34 33)"/><path d="M-6.8 202.3v-1H.5v1zM1.3 202.8l4.2-2-4.2-2v-.9l5.4 2.6v.6l-5.4 2.6zM21.8 205h-1.2l-2.6-4.1-.8.7v3.4H16v-8.6h1.1v4.3l.7-1 2.7-3.3h1.2l-3.1 3.7zM25.2 199.4l-1.6-.1v-.7h2.6v5.6l2.1.1v.7h-5.1v-.7l2-.1zm.5-3.5c.4 0 .6.2.6.7 0 .2-.1.4-.2.5s-.3.2-.4.2c-.4 0-.6-.2-.6-.7s.2-.7.6-.7M35.2 204.1v.8c-.5.1-1 .2-1.5.2-1.4 0-2.1-.7-2.1-2v-3.7H30v-.6l1.6-.3.5-1.7h.6v1.7h2.6v.8h-2.6v3.7c0 .8.4 1.1 1.1 1.1.3.1.8.1 1.4 0M42.6 198.8l-.4.9c-.6-.2-1.1-.3-1.6-.3-1.4 0-2.2.8-2.2 2.4q0 2.4 2.1 2.4c.6 0 1.2-.1 1.9-.4v.9c-.5.2-1.2.4-1.9.4-1 0-1.8-.3-2.3-.9s-.8-1.4-.8-2.4c0-1.1.3-1.9.8-2.5s1.4-.9 2.4-.9c.8 0 1.4.2 2 .4M48.8 205v-4.1c0-1-.5-1.5-1.4-1.5-1.2 0-1.8.8-1.8 2.3v3.3h-1.1v-9.1h1.1v3.5h.1c.4-.7 1.1-1 2-1 1.5 0 2.3.8 2.3 2.3v4.2h-1.2zM57.2 202h-4.5c0 1.5.7 2.2 2 2.2.8 0 1.5-.1 2.2-.4v.9c-.6.3-1.4.4-2.1.4-1 0-1.7-.3-2.3-.9s-.9-1.4-.9-2.4.3-1.9.8-2.5 1.2-.9 2.1-.9c.8 0 1.5.3 2 .8s.7 1.2.7 2.1zm-4.5-.9h3.4c0-1.2-.5-1.8-1.6-1.8q-1.65 0-1.8 1.8M63.2 205v-4.1c0-1-.5-1.5-1.4-1.5-1.2 0-1.8.8-1.8 2.3v3.3h-1.1v-6.4h.9l.2.9c.4-.7 1.1-1 2-1 1.5 0 2.3.8 2.3 2.3v4.2zM75.6 199.4l-1.6-.1v-.7h2.6v5.6l2.1.1v.7h-5.1v-.7l2-.1zm.5-3.5c.4 0 .6.2.6.7 0 .2-.1.4-.2.5s-.3.2-.4.2c-.4 0-.6-.2-.6-.7s.2-.7.6-.7M80.8 204.7v-1c.8.3 1.5.5 2.2.5 1.1 0 1.6-.3 1.6-.9q0-.3-.3-.6c-.3-.3-.6-.4-1.3-.6-.9-.3-1.5-.7-1.7-.9s-.4-.6-.4-1c0-.5.2-.9.7-1.3s1-.5 1.8-.5 1.5.1 2.2.4l-.4.9c-.7-.3-1.3-.4-1.9-.4-.9 0-1.4.3-1.4.8q0 .3.3.6c.3.3.7.3 1.4.6.8.3 1.4.6 1.6.9s.4.6.4 1.1c0 .6-.2 1-.7 1.4s-1.1.5-1.9.5c-1-.1-1.7-.2-2.2-.5M100.1 199.4h-2.3v5.6h-1.1v-5.6h-1.9v-.6l1.9-.2v-.6c0-.8.2-1.3.5-1.6s.9-.5 1.8-.5c.5 0 1 .1 1.5.2l-.2.8c-.4-.1-.8-.2-1.2-.2-.5 0-.8.1-1 .3s-.3.5-.3 1v.6h2.3zM104.4 199.4l-1.6-.1v-.7h2.6v5.6l2.1.1v.7h-5.1v-.7l2-.1zm.5-3.5c.4 0 .6.2.6.7 0 .2-.1.4-.2.5s-.3.2-.4.2c-.4 0-.6-.2-.6-.7s.2-.7.6-.7M113.6 205v-4.1c0-1-.5-1.5-1.4-1.5-1.2 0-1.8.8-1.8 2.3v3.3h-1.1v-6.4h.9l.2.9h.1c.4-.7 1.1-1 2-1 1.5 0 2.3.8 2.3 2.3v4.2zM118.8 199.4l-1.6-.1v-.7h2.6v5.6l2.1.1v.7h-5.1v-.7l2-.1zm.5-3.5c.4 0 .6.2.6.7 0 .2-.1.4-.2.5s-.3.2-.4.2c-.4 0-.6-.2-.6-.7s.2-.7.6-.7M124 204.7v-1c.8.3 1.5.5 2.2.5 1.1 0 1.6-.3 1.6-.9q0-.3-.3-.6c-.3-.3-.6-.4-1.3-.6-.9-.3-1.5-.7-1.7-.9s-.4-.6-.4-1c0-.5.2-.9.7-1.3s1-.5 1.8-.5 1.5.1 2.2.4l-.4.9c-.7-.3-1.3-.4-1.9-.4-.9 0-1.4.3-1.4.8q0 .3.3.6c.3.3.7.3 1.4.6.8.3 1.4.6 1.6.9s.4.6.4 1.1c0 .6-.2 1-.7 1.4s-1.1.5-1.9.5c-1-.1-1.7-.2-2.2-.5M135.2 205v-4.1c0-1-.5-1.5-1.4-1.5-1.2 0-1.8.8-1.8 2.3v3.3h-1v-9.1h1.1v3.5h.1c.4-.7 1.1-1 2-1 1.5 0 2.3.8 2.3 2.3v4.2h-1.3zM143.6 202h-4.5c0 1.5.7 2.2 2 2.2.8 0 1.5-.1 2.2-.4v.9c-.6.3-1.4.4-2.1.4-1 0-1.7-.3-2.3-.9s-.9-1.4-.9-2.4.3-1.9.8-2.5 1.2-.9 2.1-.9c.8 0 1.5.3 2 .8s.7 1.2.7 2.1zm-4.5-.9h3.4c0-1.2-.5-1.8-1.6-1.8q-1.65 0-1.8 1.8M149.7 204.1c-.5.7-1.1 1-1.9 1q-1.2 0-1.8-.9c-.6-.9-.7-1.4-.7-2.4 0-1.1.2-1.9.7-2.5s1.1-.9 1.8-.9c.8 0 1.4.3 1.9.9h.1c0-.5-.1-.8-.1-.9v-2.6h1.1v9.1h-.9zm-.1-2.1v-.2c0-.9-.1-1.5-.4-1.9s-.7-.6-1.3-.6c-1.1 0-1.6.8-1.6 2.5 0 1.6.5 2.4 1.6 2.4.6 0 1-.2 1.3-.5s.4-.9.4-1.7M155.2 203.2c.6 0 .9.3.9 1s-.3 1-.9 1-.9-.3-.9-1 .3-1 .9-1M-9.7 213.4h1.1c-1.8 1.5-2.6 3.2-2.6 5.2s.9 3.8 2.6 5.2h-1.1c-1.7-1.4-2.6-3.1-2.6-5.2 0-2 .9-3.7 2.6-5.2M-2.4 222h-1v-7.4l-.7.7-.9.7-.6-.7 2.2-1.8h.9v8.5zM6.1 222v-4.1c0-.6-.1-1-.2-1.2s-.3-.3-.5-.3c-.3 0-.6.2-.7.5s-.2.9-.2 1.6v3.6h-1V218c0-1-.2-1.5-.7-1.5-.3 0-.6.2-.7.5s-.2.9-.2 1.9v3.3h-1v-6.4h.7l.2.9h.1c.3-.7.7-1 1.2-1 .6 0 1.1.4 1.2 1.1.3-.7.7-1.1 1.3-1.1.5 0 .9.2 1.1.5s.3 1 .3 1.8v4.2h-.9zM14.2 220.1H13v1.9h-1v-1.9H8v-.9l3.9-5.8H13v5.7h1.2zm-2.3-1V217c0-.7 0-1.5.1-2.5h-.1c-.1.4-.3.8-.5 1.1L9 219.1zM21.4 220.1h-1.2v1.9h-1v-1.9h-4v-.9l3.9-5.8h1.1v5.7h1.2zm-2.3-1V217c0-.7 0-1.5.1-2.5h-.1c-.1.4-.3.8-.5 1.1l-2.4 3.6h2.9zM25.6 220.2c.6 0 .9.3.9 1s-.3 1-.9 1-.9-.3-.9-1 .3-1 .9-1M33.6 222h-1v-7.4l-.7.7-.9.7-.6-.7 2.2-1.8h.9v8.5zM40.8 222h-1v-7.4l-.7.7-.9.7-.6-.7 2.2-1.8h.9v8.5zM44.8 221.7v-1c.8.3 1.5.5 2.2.5 1.1 0 1.6-.3 1.6-.9q0-.3-.3-.6c-.3-.3-.6-.4-1.3-.6-.9-.3-1.5-.7-1.7-.9s-.4-.6-.4-1c0-.5.2-.9.7-1.3s1-.5 1.8-.5 1.5.1 2.2.4l-.4.9c-.7-.3-1.3-.4-1.9-.4-.9 0-1.4.3-1.4.8q0 .3.3.6c.3.3.7.3 1.4.6.8.3 1.4.6 1.6.9s.4.6.4 1.1c0 .6-.2 1-.7 1.4s-1.1.5-1.9.5c-1-.1-1.7-.2-2.2-.5M53.7 223.9h-1.1c1.7-1.4 2.6-3.2 2.6-5.2s-.9-3.8-2.6-5.2h1.1c1.7 1.4 2.6 3.2 2.6 5.2 0 2.1-.9 3.8-2.6 5.2" style="fill:#fff" transform="translate(34 33)"/></svg>