<?xml version="1.0" encoding="utf-8"?>
<!-- Generator: Adobe Illustrator 21.0.0, SVG Export Plug-In . SVG Version: 6.00 Build 0)  -->
<svg version="1.1" id="Layer_1" xmlns="http://www.w3.org/2000/svg" xmlns:xlink="http://www.w3.org/1999/xlink" x="0px" y="0px"
	 viewBox="0 0 205 205" style="enable-background:new 0 0 205 205;" xml:space="preserve">
<filter  filterUnits="objectBoundingBox" height="200%" id="filter-2" width="200%" x="-50%" y="-50%">
	<feOffset  dx="0" dy="3" in="SourceAlpha" result="shadowOffsetOuter1"></feOffset>
	<feGaussianBlur  in="shadowOffsetOuter1" result="shadowBlurOuter1" stdDeviation="12"></feGaussianBlur>
	
		<feColorMatrix  in="shadowBlurOuter1" type="matrix" values="0 0 0 0 0.360784314   0 0 0 0 0.4   0 0 0 0 0.439215686  0 0 0 0.07 0">
		</feColorMatrix>
</filter>
<g id="Page-1">
	<g id="kitchen-home" transform="translate(-1235.000000, 0.000000)">
		<g id="Nav-bar" transform="translate(660.000000, -104.000000)">
			<g id="Banner" transform="translate(537.000000, 0.000000)">
				<g id="Rectangle-4" transform="translate(174.500000, 175.000000) rotate(45.000000) translate(-174.500000, -175.000000) ">
					<g style="filter:url(#filter-2);">
						
							<rect id="path-1_2_" x="159.5" y="-56.5" transform="matrix(2.535182e-06 1 -1 2.535182e-06 349.4995 0.4996)" width="30" height="463"/>
					</g>
					<g>
						
							<rect id="path-1_1_" x="159.5" y="-56.5" transform="matrix(2.535182e-06 1 -1 2.535182e-06 349.4995 0.4996)" style="fill:#FFFFFF;" width="30" height="463"/>
					</g>
				</g>
				<g style="enable-background:new    ;">
					<path style="fill:#5C6670;" d="M144,138.2l3.1,3.1l-0.7,0.4l-2.4-2.4l-2.3,1.6l2,2l-0.7,0.4l-2-2l-3,2l-0.7-0.7L144,138.2z"/>
					<path style="fill:#5C6670;" d="M142.8,145.1c1.6-1.6,3.8-1.6,4.9-0.4c0.9,0.9,0.8,2.1-0.2,3.1c-1.6,1.6-3.8,1.6-4.9,0.4
						C141.7,147.3,141.8,146.1,142.8,145.1z M146.8,147.1c0.7-0.7,0.8-1.5,0.3-2c-0.8-0.8-2.4-0.6-3.6,0.6c-0.7,0.7-0.8,1.5-0.3,2
						C144,148.5,145.7,148.3,146.8,147.1z"/>
					<path style="fill:#5C6670;" d="M150.5,147.6l0.5,0.5l-0.9,0.7l0,0c0.8-0.2,1.7-0.1,2.2,0.4c0.2,0.2,0.2,0.3,0.3,0.5l-0.8,0.3
						c0-0.1-0.1-0.3-0.3-0.4c-0.4-0.4-1.2-0.5-2.2-0.2l-3.1,2.1l-0.6-0.6L150.5,147.6z"/>
					<path style="fill:#5C6670;" d="M155.7,149l0.7,0.7l-4.9,3.3l0,0l4.3-0.1l0.7,0.7l-3.4,0.1l-1.4,3.4l-0.7-0.7l1.2-2.8l-1.9,0
						l-1.3,0.8l-0.6-0.6L155.7,149z"/>
					<path style="fill:#5C6670;" d="M159.1,156.2l0.5,0.5l-0.7,0.6l0,0c0.8,0,1.6,0.2,2.1,0.6c0.7,0.7,0.5,1.2,0.1,1.8
						c1,0,1.8,0.2,2.3,0.7c0.7,0.7,0.6,1.4-0.1,2c-0.2,0.2-0.4,0.3-0.6,0.5l-3.2,2.1l-0.7-0.7l3.1-2c0.3-0.2,0.4-0.3,0.6-0.4
						c0.4-0.4,0.4-0.8,0-1.2c-0.2-0.2-0.9-0.4-1.9-0.4l-3.5,2.3l-0.6-0.6l3.1-2c0.3-0.2,0.4-0.3,0.6-0.4c0.4-0.4,0.4-0.8,0-1.2
						c-0.2-0.2-0.9-0.5-1.9-0.4l-3.5,2.3l-0.6-0.6L159.1,156.2z"/>
					<path style="fill:#5C6670;" d="M167.4,164.3c0.9,0.9,0.6,1.9-0.2,2.8c-0.3,0.3-0.7,0.6-1,0.7l-2.7-2.7
						c-1.2,0.9-1.1,1.9-0.4,2.6c0.3,0.3,0.8,0.5,1.3,0.6l-0.2,0.7c-0.6-0.1-1.2-0.4-1.8-0.9c-1-1-1-2.2,0.1-3.3
						C164.1,163.2,166.3,163.2,167.4,164.3z M166.2,166.8c0.2-0.1,0.3-0.2,0.5-0.4c0.5-0.5,0.7-1.1,0.1-1.7
						c-0.6-0.6-1.7-0.7-2.7-0.1L166.2,166.8z"/>
					<path style="fill:#5C6670;" d="M168.2,170.5c1.6-1.6,3.8-1.6,4.9-0.4c0.9,0.9,0.8,2.1-0.2,3.1c-1.6,1.6-3.8,1.6-4.9,0.4
						C167.2,172.7,167.2,171.5,168.2,170.5z M172.2,172.6c0.7-0.7,0.8-1.5,0.3-2c-0.8-0.8-2.4-0.6-3.6,0.6c-0.7,0.7-0.8,1.5-0.3,2
						C169.4,173.9,171.1,173.7,172.2,172.6z"/>
					<path style="fill:#5C6670;" d="M175.9,173.1l0.5,0.5l-0.7,0.6l0,0c0.9,0.1,1.6,0.2,2.2,0.7c0.7,0.7,0.6,1.4-0.1,2
						c-0.2,0.2-0.4,0.3-0.6,0.5l-3.2,2.1l-0.6-0.6l3.1-2c0.3-0.2,0.4-0.3,0.6-0.4c0.4-0.4,0.5-0.8,0-1.2c-0.3-0.3-0.9-0.5-2-0.5
						l-3.5,2.3l-0.6-0.6L175.9,173.1z"/>
					<path style="fill:#5C6670;" d="M179.4,180.5c1.8-1.8,4.7-2.4,6.5-0.6c0.7,0.7,0.8,1.5,0.6,2.2l-0.8-0.1
						c0.1-0.6,0.1-1.1-0.4-1.6c-1.4-1.4-3.8-0.7-5.1,0.6c-1,1-1.3,2.2-0.3,3.2c0.4,0.4,0.9,0.6,1.3,0.6l1.8-1.2l-1.2-1.2l0.7-0.4
						l1.7,1.7l-2.9,1.9c-0.7-0.1-1.5-0.4-2.1-1C177.9,183.5,178.1,181.9,179.4,180.5z"/>
					<path style="fill:#5C6670;" d="M187,184.1l0.7,0.7l-5,3.3l-0.6-0.6L187,184.1z M188.4,183c0.3-0.3,0.7-0.3,1,0
						c0.2,0.2,0.3,0.6,0,0.8c-0.3,0.3-0.7,0.3-1,0C188.2,183.6,188.1,183.3,188.4,183z"/>
					<path style="fill:#5C6670;" d="M185.2,189c0.2-0.2,0.3-0.3,0.5-0.4l2.8-1.8l-0.6-0.6l0.6-0.4l0.7,0.6l1.4-0.8l0.6,0.6l-1.4,0.9
						l1,1l-0.6,0.4l-1.1-1.1l-2.8,1.9c-0.1,0.1-0.2,0.2-0.3,0.3c-0.3,0.3-0.4,0.6,0,1c0.2,0.2,0.4,0.2,0.6,0.3l-0.3,0.6
						c-0.3-0.1-0.6-0.3-1-0.6C184.6,190.1,184.7,189.5,185.2,189z"/>
					<path style="fill:#5C6670;" d="M194.1,187.4l0.7,0.7l-2.4,1.6l-0.7,0.4l0,0c0.9,0.1,1.6,0.2,2.1,0.7c0.7,0.7,0.6,1.4-0.1,2
						c-0.2,0.2-0.4,0.3-0.6,0.5l-3.2,2.1l-0.6-0.6l3.1-2c0.3-0.2,0.4-0.3,0.6-0.4c0.4-0.4,0.5-0.8,0-1.2c-0.3-0.3-1-0.5-2-0.5
						l-3.5,2.3l-0.6-0.6L194.1,187.4z"/>
					<path style="fill:#5C6670;" d="M194.3,199.7l-0.5-0.5l0.7-0.6l0,0c-0.8-0.1-1.7-0.2-2.2-0.7c-0.7-0.7-0.6-1.4,0.1-2
						c0.2-0.2,0.4-0.3,0.6-0.5l3.2-2.1l0.7,0.7l-3.1,2c-0.3,0.2-0.4,0.3-0.6,0.4c-0.4,0.4-0.4,0.8,0,1.2c0.3,0.3,1,0.5,2,0.5
						l3.5-2.3l0.6,0.6L194.3,199.7z"/>
					<path style="fill:#5C6670;" d="M195.7,201.1l7.2-4.8l0.7,0.7l-1.9,1.3l-1,0.6l0,0c0.7,0.1,1.5,0.3,2,0.8
						c0.7,0.7,0.7,1.7-0.3,2.7c-1.6,1.6-3.9,1.7-5.1,0.6c-0.4-0.4-0.6-1-0.4-1.6l0,0l-0.7,0.3L195.7,201.1z M200,199.3l-2.3,1.6
						c-0.2,0.7-0.1,1.1,0.2,1.5c0.8,0.8,2.6,0.5,3.8-0.6c0.7-0.7,0.8-1.3,0.3-1.8C201.5,199.5,200.8,199.3,200,199.3z"/>
				</g>
			</g>
		</g>
	</g>
</g>
</svg>
