<?xml version="1.0" encoding="utf-8"?>
<!-- Generator: Adobe Illustrator 21.0.0, SVG Export Plug-In . SVG Version: 6.00 Build 0)  -->
<svg version="1.1" id="Layer_1" xmlns="http://www.w3.org/2000/svg" xmlns:xlink="http://www.w3.org/1999/xlink" x="0px" y="0px"
	 viewBox="0 0 300 160" style="enable-background:new 0 0 300 160;" xml:space="preserve">
<rect style="fill:#595A59;" width="300" height="160"/>
<title>Steps</title>
<desc>Created with Sketch.</desc>
<g id="Page-1">
	<g id="kitchen-home" transform="translate(-536.000000, -779.000000)">
		<g id="Body" transform="translate(230.000000, 223.000000)">
			<g id="CLI-install" transform="translate(340.000000, 589.000000)">
				<g id="Steps">
					<g id="Group-3">
						<g style="enable-background:new    ;">
							<path style="fill:#FFFFFF;" d="M-10,0.3v1.3h-0.8V0.4c-0.9,0-1.6-0.1-2.1-0.4v-1c0.8,0.4,1.5,0.5,2.1,0.5V-3
								c-0.8-0.2-1.3-0.5-1.6-0.9s-0.5-0.7-0.5-1.3c0-0.5,0.2-0.9,0.5-1.3s0.9-0.5,1.5-0.6v-1.1h0.8v1c0.7,0,1.4,0.2,2,0.5l-0.4,0.8
								C-9-6-9.5-6.2-10-6.2v2.5c0.8,0.3,1.3,0.6,1.6,0.9s0.5,0.7,0.5,1.2C-7.9-0.5-8.6,0.1-10,0.3z M-10.8-4v-2.2
								c-0.7,0.1-1,0.5-1,1c0,0.3,0.1,0.5,0.2,0.7S-11.2-4.1-10.8-4z M-10-2.7v2.2C-9.3-0.6-8.9-1-8.9-1.6C-8.9-2.1-9.3-2.5-10-2.7z
								"/>
							<path style="fill:#FFFFFF;" d="M2.6-2.2l0.8-0.9l2.3-2.3h1.3L4.2-2.7L7.2,1H6L3.5-2L2.7-1.5V1H1.7v-9.1h1.1v4.2L2.6-2.2
								L2.6-2.2z"/>
							<path style="fill:#FFFFFF;" d="M10.8-4.6L9.2-4.7v-0.7h2.6v5.6l2.1,0.1V1H8.8V0.3l2-0.1V-4.6z M11.3-8.1
								c0.4,0,0.6,0.2,0.6,0.7c0,0.2-0.1,0.4-0.2,0.5s-0.3,0.2-0.4,0.2c-0.4,0-0.6-0.2-0.6-0.7C10.7-7.9,10.9-8.1,11.3-8.1z"/>
							<path style="fill:#FFFFFF;" d="M20.8,0.1v0.8c-0.5,0.1-1,0.2-1.5,0.2c-1.4,0-2.1-0.7-2.1-2v-3.7h-1.6v-0.6l1.6-0.3l0.5-1.7
								h0.6v1.7h2.6v0.8h-2.6v3.7c0,0.8,0.4,1.1,1.1,1.1C19.7,0.2,20.2,0.2,20.8,0.1z"/>
							<path style="fill:#FFFFFF;" d="M28.2-5.2l-0.4,0.9c-0.6-0.2-1.1-0.3-1.6-0.3c-1.4,0-2.2,0.8-2.2,2.4c0,1.6,0.7,2.4,2.1,2.4
								c0.6,0,1.2-0.1,1.9-0.4v0.9c-0.5,0.2-1.2,0.4-1.9,0.4c-1,0-1.8-0.3-2.3-0.9S23-1.1,23-2.2c0-1.1,0.3-1.9,0.8-2.5
								s1.4-0.9,2.4-0.9C26.9-5.6,27.6-5.4,28.2-5.2z"/>
							<path style="fill:#FFFFFF;" d="M34.4,1v-4.1c0-1-0.5-1.5-1.4-1.5c-1.2,0-1.8,0.8-1.8,2.3V1h-1.1v-9.1h1.1v2.7l0,0.8h0.1
								c0.4-0.7,1.1-1,2-1c1.5,0,2.3,0.8,2.3,2.3V1H34.4z"/>
							<path style="fill:#FFFFFF;" d="M42.8-2h-4.5c0,1.5,0.7,2.2,2,2.2c0.8,0,1.5-0.1,2.2-0.4v0.9c-0.6,0.3-1.4,0.4-2.1,0.4
								c-1,0-1.7-0.3-2.3-0.9s-0.9-1.4-0.9-2.4c0-1,0.3-1.9,0.8-2.5s1.2-0.9,2.1-0.9c0.8,0,1.5,0.3,2,0.8s0.7,1.2,0.7,2.1V-2z
								 M38.3-2.9h3.4c0-1.2-0.5-1.8-1.6-1.8C39-4.7,38.4-4.1,38.3-2.9z"/>
							<path style="fill:#FFFFFF;" d="M48.8,1v-4.1c0-1-0.5-1.5-1.4-1.5c-1.2,0-1.8,0.8-1.8,2.3V1h-1.1v-6.4h0.9l0.2,0.9h0.1
								c0.4-0.7,1.1-1,2-1c1.5,0,2.3,0.8,2.3,2.3V1H48.8z"/>
							<path style="fill:#FFFFFF;" d="M64.2-5.2l-0.4,0.9c-0.6-0.2-1.1-0.3-1.6-0.3c-1.4,0-2.2,0.8-2.2,2.4c0,1.6,0.7,2.4,2.1,2.4
								c0.6,0,1.2-0.1,1.9-0.4v0.9C63.6,1,63,1.1,62.2,1.1c-1,0-1.8-0.3-2.3-0.9S59-1.1,59-2.2c0-1.1,0.3-1.9,0.8-2.5
								s1.4-0.9,2.4-0.9C63-5.6,63.6-5.4,64.2-5.2z"/>
							<path style="fill:#FFFFFF;" d="M71.4-5.3l-0.3,1c-0.5-0.2-0.9-0.3-1.3-0.3c-0.6,0-1.1,0.2-1.5,0.5s-0.5,0.9-0.5,1.6V1h-1.1
								v-6.4h0.9l0.1,1.2h0c0.3-0.5,0.6-0.8,1-1s0.8-0.3,1.3-0.3C70.5-5.6,70.9-5.5,71.4-5.3z"/>
							<path style="fill:#FFFFFF;" d="M78.8-2h-4.5c0,1.5,0.7,2.2,2,2.2c0.8,0,1.5-0.1,2.2-0.4v0.9c-0.6,0.3-1.4,0.4-2.1,0.4
								c-1,0-1.7-0.3-2.3-0.9s-0.9-1.4-0.9-2.4c0-1,0.3-1.9,0.8-2.5s1.2-0.9,2.1-0.9c0.8,0,1.5,0.3,2,0.8s0.7,1.2,0.7,2.1V-2z
								 M74.3-2.9h3.4c0-1.2-0.5-1.8-1.6-1.8C75-4.7,74.4-4.1,74.3-2.9z"/>
							<path style="fill:#FFFFFF;" d="M84.9,1l-0.2-0.9h0c-0.3,0.4-0.6,0.6-0.9,0.8s-0.7,0.2-1.2,0.2c-0.6,0-1.1-0.2-1.5-0.5
								s-0.5-0.8-0.5-1.4c0-1.3,1-2,3-2l1.2,0v-0.4c0-0.9-0.5-1.4-1.4-1.4c-0.6,0-1.2,0.2-1.9,0.5L80.9-5c0.8-0.4,1.5-0.6,2.2-0.6
								C84-5.6,84.6-5.4,85-5s0.6,0.9,0.6,1.6V1H84.9z M84.6-2.1l-0.9,0c-0.8,0-1.3,0.2-1.6,0.4s-0.5,0.5-0.5,1c0,0.7,0.4,1,1.2,1
								c0.6,0,1-0.2,1.4-0.5s0.5-0.8,0.5-1.3V-2.1z"/>
							<path style="fill:#FFFFFF;" d="M92.8,0.1v0.8c-0.5,0.1-1,0.2-1.5,0.2c-1.4,0-2.1-0.7-2.1-2v-3.7h-1.6v-0.6l1.6-0.3l0.5-1.7
								h0.6v1.7h2.6v0.8h-2.6v3.7c0,0.8,0.4,1.1,1.1,1.1C91.8,0.2,92.2,0.2,92.8,0.1z"/>
							<path style="fill:#FFFFFF;" d="M100.4-2h-4.5c0,1.5,0.7,2.2,2,2.2c0.8,0,1.5-0.1,2.2-0.4v0.9C99.4,1,98.7,1.1,98,1.1
								c-1,0-1.7-0.3-2.3-0.9s-0.9-1.4-0.9-2.4c0-1,0.3-1.9,0.8-2.5s1.2-0.9,2.1-0.9c0.8,0,1.5,0.3,2,0.8s0.7,1.2,0.7,2.1V-2z
								 M95.9-2.9h3.4c0-1.2-0.5-1.8-1.6-1.8C96.6-4.7,96-4.1,95.9-2.9z"/>
						</g>
						<g>
						</g>
						<g style="enable-background:new    ;">
							<path style="fill:#FFFFFF;" d="M-10,24.3v1.3h-0.8v-1.3c-0.9,0-1.6-0.1-2.1-0.4v-1c0.8,0.4,1.5,0.5,2.1,0.5V21
								c-0.8-0.2-1.3-0.5-1.6-0.9s-0.5-0.7-0.5-1.3c0-0.5,0.2-0.9,0.5-1.3s0.9-0.5,1.5-0.6v-1.1h0.8v1c0.7,0,1.4,0.2,2,0.5l-0.4,0.8
								C-9,18-9.5,17.8-10,17.8v2.5c0.8,0.3,1.3,0.6,1.6,0.9s0.5,0.7,0.5,1.2C-7.9,23.5-8.6,24.1-10,24.3z M-10.8,20v-2.2
								c-0.7,0.1-1,0.5-1,1c0,0.3,0.1,0.5,0.2,0.7S-11.2,19.9-10.8,20z M-10,21.3v2.2c0.7-0.1,1.1-0.5,1.1-1.1
								C-8.9,21.9-9.3,21.5-10,21.3z"/>
							<path style="fill:#FFFFFF;" d="M2.6,21.8l0.8-0.9l2.3-2.3h1.3l-2.9,2.8L7.2,25H6l-2.5-3l-0.8,0.5V25H1.7v-9.1h1.1v4.2
								L2.6,21.8L2.6,21.8z"/>
							<path style="fill:#FFFFFF;" d="M10.8,19.4l-1.6-0.1v-0.7h2.6v5.6l2.1,0.1V25H8.8v-0.7l2-0.1V19.4z M11.3,15.9
								c0.4,0,0.6,0.2,0.6,0.7c0,0.2-0.1,0.4-0.2,0.5s-0.3,0.2-0.4,0.2c-0.4,0-0.6-0.2-0.6-0.7C10.7,16.1,10.9,15.9,11.3,15.9z"/>
							<path style="fill:#FFFFFF;" d="M20.8,24.1v0.8c-0.5,0.1-1,0.2-1.5,0.2c-1.4,0-2.1-0.7-2.1-2v-3.7h-1.6v-0.6l1.6-0.3l0.5-1.7
								h0.6v1.7h2.6v0.8h-2.6v3.7c0,0.8,0.4,1.1,1.1,1.1C19.7,24.2,20.2,24.2,20.8,24.1z"/>
							<path style="fill:#FFFFFF;" d="M28.2,18.8l-0.4,0.9c-0.6-0.2-1.1-0.3-1.6-0.3c-1.4,0-2.2,0.8-2.2,2.4c0,1.6,0.7,2.4,2.1,2.4
								c0.6,0,1.2-0.1,1.9-0.4v0.9c-0.5,0.2-1.2,0.4-1.9,0.4c-1,0-1.8-0.3-2.3-0.9S23,22.9,23,21.8c0-1.1,0.3-1.9,0.8-2.5
								s1.4-0.9,2.4-0.9C26.9,18.4,27.6,18.6,28.2,18.8z"/>
							<path style="fill:#FFFFFF;" d="M34.4,25v-4.1c0-1-0.5-1.5-1.4-1.5c-1.2,0-1.8,0.8-1.8,2.3V25h-1.1v-9.1h1.1v2.7l0,0.8h0.1
								c0.4-0.7,1.1-1,2-1c1.5,0,2.3,0.8,2.3,2.3V25H34.4z"/>
							<path style="fill:#FFFFFF;" d="M42.8,22h-4.5c0,1.5,0.7,2.2,2,2.2c0.8,0,1.5-0.1,2.2-0.4v0.9c-0.6,0.3-1.4,0.4-2.1,0.4
								c-1,0-1.7-0.3-2.3-0.9s-0.9-1.4-0.9-2.4c0-1,0.3-1.9,0.8-2.5s1.2-0.9,2.1-0.9c0.8,0,1.5,0.3,2,0.8s0.7,1.2,0.7,2.1V22z
								 M38.3,21.1h3.4c0-1.2-0.5-1.8-1.6-1.8C39,19.3,38.4,19.9,38.3,21.1z"/>
							<path style="fill:#FFFFFF;" d="M48.8,25v-4.1c0-1-0.5-1.5-1.4-1.5c-1.2,0-1.8,0.8-1.8,2.3V25h-1.1v-6.4h0.9l0.2,0.9h0.1
								c0.4-0.7,1.1-1,2-1c1.5,0,2.3,0.8,2.3,2.3V25H48.8z"/>
							<path style="fill:#FFFFFF;" d="M64.2,18.8l-0.4,0.9c-0.6-0.2-1.1-0.3-1.6-0.3c-1.4,0-2.2,0.8-2.2,2.4c0,1.6,0.7,2.4,2.1,2.4
								c0.6,0,1.2-0.1,1.9-0.4v0.9c-0.5,0.2-1.2,0.4-1.9,0.4c-1,0-1.8-0.3-2.3-0.9S59,22.9,59,21.8c0-1.1,0.3-1.9,0.8-2.5
								s1.4-0.9,2.4-0.9C63,18.4,63.6,18.6,64.2,18.8z"/>
							<path style="fill:#FFFFFF;" d="M68.8,25.1c-0.8,0-1.5-0.3-2.1-0.9s-0.8-1.4-0.8-2.4c0-1,0.3-1.8,0.8-2.4s1.2-0.9,2.1-0.9
								c0.9,0,1.5,0.3,2.1,0.9s0.8,1.4,0.8,2.4c0,1-0.3,1.9-0.8,2.4S69.7,25.1,68.8,25.1z M68.8,24.2c1.2,0,1.8-0.8,1.8-2.5
								c0-1.6-0.6-2.4-1.8-2.4c-1.2,0-1.8,0.8-1.8,2.4C67,23.4,67.6,24.2,68.8,24.2z"/>
							<path style="fill:#FFFFFF;" d="M77.6,25v-4.1c0-1-0.5-1.5-1.4-1.5c-1.2,0-1.8,0.8-1.8,2.3V25h-1.1v-6.4h0.9l0.2,0.9h0.1
								c0.4-0.7,1.1-1,2-1c1.5,0,2.3,0.8,2.3,2.3V25H77.6z"/>
							<path style="fill:#FFFFFF;" d="M82.5,25l-2.4-6.4h1.1l1.4,3.8c0.3,0.9,0.5,1.5,0.6,1.9h0c0-0.2,0.2-0.8,0.6-1.9l1.4-3.8h1.1
								L83.9,25H82.5z"/>
							<path style="fill:#FFFFFF;" d="M93.2,22h-4.5c0,1.5,0.7,2.2,2,2.2c0.8,0,1.5-0.1,2.2-0.4v0.9c-0.6,0.3-1.4,0.4-2.1,0.4
								c-1,0-1.7-0.3-2.3-0.9s-0.9-1.4-0.9-2.4c0-1,0.3-1.9,0.8-2.5s1.2-0.9,2.1-0.9c0.8,0,1.5,0.3,2,0.8s0.7,1.2,0.7,2.1V22z
								 M88.7,21.1h3.4c0-1.2-0.5-1.8-1.6-1.8C89.4,19.3,88.8,19.9,88.7,21.1z"/>
							<path style="fill:#FFFFFF;" d="M100.2,18.7l-0.3,1c-0.5-0.2-0.9-0.3-1.3-0.3c-0.6,0-1.1,0.2-1.5,0.5s-0.5,0.9-0.5,1.6V25
								h-1.1v-6.4h0.9l0.1,1.2h0c0.3-0.5,0.6-0.8,1-1s0.8-0.3,1.3-0.3C99.3,18.4,99.7,18.5,100.2,18.7z"/>
							<path style="fill:#FFFFFF;" d="M107.8,18.6v0.7l-1.1,0.2c0.3,0.3,0.4,0.7,0.4,1.2c0,0.6-0.2,1.1-0.6,1.5s-1,0.6-1.7,0.6
								c-0.2,0-0.4,0-0.5,0c-0.4,0.2-0.6,0.5-0.6,0.8c0,0.3,0.3,0.5,0.9,0.5h1.1c0.7,0,1.2,0.2,1.6,0.5s0.5,0.7,0.5,1.3
								c0,1.5-1.1,2.2-3.3,2.2c-0.9,0-1.5-0.2-1.9-0.5s-0.7-0.8-0.7-1.3c0-0.8,0.5-1.4,1.4-1.6c-0.4-0.2-0.6-0.5-0.6-0.9
								c0-0.4,0.3-0.8,0.8-1.1c-0.3-0.1-0.6-0.4-0.8-0.7s-0.3-0.7-0.3-1.1c0-0.7,0.2-1.3,0.6-1.6s1-0.6,1.8-0.6c0.3,0,0.6,0,0.9,0.1
								H107.8z M105.3,24.9h-1.1c-0.9,0-1.3,0.4-1.3,1.2c0,0.7,0.5,1,1.6,1c1.5,0,2.3-0.4,2.3-1.3c0-0.3-0.1-0.6-0.3-0.7
								S105.9,24.9,105.3,24.9z M104.7,22c0.9,0,1.3-0.4,1.3-1.3c0-0.9-0.4-1.4-1.3-1.4s-1.3,0.5-1.3,1.4
								C103.4,21.5,103.8,22,104.7,22z"/>
							<path style="fill:#FFFFFF;" d="M114.8,22h-4.5c0,1.5,0.7,2.2,2,2.2c0.8,0,1.5-0.1,2.2-0.4v0.9c-0.6,0.3-1.4,0.4-2.1,0.4
								c-1,0-1.7-0.3-2.3-0.9s-0.9-1.4-0.9-2.4c0-1,0.3-1.9,0.8-2.5s1.2-0.9,2.1-0.9c0.8,0,1.5,0.3,2,0.8s0.7,1.2,0.7,2.1V22z
								 M110.3,21.1h3.4c0-1.2-0.5-1.8-1.6-1.8C111,19.3,110.4,19.9,110.3,21.1z"/>
						</g>
						<g>
						</g>
						<g style="enable-background:new    ;">
							<path style="fill:#FFFFFF;" d="M-10,48.3v1.3h-0.8v-1.3c-0.9,0-1.6-0.1-2.1-0.4v-1c0.8,0.4,1.5,0.5,2.1,0.5V45
								c-0.8-0.2-1.3-0.5-1.6-0.9s-0.5-0.7-0.5-1.3c0-0.5,0.2-0.9,0.5-1.3s0.9-0.5,1.5-0.6v-1.1h0.8v1c0.7,0,1.4,0.2,2,0.5l-0.4,0.8
								C-9,42-9.5,41.8-10,41.8v2.5c0.8,0.3,1.3,0.6,1.6,0.9s0.5,0.7,0.5,1.2C-7.9,47.5-8.6,48.1-10,48.3z M-10.8,44v-2.2
								c-0.7,0.1-1,0.5-1,1c0,0.3,0.1,0.5,0.2,0.7S-11.2,43.9-10.8,44z M-10,45.3v2.2c0.7-0.1,1.1-0.5,1.1-1.1
								C-8.9,45.9-9.3,45.5-10,45.3z"/>
							<path style="fill:#FFFFFF;" d="M2.6,45.8l0.8-0.9l2.3-2.3h1.3l-2.9,2.8L7.2,49H6l-2.5-3l-0.8,0.5V49H1.7v-9.1h1.1v4.2
								L2.6,45.8L2.6,45.8z"/>
							<path style="fill:#FFFFFF;" d="M10.8,43.4l-1.6-0.1v-0.7h2.6v5.6l2.1,0.1V49H8.8v-0.7l2-0.1V43.4z M11.3,39.9
								c0.4,0,0.6,0.2,0.6,0.7c0,0.2-0.1,0.4-0.2,0.5s-0.3,0.2-0.4,0.2c-0.4,0-0.6-0.2-0.6-0.7C10.7,40.1,10.9,39.9,11.3,39.9z"/>
							<path style="fill:#FFFFFF;" d="M20.8,48.1v0.8c-0.5,0.1-1,0.2-1.5,0.2c-1.4,0-2.1-0.7-2.1-2v-3.7h-1.6v-0.6l1.6-0.3l0.5-1.7
								h0.6v1.7h2.6v0.8h-2.6v3.7c0,0.8,0.4,1.1,1.1,1.1C19.7,48.2,20.2,48.2,20.8,48.1z"/>
							<path style="fill:#FFFFFF;" d="M28.2,42.8l-0.4,0.9c-0.6-0.2-1.1-0.3-1.6-0.3c-1.4,0-2.2,0.8-2.2,2.4c0,1.6,0.7,2.4,2.1,2.4
								c0.6,0,1.2-0.1,1.9-0.4v0.9c-0.5,0.2-1.2,0.4-1.9,0.4c-1,0-1.8-0.3-2.3-0.9S23,46.9,23,45.8c0-1.1,0.3-1.9,0.8-2.5
								s1.4-0.9,2.4-0.9C26.9,42.4,27.6,42.6,28.2,42.8z"/>
							<path style="fill:#FFFFFF;" d="M34.4,49v-4.1c0-1-0.5-1.5-1.4-1.5c-1.2,0-1.8,0.8-1.8,2.3V49h-1.1v-9.1h1.1v2.7l0,0.8h0.1
								c0.4-0.7,1.1-1,2-1c1.5,0,2.3,0.8,2.3,2.3V49H34.4z"/>
							<path style="fill:#FFFFFF;" d="M42.8,46h-4.5c0,1.5,0.7,2.2,2,2.2c0.8,0,1.5-0.1,2.2-0.4v0.9c-0.6,0.3-1.4,0.4-2.1,0.4
								c-1,0-1.7-0.3-2.3-0.9s-0.9-1.4-0.9-2.4c0-1,0.3-1.9,0.8-2.5s1.2-0.9,2.1-0.9c0.8,0,1.5,0.3,2,0.8s0.7,1.2,0.7,2.1V46z
								 M38.3,45.1h3.4c0-1.2-0.5-1.8-1.6-1.8C39,43.3,38.4,43.9,38.3,45.1z"/>
							<path style="fill:#FFFFFF;" d="M48.8,49v-4.1c0-1-0.5-1.5-1.4-1.5c-1.2,0-1.8,0.8-1.8,2.3V49h-1.1v-6.4h0.9l0.2,0.9h0.1
								c0.4-0.7,1.1-1,2-1c1.5,0,2.3,0.8,2.3,2.3V49H48.8z"/>
							<path style="fill:#FFFFFF;" d="M59.2,48.7v-1c0.8,0.3,1.5,0.5,2.2,0.5c1.1,0,1.6-0.3,1.6-0.9c0-0.2-0.1-0.4-0.3-0.6
								s-0.6-0.4-1.3-0.6c-0.9-0.3-1.5-0.7-1.7-0.9s-0.4-0.6-0.4-1c0-0.5,0.2-0.9,0.7-1.3s1-0.5,1.8-0.5c0.8,0,1.5,0.1,2.2,0.4
								l-0.4,0.9c-0.7-0.3-1.3-0.4-1.9-0.4c-0.9,0-1.4,0.3-1.4,0.8c0,0.2,0.1,0.4,0.3,0.6s0.7,0.3,1.4,0.6c0.8,0.3,1.4,0.6,1.6,0.9
								s0.4,0.6,0.4,1.1c0,0.6-0.2,1-0.7,1.4s-1.1,0.5-1.9,0.5C60.4,49.1,59.7,49,59.2,48.7z"/>
							<path style="fill:#FFFFFF;" d="M71.6,46h-4.5c0,1.5,0.7,2.2,2,2.2c0.8,0,1.5-0.1,2.2-0.4v0.9c-0.6,0.3-1.4,0.4-2.1,0.4
								c-1,0-1.7-0.3-2.3-0.9S66,46.9,66,45.8c0-1,0.3-1.9,0.8-2.5s1.2-0.9,2.1-0.9c0.8,0,1.5,0.3,2,0.8s0.7,1.2,0.7,2.1V46z
								 M67.1,45.1h3.4c0-1.2-0.5-1.8-1.6-1.8C67.8,43.3,67.2,43.9,67.1,45.1z"/>
							<path style="fill:#FFFFFF;" d="M78.4,48.1v0.8c-0.5,0.1-1,0.2-1.5,0.2c-1.4,0-2.1-0.7-2.1-2v-3.7h-1.6v-0.6l1.6-0.3l0.5-1.7
								h0.6v1.7h2.6v0.8h-2.6v3.7c0,0.8,0.4,1.1,1.1,1.1C77.3,48.2,77.8,48.2,78.4,48.1z"/>
							<path style="fill:#FFFFFF;" d="M85,49l-0.2-0.9h-0.1c-0.4,0.7-1.1,1-2,1c-1.5,0-2.3-0.8-2.3-2.3v-4.2h1.1v4.1
								c0,1,0.5,1.5,1.4,1.5c0.6,0,1.1-0.2,1.4-0.5s0.4-1,0.4-1.8v-3.3h1.1V49H85z"/>
							<path style="fill:#FFFFFF;" d="M88.8,48.2L88.8,48.2c0,0.5,0,0.8,0,0.9v2.7h-1.1v-9.3h0.9l0.2,0.9h0c0.4-0.7,1.1-1,1.9-1
								c0.8,0,1.4,0.3,1.8,0.9s0.7,1.4,0.7,2.4c0,1.1-0.2,1.9-0.7,2.5s-1.1,0.9-1.8,0.9C89.9,49.1,89.3,48.8,88.8,48.2z M88.8,45.5
								v0.2c0,0.9,0.1,1.5,0.4,1.9s0.7,0.6,1.3,0.6c1.1,0,1.6-0.8,1.6-2.5c0-1.6-0.5-2.4-1.6-2.4c-0.6,0-1,0.2-1.3,0.5
								S88.8,44.8,88.8,45.5z"/>
						</g>
						<g>
						</g>
						<g style="enable-background:new    ;">
							<path style="fill:#FFFFFF;" d="M-10,72.3v1.3h-0.8v-1.3c-0.9,0-1.6-0.1-2.1-0.4v-1c0.8,0.4,1.5,0.5,2.1,0.5V69
								c-0.8-0.2-1.3-0.5-1.6-0.9s-0.5-0.7-0.5-1.3c0-0.5,0.2-0.9,0.5-1.3s0.9-0.5,1.5-0.6v-1.1h0.8v1c0.7,0,1.4,0.2,2,0.5l-0.4,0.8
								C-9,66-9.5,65.8-10,65.8v2.5c0.8,0.3,1.3,0.6,1.6,0.9s0.5,0.7,0.5,1.2C-7.9,71.5-8.6,72.1-10,72.3z M-10.8,68v-2.2
								c-0.7,0.1-1,0.5-1,1c0,0.3,0.1,0.5,0.2,0.7S-11.2,67.9-10.8,68z M-10,69.3v2.2c0.7-0.1,1.1-0.5,1.1-1.1
								C-8.9,69.9-9.3,69.5-10,69.3z"/>
							<path style="fill:#FFFFFF;" d="M2.6,69.8l0.8-0.9l2.3-2.3h1.3l-2.9,2.8L7.2,73H6l-2.5-3l-0.8,0.5V73H1.7v-9.1h1.1v4.2
								L2.6,69.8L2.6,69.8z"/>
							<path style="fill:#FFFFFF;" d="M10.8,67.4l-1.6-0.1v-0.7h2.6v5.6l2.1,0.1V73H8.8v-0.7l2-0.1V67.4z M11.3,63.9
								c0.4,0,0.6,0.2,0.6,0.7c0,0.2-0.1,0.4-0.2,0.5s-0.3,0.2-0.4,0.2c-0.4,0-0.6-0.2-0.6-0.7C10.7,64.1,10.9,63.9,11.3,63.9z"/>
							<path style="fill:#FFFFFF;" d="M20.8,72.1v0.8c-0.5,0.1-1,0.2-1.5,0.2c-1.4,0-2.1-0.7-2.1-2v-3.7h-1.6v-0.6l1.6-0.3l0.5-1.7
								h0.6v1.7h2.6v0.8h-2.6v3.7c0,0.8,0.4,1.1,1.1,1.1C19.7,72.2,20.2,72.2,20.8,72.1z"/>
							<path style="fill:#FFFFFF;" d="M28.2,66.8l-0.4,0.9c-0.6-0.2-1.1-0.3-1.6-0.3c-1.4,0-2.2,0.8-2.2,2.4c0,1.6,0.7,2.4,2.1,2.4
								c0.6,0,1.2-0.1,1.9-0.4v0.9c-0.5,0.2-1.2,0.4-1.9,0.4c-1,0-1.8-0.3-2.3-0.9S23,70.9,23,69.8c0-1.1,0.3-1.9,0.8-2.5
								s1.4-0.9,2.4-0.9C26.9,66.4,27.6,66.6,28.2,66.8z"/>
							<path style="fill:#FFFFFF;" d="M34.4,73v-4.1c0-1-0.5-1.5-1.4-1.5c-1.2,0-1.8,0.8-1.8,2.3V73h-1.1v-9.1h1.1v2.7l0,0.8h0.1
								c0.4-0.7,1.1-1,2-1c1.5,0,2.3,0.8,2.3,2.3V73H34.4z"/>
							<path style="fill:#FFFFFF;" d="M42.8,70h-4.5c0,1.5,0.7,2.2,2,2.2c0.8,0,1.5-0.1,2.2-0.4v0.9c-0.6,0.3-1.4,0.4-2.1,0.4
								c-1,0-1.7-0.3-2.3-0.9s-0.9-1.4-0.9-2.4c0-1,0.3-1.9,0.8-2.5s1.2-0.9,2.1-0.9c0.8,0,1.5,0.3,2,0.8s0.7,1.2,0.7,2.1V70z
								 M38.3,69.1h3.4c0-1.2-0.5-1.8-1.6-1.8C39,67.3,38.4,67.9,38.3,69.1z"/>
							<path style="fill:#FFFFFF;" d="M48.8,73v-4.1c0-1-0.5-1.5-1.4-1.5c-1.2,0-1.8,0.8-1.8,2.3V73h-1.1v-6.4h0.9l0.2,0.9h0.1
								c0.4-0.7,1.1-1,2-1c1.5,0,2.3,0.8,2.3,2.3V73H48.8z"/>
							<path style="fill:#FFFFFF;" d="M60.9,73l-2.4-6.4h1.1l1.4,3.8c0.3,0.9,0.5,1.5,0.6,1.9h0c0-0.2,0.2-0.8,0.6-1.9l1.4-3.8h1.1
								L62.3,73H60.9z"/>
							<path style="fill:#FFFFFF;" d="M71.6,70h-4.5c0,1.5,0.7,2.2,2,2.2c0.8,0,1.5-0.1,2.2-0.4v0.9c-0.6,0.3-1.4,0.4-2.1,0.4
								c-1,0-1.7-0.3-2.3-0.9S66,70.9,66,69.8c0-1,0.3-1.9,0.8-2.5s1.2-0.9,2.1-0.9c0.8,0,1.5,0.3,2,0.8s0.7,1.2,0.7,2.1V70z
								 M67.1,69.1h3.4c0-1.2-0.5-1.8-1.6-1.8C67.8,67.3,67.2,67.9,67.1,69.1z"/>
							<path style="fill:#FFFFFF;" d="M78.6,66.7l-0.3,1c-0.5-0.2-0.9-0.3-1.3-0.3c-0.6,0-1.1,0.2-1.5,0.5S75,68.8,75,69.5V73H74
								v-6.4h0.9l0.1,1.2h0c0.3-0.5,0.6-0.8,1-1s0.8-0.3,1.3-0.3C77.7,66.4,78.1,66.5,78.6,66.7z"/>
							<path style="fill:#FFFFFF;" d="M82.8,67.4l-1.6-0.1v-0.7h2.6v5.6l2.1,0.1V73h-5.1v-0.7l2-0.1V67.4z M83.3,63.9
								c0.4,0,0.6,0.2,0.6,0.7c0,0.2-0.1,0.4-0.2,0.5s-0.3,0.2-0.4,0.2c-0.4,0-0.6-0.2-0.6-0.7C82.7,64.1,82.9,63.9,83.3,63.9z"/>
							<path style="fill:#FFFFFF;" d="M92.9,67.4h-2.3V73h-1.1v-5.6h-1.9v-0.6l1.9-0.2V66c0-0.8,0.2-1.3,0.5-1.6s0.9-0.5,1.8-0.5
								c0.5,0,1,0.1,1.5,0.2l-0.2,0.8c-0.4-0.1-0.8-0.2-1.2-0.2c-0.5,0-0.8,0.1-1,0.3s-0.3,0.5-0.3,1v0.6h2.3V67.4z"/>
							<path style="fill:#FFFFFF;" d="M94.5,66.6h1.1l1.5,3.8c0.3,0.8,0.5,1.4,0.5,1.7h0c0.1-0.4,0.3-1,0.5-1.7l1.4-3.8h1.1
								l-2.8,7.3c-0.3,0.7-0.6,1.2-0.9,1.5s-0.8,0.5-1.4,0.5c-0.3,0-0.7,0-1-0.1v-0.8c0.2,0,0.5,0.1,0.8,0.1c0.4,0,0.7-0.1,0.9-0.2
								s0.4-0.4,0.6-0.8l0.3-0.9L94.5,66.6z"/>
						</g>
						<g>
						</g>
						<g style="enable-background:new    ;">
							<path style="fill:#FFFFFF;" d="M-10,96.3v1.3h-0.8v-1.3c-0.9,0-1.6-0.1-2.1-0.4v-1c0.8,0.4,1.5,0.5,2.1,0.5V93
								c-0.8-0.2-1.3-0.5-1.6-0.9s-0.5-0.7-0.5-1.3c0-0.5,0.2-0.9,0.5-1.3s0.9-0.5,1.5-0.6v-1.1h0.8v1c0.7,0,1.4,0.2,2,0.5l-0.4,0.8
								C-9,90-9.5,89.8-10,89.8v2.5c0.8,0.3,1.3,0.6,1.6,0.9s0.5,0.7,0.5,1.2C-7.9,95.5-8.6,96.1-10,96.3z M-10.8,92v-2.2
								c-0.7,0.1-1,0.5-1,1c0,0.3,0.1,0.5,0.2,0.7S-11.2,91.9-10.8,92z M-10,93.3v2.2c0.7-0.1,1.1-0.5,1.1-1.1
								C-8.9,93.9-9.3,93.5-10,93.3z"/>
							<path style="fill:#FFFFFF;" d="M2.6,93.8l0.8-0.9l2.3-2.3h1.3l-2.9,2.8L7.2,97H6l-2.5-3l-0.8,0.5V97H1.7v-9.1h1.1v4.2
								L2.6,93.8L2.6,93.8z"/>
							<path style="fill:#FFFFFF;" d="M10.8,91.4l-1.6-0.1v-0.7h2.6v5.6l2.1,0.1V97H8.8v-0.7l2-0.1V91.4z M11.3,87.9
								c0.4,0,0.6,0.2,0.6,0.7c0,0.2-0.1,0.4-0.2,0.5s-0.3,0.2-0.4,0.2c-0.4,0-0.6-0.2-0.6-0.7C10.7,88.1,10.9,87.9,11.3,87.9z"/>
							<path style="fill:#FFFFFF;" d="M20.8,96.1v0.8c-0.5,0.1-1,0.2-1.5,0.2c-1.4,0-2.1-0.7-2.1-2v-3.7h-1.6v-0.6l1.6-0.3l0.5-1.7
								h0.6v1.7h2.6v0.8h-2.6v3.7c0,0.8,0.4,1.1,1.1,1.1C19.7,96.2,20.2,96.2,20.8,96.1z"/>
							<path style="fill:#FFFFFF;" d="M28.2,90.8l-0.4,0.9c-0.6-0.2-1.1-0.3-1.6-0.3c-1.4,0-2.2,0.8-2.2,2.4c0,1.6,0.7,2.4,2.1,2.4
								c0.6,0,1.2-0.1,1.9-0.4v0.9c-0.5,0.2-1.2,0.4-1.9,0.4c-1,0-1.8-0.3-2.3-0.9S23,94.9,23,93.8c0-1.1,0.3-1.9,0.8-2.5
								s1.4-0.9,2.4-0.9C26.9,90.4,27.6,90.6,28.2,90.8z"/>
							<path style="fill:#FFFFFF;" d="M34.4,97v-4.1c0-1-0.5-1.5-1.4-1.5c-1.2,0-1.8,0.8-1.8,2.3V97h-1.1v-9.1h1.1v2.7l0,0.8h0.1
								c0.4-0.7,1.1-1,2-1c1.5,0,2.3,0.8,2.3,2.3V97H34.4z"/>
							<path style="fill:#FFFFFF;" d="M42.8,94h-4.5c0,1.5,0.7,2.2,2,2.2c0.8,0,1.5-0.1,2.2-0.4v0.9c-0.6,0.3-1.4,0.4-2.1,0.4
								c-1,0-1.7-0.3-2.3-0.9s-0.9-1.4-0.9-2.4c0-1,0.3-1.9,0.8-2.5s1.2-0.9,2.1-0.9c0.8,0,1.5,0.3,2,0.8s0.7,1.2,0.7,2.1V94z
								 M38.3,93.1h3.4c0-1.2-0.5-1.8-1.6-1.8C39,91.3,38.4,91.9,38.3,93.1z"/>
							<path style="fill:#FFFFFF;" d="M48.8,97v-4.1c0-1-0.5-1.5-1.4-1.5c-1.2,0-1.8,0.8-1.8,2.3V97h-1.1v-6.4h0.9l0.2,0.9h0.1
								c0.4-0.7,1.1-1,2-1c1.5,0,2.3,0.8,2.3,2.3V97H48.8z"/>
							<path style="fill:#FFFFFF;" d="M63.3,96.1L63.3,96.1c-0.5,0.7-1.1,1-1.9,1c-0.8,0-1.4-0.3-1.8-0.9s-0.7-1.4-0.7-2.4
								c0-1.1,0.2-1.9,0.7-2.5s1.1-0.9,1.8-0.9c0.8,0,1.4,0.3,1.9,0.9h0.1c0-0.5-0.1-0.8-0.1-0.9v-2.6h1.1V97h-0.9L63.3,96.1z
								 M63.2,94v-0.2c0-0.9-0.1-1.5-0.4-1.9s-0.7-0.6-1.3-0.6c-1.1,0-1.6,0.8-1.6,2.5c0,1.6,0.5,2.4,1.6,2.4c0.6,0,1-0.2,1.3-0.5
								S63.2,94.8,63.2,94z"/>
							<path style="fill:#FFFFFF;" d="M71.6,94h-4.5c0,1.5,0.7,2.2,2,2.2c0.8,0,1.5-0.1,2.2-0.4v0.9c-0.6,0.3-1.4,0.4-2.1,0.4
								c-1,0-1.7-0.3-2.3-0.9S66,94.9,66,93.8c0-1,0.3-1.9,0.8-2.5s1.2-0.9,2.1-0.9c0.8,0,1.5,0.3,2,0.8s0.7,1.2,0.7,2.1V94z
								 M67.1,93.1h3.4c0-1.2-0.5-1.8-1.6-1.8C67.8,91.3,67.2,91.9,67.1,93.1z"/>
							<path style="fill:#FFFFFF;" d="M73.6,96.7v-1c0.8,0.3,1.5,0.5,2.2,0.5c1.1,0,1.6-0.3,1.6-0.9c0-0.2-0.1-0.4-0.3-0.6
								s-0.6-0.4-1.3-0.6c-0.9-0.3-1.5-0.7-1.7-0.9s-0.4-0.6-0.4-1c0-0.5,0.2-0.9,0.7-1.3s1-0.5,1.8-0.5c0.8,0,1.5,0.1,2.2,0.4
								L78,91.8c-0.7-0.3-1.3-0.4-1.9-0.4c-0.9,0-1.4,0.3-1.4,0.8c0,0.2,0.1,0.4,0.3,0.6s0.7,0.3,1.4,0.6c0.8,0.3,1.4,0.6,1.6,0.9
								s0.4,0.6,0.4,1.1c0,0.6-0.2,1-0.7,1.4s-1.1,0.5-1.9,0.5C74.8,97.1,74.1,97,73.6,96.7z"/>
							<path style="fill:#FFFFFF;" d="M85.6,96.1v0.8c-0.5,0.1-1,0.2-1.5,0.2c-1.4,0-2.1-0.7-2.1-2v-3.7h-1.6v-0.6l1.6-0.3l0.5-1.7
								h0.6v1.7h2.6v0.8h-2.6v3.7c0,0.8,0.4,1.1,1.1,1.1C84.5,96.2,85,96.2,85.6,96.1z"/>
							<path style="fill:#FFFFFF;" d="M93,90.7l-0.3,1c-0.5-0.2-0.9-0.3-1.3-0.3c-0.6,0-1.1,0.2-1.5,0.5s-0.5,0.9-0.5,1.6V97h-1.1
								v-6.4h0.9l0.1,1.2h0c0.3-0.5,0.6-0.8,1-1s0.8-0.3,1.3-0.3C92.1,90.4,92.5,90.5,93,90.7z"/>
							<path style="fill:#FFFFFF;" d="M97.6,97.1c-0.8,0-1.5-0.3-2.1-0.9s-0.8-1.4-0.8-2.4c0-1,0.3-1.8,0.8-2.4s1.2-0.9,2.1-0.9
								c0.9,0,1.5,0.3,2.1,0.9s0.8,1.4,0.8,2.4c0,1-0.3,1.9-0.8,2.4S98.5,97.1,97.6,97.1z M97.6,96.2c1.2,0,1.8-0.8,1.8-2.5
								c0-1.6-0.6-2.4-1.8-2.4c-1.2,0-1.8,0.8-1.8,2.4C95.8,95.4,96.4,96.2,97.6,96.2z"/>
							<path style="fill:#FFFFFF;" d="M101.7,90.6h1.1l1.5,3.8c0.3,0.8,0.5,1.4,0.5,1.7h0c0.1-0.4,0.3-1,0.5-1.7l1.4-3.8h1.1
								l-2.8,7.3c-0.3,0.7-0.6,1.2-0.9,1.5s-0.8,0.5-1.4,0.5c-0.3,0-0.7,0-1-0.1v-0.8c0.2,0,0.5,0.1,0.8,0.1c0.4,0,0.7-0.1,0.9-0.2
								s0.4-0.4,0.6-0.8l0.3-0.9L101.7,90.6z"/>
						</g>
					</g>
				</g>
			</g>
		</g>
	</g>
</g>
</svg>
