<?xml version="1.0" encoding="utf-8"?>
<!-- Generator: Adobe Illustrator 21.0.0, SVG Export Plug-In . SVG Version: 6.00 Build 0)  -->
<svg version="1.1" id="Layer_1" xmlns="http://www.w3.org/2000/svg" xmlns:xlink="http://www.w3.org/1999/xlink" x="0px" y="0px"
	 viewBox="0 0 300.3 360.5" style="enable-background:new 0 0 300.3 360.5;" xml:space="preserve">
<rect style="fill:#595A59;" width="301" height="360.5"/>
<title>Group 2</title>
<desc>Created with Sketch.</desc>
<g id="Page-1">
	<g id="kitchen-home" transform="translate(-536.000000, -389.000000)">
		<g id="Body" transform="translate(230.000000, 223.000000)">
			<g id="Hero">
				<g id="CLI-kitchen.yml" transform="translate(340.000000, 199.000000)">
					<g id="Group-2">
						<g style="enable-background:new    ;">
							<path style="fill:#FFFFFF;" d="M-13.7-1.2v-1h7.3v1H-13.7z"/>
						</g>
						<g>
						</g>
						<g style="enable-background:new    ;">
							<path style="fill:#FFFFFF;" d="M-8.4,17.6L-8.4,17.6c-0.5,0.7-1.1,1-1.9,1c-0.8,0-1.4-0.3-1.8-0.9s-0.7-1.4-0.7-2.4
								c0-1.1,0.2-1.9,0.7-2.5s1.1-0.9,1.8-0.9c0.8,0,1.4,0.3,1.9,0.9h0.1c0-0.5-0.1-0.8-0.1-0.9V9.4h1.1v9.1h-0.9L-8.4,17.6z
								 M-8.5,15.5v-0.2c0-0.9-0.1-1.5-0.4-1.9s-0.7-0.6-1.3-0.6c-1.1,0-1.6,0.8-1.6,2.5c0,1.6,0.5,2.4,1.6,2.4c0.6,0,1-0.2,1.3-0.5
								S-8.5,16.3-8.5,15.5z"/>
							<path style="fill:#FFFFFF;" d="M-0.3,12.2l-0.3,1C-1,13-1.5,12.9-1.9,12.9c-0.6,0-1.1,0.2-1.5,0.5s-0.5,0.9-0.5,1.6v3.5h-1.1
								v-6.4h0.9l0.1,1.2h0c0.3-0.5,0.6-0.8,1-1s0.8-0.3,1.3-0.3C-1.2,11.9-0.7,12-0.3,12.2z"/>
							<path style="fill:#FFFFFF;" d="M3.9,12.9l-1.6-0.1v-0.7H5v5.6L7,17.8v0.7H1.9v-0.7l2-0.1V12.9z M4.4,9.4
								c0.4,0,0.6,0.2,0.6,0.7c0,0.2-0.1,0.4-0.2,0.5s-0.3,0.2-0.4,0.2c-0.4,0-0.6-0.2-0.6-0.7C3.8,9.6,4,9.4,4.4,9.4z"/>
							<path style="fill:#FFFFFF;" d="M10.9,18.5l-2.4-6.4h1.1l1.4,3.8c0.3,0.9,0.5,1.5,0.6,1.9h0c0-0.2,0.2-0.8,0.6-1.9l1.4-3.8
								h1.1l-2.4,6.4H10.9z"/>
							<path style="fill:#FFFFFF;" d="M21.6,15.5H17c0,1.5,0.7,2.2,2,2.2c0.8,0,1.5-0.1,2.2-0.4v0.9c-0.6,0.3-1.4,0.4-2.1,0.4
								c-1,0-1.7-0.3-2.3-0.9s-0.9-1.4-0.9-2.4c0-1,0.3-1.9,0.8-2.5s1.2-0.9,2.1-0.9c0.8,0,1.5,0.3,2,0.8s0.7,1.2,0.7,2.1V15.5z
								 M17,14.6h3.4c0-1.2-0.5-1.8-1.6-1.8C17.7,12.8,17.1,13.4,17,14.6z"/>
							<path style="fill:#FFFFFF;" d="M28.5,12.2l-0.3,1c-0.5-0.2-0.9-0.3-1.3-0.3c-0.6,0-1.1,0.2-1.5,0.5S25,14.3,25,15v3.5h-1.1
								v-6.4h0.9l0.1,1.2h0c0.3-0.5,0.6-0.8,1-1s0.8-0.3,1.3-0.3C27.6,11.9,28.1,12,28.5,12.2z"/>
							<path style="fill:#FFFFFF;" d="M33.1,11.9c0.5,0,0.7,0.3,0.7,0.8s-0.2,0.8-0.7,0.8s-0.7-0.3-0.7-0.8S32.6,11.9,33.1,11.9z
								 M33.1,17c0.5,0,0.7,0.3,0.7,0.8c0,0.5-0.2,0.8-0.7,0.8s-0.7-0.3-0.7-0.8C32.4,17.3,32.6,17,33.1,17z"/>
						</g>
						<g>
						</g>
						<g style="enable-background:new    ;">
							<path style="fill:#FFFFFF;" d="M-8.5,35.5v-4.1c0-1-0.5-1.5-1.4-1.5c-1.2,0-1.8,0.8-1.8,2.3v3.3h-1.1v-6.4h0.9l0.2,0.9h0.1
								c0.4-0.7,1.1-1,2-1c1.5,0,2.3,0.8,2.3,2.3v4.2H-8.5z"/>
							<path style="fill:#FFFFFF;" d="M-1.2,35.5l-0.2-0.9h0c-0.3,0.4-0.6,0.6-0.9,0.8s-0.7,0.2-1.2,0.2c-0.6,0-1.1-0.2-1.5-0.5
								s-0.5-0.8-0.5-1.4c0-1.3,1-2,3-2l1.2,0v-0.4c0-0.9-0.5-1.4-1.4-1.4c-0.6,0-1.2,0.2-1.9,0.5l-0.4-0.8c0.8-0.4,1.5-0.6,2.2-0.6
								c0.9,0,1.5,0.2,1.9,0.5s0.6,0.9,0.6,1.6v4.4H-1.2z M-1.5,32.4l-0.9,0c-0.8,0-1.3,0.2-1.6,0.4s-0.5,0.5-0.5,1
								c0,0.7,0.4,1,1.2,1c0.6,0,1-0.2,1.4-0.5s0.5-0.8,0.5-1.3V32.4z"/>
							<path style="fill:#FFFFFF;" d="M6.5,35.5v-4.1c0-0.6-0.1-1-0.2-1.2S6,29.8,5.8,29.8c-0.3,0-0.6,0.2-0.7,0.5s-0.2,0.9-0.2,1.6
								v3.6H3.9v-4.1c0-1-0.2-1.5-0.7-1.5c-0.3,0-0.6,0.2-0.7,0.5s-0.2,0.9-0.2,1.9v3.3H1.3v-6.4H2l0.2,0.9h0.1c0.3-0.7,0.7-1,1.2-1
								c0.6,0,1.1,0.4,1.2,1.1h0C5,29.3,5.4,28.9,6,28.9c0.5,0,0.9,0.2,1.1,0.5s0.3,1,0.3,1.8v4.2H6.5z"/>
							<path style="fill:#FFFFFF;" d="M14.4,32.5H9.8c0,1.5,0.7,2.2,2,2.2c0.8,0,1.5-0.1,2.2-0.4v0.9c-0.6,0.3-1.4,0.4-2.1,0.4
								c-1,0-1.7-0.3-2.3-0.9s-0.9-1.4-0.9-2.4c0-1,0.3-1.9,0.8-2.5s1.2-0.9,2.1-0.9c0.8,0,1.5,0.3,2,0.8s0.7,1.2,0.7,2.1V32.5z
								 M9.8,31.6h3.4c0-1.2-0.5-1.8-1.6-1.8C10.5,29.8,9.9,30.4,9.8,31.6z"/>
							<path style="fill:#FFFFFF;" d="M18.7,28.9c0.5,0,0.7,0.3,0.7,0.8s-0.2,0.8-0.7,0.8S18,30.3,18,29.7S18.2,28.9,18.7,28.9z
								 M18.7,34c0.5,0,0.7,0.3,0.7,0.8c0,0.5-0.2,0.8-0.7,0.8S18,35.4,18,34.8C18,34.3,18.2,34,18.7,34z"/>
							<path style="fill:#FFFFFF;" d="M32.5,35.5L30,29.1h1.1l1.4,3.8c0.3,0.9,0.5,1.5,0.6,1.9h0c0-0.2,0.2-0.8,0.6-1.9l1.4-3.8h1.1
								l-2.4,6.4H32.5z"/>
							<path style="fill:#FFFFFF;" d="M42,35.5l-0.2-0.9h0c-0.3,0.4-0.6,0.6-0.9,0.8s-0.7,0.2-1.2,0.2c-0.6,0-1.1-0.2-1.5-0.5
								s-0.5-0.8-0.5-1.4c0-1.3,1-2,3-2l1.2,0v-0.4c0-0.9-0.5-1.4-1.4-1.4c-0.6,0-1.2,0.2-1.9,0.5L38,29.5c0.8-0.4,1.5-0.6,2.2-0.6
								c0.9,0,1.5,0.2,1.9,0.5s0.6,0.9,0.6,1.6v4.4H42z M41.7,32.4l-0.9,0c-0.8,0-1.3,0.2-1.6,0.4s-0.5,0.5-0.5,1c0,0.7,0.4,1,1.2,1
								c0.6,0,1-0.2,1.4-0.5s0.5-0.8,0.5-1.3V32.4z"/>
							<path style="fill:#FFFFFF;" d="M50.5,29.1v0.7l-1.1,0.2c0.3,0.3,0.4,0.7,0.4,1.2c0,0.6-0.2,1.1-0.6,1.5s-1,0.6-1.7,0.6
								c-0.2,0-0.4,0-0.5,0c-0.4,0.2-0.6,0.5-0.6,0.8c0,0.3,0.3,0.5,0.9,0.5h1.1c0.7,0,1.2,0.2,1.6,0.5s0.5,0.7,0.5,1.3
								c0,1.5-1.1,2.2-3.3,2.2c-0.9,0-1.5-0.2-1.9-0.5s-0.7-0.8-0.7-1.3c0-0.8,0.5-1.4,1.4-1.6c-0.4-0.2-0.6-0.5-0.6-0.9
								c0-0.4,0.3-0.8,0.8-1.1c-0.3-0.1-0.6-0.4-0.8-0.7S45,31.6,45,31.2c0-0.7,0.2-1.3,0.6-1.6s1-0.6,1.8-0.6c0.3,0,0.6,0,0.9,0.1
								H50.5z M48,35.4h-1.1c-0.9,0-1.3,0.4-1.3,1.2c0,0.7,0.5,1,1.6,1c1.5,0,2.3-0.4,2.3-1.3c0-0.3-0.1-0.6-0.3-0.7
								S48.6,35.4,48,35.4z M47.4,32.5c0.9,0,1.3-0.4,1.3-1.3c0-0.9-0.4-1.4-1.3-1.4s-1.3,0.5-1.3,1.4C46.1,32,46.5,32.5,47.4,32.5z
								"/>
							<path style="fill:#FFFFFF;" d="M57.3,29.2l-0.3,1c-0.5-0.2-0.9-0.3-1.3-0.3c-0.6,0-1.1,0.2-1.5,0.5s-0.5,0.9-0.5,1.6v3.5
								h-1.1v-6.4h0.9l0.1,1.2h0c0.3-0.5,0.6-0.8,1-1s0.8-0.3,1.3-0.3C56.4,28.9,56.9,29,57.3,29.2z"/>
							<path style="fill:#FFFFFF;" d="M63.6,35.5l-0.2-0.9h0c-0.3,0.4-0.6,0.6-0.9,0.8s-0.7,0.2-1.2,0.2c-0.6,0-1.1-0.2-1.5-0.5
								s-0.5-0.8-0.5-1.4c0-1.3,1-2,3-2l1.2,0v-0.4c0-0.9-0.5-1.4-1.4-1.4c-0.6,0-1.2,0.2-1.9,0.5l-0.4-0.8c0.8-0.4,1.5-0.6,2.2-0.6
								c0.9,0,1.5,0.2,1.9,0.5c0.4,0.3,0.6,0.9,0.6,1.6v4.4H63.6z M63.3,32.4l-0.9,0c-0.8,0-1.3,0.2-1.6,0.4s-0.5,0.5-0.5,1
								c0,0.7,0.4,1,1.2,1c0.6,0,1-0.2,1.4-0.5s0.5-0.8,0.5-1.3V32.4z"/>
							<path style="fill:#FFFFFF;" d="M70.7,35.5v-4.1c0-1-0.5-1.5-1.4-1.5c-1.2,0-1.8,0.8-1.8,2.3v3.3h-1.1v-6.4h0.9l0.2,0.9h0.1
								c0.4-0.7,1.1-1,2-1c1.5,0,2.3,0.8,2.3,2.3v4.2H70.7z"/>
							<path style="fill:#FFFFFF;" d="M78.7,34.6v0.8c-0.5,0.1-1,0.2-1.5,0.2c-1.4,0-2.1-0.7-2.1-2v-3.7h-1.6v-0.6l1.6-0.3l0.5-1.7
								h0.6v1.7h2.6v0.8h-2.6v3.7c0,0.8,0.4,1.1,1.1,1.1C77.7,34.7,78.1,34.7,78.7,34.6z"/>
						</g>
						<g>
						</g>
						<g style="enable-background:new    ;">
							<path style="fill:#FFFFFF;" d="M-11.7,68.7L-11.7,68.7c0,0.5,0,0.8,0,0.9v2.7h-1.1v-9.3h0.9l0.2,0.9h0c0.4-0.7,1.1-1,1.9-1
								c0.8,0,1.4,0.3,1.8,0.9c0.4,0.6,0.7,1.4,0.7,2.4c0,1.1-0.2,1.9-0.7,2.5c-0.4,0.6-1.1,0.9-1.8,0.9
								C-10.6,69.6-11.2,69.3-11.7,68.7z M-11.7,66v0.2c0,0.9,0.1,1.5,0.4,1.9s0.7,0.6,1.3,0.6c1.1,0,1.6-0.8,1.6-2.5
								c0-1.6-0.5-2.4-1.6-2.4c-0.6,0-1,0.2-1.3,0.5S-11.7,65.3-11.7,66z"/>
							<path style="fill:#FFFFFF;" d="M-0.3,63.2l-0.3,1C-1,64-1.5,63.9-1.9,63.9c-0.6,0-1.1,0.2-1.5,0.5s-0.5,0.9-0.5,1.6v3.5h-1.1
								v-6.4h0.9l0.1,1.2h0c0.3-0.5,0.6-0.8,1-1s0.8-0.3,1.3-0.3C-1.2,62.9-0.7,63-0.3,63.2z"/>
							<path style="fill:#FFFFFF;" d="M4.3,69.6c-0.8,0-1.5-0.3-2.1-0.9s-0.8-1.4-0.8-2.4c0-1,0.3-1.8,0.8-2.4s1.2-0.9,2.1-0.9
								c0.9,0,1.5,0.3,2.1,0.9s0.8,1.4,0.8,2.4c0,1-0.3,1.9-0.8,2.4S5.2,69.6,4.3,69.6z M4.3,68.7c1.2,0,1.8-0.8,1.8-2.5
								c0-1.6-0.6-2.4-1.8-2.4c-1.2,0-1.8,0.8-1.8,2.4C2.5,67.9,3.1,68.7,4.3,68.7z"/>
							<path style="fill:#FFFFFF;" d="M10.9,69.5l-2.4-6.4h1.1l1.4,3.8c0.3,0.9,0.5,1.5,0.6,1.9h0c0-0.2,0.2-0.8,0.6-1.9l1.4-3.8
								h1.1l-2.4,6.4H10.9z"/>
							<path style="fill:#FFFFFF;" d="M18.3,63.9l-1.6-0.1v-0.7h2.6v5.6l2.1,0.1v0.7h-5.1v-0.7l2-0.1V63.9z M18.8,60.4
								c0.4,0,0.6,0.2,0.6,0.7c0,0.2-0.1,0.4-0.2,0.5s-0.3,0.2-0.4,0.2c-0.4,0-0.6-0.2-0.6-0.7C18.2,60.6,18.4,60.4,18.8,60.4z"/>
							<path style="fill:#FFFFFF;" d="M23.5,69.2v-1c0.8,0.3,1.5,0.5,2.2,0.5c1.1,0,1.6-0.3,1.6-0.9c0-0.2-0.1-0.4-0.3-0.6
								s-0.6-0.4-1.3-0.6c-0.9-0.3-1.5-0.7-1.7-0.9s-0.4-0.6-0.4-1c0-0.5,0.2-0.9,0.7-1.3s1-0.5,1.8-0.5c0.8,0,1.5,0.1,2.2,0.4
								l-0.4,0.9c-0.7-0.3-1.3-0.4-1.9-0.4c-0.9,0-1.4,0.3-1.4,0.8c0,0.2,0.1,0.4,0.3,0.6s0.7,0.3,1.4,0.6c0.8,0.3,1.4,0.6,1.6,0.9
								s0.4,0.6,0.4,1.1c0,0.6-0.2,1-0.7,1.4s-1.1,0.5-1.9,0.5C24.8,69.6,24,69.5,23.5,69.2z"/>
							<path style="fill:#FFFFFF;" d="M32.7,63.9l-1.6-0.1v-0.7h2.6v5.6l2.1,0.1v0.7h-5.1v-0.7l2-0.1V63.9z M33.2,60.4
								c0.4,0,0.6,0.2,0.6,0.7c0,0.2-0.1,0.4-0.2,0.5s-0.3,0.2-0.4,0.2c-0.4,0-0.6-0.2-0.6-0.7C32.6,60.6,32.8,60.4,33.2,60.4z"/>
							<path style="fill:#FFFFFF;" d="M40.3,69.6c-0.8,0-1.5-0.3-2.1-0.9s-0.8-1.4-0.8-2.4c0-1,0.3-1.8,0.8-2.4s1.2-0.9,2.1-0.9
								c0.9,0,1.5,0.3,2.1,0.9s0.8,1.4,0.8,2.4c0,1-0.3,1.9-0.8,2.4S41.2,69.6,40.3,69.6z M40.3,68.7c1.2,0,1.8-0.8,1.8-2.5
								c0-1.6-0.6-2.4-1.8-2.4c-1.2,0-1.8,0.8-1.8,2.4C38.5,67.9,39.1,68.7,40.3,68.7z"/>
							<path style="fill:#FFFFFF;" d="M49.1,69.5v-4.1c0-1-0.5-1.5-1.4-1.5c-1.2,0-1.8,0.8-1.8,2.3v3.3h-1.1v-6.4h0.9l0.2,0.9H46
								c0.4-0.7,1.1-1,2-1c1.5,0,2.3,0.8,2.3,2.3v4.2H49.1z"/>
							<path style="fill:#FFFFFF;" d="M57.6,66.5H53c0,1.5,0.7,2.2,2,2.2c0.8,0,1.5-0.1,2.2-0.4v0.9c-0.6,0.3-1.4,0.4-2.1,0.4
								c-1,0-1.7-0.3-2.3-0.9s-0.9-1.4-0.9-2.4c0-1,0.3-1.9,0.8-2.5s1.2-0.9,2.1-0.9c0.8,0,1.5,0.3,2,0.8s0.7,1.2,0.7,2.1V66.5z
								 M53.1,65.6h3.4c0-1.2-0.5-1.8-1.6-1.8C53.7,63.8,53.2,64.4,53.1,65.6z"/>
							<path style="fill:#FFFFFF;" d="M64.6,63.2l-0.3,1c-0.5-0.2-0.9-0.3-1.3-0.3c-0.6,0-1.1,0.2-1.5,0.5S61,65.3,61,66v3.5h-1.1
								v-6.4h0.9l0.1,1.2h0c0.3-0.5,0.6-0.8,1-1s0.8-0.3,1.3-0.3C63.6,62.9,64.1,63,64.6,63.2z"/>
							<path style="fill:#FFFFFF;" d="M69.1,62.9c0.5,0,0.7,0.3,0.7,0.8s-0.2,0.8-0.7,0.8s-0.7-0.3-0.7-0.8S68.6,62.9,69.1,62.9z
								 M69.1,68c0.5,0,0.7,0.3,0.7,0.8c0,0.5-0.2,0.8-0.7,0.8s-0.7-0.3-0.7-0.8C68.4,68.3,68.6,68,69.1,68z"/>
						</g>
						<g>
						</g>
						<g style="enable-background:new    ;">
							<path style="fill:#FFFFFF;" d="M-8.5,86.5v-4.1c0-1-0.5-1.5-1.4-1.5c-1.2,0-1.8,0.8-1.8,2.3v3.3h-1.1v-6.4h0.9l0.2,0.9h0.1
								c0.4-0.7,1.1-1,2-1c1.5,0,2.3,0.8,2.3,2.3v4.2H-8.5z"/>
							<path style="fill:#FFFFFF;" d="M-1.2,86.5l-0.2-0.9h0c-0.3,0.4-0.6,0.6-0.9,0.8s-0.7,0.2-1.2,0.2c-0.6,0-1.1-0.2-1.5-0.5
								s-0.5-0.8-0.5-1.4c0-1.3,1-2,3-2l1.2,0v-0.4c0-0.9-0.5-1.4-1.4-1.4c-0.6,0-1.2,0.2-1.9,0.5l-0.4-0.8c0.8-0.4,1.5-0.6,2.2-0.6
								c0.9,0,1.5,0.2,1.9,0.5s0.6,0.9,0.6,1.6v4.4H-1.2z M-1.5,83.4l-0.9,0c-0.8,0-1.3,0.2-1.6,0.4s-0.5,0.5-0.5,1
								c0,0.7,0.4,1,1.2,1c0.6,0,1-0.2,1.4-0.5s0.5-0.8,0.5-1.3V83.4z"/>
							<path style="fill:#FFFFFF;" d="M6.5,86.5v-4.1c0-0.6-0.1-1-0.2-1.2S6,80.8,5.8,80.8c-0.3,0-0.6,0.2-0.7,0.5s-0.2,0.9-0.2,1.6
								v3.6H3.9v-4.1c0-1-0.2-1.5-0.7-1.5c-0.3,0-0.6,0.2-0.7,0.5s-0.2,0.9-0.2,1.9v3.3H1.3v-6.4H2l0.2,0.9h0.1c0.3-0.7,0.7-1,1.2-1
								c0.6,0,1.1,0.4,1.2,1.1h0C5,80.3,5.4,79.9,6,79.9c0.5,0,0.9,0.2,1.1,0.5s0.3,1,0.3,1.8v4.2H6.5z"/>
							<path style="fill:#FFFFFF;" d="M14.4,83.5H9.8c0,1.5,0.7,2.2,2,2.2c0.8,0,1.5-0.1,2.2-0.4v0.9c-0.6,0.3-1.4,0.4-2.1,0.4
								c-1,0-1.7-0.3-2.3-0.9s-0.9-1.4-0.9-2.4c0-1,0.3-1.9,0.8-2.5s1.2-0.9,2.1-0.9c0.8,0,1.5,0.3,2,0.8s0.7,1.2,0.7,2.1V83.5z
								 M9.8,82.6h3.4c0-1.2-0.5-1.8-1.6-1.8C10.5,80.8,9.9,81.4,9.8,82.6z"/>
							<path style="fill:#FFFFFF;" d="M18.7,79.9c0.5,0,0.7,0.3,0.7,0.8s-0.2,0.8-0.7,0.8S18,81.3,18,80.7S18.2,79.9,18.7,79.9z
								 M18.7,85c0.5,0,0.7,0.3,0.7,0.8c0,0.5-0.2,0.8-0.7,0.8S18,86.4,18,85.8C18,85.3,18.2,85,18.7,85z"/>
							<path style="fill:#FFFFFF;" d="M35.8,80.3l-0.4,0.9c-0.6-0.2-1.1-0.3-1.6-0.3c-1.4,0-2.2,0.8-2.2,2.4c0,1.6,0.7,2.4,2.1,2.4
								c0.6,0,1.2-0.1,1.9-0.4v0.9c-0.5,0.2-1.2,0.4-1.9,0.4c-1,0-1.8-0.3-2.3-0.9s-0.8-1.4-0.8-2.4c0-1.1,0.3-1.9,0.8-2.5
								s1.4-0.9,2.4-0.9C34.5,79.9,35.1,80.1,35.8,80.3z"/>
							<path style="fill:#FFFFFF;" d="M41.9,86.5v-4.1c0-1-0.5-1.5-1.4-1.5c-1.2,0-1.8,0.8-1.8,2.3v3.3h-1.1v-9.1h1.1v2.7l0,0.8h0.1
								c0.4-0.7,1.1-1,2-1c1.5,0,2.3,0.8,2.3,2.3v4.2H41.9z"/>
							<path style="fill:#FFFFFF;" d="M50.4,83.5h-4.5c0,1.5,0.7,2.2,2,2.2c0.8,0,1.5-0.1,2.2-0.4v0.9c-0.6,0.3-1.4,0.4-2.1,0.4
								c-1,0-1.7-0.3-2.3-0.9s-0.9-1.4-0.9-2.4c0-1,0.3-1.9,0.8-2.5s1.2-0.9,2.1-0.9c0.8,0,1.5,0.3,2,0.8s0.7,1.2,0.7,2.1V83.5z
								 M45.9,82.6h3.4c0-1.2-0.5-1.8-1.6-1.8C46.5,80.8,46,81.4,45.9,82.6z"/>
							<path style="fill:#FFFFFF;" d="M57.3,80.9H55v5.6h-1.1v-5.6h-1.9v-0.6l1.9-0.2v-0.6c0-0.8,0.2-1.3,0.5-1.6s0.9-0.5,1.8-0.5
								c0.5,0,1,0.1,1.5,0.2l-0.2,0.8c-0.4-0.1-0.8-0.2-1.2-0.2c-0.5,0-0.8,0.1-1,0.3S55,79,55,79.5v0.6h2.3V80.9z"/>
							<path style="fill:#FFFFFF;" d="M65.6,88.4h-7.4v-0.8h7.4V88.4z"/>
							<path style="fill:#FFFFFF;" d="M71.7,86.5h-5.1v-0.7l3.9-4.9h-3.7v-0.8h4.8v0.9l-3.8,4.8h3.9V86.5z"/>
							<path style="fill:#FFFFFF;" d="M79.2,83.5h-4.5c0,1.5,0.7,2.2,2,2.2c0.8,0,1.5-0.1,2.2-0.4v0.9c-0.6,0.3-1.4,0.4-2.1,0.4
								c-1,0-1.7-0.3-2.3-0.9s-0.9-1.4-0.9-2.4c0-1,0.3-1.9,0.8-2.5s1.2-0.9,2.1-0.9c0.8,0,1.5,0.3,2,0.8s0.7,1.2,0.7,2.1V83.5z
								 M74.7,82.6H78c0-1.2-0.5-1.8-1.6-1.8C75.3,80.8,74.8,81.4,74.7,82.6z"/>
							<path style="fill:#FFFFFF;" d="M86.2,80.2l-0.3,1c-0.5-0.2-0.9-0.3-1.3-0.3c-0.6,0-1.1,0.2-1.5,0.5s-0.5,0.9-0.5,1.6v3.5
								h-1.1v-6.4h0.9l0.1,1.2h0c0.3-0.5,0.6-0.8,1-1s0.8-0.3,1.3-0.3C85.2,79.9,85.7,80,86.2,80.2z"/>
							<path style="fill:#FFFFFF;" d="M90.7,86.6c-0.8,0-1.5-0.3-2.1-0.9s-0.8-1.4-0.8-2.4c0-1,0.3-1.8,0.8-2.4s1.2-0.9,2.1-0.9
								c0.9,0,1.5,0.3,2.1,0.9s0.8,1.4,0.8,2.4c0,1-0.3,1.9-0.8,2.4S91.6,86.6,90.7,86.6z M90.7,85.7c1.2,0,1.8-0.8,1.8-2.5
								c0-1.6-0.6-2.4-1.8-2.4c-1.2,0-1.8,0.8-1.8,2.4C88.9,84.9,89.5,85.7,90.7,85.7z"/>
						</g>
						<g>
						</g>
						<g style="enable-background:new    ;">
							<path style="fill:#FFFFFF;" d="M-11.7,119.7L-11.7,119.7c0,0.5,0,0.8,0,0.9v2.7h-1.1v-9.3h0.9l0.2,0.9h0c0.4-0.7,1.1-1,1.9-1
								c0.8,0,1.4,0.3,1.8,0.9c0.4,0.6,0.7,1.4,0.7,2.4c0,1.1-0.2,1.9-0.7,2.5c-0.4,0.6-1.1,0.9-1.8,0.9
								C-10.6,120.6-11.2,120.3-11.7,119.7z M-11.7,117v0.2c0,0.9,0.1,1.5,0.4,1.9s0.7,0.6,1.3,0.6c1.1,0,1.6-0.8,1.6-2.5
								c0-1.6-0.5-2.4-1.6-2.4c-0.6,0-1,0.2-1.3,0.5S-11.7,116.3-11.7,117z"/>
							<path style="fill:#FFFFFF;" d="M-3.3,112.2l-1.6-0.1v-0.7h2.6v8.3l2.1,0.1v0.7h-5.2v-0.7l2-0.1V112.2z"/>
							<path style="fill:#FFFFFF;" d="M6,120.5l-0.2-0.9h0c-0.3,0.4-0.6,0.6-0.9,0.8s-0.7,0.2-1.2,0.2c-0.6,0-1.1-0.2-1.5-0.5
								s-0.5-0.8-0.5-1.4c0-1.3,1-2,3-2l1.2,0v-0.4c0-0.9-0.5-1.4-1.4-1.4c-0.6,0-1.2,0.2-1.9,0.5L2,114.5c0.8-0.4,1.5-0.6,2.2-0.6
								c0.9,0,1.5,0.2,1.9,0.5s0.6,0.9,0.6,1.6v4.4H6z M5.7,117.4l-0.9,0c-0.8,0-1.3,0.2-1.6,0.4s-0.5,0.5-0.5,1c0,0.7,0.4,1,1.2,1
								c0.6,0,1-0.2,1.4-0.5s0.5-0.8,0.5-1.3V117.4z"/>
							<path style="fill:#FFFFFF;" d="M13.9,119.6v0.8c-0.5,0.1-1,0.2-1.5,0.2c-1.4,0-2.1-0.7-2.1-2v-3.7H8.8v-0.6l1.6-0.3l0.5-1.7
								h0.6v1.7h2.6v0.8h-2.6v3.7c0,0.8,0.4,1.1,1.1,1.1C12.9,119.7,13.3,119.7,13.9,119.6z"/>
							<path style="fill:#FFFFFF;" d="M21.3,114.9H19v5.6h-1.1v-5.6h-1.9v-0.6l1.9-0.2v-0.6c0-0.8,0.2-1.3,0.5-1.6s0.9-0.5,1.8-0.5
								c0.5,0,1,0.1,1.5,0.2l-0.2,0.8c-0.4-0.1-0.8-0.2-1.2-0.2c-0.5,0-0.8,0.1-1,0.3s-0.3,0.5-0.3,1v0.6h2.3V114.9z"/>
							<path style="fill:#FFFFFF;" d="M25.9,120.6c-0.8,0-1.5-0.3-2.1-0.9s-0.8-1.4-0.8-2.4c0-1,0.3-1.8,0.8-2.4s1.2-0.9,2.1-0.9
								c0.9,0,1.5,0.3,2.1,0.9s0.8,1.4,0.8,2.4c0,1-0.3,1.9-0.8,2.4S26.8,120.6,25.9,120.6z M25.9,119.7c1.2,0,1.8-0.8,1.8-2.5
								c0-1.6-0.6-2.4-1.8-2.4c-1.2,0-1.8,0.8-1.8,2.4C24.1,118.9,24.7,119.7,25.9,119.7z"/>
							<path style="fill:#FFFFFF;" d="M35.7,114.2l-0.3,1c-0.5-0.2-0.9-0.3-1.3-0.3c-0.6,0-1.1,0.2-1.5,0.5s-0.5,0.9-0.5,1.6v3.5
								h-1.1v-6.4H32l0.1,1.2h0c0.3-0.5,0.6-0.8,1-1s0.8-0.3,1.3-0.3C34.8,113.9,35.3,114,35.7,114.2z"/>
							<path style="fill:#FFFFFF;" d="M42.5,120.5v-4.1c0-0.6-0.1-1-0.2-1.2s-0.3-0.3-0.5-0.3c-0.3,0-0.6,0.2-0.7,0.5
								s-0.2,0.9-0.2,1.6v3.6h-0.9v-4.1c0-1-0.2-1.5-0.7-1.5c-0.3,0-0.6,0.2-0.7,0.5s-0.2,0.9-0.2,1.9v3.3h-0.9v-6.4H38l0.2,0.9h0.1
								c0.3-0.7,0.7-1,1.2-1c0.6,0,1.1,0.4,1.2,1.1h0c0.3-0.7,0.7-1.1,1.3-1.1c0.5,0,0.9,0.2,1.1,0.5s0.3,1,0.3,1.8v4.2H42.5z"/>
							<path style="fill:#FFFFFF;" d="M45.1,120.2v-1c0.8,0.3,1.5,0.5,2.2,0.5c1.1,0,1.6-0.3,1.6-0.9c0-0.2-0.1-0.4-0.3-0.6
								s-0.6-0.4-1.3-0.6c-0.9-0.3-1.5-0.7-1.7-0.9s-0.4-0.6-0.4-1c0-0.5,0.2-0.9,0.7-1.3s1-0.5,1.8-0.5c0.8,0,1.5,0.1,2.2,0.4
								l-0.4,0.9c-0.7-0.3-1.3-0.4-1.9-0.4c-0.9,0-1.4,0.3-1.4,0.8c0,0.2,0.1,0.4,0.3,0.6s0.7,0.3,1.4,0.6c0.8,0.3,1.4,0.6,1.6,0.9
								s0.4,0.6,0.4,1.1c0,0.6-0.2,1-0.7,1.4s-1.1,0.5-1.9,0.5C46.4,120.6,45.6,120.5,45.1,120.2z"/>
							<path style="fill:#FFFFFF;" d="M54.7,113.9c0.5,0,0.7,0.3,0.7,0.8s-0.2,0.8-0.7,0.8s-0.7-0.3-0.7-0.8S54.2,113.9,54.7,113.9z
								 M54.7,119c0.5,0,0.7,0.3,0.7,0.8c0,0.5-0.2,0.8-0.7,0.8s-0.7-0.3-0.7-0.8C54,119.3,54.2,119,54.7,119z"/>
						</g>
						<g>
						</g>
						<g style="enable-background:new    ;">
							<path style="fill:#FFFFFF;" d="M-12,134.8v-1h3.9v1H-12z"/>
							<path style="fill:#FFFFFF;" d="M5.9,137.5v-4.1c0-1-0.5-1.5-1.4-1.5c-1.2,0-1.8,0.8-1.8,2.3v3.3H1.7v-6.4h0.9l0.2,0.9h0.1
								c0.4-0.7,1.1-1,2-1c1.5,0,2.3,0.8,2.3,2.3v4.2H5.9z"/>
							<path style="fill:#FFFFFF;" d="M13.2,137.5l-0.2-0.9h0c-0.3,0.4-0.6,0.6-0.9,0.8s-0.7,0.2-1.2,0.2c-0.6,0-1.1-0.2-1.5-0.5
								s-0.5-0.8-0.5-1.4c0-1.3,1-2,3-2l1.2,0v-0.4c0-0.9-0.5-1.4-1.4-1.4c-0.6,0-1.2,0.2-1.9,0.5l-0.4-0.8c0.8-0.4,1.5-0.6,2.2-0.6
								c0.9,0,1.5,0.2,1.9,0.5s0.6,0.9,0.6,1.6v4.4H13.2z M12.9,134.4l-0.9,0c-0.8,0-1.3,0.2-1.6,0.4s-0.5,0.5-0.5,1
								c0,0.7,0.4,1,1.2,1c0.6,0,1-0.2,1.4-0.5s0.5-0.8,0.5-1.3V134.4z"/>
							<path style="fill:#FFFFFF;" d="M20.9,137.5v-4.1c0-0.6-0.1-1-0.2-1.2s-0.3-0.3-0.5-0.3c-0.3,0-0.6,0.2-0.7,0.5
								s-0.2,0.9-0.2,1.6v3.6h-0.9v-4.1c0-1-0.2-1.5-0.7-1.5c-0.3,0-0.6,0.2-0.7,0.5s-0.2,0.9-0.2,1.9v3.3h-0.9v-6.4h0.7l0.2,0.9
								h0.1c0.3-0.7,0.7-1,1.2-1c0.6,0,1.1,0.4,1.2,1.1h0c0.3-0.7,0.7-1.1,1.3-1.1c0.5,0,0.9,0.2,1.1,0.5s0.3,1,0.3,1.8v4.2H20.9z"
								/>
							<path style="fill:#FFFFFF;" d="M28.8,134.5h-4.5c0,1.5,0.7,2.2,2,2.2c0.8,0,1.5-0.1,2.2-0.4v0.9c-0.6,0.3-1.4,0.4-2.1,0.4
								c-1,0-1.7-0.3-2.3-0.9s-0.9-1.4-0.9-2.4c0-1,0.3-1.9,0.8-2.5s1.2-0.9,2.1-0.9c0.8,0,1.5,0.3,2,0.8s0.7,1.2,0.7,2.1V134.5z
								 M24.2,133.6h3.4c0-1.2-0.5-1.8-1.6-1.8C24.9,131.8,24.4,132.4,24.2,133.6z"/>
							<path style="fill:#FFFFFF;" d="M33.1,130.9c0.5,0,0.7,0.3,0.7,0.8s-0.2,0.8-0.7,0.8s-0.7-0.3-0.7-0.8S32.6,130.9,33.1,130.9z
								 M33.1,136c0.5,0,0.7,0.3,0.7,0.8c0,0.5-0.2,0.8-0.7,0.8s-0.7-0.3-0.7-0.8C32.4,136.3,32.6,136,33.1,136z"/>
							<path style="fill:#FFFFFF;" d="M49.3,137.5l-0.2-0.9h-0.1c-0.4,0.7-1.1,1-2,1c-1.5,0-2.3-0.8-2.3-2.3v-4.2h1.1v4.1
								c0,1,0.5,1.5,1.4,1.5c0.6,0,1.1-0.2,1.4-0.5s0.4-1,0.4-1.8v-3.3h1.1v6.4H49.3z"/>
							<path style="fill:#FFFFFF;" d="M53.1,136.7L53.1,136.7l-0.3,0.8h-0.8v-9.1h1.1v2.2c0,0.3,0,0.8,0,1.3h0c0.4-0.6,1-1,1.9-1
								c0.8,0,1.4,0.3,1.8,0.9s0.7,1.4,0.7,2.4c0,1.1-0.2,1.9-0.7,2.5s-1.1,0.9-1.8,0.9C54.2,137.6,53.6,137.3,53.1,136.7z
								 M53.1,134.3c0,0.9,0.1,1.5,0.4,1.9s0.7,0.6,1.3,0.6c1.1,0,1.6-0.8,1.6-2.5c0-1.6-0.5-2.4-1.6-2.4c-0.6,0-1,0.2-1.3,0.6
								S53.1,133.4,53.1,134.3z"/>
							<path style="fill:#FFFFFF;" d="M63.7,137.5l-0.2-0.9h-0.1c-0.4,0.7-1.1,1-2,1c-1.5,0-2.3-0.8-2.3-2.3v-4.2h1.1v4.1
								c0,1,0.5,1.5,1.4,1.5c0.6,0,1.1-0.2,1.4-0.5s0.4-1,0.4-1.8v-3.3h1.1v6.4H63.7z"/>
							<path style="fill:#FFFFFF;" d="M70.7,137.5v-4.1c0-1-0.5-1.5-1.4-1.5c-1.2,0-1.8,0.8-1.8,2.3v3.3h-1.1v-6.4h0.9l0.2,0.9h0.1
								c0.4-0.7,1.1-1,2-1c1.5,0,2.3,0.8,2.3,2.3v4.2H70.7z"/>
							<path style="fill:#FFFFFF;" d="M78.7,136.6v0.8c-0.5,0.1-1,0.2-1.5,0.2c-1.4,0-2.1-0.7-2.1-2v-3.7h-1.6v-0.6l1.6-0.3l0.5-1.7
								h0.6v1.7h2.6v0.8h-2.6v3.7c0,0.8,0.4,1.1,1.1,1.1C77.7,136.7,78.1,136.7,78.7,136.6z"/>
							<path style="fill:#FFFFFF;" d="M85.4,137.5l-0.2-0.9h-0.1c-0.4,0.7-1.1,1-2,1c-1.5,0-2.3-0.8-2.3-2.3v-4.2H82v4.1
								c0,1,0.5,1.5,1.4,1.5c0.6,0,1.1-0.2,1.4-0.5s0.4-1,0.4-1.8v-3.3h1.1v6.4H85.4z"/>
							<path style="fill:#FFFFFF;" d="M88.8,134.8v-1h3.9v1H88.8z"/>
							<path style="fill:#FFFFFF;" d="M98.8,137.5h-1v-5.3c0-0.5,0-1.2,0-2.1c-0.2,0.2-0.4,0.4-0.7,0.7l-0.9,0.7l-0.6-0.7l2.2-1.8
								h0.9V137.5z"/>
							<path style="fill:#FFFFFF;" d="M108.1,135.6h-1.2v1.9h-1v-1.9h-4v-0.9l3.9-5.8h1.1v5.7h1.2V135.6z M105.9,134.6v-2.1
								c0-0.7,0-1.5,0.1-2.5h-0.1c-0.1,0.4-0.3,0.8-0.5,1.1l-2.4,3.6H105.9z"/>
							<path style="fill:#FFFFFF;" d="M112.4,135.7c0.6,0,0.9,0.3,0.9,1s-0.3,1-0.9,1c-0.6,0-0.9-0.3-0.9-1S111.8,135.7,112.4,135.7
								z"/>
							<path style="fill:#FFFFFF;" d="M119.5,137.6c-0.9,0-1.6-0.4-2-1.1s-0.7-1.8-0.7-3.3c0-2.9,0.9-4.4,2.7-4.4
								c0.9,0,1.6,0.4,2.1,1.1s0.7,1.8,0.7,3.3C122.3,136.1,121.4,137.6,119.5,137.6z M119.5,136.7c0.6,0,1-0.3,1.3-0.8
								s0.4-1.4,0.4-2.7c0-1.2-0.1-2.1-0.4-2.7s-0.7-0.8-1.3-0.8c-0.6,0-1,0.3-1.2,0.8s-0.4,1.4-0.4,2.7c0,1.2,0.1,2.1,0.4,2.7
								S119,136.7,119.5,136.7z"/>
							<path style="fill:#FFFFFF;" d="M129.8,135.6h-1.2v1.9h-1v-1.9h-4v-0.9l3.9-5.8h1.1v5.7h1.2V135.6z M127.5,134.6v-2.1
								c0-0.7,0-1.5,0.1-2.5h-0.1c-0.1,0.4-0.3,0.8-0.5,1.1l-2.4,3.6H127.5z"/>
						</g>
						<g>
						</g>
						<g style="enable-background:new    ;">
							<path style="fill:#FFFFFF;" d="M-12,151.8v-1h3.9v1H-12z"/>
							<path style="fill:#FFFFFF;" d="M5.9,154.5v-4.1c0-1-0.5-1.5-1.4-1.5c-1.2,0-1.8,0.8-1.8,2.3v3.3H1.7v-6.4h0.9l0.2,0.9h0.1
								c0.4-0.7,1.1-1,2-1c1.5,0,2.3,0.8,2.3,2.3v4.2H5.9z"/>
							<path style="fill:#FFFFFF;" d="M13.2,154.5l-0.2-0.9h0c-0.3,0.4-0.6,0.6-0.9,0.8s-0.7,0.2-1.2,0.2c-0.6,0-1.1-0.2-1.5-0.5
								s-0.5-0.8-0.5-1.4c0-1.3,1-2,3-2l1.2,0v-0.4c0-0.9-0.5-1.4-1.4-1.4c-0.6,0-1.2,0.2-1.9,0.5l-0.4-0.8c0.8-0.4,1.5-0.6,2.2-0.6
								c0.9,0,1.5,0.2,1.9,0.5s0.6,0.9,0.6,1.6v4.4H13.2z M12.9,151.4l-0.9,0c-0.8,0-1.3,0.2-1.6,0.4s-0.5,0.5-0.5,1
								c0,0.7,0.4,1,1.2,1c0.6,0,1-0.2,1.4-0.5s0.5-0.8,0.5-1.3V151.4z"/>
							<path style="fill:#FFFFFF;" d="M20.9,154.5v-4.1c0-0.6-0.1-1-0.2-1.2s-0.3-0.3-0.5-0.3c-0.3,0-0.6,0.2-0.7,0.5
								s-0.2,0.9-0.2,1.6v3.6h-0.9v-4.1c0-1-0.2-1.5-0.7-1.5c-0.3,0-0.6,0.2-0.7,0.5s-0.2,0.9-0.2,1.9v3.3h-0.9v-6.4h0.7l0.2,0.9
								h0.1c0.3-0.7,0.7-1,1.2-1c0.6,0,1.1,0.4,1.2,1.1h0c0.3-0.7,0.7-1.1,1.3-1.1c0.5,0,0.9,0.2,1.1,0.5s0.3,1,0.3,1.8v4.2H20.9z"
								/>
							<path style="fill:#FFFFFF;" d="M28.8,151.5h-4.5c0,1.5,0.7,2.2,2,2.2c0.8,0,1.5-0.1,2.2-0.4v0.9c-0.6,0.3-1.4,0.4-2.1,0.4
								c-1,0-1.7-0.3-2.3-0.9s-0.9-1.4-0.9-2.4c0-1,0.3-1.9,0.8-2.5s1.2-0.9,2.1-0.9c0.8,0,1.5,0.3,2,0.8s0.7,1.2,0.7,2.1V151.5z
								 M24.2,150.6h3.4c0-1.2-0.5-1.8-1.6-1.8C24.9,148.8,24.4,149.4,24.2,150.6z"/>
							<path style="fill:#FFFFFF;" d="M33.1,147.9c0.5,0,0.7,0.3,0.7,0.8s-0.2,0.8-0.7,0.8s-0.7-0.3-0.7-0.8S32.6,147.9,33.1,147.9z
								 M33.1,153c0.5,0,0.7,0.3,0.7,0.8c0,0.5-0.2,0.8-0.7,0.8s-0.7-0.3-0.7-0.8C32.4,153.3,32.6,153,33.1,153z"/>
							<path style="fill:#FFFFFF;" d="M48.7,154.5l-0.8-3.5l-0.4-1.9h0l-0.4,2l-0.8,3.5h-1.1l-1.3-6.4h0.9l0.6,3.2
								c0.1,0.7,0.2,1.5,0.3,2.3h0c0.1-0.7,0.3-1.4,0.4-2.1l0.8-3.4h1.1l0.7,3.4c0.2,0.8,0.3,1.5,0.4,2.1h0c0.1-0.9,0.2-1.7,0.4-2.3
								l0.6-3.2h0.9l-1.3,6.4H48.7z"/>
							<path style="fill:#FFFFFF;" d="M54.3,148.9l-1.6-0.1v-0.7h2.6v5.6l2.1,0.1v0.7h-5.1v-0.7l2-0.1V148.9z M54.9,145.4
								c0.4,0,0.6,0.2,0.6,0.7c0,0.2-0.1,0.4-0.2,0.5s-0.3,0.2-0.4,0.2c-0.4,0-0.6-0.2-0.6-0.7C54.2,145.6,54.4,145.4,54.9,145.4z"
								/>
							<path style="fill:#FFFFFF;" d="M63.5,154.5v-4.1c0-1-0.5-1.5-1.4-1.5c-1.2,0-1.8,0.8-1.8,2.3v3.3h-1.1v-6.4h0.9l0.2,0.9h0.1
								c0.4-0.7,1.1-1,2-1c1.5,0,2.3,0.8,2.3,2.3v4.2H63.5z"/>
							<path style="fill:#FFFFFF;" d="M70.8,153.6L70.8,153.6c-0.5,0.7-1.1,1-1.9,1c-0.8,0-1.4-0.3-1.8-0.9s-0.7-1.4-0.7-2.4
								c0-1.1,0.2-1.9,0.7-2.5s1.1-0.9,1.8-0.9c0.8,0,1.4,0.3,1.9,0.9h0.1c0-0.5-0.1-0.8-0.1-0.9v-2.6h1.1v9.1H71L70.8,153.6z
								 M70.8,151.5v-0.2c0-0.9-0.1-1.5-0.4-1.9s-0.7-0.6-1.3-0.6c-1.1,0-1.6,0.8-1.6,2.5c0,1.6,0.5,2.4,1.6,2.4
								c0.6,0,1-0.2,1.3-0.5S70.7,152.3,70.8,151.5z"/>
							<path style="fill:#FFFFFF;" d="M76.3,154.6c-0.8,0-1.5-0.3-2.1-0.9s-0.8-1.4-0.8-2.4c0-1,0.3-1.8,0.8-2.4s1.2-0.9,2.1-0.9
								c0.9,0,1.5,0.3,2.1,0.9s0.8,1.4,0.8,2.4c0,1-0.3,1.9-0.8,2.4S77.2,154.6,76.3,154.6z M76.3,153.7c1.2,0,1.8-0.8,1.8-2.5
								c0-1.6-0.6-2.4-1.8-2.4c-1.2,0-1.8,0.8-1.8,2.4C74.5,152.9,75.1,153.7,76.3,153.7z"/>
							<path style="fill:#FFFFFF;" d="M84.7,154.5l-0.8-3.5l-0.4-1.9h0l-0.4,2l-0.8,3.5h-1.1l-1.3-6.4h0.9l0.6,3.2
								c0.1,0.7,0.2,1.5,0.3,2.3h0c0.1-0.7,0.3-1.4,0.4-2.1l0.8-3.4h1.1l0.7,3.4c0.2,0.8,0.3,1.5,0.4,2.1h0c0.1-0.9,0.2-1.7,0.4-2.3
								l0.6-3.2h0.9l-1.3,6.4H84.7z"/>
							<path style="fill:#FFFFFF;" d="M88.3,154.2v-1c0.8,0.3,1.5,0.5,2.2,0.5c1.1,0,1.6-0.3,1.6-0.9c0-0.2-0.1-0.4-0.3-0.6
								s-0.6-0.4-1.3-0.6c-0.9-0.3-1.5-0.7-1.7-0.9s-0.4-0.6-0.4-1c0-0.5,0.2-0.9,0.7-1.3s1-0.5,1.8-0.5c0.8,0,1.5,0.1,2.2,0.4
								l-0.4,0.9c-0.7-0.3-1.3-0.4-1.9-0.4c-0.9,0-1.4,0.3-1.4,0.8c0,0.2,0.1,0.4,0.3,0.6s0.7,0.3,1.4,0.6c0.8,0.3,1.4,0.6,1.6,0.9
								s0.4,0.6,0.4,1.1c0,0.6-0.2,1-0.7,1.4s-1.1,0.5-1.9,0.5C89.6,154.6,88.8,154.5,88.3,154.2z"/>
							<path style="fill:#FFFFFF;" d="M96,151.8v-1h3.9v1H96z"/>
							<path style="fill:#FFFFFF;" d="M107.8,154.5h-5.3v-0.9l2.1-2.2c0.8-0.8,1.3-1.5,1.5-1.9s0.4-0.9,0.4-1.4c0-0.4-0.1-0.8-0.4-1
								s-0.6-0.4-1-0.4c-0.6,0-1.2,0.3-1.9,0.8l-0.6-0.7c0.8-0.7,1.6-1,2.5-1c0.8,0,1.4,0.2,1.8,0.6s0.7,1,0.7,1.7
								c0,0.5-0.1,0.9-0.3,1.4s-0.8,1.2-1.7,2.2l-1.6,1.8v0h4V154.5z"/>
							<path style="fill:#FFFFFF;" d="M112.3,154.6c-0.9,0-1.6-0.4-2-1.1s-0.7-1.8-0.7-3.3c0-2.9,0.9-4.4,2.7-4.4
								c0.9,0,1.6,0.4,2.1,1.1s0.7,1.8,0.7,3.3C115.1,153.1,114.2,154.6,112.3,154.6z M112.3,153.7c0.6,0,1-0.3,1.3-0.8
								s0.4-1.4,0.4-2.7c0-1.2-0.1-2.1-0.4-2.7s-0.7-0.8-1.3-0.8c-0.6,0-1,0.3-1.2,0.8s-0.4,1.4-0.4,2.7c0,1.2,0.1,2.1,0.4,2.7
								S111.8,153.7,112.3,153.7z"/>
							<path style="fill:#FFFFFF;" d="M120.4,154.5h-1v-5.3c0-0.5,0-1.2,0-2.1c-0.2,0.2-0.4,0.4-0.7,0.7l-0.9,0.7l-0.6-0.7l2.2-1.8
								h0.9V154.5z"/>
							<path style="fill:#FFFFFF;" d="M129.4,154.5h-5.3v-0.9l2.1-2.2c0.8-0.8,1.3-1.5,1.5-1.9s0.4-0.9,0.4-1.4c0-0.4-0.1-0.8-0.4-1
								s-0.6-0.4-1-0.4c-0.6,0-1.2,0.3-1.9,0.8l-0.6-0.7c0.8-0.7,1.6-1,2.5-1c0.8,0,1.4,0.2,1.8,0.6c0.4,0.4,0.7,1,0.7,1.7
								c0,0.5-0.1,0.9-0.3,1.4s-0.8,1.2-1.7,2.2l-1.6,1.8v0h4V154.5z"/>
							<path style="fill:#FFFFFF;" d="M136.6,148.2l-0.3,1c-0.5-0.2-0.9-0.3-1.3-0.3c-0.6,0-1.1,0.2-1.5,0.5s-0.5,0.9-0.5,1.6v3.5
								h-1.1v-6.4h0.9l0.1,1.2h0c0.3-0.5,0.6-0.8,1-1s0.8-0.3,1.3-0.3C135.6,147.9,136.1,148,136.6,148.2z"/>
							<path style="fill:#FFFFFF;" d="M143.8,154.5h-5.3v-0.9l2.1-2.2c0.8-0.8,1.3-1.5,1.5-1.9s0.4-0.9,0.4-1.4c0-0.4-0.1-0.8-0.4-1
								s-0.6-0.4-1-0.4c-0.6,0-1.2,0.3-1.9,0.8l-0.6-0.7c0.8-0.7,1.6-1,2.5-1c0.8,0,1.4,0.2,1.8,0.6s0.7,1,0.7,1.7
								c0,0.5-0.1,0.9-0.3,1.4s-0.8,1.2-1.7,2.2l-1.6,1.8v0h4V154.5z"/>
						</g>
						<g>
						</g>
						<g style="enable-background:new    ;">
							<path style="fill:#FFFFFF;" d="M-12.5,188.2v-1c0.8,0.3,1.5,0.5,2.2,0.5c1.1,0,1.6-0.3,1.6-0.9c0-0.2-0.1-0.4-0.3-0.6
								s-0.6-0.4-1.3-0.6c-0.9-0.3-1.5-0.7-1.7-0.9s-0.4-0.6-0.4-1c0-0.5,0.2-0.9,0.7-1.3s1-0.5,1.8-0.5c0.8,0,1.5,0.1,2.2,0.4
								l-0.4,0.9c-0.7-0.3-1.3-0.4-1.9-0.4c-0.9,0-1.4,0.3-1.4,0.8c0,0.2,0.1,0.4,0.3,0.6s0.7,0.3,1.4,0.6c0.8,0.3,1.4,0.6,1.6,0.9
								c0.3,0.3,0.4,0.6,0.4,1.1c0,0.6-0.2,1-0.7,1.4c-0.5,0.3-1.1,0.5-1.9,0.5C-11.2,188.6-12,188.5-12.5,188.2z"/>
							<path style="fill:#FFFFFF;" d="M-1.1,188.5l-0.2-0.9h-0.1c-0.4,0.7-1.1,1-2,1c-1.5,0-2.3-0.8-2.3-2.3v-4.2h1.1v4.1
								c0,1,0.5,1.5,1.4,1.5c0.6,0,1.1-0.2,1.4-0.5s0.4-1,0.4-1.8v-3.3h1.1v6.4H-1.1z"/>
							<path style="fill:#FFFFFF;" d="M3.9,182.9l-1.6-0.1v-0.7H5v5.6l2.1,0.1v0.7H1.9v-0.7l2-0.1V182.9z M4.4,179.4
								c0.4,0,0.6,0.2,0.6,0.7c0,0.2-0.1,0.4-0.2,0.5s-0.3,0.2-0.4,0.2c-0.4,0-0.6-0.2-0.6-0.7C3.8,179.6,4,179.4,4.4,179.4z"/>
							<path style="fill:#FFFFFF;" d="M13.9,187.6v0.8c-0.5,0.1-1,0.2-1.5,0.2c-1.4,0-2.1-0.7-2.1-2v-3.7H8.8v-0.6l1.6-0.3l0.5-1.7
								h0.6v1.7h2.6v0.8h-2.6v3.7c0,0.8,0.4,1.1,1.1,1.1C12.9,187.7,13.3,187.7,13.9,187.6z"/>
							<path style="fill:#FFFFFF;" d="M21.6,185.5H17c0,1.5,0.7,2.2,2,2.2c0.8,0,1.5-0.1,2.2-0.4v0.9c-0.6,0.3-1.4,0.4-2.1,0.4
								c-1,0-1.7-0.3-2.3-0.9s-0.9-1.4-0.9-2.4c0-1,0.3-1.9,0.8-2.5s1.2-0.9,2.1-0.9c0.8,0,1.5,0.3,2,0.8s0.7,1.2,0.7,2.1V185.5z
								 M17,184.6h3.4c0-1.2-0.5-1.8-1.6-1.8C17.7,182.8,17.1,183.4,17,184.6z"/>
							<path style="fill:#FFFFFF;" d="M23.5,188.2v-1c0.8,0.3,1.5,0.5,2.2,0.5c1.1,0,1.6-0.3,1.6-0.9c0-0.2-0.1-0.4-0.3-0.6
								s-0.6-0.4-1.3-0.6c-0.9-0.3-1.5-0.7-1.7-0.9s-0.4-0.6-0.4-1c0-0.5,0.2-0.9,0.7-1.3s1-0.5,1.8-0.5c0.8,0,1.5,0.1,2.2,0.4
								l-0.4,0.9c-0.7-0.3-1.3-0.4-1.9-0.4c-0.9,0-1.4,0.3-1.4,0.8c0,0.2,0.1,0.4,0.3,0.6s0.7,0.3,1.4,0.6c0.8,0.3,1.4,0.6,1.6,0.9
								s0.4,0.6,0.4,1.1c0,0.6-0.2,1-0.7,1.4s-1.1,0.5-1.9,0.5C24.8,188.6,24,188.5,23.5,188.2z"/>
							<path style="fill:#FFFFFF;" d="M33.1,181.9c0.5,0,0.7,0.3,0.7,0.8s-0.2,0.8-0.7,0.8s-0.7-0.3-0.7-0.8S32.6,181.9,33.1,181.9z
								 M33.1,187c0.5,0,0.7,0.3,0.7,0.8c0,0.5-0.2,0.8-0.7,0.8s-0.7-0.3-0.7-0.8C32.4,187.3,32.6,187,33.1,187z"/>
						</g>
						<g>
						</g>
						<g style="enable-background:new    ;">
							<path style="fill:#FFFFFF;" d="M-12,202.8v-1h3.9v1H-12z"/>
							<path style="fill:#FFFFFF;" d="M5.9,205.5v-4.1c0-1-0.5-1.5-1.4-1.5c-1.2,0-1.8,0.8-1.8,2.3v3.3H1.7v-6.4h0.9l0.2,0.9h0.1
								c0.4-0.7,1.1-1,2-1c1.5,0,2.3,0.8,2.3,2.3v4.2H5.9z"/>
							<path style="fill:#FFFFFF;" d="M13.2,205.5l-0.2-0.9h0c-0.3,0.4-0.6,0.6-0.9,0.8s-0.7,0.2-1.2,0.2c-0.6,0-1.1-0.2-1.5-0.5
								s-0.5-0.8-0.5-1.4c0-1.3,1-2,3-2l1.2,0v-0.4c0-0.9-0.5-1.4-1.4-1.4c-0.6,0-1.2,0.2-1.9,0.5l-0.4-0.8c0.8-0.4,1.5-0.6,2.2-0.6
								c0.9,0,1.5,0.2,1.9,0.5s0.6,0.9,0.6,1.6v4.4H13.2z M12.9,202.4l-0.9,0c-0.8,0-1.3,0.2-1.6,0.4s-0.5,0.5-0.5,1
								c0,0.7,0.4,1,1.2,1c0.6,0,1-0.2,1.4-0.5s0.5-0.8,0.5-1.3V202.4z"/>
							<path style="fill:#FFFFFF;" d="M20.9,205.5v-4.1c0-0.6-0.1-1-0.2-1.2s-0.3-0.3-0.5-0.3c-0.3,0-0.6,0.2-0.7,0.5
								s-0.2,0.9-0.2,1.6v3.6h-0.9v-4.1c0-1-0.2-1.5-0.7-1.5c-0.3,0-0.6,0.2-0.7,0.5s-0.2,0.9-0.2,1.9v3.3h-0.9v-6.4h0.7l0.2,0.9
								h0.1c0.3-0.7,0.7-1,1.2-1c0.6,0,1.1,0.4,1.2,1.1h0c0.3-0.7,0.7-1.1,1.3-1.1c0.5,0,0.9,0.2,1.1,0.5s0.3,1,0.3,1.8v4.2H20.9z"
								/>
							<path style="fill:#FFFFFF;" d="M28.8,202.5h-4.5c0,1.5,0.7,2.2,2,2.2c0.8,0,1.5-0.1,2.2-0.4v0.9c-0.6,0.3-1.4,0.4-2.1,0.4
								c-1,0-1.7-0.3-2.3-0.9s-0.9-1.4-0.9-2.4c0-1,0.3-1.9,0.8-2.5s1.2-0.9,2.1-0.9c0.8,0,1.5,0.3,2,0.8s0.7,1.2,0.7,2.1V202.5z
								 M24.2,201.6h3.4c0-1.2-0.5-1.8-1.6-1.8C24.9,199.8,24.4,200.4,24.2,201.6z"/>
							<path style="fill:#FFFFFF;" d="M33.1,198.9c0.5,0,0.7,0.3,0.7,0.8s-0.2,0.8-0.7,0.8s-0.7-0.3-0.7-0.8S32.6,198.9,33.1,198.9z
								 M33.1,204c0.5,0,0.7,0.3,0.7,0.8c0,0.5-0.2,0.8-0.7,0.8s-0.7-0.3-0.7-0.8C32.4,204.3,32.6,204,33.1,204z"/>
							<path style="fill:#FFFFFF;" d="M50.2,199.3l-0.4,0.9c-0.6-0.2-1.1-0.3-1.6-0.3c-1.4,0-2.2,0.8-2.2,2.4c0,1.6,0.7,2.4,2.1,2.4
								c0.6,0,1.2-0.1,1.9-0.4v0.9c-0.5,0.2-1.2,0.4-1.9,0.4c-1,0-1.8-0.3-2.3-0.9s-0.8-1.4-0.8-2.4c0-1.1,0.3-1.9,0.8-2.5
								s1.4-0.9,2.4-0.9C48.9,198.9,49.5,199.1,50.2,199.3z"/>
							<path style="fill:#FFFFFF;" d="M54.3,197.2l-1.6-0.1v-0.7h2.6v8.3l2.1,0.1v0.7h-5.2v-0.7l2-0.1V197.2z"/>
							<path style="fill:#FFFFFF;" d="M61.5,199.9l-1.6-0.1v-0.7h2.6v5.6l2.1,0.1v0.7h-5.1v-0.7l2-0.1V199.9z M62.1,196.4
								c0.4,0,0.6,0.2,0.6,0.7c0,0.2-0.1,0.4-0.2,0.5s-0.3,0.2-0.4,0.2c-0.4,0-0.6-0.2-0.6-0.7C61.4,196.6,61.6,196.4,62.1,196.4z"
								/>
							<path style="fill:#FFFFFF;" d="M72,202.5h-4.5c0,1.5,0.7,2.2,2,2.2c0.8,0,1.5-0.1,2.2-0.4v0.9c-0.6,0.3-1.4,0.4-2.1,0.4
								c-1,0-1.7-0.3-2.3-0.9s-0.9-1.4-0.9-2.4c0-1,0.3-1.9,0.8-2.5s1.2-0.9,2.1-0.9c0.8,0,1.5,0.3,2,0.8s0.7,1.2,0.7,2.1V202.5z
								 M67.5,201.6h3.4c0-1.2-0.5-1.8-1.6-1.8C68.1,199.8,67.6,200.4,67.5,201.6z"/>
							<path style="fill:#FFFFFF;" d="M77.9,205.5v-4.1c0-1-0.5-1.5-1.4-1.5c-1.2,0-1.8,0.8-1.8,2.3v3.3h-1.1v-6.4h0.9l0.2,0.9h0.1
								c0.4-0.7,1.1-1,2-1c1.5,0,2.3,0.8,2.3,2.3v4.2H77.9z"/>
							<path style="fill:#FFFFFF;" d="M85.9,204.6v0.8c-0.5,0.1-1,0.2-1.5,0.2c-1.4,0-2.1-0.7-2.1-2v-3.7h-1.6v-0.6l1.6-0.3l0.5-1.7
								h0.6v1.7H86v0.8h-2.6v3.7c0,0.8,0.4,1.1,1.1,1.1C84.9,204.7,85.4,204.7,85.9,204.6z"/>
						</g>
						<g>
						</g>
						<g style="enable-background:new    ;">
							<path style="fill:#FFFFFF;" d="M-7.5,216.2l-0.3,1c-0.5-0.2-0.9-0.3-1.3-0.3c-0.6,0-1.1,0.2-1.5,0.5s-0.5,0.9-0.5,1.6v3.5
								h-1.1v-6.4h0.9l0.1,1.2h0c0.3-0.5,0.6-0.8,1-1s0.8-0.3,1.3-0.3C-8.4,215.9-7.9,216-7.5,216.2z"/>
							<path style="fill:#FFFFFF;" d="M-1.1,222.5l-0.2-0.9h-0.1c-0.4,0.7-1.1,1-2,1c-1.5,0-2.3-0.8-2.3-2.3v-4.2h1.1v4.1
								c0,1,0.5,1.5,1.4,1.5c0.6,0,1.1-0.2,1.4-0.5s0.4-1,0.4-1.8v-3.3h1.1v6.4H-1.1z"/>
							<path style="fill:#FFFFFF;" d="M5.9,222.5v-4.1c0-1-0.5-1.5-1.4-1.5c-1.2,0-1.8,0.8-1.8,2.3v3.3H1.7v-6.4h0.9l0.2,0.9h0.1
								c0.4-0.7,1.1-1,2-1c1.5,0,2.3,0.8,2.3,2.3v4.2H5.9z"/>
							<path style="fill:#FFFFFF;" d="M15.2,224.4H7.8v-0.8h7.4V224.4z"/>
							<path style="fill:#FFFFFF;" d="M18.3,214.2l-1.6-0.1v-0.7h2.6v8.3l2.1,0.1v0.7h-5.2v-0.7l2-0.1V214.2z"/>
							<path style="fill:#FFFFFF;" d="M25.5,216.9l-1.6-0.1v-0.7h2.6v5.6l2.1,0.1v0.7h-5.1v-0.7l2-0.1V216.9z M26,213.4
								c0.4,0,0.6,0.2,0.6,0.7c0,0.2-0.1,0.4-0.2,0.5s-0.3,0.2-0.4,0.2c-0.4,0-0.6-0.2-0.6-0.7C25.4,213.6,25.6,213.4,26,213.4z"/>
							<path style="fill:#FFFFFF;" d="M30.7,222.2v-1c0.8,0.3,1.5,0.5,2.2,0.5c1.1,0,1.6-0.3,1.6-0.9c0-0.2-0.1-0.4-0.3-0.6
								s-0.6-0.4-1.3-0.6c-0.9-0.3-1.5-0.7-1.7-0.9s-0.4-0.6-0.4-1c0-0.5,0.2-0.9,0.7-1.3s1-0.5,1.8-0.5c0.8,0,1.5,0.1,2.2,0.4
								l-0.4,0.9c-0.7-0.3-1.3-0.4-1.9-0.4c-0.9,0-1.4,0.3-1.4,0.8c0,0.2,0.1,0.4,0.3,0.6c0.2,0.1,0.7,0.3,1.4,0.6
								c0.8,0.3,1.4,0.6,1.6,0.9s0.4,0.6,0.4,1.1c0,0.6-0.2,1-0.7,1.4s-1.1,0.5-1.9,0.5C32,222.6,31.2,222.5,30.7,222.2z"/>
							<path style="fill:#FFFFFF;" d="M42.7,221.6v0.8c-0.5,0.1-1,0.2-1.5,0.2c-1.4,0-2.1-0.7-2.1-2v-3.7h-1.6v-0.6l1.6-0.3l0.5-1.7
								h0.6v1.7h2.6v0.8h-2.6v3.7c0,0.8,0.4,1.1,1.1,1.1C41.7,221.7,42.1,221.7,42.7,221.6z"/>
							<path style="fill:#FFFFFF;" d="M47.5,215.9c0.5,0,0.7,0.3,0.7,0.8s-0.2,0.8-0.7,0.8s-0.7-0.3-0.7-0.8S47,215.9,47.5,215.9z
								 M47.5,221c0.5,0,0.7,0.3,0.7,0.8c0,0.5-0.2,0.8-0.7,0.8s-0.7-0.3-0.7-0.8C46.8,221.3,47,221,47.5,221z"/>
						</g>
						<g>
						</g>
						<g style="enable-background:new    ;">
							<path style="fill:#FFFFFF;" d="M-12,236.8v-1h3.9v1H-12z"/>
							<path style="fill:#FFFFFF;" d="M6.9,233.2l-0.3,1c-0.5-0.2-0.9-0.3-1.3-0.3c-0.6,0-1.1,0.2-1.5,0.5s-0.5,0.9-0.5,1.6v3.5H2.3
								v-6.4h0.9l0.1,1.2h0c0.3-0.5,0.6-0.8,1-1s0.8-0.3,1.3-0.3C6,232.9,6.5,233,6.9,233.2z"/>
							<path style="fill:#FFFFFF;" d="M14.4,236.5H9.8c0,1.5,0.7,2.2,2,2.2c0.8,0,1.5-0.1,2.2-0.4v0.9c-0.6,0.3-1.4,0.4-2.1,0.4
								c-1,0-1.7-0.3-2.3-0.9s-0.9-1.4-0.9-2.4c0-1,0.3-1.9,0.8-2.5s1.2-0.9,2.1-0.9c0.8,0,1.5,0.3,2,0.8s0.7,1.2,0.7,2.1V236.5z
								 M9.8,235.6h3.4c0-1.2-0.5-1.8-1.6-1.8C10.5,233.8,9.9,234.4,9.8,235.6z"/>
							<path style="fill:#FFFFFF;" d="M21.4,233.3l-0.4,0.9c-0.6-0.2-1.1-0.3-1.6-0.3c-1.4,0-2.2,0.8-2.2,2.4c0,1.6,0.7,2.4,2.1,2.4
								c0.6,0,1.2-0.1,1.9-0.4v0.9c-0.5,0.2-1.2,0.4-1.9,0.4c-1,0-1.8-0.3-2.3-0.9s-0.8-1.4-0.8-2.4c0-1.1,0.3-1.9,0.8-2.5
								s1.4-0.9,2.4-0.9C20.1,232.9,20.7,233.1,21.4,233.3z"/>
							<path style="fill:#FFFFFF;" d="M25.5,233.9l-1.6-0.1v-0.7h2.6v5.6l2.1,0.1v0.7h-5.1v-0.7l2-0.1V233.9z M26,230.4
								c0.4,0,0.6,0.2,0.6,0.7c0,0.2-0.1,0.4-0.2,0.5s-0.3,0.2-0.4,0.2c-0.4,0-0.6-0.2-0.6-0.7C25.4,230.6,25.6,230.4,26,230.4z"/>
							<path style="fill:#FFFFFF;" d="M31.5,238.7L31.5,238.7c0,0.5,0,0.8,0,0.9v2.7h-1.1v-9.3h0.9l0.2,0.9h0c0.4-0.7,1.1-1,1.9-1
								c0.8,0,1.4,0.3,1.8,0.9s0.7,1.4,0.7,2.4c0,1.1-0.2,1.9-0.7,2.5s-1.1,0.9-1.8,0.9C32.6,239.6,32,239.3,31.5,238.7z M31.5,236
								v0.2c0,0.9,0.1,1.5,0.4,1.9c0.3,0.4,0.7,0.6,1.3,0.6c1.1,0,1.6-0.8,1.6-2.5c0-1.6-0.5-2.4-1.6-2.4c-0.6,0-1,0.2-1.3,0.5
								C31.7,234.7,31.5,235.3,31.5,236z"/>
							<path style="fill:#FFFFFF;" d="M43.2,236.5h-4.5c0,1.5,0.7,2.2,2,2.2c0.8,0,1.5-0.1,2.2-0.4v0.9c-0.6,0.3-1.4,0.4-2.1,0.4
								c-1,0-1.7-0.3-2.3-0.9s-0.9-1.4-0.9-2.4c0-1,0.3-1.9,0.8-2.5s1.2-0.9,2.1-0.9c0.8,0,1.5,0.3,2,0.8s0.7,1.2,0.7,2.1V236.5z
								 M38.7,235.6H42c0-1.2-0.5-1.8-1.6-1.8C39.3,233.8,38.8,234.4,38.7,235.6z"/>
							<path style="fill:#FFFFFF;" d="M49.5,241.4h-3.1v-10.5h3.1v0.9h-2v8.7h2V241.4z"/>
							<path style="fill:#FFFFFF;" d="M53.1,238.7L53.1,238.7c0,0.5,0,0.8,0,0.9v2.7h-1.1v-9.3h0.9l0.2,0.9h0c0.4-0.7,1.1-1,1.9-1
								c0.8,0,1.4,0.3,1.8,0.9s0.7,1.4,0.7,2.4c0,1.1-0.2,1.9-0.7,2.5s-1.1,0.9-1.8,0.9C54.2,239.6,53.6,239.3,53.1,238.7z
								 M53.1,236v0.2c0,0.9,0.1,1.5,0.4,1.9s0.7,0.6,1.3,0.6c1.1,0,1.6-0.8,1.6-2.5c0-1.6-0.5-2.4-1.6-2.4c-0.6,0-1,0.2-1.3,0.5
								S53.2,235.3,53.1,236z"/>
							<path style="fill:#FFFFFF;" d="M61.9,239.6c-0.8,0-1.5-0.3-2.1-0.9s-0.8-1.4-0.8-2.4c0-1,0.3-1.8,0.8-2.4s1.2-0.9,2.1-0.9
								c0.9,0,1.5,0.3,2.1,0.9c0.5,0.6,0.8,1.4,0.8,2.4c0,1-0.3,1.9-0.8,2.4C63.5,239.3,62.8,239.6,61.9,239.6z M61.9,238.7
								c1.2,0,1.8-0.8,1.8-2.5c0-1.6-0.6-2.4-1.8-2.4c-1.2,0-1.8,0.8-1.8,2.4C60.1,237.9,60.7,238.7,61.9,238.7z"/>
							<path style="fill:#FFFFFF;" d="M66.7,239.2v-1c0.8,0.3,1.5,0.5,2.2,0.5c1.1,0,1.6-0.3,1.6-0.9c0-0.2-0.1-0.4-0.3-0.6
								s-0.6-0.4-1.3-0.6c-0.9-0.3-1.5-0.7-1.7-0.9s-0.4-0.6-0.4-1c0-0.5,0.2-0.9,0.7-1.3s1-0.5,1.8-0.5c0.8,0,1.5,0.1,2.2,0.4
								l-0.4,0.9c-0.7-0.3-1.3-0.4-1.9-0.4c-0.9,0-1.4,0.3-1.4,0.8c0,0.2,0.1,0.4,0.3,0.6s0.7,0.3,1.4,0.6c0.8,0.3,1.4,0.6,1.6,0.9
								s0.4,0.6,0.4,1.1c0,0.6-0.2,1-0.7,1.4s-1.1,0.5-1.9,0.5C68,239.6,67.2,239.5,66.7,239.2z"/>
							<path style="fill:#FFFFFF;" d="M78.7,238.6v0.8c-0.5,0.1-1,0.2-1.5,0.2c-1.4,0-2.1-0.7-2.1-2v-3.7h-1.6v-0.6l1.6-0.3l0.5-1.7
								h0.6v1.7h2.6v0.8h-2.6v3.7c0,0.8,0.4,1.1,1.1,1.1C77.7,238.7,78.1,238.7,78.7,238.6z"/>
							<path style="fill:#FFFFFF;" d="M86.5,233.1v0.7l-1.1,0.2c0.3,0.3,0.4,0.7,0.4,1.2c0,0.6-0.2,1.1-0.6,1.5s-1,0.6-1.7,0.6
								c-0.2,0-0.4,0-0.5,0c-0.4,0.2-0.6,0.5-0.6,0.8c0,0.3,0.3,0.5,0.9,0.5h1.1c0.7,0,1.2,0.2,1.6,0.5s0.5,0.7,0.5,1.3
								c0,1.5-1.1,2.2-3.3,2.2c-0.9,0-1.5-0.2-1.9-0.5s-0.7-0.8-0.7-1.3c0-0.8,0.5-1.4,1.4-1.6c-0.4-0.2-0.6-0.5-0.6-0.9
								c0-0.4,0.3-0.8,0.8-1.1c-0.3-0.1-0.6-0.4-0.8-0.7s-0.3-0.7-0.3-1.1c0-0.7,0.2-1.3,0.6-1.6s1-0.6,1.8-0.6c0.3,0,0.6,0,0.9,0.1
								H86.5z M84,239.4h-1.1c-0.9,0-1.3,0.4-1.3,1.2c0,0.7,0.5,1,1.6,1c1.5,0,2.3-0.4,2.3-1.3c0-0.3-0.1-0.6-0.3-0.7
								S84.6,239.4,84,239.4z M83.4,236.5c0.9,0,1.3-0.4,1.3-1.3c0-0.9-0.4-1.4-1.3-1.4s-1.3,0.5-1.3,1.4
								C82.1,236,82.5,236.5,83.4,236.5z"/>
							<path style="fill:#FFFFFF;" d="M93.4,233.2l-0.3,1c-0.5-0.2-0.9-0.3-1.3-0.3c-0.6,0-1.1,0.2-1.5,0.5s-0.5,0.9-0.5,1.6v3.5
								h-1.1v-6.4h0.9l0.1,1.2h0c0.3-0.5,0.6-0.8,1-1s0.8-0.3,1.3-0.3C92.4,232.9,92.9,233,93.4,233.2z"/>
							<path style="fill:#FFFFFF;" d="M100.8,236.5h-4.5c0,1.5,0.7,2.2,2,2.2c0.8,0,1.5-0.1,2.2-0.4v0.9c-0.6,0.3-1.4,0.4-2.1,0.4
								c-1,0-1.7-0.3-2.3-0.9s-0.9-1.4-0.9-2.4c0-1,0.3-1.9,0.8-2.5s1.2-0.9,2.1-0.9c0.8,0,1.5,0.3,2,0.8s0.7,1.2,0.7,2.1V236.5z
								 M96.3,235.6h3.4c0-1.2-0.5-1.8-1.6-1.8C97,233.8,96.4,234.4,96.3,235.6z"/>
							<path style="fill:#FFFFFF;" d="M102.7,239.2v-1c0.8,0.3,1.5,0.5,2.2,0.5c1.1,0,1.6-0.3,1.6-0.9c0-0.2-0.1-0.4-0.3-0.6
								s-0.6-0.4-1.3-0.6c-0.9-0.3-1.5-0.7-1.7-0.9s-0.4-0.6-0.4-1c0-0.5,0.2-0.9,0.7-1.3s1-0.5,1.8-0.5c0.8,0,1.5,0.1,2.2,0.4
								l-0.4,0.9c-0.7-0.3-1.3-0.4-1.9-0.4c-0.9,0-1.4,0.3-1.4,0.8c0,0.2,0.1,0.4,0.3,0.6s0.7,0.3,1.4,0.6c0.8,0.3,1.4,0.6,1.6,0.9
								s0.4,0.6,0.4,1.1c0,0.6-0.2,1-0.7,1.4s-1.1,0.5-1.9,0.5C104,239.6,103.2,239.5,102.7,239.2z"/>
							<path style="fill:#FFFFFF;" d="M114,233.9L114,233.9l0.2-0.9h0.9v9.3H114v-2.7c0-0.2,0-0.5,0.1-1H114c-0.4,0.7-1.1,1-1.9,1
								c-0.8,0-1.4-0.3-1.8-0.9s-0.7-1.4-0.7-2.4c0-1.1,0.2-1.9,0.7-2.5s1.1-0.9,1.8-0.9C112.9,232.9,113.5,233.3,114,233.9z
								 M114,236.5v-0.2c0-0.9-0.1-1.5-0.4-1.9s-0.7-0.6-1.3-0.6c-1.1,0-1.6,0.8-1.6,2.5c0,1.6,0.5,2.4,1.6,2.4c0.6,0,1-0.2,1.3-0.5
								S113.9,237.3,114,236.5z"/>
							<path style="fill:#FFFFFF;" d="M119.1,231.2l-1.6-0.1v-0.7h2.6v8.3l2.1,0.1v0.7h-5.2v-0.7l2-0.1V231.2z"/>
							<path style="fill:#FFFFFF;" d="M126.8,232.9c0.5,0,0.7,0.3,0.7,0.8s-0.2,0.8-0.7,0.8s-0.7-0.3-0.7-0.8
								S126.3,232.9,126.8,232.9z M126.8,238c0.5,0,0.7,0.3,0.7,0.8c0,0.5-0.2,0.8-0.7,0.8s-0.7-0.3-0.7-0.8
								C126,238.3,126.3,238,126.8,238z"/>
							<path style="fill:#FFFFFF;" d="M134,232.9c0.5,0,0.7,0.3,0.7,0.8s-0.2,0.8-0.7,0.8s-0.7-0.3-0.7-0.8S133.5,232.9,134,232.9z
								 M134,238c0.5,0,0.7,0.3,0.7,0.8c0,0.5-0.2,0.8-0.7,0.8s-0.7-0.3-0.7-0.8C133.2,238.3,133.5,238,134,238z"/>
							<path style="fill:#FFFFFF;" d="M143.8,233.3l-0.4,0.9c-0.6-0.2-1.1-0.3-1.6-0.3c-1.4,0-2.2,0.8-2.2,2.4
								c0,1.6,0.7,2.4,2.1,2.4c0.6,0,1.2-0.1,1.9-0.4v0.9c-0.5,0.2-1.2,0.4-1.9,0.4c-1,0-1.8-0.3-2.3-0.9s-0.8-1.4-0.8-2.4
								c0-1.1,0.3-1.9,0.8-2.5s1.4-0.9,2.4-0.9C142.5,232.9,143.2,233.1,143.8,233.3z"/>
							<path style="fill:#FFFFFF;" d="M147.9,231.2l-1.6-0.1v-0.7h2.6v8.3l2.1,0.1v0.7h-5.2v-0.7l2-0.1V231.2z"/>
							<path style="fill:#FFFFFF;" d="M155.1,233.9l-1.6-0.1v-0.7h2.6v5.6l2.1,0.1v0.7h-5.1v-0.7l2-0.1V233.9z M155.7,230.4
								c0.4,0,0.6,0.2,0.6,0.7c0,0.2-0.1,0.4-0.2,0.5s-0.3,0.2-0.4,0.2c-0.4,0-0.6-0.2-0.6-0.7C155,230.6,155.3,230.4,155.7,230.4z"
								/>
							<path style="fill:#FFFFFF;" d="M165.6,236.5H161c0,1.5,0.7,2.2,2,2.2c0.8,0,1.5-0.1,2.2-0.4v0.9c-0.6,0.3-1.4,0.4-2.1,0.4
								c-1,0-1.7-0.3-2.3-0.9s-0.9-1.4-0.9-2.4c0-1,0.3-1.9,0.8-2.5s1.2-0.9,2.1-0.9c0.8,0,1.5,0.3,2,0.8s0.7,1.2,0.7,2.1V236.5z
								 M161.1,235.6h3.4c0-1.2-0.5-1.8-1.6-1.8C161.8,233.8,161.2,234.4,161.1,235.6z"/>
							<path style="fill:#FFFFFF;" d="M171.6,239.5v-4.1c0-1-0.5-1.5-1.4-1.5c-1.2,0-1.8,0.8-1.8,2.3v3.3h-1.1v-6.4h0.9l0.2,0.9h0.1
								c0.4-0.7,1.1-1,2-1c1.5,0,2.3,0.8,2.3,2.3v4.2H171.6z"/>
							<path style="fill:#FFFFFF;" d="M179.5,238.6v0.8c-0.5,0.1-1,0.2-1.5,0.2c-1.4,0-2.1-0.7-2.1-2v-3.7h-1.6v-0.6l1.6-0.3
								l0.5-1.7h0.6v1.7h2.6v0.8H177v3.7c0,0.8,0.4,1.1,1.1,1.1C178.5,238.7,179,238.7,179.5,238.6z"/>
							<path style="fill:#FFFFFF;" d="M182.5,240.5h2v-8.7h-2v-0.9h3.1v10.5h-3.1V240.5z"/>
						</g>
						<g>
						</g>
						<g style="enable-background:new    ;">
							<path style="fill:#FFFFFF;" d="M-12,253.8v-1h3.9v1H-12z"/>
							<path style="fill:#FFFFFF;" d="M5.9,256.5v-4.1c0-1-0.5-1.5-1.4-1.5c-1.2,0-1.8,0.8-1.8,2.3v3.3H1.7v-6.4h0.9l0.2,0.9h0.1
								c0.4-0.7,1.1-1,2-1c1.5,0,2.3,0.8,2.3,2.3v4.2H5.9z"/>
							<path style="fill:#FFFFFF;" d="M13.2,256.5l-0.2-0.9h0c-0.3,0.4-0.6,0.6-0.9,0.8s-0.7,0.2-1.2,0.2c-0.6,0-1.1-0.2-1.5-0.5
								s-0.5-0.8-0.5-1.4c0-1.3,1-2,3-2l1.2,0v-0.4c0-0.9-0.5-1.4-1.4-1.4c-0.6,0-1.2,0.2-1.9,0.5l-0.4-0.8c0.8-0.4,1.5-0.6,2.2-0.6
								c0.9,0,1.5,0.2,1.9,0.5s0.6,0.9,0.6,1.6v4.4H13.2z M12.9,253.4l-0.9,0c-0.8,0-1.3,0.2-1.6,0.4s-0.5,0.5-0.5,1
								c0,0.7,0.4,1,1.2,1c0.6,0,1-0.2,1.4-0.5s0.5-0.8,0.5-1.3V253.4z"/>
							<path style="fill:#FFFFFF;" d="M20.9,256.5v-4.1c0-0.6-0.1-1-0.2-1.2s-0.3-0.3-0.5-0.3c-0.3,0-0.6,0.2-0.7,0.5
								s-0.2,0.9-0.2,1.6v3.6h-0.9v-4.1c0-1-0.2-1.5-0.7-1.5c-0.3,0-0.6,0.2-0.7,0.5s-0.2,0.9-0.2,1.9v3.3h-0.9v-6.4h0.7l0.2,0.9
								h0.1c0.3-0.7,0.7-1,1.2-1c0.6,0,1.1,0.4,1.2,1.1h0c0.3-0.7,0.7-1.1,1.3-1.1c0.5,0,0.9,0.2,1.1,0.5s0.3,1,0.3,1.8v4.2H20.9z"
								/>
							<path style="fill:#FFFFFF;" d="M28.8,253.5h-4.5c0,1.5,0.7,2.2,2,2.2c0.8,0,1.5-0.1,2.2-0.4v0.9c-0.6,0.3-1.4,0.4-2.1,0.4
								c-1,0-1.7-0.3-2.3-0.9s-0.9-1.4-0.9-2.4c0-1,0.3-1.9,0.8-2.5s1.2-0.9,2.1-0.9c0.8,0,1.5,0.3,2,0.8s0.7,1.2,0.7,2.1V253.5z
								 M24.2,252.6h3.4c0-1.2-0.5-1.8-1.6-1.8C24.9,250.8,24.4,251.4,24.2,252.6z"/>
							<path style="fill:#FFFFFF;" d="M33.1,249.9c0.5,0,0.7,0.3,0.7,0.8s-0.2,0.8-0.7,0.8s-0.7-0.3-0.7-0.8S32.6,249.9,33.1,249.9z
								 M33.1,255c0.5,0,0.7,0.3,0.7,0.8c0,0.5-0.2,0.8-0.7,0.8s-0.7-0.3-0.7-0.8C32.4,255.3,32.6,255,33.1,255z"/>
							<path style="fill:#FFFFFF;" d="M45.1,256.2v-1c0.8,0.3,1.5,0.5,2.2,0.5c1.1,0,1.6-0.3,1.6-0.9c0-0.2-0.1-0.4-0.3-0.6
								s-0.6-0.4-1.3-0.6c-0.9-0.3-1.5-0.7-1.7-0.9s-0.4-0.6-0.4-1c0-0.5,0.2-0.9,0.7-1.3s1-0.5,1.8-0.5c0.8,0,1.5,0.1,2.2,0.4
								l-0.4,0.9c-0.7-0.3-1.3-0.4-1.9-0.4c-0.9,0-1.4,0.3-1.4,0.8c0,0.2,0.1,0.4,0.3,0.6s0.7,0.3,1.4,0.6c0.8,0.3,1.4,0.6,1.6,0.9
								s0.4,0.6,0.4,1.1c0,0.6-0.2,1-0.7,1.4s-1.1,0.5-1.9,0.5C46.4,256.6,45.6,256.5,45.1,256.2z"/>
							<path style="fill:#FFFFFF;" d="M57.6,253.5H53c0,1.5,0.7,2.2,2,2.2c0.8,0,1.5-0.1,2.2-0.4v0.9c-0.6,0.3-1.4,0.4-2.1,0.4
								c-1,0-1.7-0.3-2.3-0.9s-0.9-1.4-0.9-2.4c0-1,0.3-1.9,0.8-2.5s1.2-0.9,2.1-0.9c0.8,0,1.5,0.3,2,0.8s0.7,1.2,0.7,2.1V253.5z
								 M53.1,252.6h3.4c0-1.2-0.5-1.8-1.6-1.8C53.7,250.8,53.2,251.4,53.1,252.6z"/>
							<path style="fill:#FFFFFF;" d="M64.6,250.2l-0.3,1c-0.5-0.2-0.9-0.3-1.3-0.3c-0.6,0-1.1,0.2-1.5,0.5S61,252.3,61,253v3.5
								h-1.1v-6.4h0.9l0.1,1.2h0c0.3-0.5,0.6-0.8,1-1s0.8-0.3,1.3-0.3C63.6,249.9,64.1,250,64.6,250.2z"/>
							<path style="fill:#FFFFFF;" d="M68.5,256.5l-2.4-6.4h1.1l1.4,3.8c0.3,0.9,0.5,1.5,0.6,1.9h0c0-0.2,0.2-0.8,0.6-1.9l1.4-3.8
								h1.1l-2.4,6.4H68.5z"/>
							<path style="fill:#FFFFFF;" d="M79.2,253.5h-4.5c0,1.5,0.7,2.2,2,2.2c0.8,0,1.5-0.1,2.2-0.4v0.9c-0.6,0.3-1.4,0.4-2.1,0.4
								c-1,0-1.7-0.3-2.3-0.9s-0.9-1.4-0.9-2.4c0-1,0.3-1.9,0.8-2.5s1.2-0.9,2.1-0.9c0.8,0,1.5,0.3,2,0.8s0.7,1.2,0.7,2.1V253.5z
								 M74.7,252.6H78c0-1.2-0.5-1.8-1.6-1.8C75.3,250.8,74.8,251.4,74.7,252.6z"/>
							<path style="fill:#FFFFFF;" d="M86.2,250.2l-0.3,1c-0.5-0.2-0.9-0.3-1.3-0.3c-0.6,0-1.1,0.2-1.5,0.5s-0.5,0.9-0.5,1.6v3.5
								h-1.1v-6.4h0.9l0.1,1.2h0c0.3-0.5,0.6-0.8,1-1s0.8-0.3,1.3-0.3C85.2,249.9,85.7,250,86.2,250.2z"/>
						</g>
						<g>
						</g>
						<g style="enable-background:new    ;">
							<path style="fill:#FFFFFF;" d="M-7.5,267.2l-0.3,1c-0.5-0.2-0.9-0.3-1.3-0.3c-0.6,0-1.1,0.2-1.5,0.5s-0.5,0.9-0.5,1.6v3.5
								h-1.1v-6.4h0.9l0.1,1.2h0c0.3-0.5,0.6-0.8,1-1s0.8-0.3,1.3-0.3C-8.4,266.9-7.9,267-7.5,267.2z"/>
							<path style="fill:#FFFFFF;" d="M-1.1,273.5l-0.2-0.9h-0.1c-0.4,0.7-1.1,1-2,1c-1.5,0-2.3-0.8-2.3-2.3v-4.2h1.1v4.1
								c0,1,0.5,1.5,1.4,1.5c0.6,0,1.1-0.2,1.4-0.5s0.4-1,0.4-1.8v-3.3h1.1v6.4H-1.1z"/>
							<path style="fill:#FFFFFF;" d="M5.9,273.5v-4.1c0-1-0.5-1.5-1.4-1.5c-1.2,0-1.8,0.8-1.8,2.3v3.3H1.7v-6.4h0.9l0.2,0.9h0.1
								c0.4-0.7,1.1-1,2-1c1.5,0,2.3,0.8,2.3,2.3v4.2H5.9z"/>
							<path style="fill:#FFFFFF;" d="M15.2,275.4H7.8v-0.8h7.4V275.4z"/>
							<path style="fill:#FFFFFF;" d="M18.3,265.2l-1.6-0.1v-0.7h2.6v8.3l2.1,0.1v0.7h-5.2v-0.7l2-0.1V265.2z"/>
							<path style="fill:#FFFFFF;" d="M25.5,267.9l-1.6-0.1v-0.7h2.6v5.6l2.1,0.1v0.7h-5.1v-0.7l2-0.1V267.9z M26,264.4
								c0.4,0,0.6,0.2,0.6,0.7c0,0.2-0.1,0.4-0.2,0.5s-0.3,0.2-0.4,0.2c-0.4,0-0.6-0.2-0.6-0.7C25.4,264.6,25.6,264.4,26,264.4z"/>
							<path style="fill:#FFFFFF;" d="M30.7,273.2v-1c0.8,0.3,1.5,0.5,2.2,0.5c1.1,0,1.6-0.3,1.6-0.9c0-0.2-0.1-0.4-0.3-0.6
								s-0.6-0.4-1.3-0.6c-0.9-0.3-1.5-0.7-1.7-0.9s-0.4-0.6-0.4-1c0-0.5,0.2-0.9,0.7-1.3s1-0.5,1.8-0.5c0.8,0,1.5,0.1,2.2,0.4
								l-0.4,0.9c-0.7-0.3-1.3-0.4-1.9-0.4c-0.9,0-1.4,0.3-1.4,0.8c0,0.2,0.1,0.4,0.3,0.6c0.2,0.1,0.7,0.3,1.4,0.6
								c0.8,0.3,1.4,0.6,1.6,0.9s0.4,0.6,0.4,1.1c0,0.6-0.2,1-0.7,1.4s-1.1,0.5-1.9,0.5C32,273.6,31.2,273.5,30.7,273.2z"/>
							<path style="fill:#FFFFFF;" d="M42.7,272.6v0.8c-0.5,0.1-1,0.2-1.5,0.2c-1.4,0-2.1-0.7-2.1-2v-3.7h-1.6v-0.6l1.6-0.3l0.5-1.7
								h0.6v1.7h2.6v0.8h-2.6v3.7c0,0.8,0.4,1.1,1.1,1.1C41.7,272.7,42.1,272.7,42.7,272.6z"/>
							<path style="fill:#FFFFFF;" d="M47.5,266.9c0.5,0,0.7,0.3,0.7,0.8s-0.2,0.8-0.7,0.8s-0.7-0.3-0.7-0.8S47,266.9,47.5,266.9z
								 M47.5,272c0.5,0,0.7,0.3,0.7,0.8c0,0.5-0.2,0.8-0.7,0.8s-0.7-0.3-0.7-0.8C46.8,272.3,47,272,47.5,272z"/>
						</g>
						<g>
						</g>
						<g style="enable-background:new    ;">
							<path style="fill:#FFFFFF;" d="M-12,287.8v-1h3.9v1H-12z"/>
							<path style="fill:#FFFFFF;" d="M6.9,284.2l-0.3,1c-0.5-0.2-0.9-0.3-1.3-0.3c-0.6,0-1.1,0.2-1.5,0.5s-0.5,0.9-0.5,1.6v3.5H2.3
								v-6.4h0.9l0.1,1.2h0c0.3-0.5,0.6-0.8,1-1s0.8-0.3,1.3-0.3C6,283.9,6.5,284,6.9,284.2z"/>
							<path style="fill:#FFFFFF;" d="M14.4,287.5H9.8c0,1.5,0.7,2.2,2,2.2c0.8,0,1.5-0.1,2.2-0.4v0.9c-0.6,0.3-1.4,0.4-2.1,0.4
								c-1,0-1.7-0.3-2.3-0.9s-0.9-1.4-0.9-2.4c0-1,0.3-1.9,0.8-2.5s1.2-0.9,2.1-0.9c0.8,0,1.5,0.3,2,0.8s0.7,1.2,0.7,2.1V287.5z
								 M9.8,286.6h3.4c0-1.2-0.5-1.8-1.6-1.8C10.5,284.8,9.9,285.4,9.8,286.6z"/>
							<path style="fill:#FFFFFF;" d="M21.4,284.3l-0.4,0.9c-0.6-0.2-1.1-0.3-1.6-0.3c-1.4,0-2.2,0.8-2.2,2.4c0,1.6,0.7,2.4,2.1,2.4
								c0.6,0,1.2-0.1,1.9-0.4v0.9c-0.5,0.2-1.2,0.4-1.9,0.4c-1,0-1.8-0.3-2.3-0.9s-0.8-1.4-0.8-2.4c0-1.1,0.3-1.9,0.8-2.5
								s1.4-0.9,2.4-0.9C20.1,283.9,20.7,284.1,21.4,284.3z"/>
							<path style="fill:#FFFFFF;" d="M25.5,284.9l-1.6-0.1v-0.7h2.6v5.6l2.1,0.1v0.7h-5.1v-0.7l2-0.1V284.9z M26,281.4
								c0.4,0,0.6,0.2,0.6,0.7c0,0.2-0.1,0.4-0.2,0.5s-0.3,0.2-0.4,0.2c-0.4,0-0.6-0.2-0.6-0.7C25.4,281.6,25.6,281.4,26,281.4z"/>
							<path style="fill:#FFFFFF;" d="M31.5,289.7L31.5,289.7c0,0.5,0,0.8,0,0.9v2.7h-1.1v-9.3h0.9l0.2,0.9h0c0.4-0.7,1.1-1,1.9-1
								c0.8,0,1.4,0.3,1.8,0.9s0.7,1.4,0.7,2.4c0,1.1-0.2,1.9-0.7,2.5s-1.1,0.9-1.8,0.9C32.6,290.6,32,290.3,31.5,289.7z M31.5,287
								v0.2c0,0.9,0.1,1.5,0.4,1.9c0.3,0.4,0.7,0.6,1.3,0.6c1.1,0,1.6-0.8,1.6-2.5c0-1.6-0.5-2.4-1.6-2.4c-0.6,0-1,0.2-1.3,0.5
								C31.7,285.7,31.5,286.3,31.5,287z"/>
							<path style="fill:#FFFFFF;" d="M43.2,287.5h-4.5c0,1.5,0.7,2.2,2,2.2c0.8,0,1.5-0.1,2.2-0.4v0.9c-0.6,0.3-1.4,0.4-2.1,0.4
								c-1,0-1.7-0.3-2.3-0.9s-0.9-1.4-0.9-2.4c0-1,0.3-1.9,0.8-2.5s1.2-0.9,2.1-0.9c0.8,0,1.5,0.3,2,0.8s0.7,1.2,0.7,2.1V287.5z
								 M38.7,286.6H42c0-1.2-0.5-1.8-1.6-1.8C39.3,284.8,38.8,285.4,38.7,286.6z"/>
							<path style="fill:#FFFFFF;" d="M49.5,292.4h-3.1v-10.5h3.1v0.9h-2v8.7h2V292.4z"/>
							<path style="fill:#FFFFFF;" d="M53.1,289.7L53.1,289.7c0,0.5,0,0.8,0,0.9v2.7h-1.1v-9.3h0.9l0.2,0.9h0c0.4-0.7,1.1-1,1.9-1
								c0.8,0,1.4,0.3,1.8,0.9s0.7,1.4,0.7,2.4c0,1.1-0.2,1.9-0.7,2.5s-1.1,0.9-1.8,0.9C54.2,290.6,53.6,290.3,53.1,289.7z
								 M53.1,287v0.2c0,0.9,0.1,1.5,0.4,1.9s0.7,0.6,1.3,0.6c1.1,0,1.6-0.8,1.6-2.5c0-1.6-0.5-2.4-1.6-2.4c-0.6,0-1,0.2-1.3,0.5
								S53.2,286.3,53.1,287z"/>
							<path style="fill:#FFFFFF;" d="M61.9,290.6c-0.8,0-1.5-0.3-2.1-0.9s-0.8-1.4-0.8-2.4c0-1,0.3-1.8,0.8-2.4s1.2-0.9,2.1-0.9
								c0.9,0,1.5,0.3,2.1,0.9c0.5,0.6,0.8,1.4,0.8,2.4c0,1-0.3,1.9-0.8,2.4C63.5,290.3,62.8,290.6,61.9,290.6z M61.9,289.7
								c1.2,0,1.8-0.8,1.8-2.5c0-1.6-0.6-2.4-1.8-2.4c-1.2,0-1.8,0.8-1.8,2.4C60.1,288.9,60.7,289.7,61.9,289.7z"/>
							<path style="fill:#FFFFFF;" d="M66.7,290.2v-1c0.8,0.3,1.5,0.5,2.2,0.5c1.1,0,1.6-0.3,1.6-0.9c0-0.2-0.1-0.4-0.3-0.6
								s-0.6-0.4-1.3-0.6c-0.9-0.3-1.5-0.7-1.7-0.9s-0.4-0.6-0.4-1c0-0.5,0.2-0.9,0.7-1.3s1-0.5,1.8-0.5c0.8,0,1.5,0.1,2.2,0.4
								l-0.4,0.9c-0.7-0.3-1.3-0.4-1.9-0.4c-0.9,0-1.4,0.3-1.4,0.8c0,0.2,0.1,0.4,0.3,0.6s0.7,0.3,1.4,0.6c0.8,0.3,1.4,0.6,1.6,0.9
								s0.4,0.6,0.4,1.1c0,0.6-0.2,1-0.7,1.4s-1.1,0.5-1.9,0.5C68,290.6,67.2,290.5,66.7,290.2z"/>
							<path style="fill:#FFFFFF;" d="M78.7,289.6v0.8c-0.5,0.1-1,0.2-1.5,0.2c-1.4,0-2.1-0.7-2.1-2v-3.7h-1.6v-0.6l1.6-0.3l0.5-1.7
								h0.6v1.7h2.6v0.8h-2.6v3.7c0,0.8,0.4,1.1,1.1,1.1C77.7,289.7,78.1,289.7,78.7,289.6z"/>
							<path style="fill:#FFFFFF;" d="M86.5,284.1v0.7l-1.1,0.2c0.3,0.3,0.4,0.7,0.4,1.2c0,0.6-0.2,1.1-0.6,1.5s-1,0.6-1.7,0.6
								c-0.2,0-0.4,0-0.5,0c-0.4,0.2-0.6,0.5-0.6,0.8c0,0.3,0.3,0.5,0.9,0.5h1.1c0.7,0,1.2,0.2,1.6,0.5s0.5,0.7,0.5,1.3
								c0,1.5-1.1,2.2-3.3,2.2c-0.9,0-1.5-0.2-1.9-0.5s-0.7-0.8-0.7-1.3c0-0.8,0.5-1.4,1.4-1.6c-0.4-0.2-0.6-0.5-0.6-0.9
								c0-0.4,0.3-0.8,0.8-1.1c-0.3-0.1-0.6-0.4-0.8-0.7s-0.3-0.7-0.3-1.1c0-0.7,0.2-1.3,0.6-1.6s1-0.6,1.8-0.6c0.3,0,0.6,0,0.9,0.1
								H86.5z M84,290.4h-1.1c-0.9,0-1.3,0.4-1.3,1.2c0,0.7,0.5,1,1.6,1c1.5,0,2.3-0.4,2.3-1.3c0-0.3-0.1-0.6-0.3-0.7
								S84.6,290.4,84,290.4z M83.4,287.5c0.9,0,1.3-0.4,1.3-1.3c0-0.9-0.4-1.4-1.3-1.4s-1.3,0.5-1.3,1.4
								C82.1,287,82.5,287.5,83.4,287.5z"/>
							<path style="fill:#FFFFFF;" d="M93.4,284.2l-0.3,1c-0.5-0.2-0.9-0.3-1.3-0.3c-0.6,0-1.1,0.2-1.5,0.5s-0.5,0.9-0.5,1.6v3.5
								h-1.1v-6.4h0.9l0.1,1.2h0c0.3-0.5,0.6-0.8,1-1s0.8-0.3,1.3-0.3C92.4,283.9,92.9,284,93.4,284.2z"/>
							<path style="fill:#FFFFFF;" d="M100.8,287.5h-4.5c0,1.5,0.7,2.2,2,2.2c0.8,0,1.5-0.1,2.2-0.4v0.9c-0.6,0.3-1.4,0.4-2.1,0.4
								c-1,0-1.7-0.3-2.3-0.9s-0.9-1.4-0.9-2.4c0-1,0.3-1.9,0.8-2.5s1.2-0.9,2.1-0.9c0.8,0,1.5,0.3,2,0.8s0.7,1.2,0.7,2.1V287.5z
								 M96.3,286.6h3.4c0-1.2-0.5-1.8-1.6-1.8C97,284.8,96.4,285.4,96.3,286.6z"/>
							<path style="fill:#FFFFFF;" d="M102.7,290.2v-1c0.8,0.3,1.5,0.5,2.2,0.5c1.1,0,1.6-0.3,1.6-0.9c0-0.2-0.1-0.4-0.3-0.6
								s-0.6-0.4-1.3-0.6c-0.9-0.3-1.5-0.7-1.7-0.9s-0.4-0.6-0.4-1c0-0.5,0.2-0.9,0.7-1.3s1-0.5,1.8-0.5c0.8,0,1.5,0.1,2.2,0.4
								l-0.4,0.9c-0.7-0.3-1.3-0.4-1.9-0.4c-0.9,0-1.4,0.3-1.4,0.8c0,0.2,0.1,0.4,0.3,0.6s0.7,0.3,1.4,0.6c0.8,0.3,1.4,0.6,1.6,0.9
								s0.4,0.6,0.4,1.1c0,0.6-0.2,1-0.7,1.4s-1.1,0.5-1.9,0.5C104,290.6,103.2,290.5,102.7,290.2z"/>
							<path style="fill:#FFFFFF;" d="M114,284.9L114,284.9l0.2-0.9h0.9v9.3H114v-2.7c0-0.2,0-0.5,0.1-1H114c-0.4,0.7-1.1,1-1.9,1
								c-0.8,0-1.4-0.3-1.8-0.9s-0.7-1.4-0.7-2.4c0-1.1,0.2-1.9,0.7-2.5s1.1-0.9,1.8-0.9C112.9,283.9,113.5,284.3,114,284.9z
								 M114,287.5v-0.2c0-0.9-0.1-1.5-0.4-1.9s-0.7-0.6-1.3-0.6c-1.1,0-1.6,0.8-1.6,2.5c0,1.6,0.5,2.4,1.6,2.4c0.6,0,1-0.2,1.3-0.5
								S113.9,288.3,114,287.5z"/>
							<path style="fill:#FFFFFF;" d="M119.1,282.2l-1.6-0.1v-0.7h2.6v8.3l2.1,0.1v0.7h-5.2v-0.7l2-0.1V282.2z"/>
							<path style="fill:#FFFFFF;" d="M126.8,283.9c0.5,0,0.7,0.3,0.7,0.8s-0.2,0.8-0.7,0.8s-0.7-0.3-0.7-0.8
								S126.3,283.9,126.8,283.9z M126.8,289c0.5,0,0.7,0.3,0.7,0.8c0,0.5-0.2,0.8-0.7,0.8s-0.7-0.3-0.7-0.8
								C126,289.3,126.3,289,126.8,289z"/>
							<path style="fill:#FFFFFF;" d="M134,283.9c0.5,0,0.7,0.3,0.7,0.8s-0.2,0.8-0.7,0.8s-0.7-0.3-0.7-0.8S133.5,283.9,134,283.9z
								 M134,289c0.5,0,0.7,0.3,0.7,0.8c0,0.5-0.2,0.8-0.7,0.8s-0.7-0.3-0.7-0.8C133.2,289.3,133.5,289,134,289z"/>
							<path style="fill:#FFFFFF;" d="M138.7,290.2v-1c0.8,0.3,1.5,0.5,2.2,0.5c1.1,0,1.6-0.3,1.6-0.9c0-0.2-0.1-0.4-0.3-0.6
								s-0.6-0.4-1.3-0.6c-0.9-0.3-1.5-0.7-1.7-0.9s-0.4-0.6-0.4-1c0-0.5,0.2-0.9,0.7-1.3s1-0.5,1.8-0.5c0.8,0,1.5,0.1,2.2,0.4
								l-0.4,0.9c-0.7-0.3-1.3-0.4-1.9-0.4c-0.9,0-1.4,0.3-1.4,0.8c0,0.2,0.1,0.4,0.3,0.6s0.7,0.3,1.4,0.6c0.8,0.3,1.4,0.6,1.6,0.9
								s0.4,0.6,0.4,1.1c0,0.6-0.2,1-0.7,1.4s-1.1,0.5-1.9,0.5C140,290.6,139.2,290.5,138.7,290.2z"/>
							<path style="fill:#FFFFFF;" d="M151.2,287.5h-4.5c0,1.5,0.7,2.2,2,2.2c0.8,0,1.5-0.1,2.2-0.4v0.9c-0.6,0.3-1.4,0.4-2.1,0.4
								c-1,0-1.7-0.3-2.3-0.9s-0.9-1.4-0.9-2.4c0-1,0.3-1.9,0.8-2.5s1.2-0.9,2.1-0.9c0.8,0,1.5,0.3,2,0.8s0.7,1.2,0.7,2.1V287.5z
								 M146.7,286.6h3.4c0-1.2-0.5-1.8-1.6-1.8C147.4,284.8,146.8,285.4,146.7,286.6z"/>
							<path style="fill:#FFFFFF;" d="M158.2,284.2l-0.3,1c-0.5-0.2-0.9-0.3-1.3-0.3c-0.6,0-1.1,0.2-1.5,0.5s-0.5,0.9-0.5,1.6v3.5
								h-1.1v-6.4h0.9l0.1,1.2h0c0.3-0.5,0.6-0.8,1-1s0.8-0.3,1.3-0.3C157.2,283.9,157.7,284,158.2,284.2z"/>
							<path style="fill:#FFFFFF;" d="M162.1,290.5l-2.4-6.4h1.1l1.4,3.8c0.3,0.9,0.5,1.5,0.6,1.9h0c0-0.2,0.2-0.8,0.6-1.9l1.4-3.8
								h1.1l-2.4,6.4H162.1z"/>
							<path style="fill:#FFFFFF;" d="M172.8,287.5h-4.5c0,1.5,0.7,2.2,2,2.2c0.8,0,1.5-0.1,2.2-0.4v0.9c-0.6,0.3-1.4,0.4-2.1,0.4
								c-1,0-1.7-0.3-2.3-0.9s-0.9-1.4-0.9-2.4c0-1,0.3-1.9,0.8-2.5s1.2-0.9,2.1-0.9c0.8,0,1.5,0.3,2,0.8s0.7,1.2,0.7,2.1V287.5z
								 M168.3,286.6h3.4c0-1.2-0.5-1.8-1.6-1.8C169,284.8,168.4,285.4,168.3,286.6z"/>
							<path style="fill:#FFFFFF;" d="M179.8,284.2l-0.3,1c-0.5-0.2-0.9-0.3-1.3-0.3c-0.6,0-1.1,0.2-1.5,0.5s-0.5,0.9-0.5,1.6v3.5
								h-1.1v-6.4h0.9l0.1,1.2h0c0.3-0.5,0.6-0.8,1-1s0.8-0.3,1.3-0.3C178.8,283.9,179.3,284,179.8,284.2z"/>
							<path style="fill:#FFFFFF;" d="M182.5,291.5h2v-8.7h-2v-0.9h3.1v10.5h-3.1V291.5z"/>
						</g>
					</g>
				</g>
			</g>
		</g>
	</g>
</g>
</svg>
